<?xml version="1.0" standalone="no"?>
<!DOCTYPE svg PUBLIC "-//W3C//DTD SVG 1.1//EN" "http://www.w3.org/Graphics/SVG/1.1/DTD/svg11.dtd" >
<svg xmlns="http://www.w3.org/2000/svg" xmlns:xlink="http://www.w3.org/1999/xlink" version="1.1">
<metadata></metadata>
<defs>
<font id="frygialight_italic" horiz-adv-x="1101" >
<font-face units-per-em="2048" ascent="1536" descent="-512" />
<missing-glyph horiz-adv-x="464" />
<glyph unicode="&#xfb01;" horiz-adv-x="1112" d="M918 1307q-92 18 -201 18q-161 0 -220.5 -52.5t-74.5 -199.5l-8 -86h524q35 0 45.5 -4.5t9.5 -19.5l-98 -940q-1 -17 -12.5 -21t-46.5 -4q-38 0 -48 4t-10 21l92 866h-467l-90 -866q-1 -17 -12 -21t-47 -4t-45.5 4t-9.5 21l92 866h-154q-12 0 -14.5 9t0.5 38 q2 30 6.5 39.5t17.5 9.5l154 2l10 92q19 188 112 268t298 80q121 0 219 -24q12 -5 14 -14t-6 -39q-7 -30 -13 -38t-17 -5z" />
<glyph unicode="&#xfb02;" horiz-adv-x="1134" d="M422 1073l-8 -86h229q13 0 15.5 -10t-1.5 -39q-2 -30 -6.5 -39.5t-17.5 -9.5h-230l-90 -866q-1 -17 -12 -21t-47 -4t-45.5 4t-9.5 21l92 866h-154q-12 0 -14.5 9t0.5 38q2 30 6.5 39.5t17.5 9.5l154 2l10 92q19 188 112 268t300 80q176 0 289 -34q24 -8 24 -33 l-121 -1151q-6 -61 10.5 -83t71.5 -22h33q14 0 17.5 -10.5t-0.5 -42.5q-3 -32 -7.5 -41.5t-17.5 -9.5h-41q-114 0 -154.5 44t-29.5 153l118 1112q-90 16 -196 16q-161 0 -221.5 -52.5t-75.5 -199.5z" />
<glyph unicode="&#xfb03;" horiz-adv-x="1705" d="M895 987l10 92q19 188 111 268t299 80q121 0 219 -24q12 -5 14 -14t-6 -39q-7 -30 -14 -38t-19 -5q-88 18 -198 18q-161 0 -220.5 -52.5t-74.5 -199.5l-8 -86h522q37 0 47.5 -4.5t9.5 -19.5l-98 -940q-1 -17 -13 -21t-49 -4q-36 0 -45.5 4t-9.5 21l92 866h-467l-90 -866 q-1 -17 -12 -21t-47 -4t-45.5 4t-9.5 21l92 866h-482l-90 -866q-1 -17 -12 -21t-47 -4t-45.5 4t-9.5 21l92 866h-154q-12 0 -14.5 9t0.5 38q2 30 6.5 39.5t17.5 9.5l154 2l14 129q18 162 85 234.5t210 72.5q102 0 168 -28q11 -6 10 -17.5t-14 -38.5q-13 -25 -21.5 -31 t-19.5 -3q-43 18 -121 18q-92 0 -133 -48.5t-53 -164.5l-12 -123h481z" />
<glyph unicode="&#xfb04;" horiz-adv-x="1728" d="M895 987l10 92q19 188 112 268t300 80q176 0 289 -34q24 -8 24 -33l-121 -1151q-8 -61 9 -83t73 -22h33q14 0 17 -10.5t-1 -42.5q-3 -32 -7 -41.5t-17 -9.5h-43q-113 0 -153 44.5t-29 152.5l118 1112q-90 16 -196 16q-161 0 -221.5 -52.5t-75.5 -199.5l-8 -86h229 q13 0 15.5 -10t-1.5 -39q-3 -31 -7 -40t-17 -9h-230l-90 -866q-1 -17 -12 -21t-47 -4t-45.5 4t-9.5 21l92 866h-482l-90 -866q-1 -17 -12 -21t-47 -4t-45.5 4t-9.5 21l92 866h-154q-12 0 -14.5 9t0.5 38q2 30 6.5 39.5t17.5 9.5l154 2l14 129q18 162 85 234.5t210 72.5 q102 0 168 -28q11 -6 10 -17.5t-14 -38.5q-13 -25 -21.5 -31t-19.5 -3q-43 18 -121 18q-92 0 -133 -48.5t-53 -164.5l-12 -123h481z" />
<glyph horiz-adv-x="0" />
<glyph horiz-adv-x="682" />
<glyph unicode=" "  horiz-adv-x="464" />
<glyph unicode="&#x09;" horiz-adv-x="464" />
<glyph unicode="&#xa0;" horiz-adv-x="464" />
<glyph unicode="!" horiz-adv-x="542" d="M268 383q-29 0 -37 5.5t-6 19.5l74 921q1 17 16 23t54 6q42 0 56.5 -6t10.5 -23l-119 -921q-2 -15 -10.5 -20t-38.5 -5zM229 -2q-46 0 -59 6t-12 29l14 143q1 24 16 29.5t62 5.5t61 -5.5t11 -29.5l-15 -143q-1 -22 -17 -28.5t-61 -6.5z" />
<glyph unicode="&#x22;" horiz-adv-x="714" d="M211 948l35 445q2 15 12 19.5t45 4.5t45.5 -4.5t9.5 -19.5l-59 -445q-1 -14 -10 -18t-35 -4q-27 0 -35.5 4t-7.5 18zM528 946l35 445q2 15 12.5 19.5t45.5 4.5t45.5 -4.5t9.5 -19.5l-60 -445q-1 -14 -10 -18t-35 -4q-27 0 -35.5 4t-7.5 18z" />
<glyph unicode="#" horiz-adv-x="1204" d="M623 18l106 359h-352l-107 -359q-3 -13 -13 -16.5t-40 -3.5t-38 3.5t-5 16.5l107 359h-177q-10 0 -13 8.5t-1 32.5q3 24 8 33.5t15 9.5h192l105 350h-177q-11 0 -13.5 8t-0.5 33q3 26 7 34.5t16 8.5h192l107 358q3 13 13 17t40 4t38 -4t5 -17l-107 -358h353l106 358 q3 13 13 17t40 4t37.5 -4t3.5 -17l-106 -358h176q10 0 12.5 -9t-0.5 -34q-2 -24 -6 -32.5t-14 -8.5h-193l-104 -350h176q11 0 13.5 -8.5t0.5 -34.5q-3 -24 -7.5 -32.5t-14.5 -8.5h-193l-106 -359q-3 -13 -13 -16.5t-40 -3.5t-37 3.5t-4 16.5zM506 811l-105 -350h353l104 350 h-352z" />
<glyph unicode="$" horiz-adv-x="1167" d="M530 -186q-37 0 -46.5 4.5t-8.5 21.5l14 146q-191 11 -288 95.5t-80 252.5q2 15 12.5 19.5t46.5 4.5t46 -4.5t10 -19.5q-12 -121 56 -181t216 -69l59 561q-83 23 -141.5 49t-109 65.5t-76 96.5t-25.5 131q0 370 422 383l14 146q1 17 12 21.5t48 4.5q38 0 47.5 -4.5 t9.5 -21.5l-16 -150q164 -13 242.5 -92.5t64.5 -245.5q0 -14 -12 -19t-48 -5q-35 0 -44 5t-9 19q10 117 -41 173t-174 65l-57 -535q76 -23 128 -43.5t98.5 -48.5t73 -61t41.5 -78.5t15 -104.5q0 -195 -110 -296.5t-316 -112.5l-14 -146q-1 -17 -11.5 -21.5t-48.5 -4.5z M913 389q0 95 -58 144.5t-191 87.5l-58 -537q307 21 307 305zM332 993q0 -51 16 -88t51.5 -63.5t76 -44t104.5 -37.5l53 510q-69 -2 -120.5 -16.5t-94 -45t-64.5 -84.5t-22 -131z" />
<glyph unicode="%" horiz-adv-x="1572" d="M487 1366q246 0 246 -250q0 -74 -15.5 -138.5t-49.5 -120t-95 -88t-143 -32.5q-244 0 -244 248q0 59 9 111.5t31 102.5t55 86.5t86 58.5t120 22zM434 819q57 0 98 24t63 67t32 92.5t10 109.5q0 90 -36.5 131t-117.5 41q-57 0 -98.5 -25t-63 -69t-31 -93t-9.5 -108 q0 -89 36 -129.5t117 -40.5zM1327 1335l-921 -1317q-9 -13 -21 -16.5t-45 -3.5q-19 0 -28 2.5t-10 7.5t3 12l922 1317q9 13 21 17t44 4q49 -1 35 -23zM1202 618q125 0 184.5 -61.5t59.5 -187.5q0 -74 -15.5 -138.5t-49 -120t-94.5 -88t-144 -32.5q-124 0 -184 61.5 t-60 186.5q0 74 15.5 138.5t49 120.5t94.5 88.5t144 32.5zM1147 72q57 0 98 24t63 67t32 92.5t10 109.5q0 89 -36.5 130.5t-115.5 41.5q-58 0 -100 -25.5t-64 -69.5t-31.5 -93t-9.5 -107q0 -89 37 -129.5t117 -40.5z" />
<glyph unicode="&#x26;" horiz-adv-x="1390" d="M1249 102q10 4 17.5 -5t13.5 -31q5 -28 3 -38t-13 -16q-53 -22 -119 -22q-165 0 -203 145q-125 -151 -379 -151q-218 0 -328 92.5t-110 267.5q0 144 70.5 255.5t208.5 152.5q-75 21 -118.5 80t-43.5 155q0 187 116 286t320 99q205 0 290 -75.5t73 -225.5 q-1 -13 -13 -17.5t-47 -4.5t-43 4t-8 20q5 100 -50.5 148.5t-207.5 48.5q-148 0 -228.5 -64t-80.5 -215q0 -102 50.5 -149t164.5 -47h96q11 0 13.5 -10.5t-1.5 -39.5q-3 -31 -7 -40t-15 -9h-95q-141 0 -231 -96.5t-90 -249.5q0 -128 79.5 -199t244.5 -71q178 0 268.5 81 t103.5 212l33 323h-135q-12 0 -14.5 9t0.5 40q3 30 7.5 40t14.5 10h432q20 0 12 -50q-1 -31 -5.5 -40t-16.5 -9h-182l-35 -334q-1 -8 -4 -21t-4 -15q-4 -35 -4 -90q0 -85 27 -116.5t89 -31.5q49 0 84 14z" />
<glyph unicode="'" horiz-adv-x="399" d="M213 948l35 445q2 15 12 19.5t45 4.5t45.5 -4.5t9.5 -19.5l-59 -445q-1 -14 -10 -18t-35 -4q-27 0 -35.5 4t-7.5 18z" />
<glyph unicode="(" horiz-adv-x="692" d="M162 158q0 176 15.5 346.5t53.5 339.5t94 296t144.5 206t198.5 79h34q13 0 15.5 -9.5t-0.5 -35.5q-1 -29 -6 -38t-19 -9h-33q-83 0 -151 -79.5t-111 -204t-72.5 -284.5t-42 -313t-12.5 -298q0 -224 51.5 -331.5t167.5 -107.5h33q13 0 16 -8.5t1 -38.5q-3 -27 -8.5 -36 t-18.5 -9h-35q-166 0 -240.5 131.5t-74.5 403.5z" />
<glyph unicode=")" horiz-adv-x="692" d="M530 891q0 -124 -8 -246t-26 -248.5t-45 -238.5t-67.5 -211t-91.5 -170t-119.5 -112.5t-147.5 -41.5h-35q-13 0 -15.5 9.5t0.5 35.5q1 29 6 38t19 9h33q83 0 151 79.5t111 204t72.5 285t42 313.5t12.5 298q0 224 -51.5 331t-167.5 107h-33q-13 0 -15.5 8t-0.5 39 q3 27 8 36t18 9h35q166 0 240.5 -131t74.5 -403z" />
<glyph unicode="*" horiz-adv-x="1048" d="M268 1180l297 -133l6 337q0 14 13 20.5t47 6.5q32 0 43.5 -6.5t9.5 -20.5l-63 -337l321 133q15 6 23.5 -3.5t15.5 -43.5q6 -32 3.5 -45t-17.5 -17l-336 -78l192 -252q9 -10 1.5 -21.5t-38.5 -31.5q-29 -21 -41.5 -23.5t-19.5 11.5l-141 287l-205 -287q-9 -14 -21 -11.5 t-36 23.5q-27 19 -32 31t5 22l246 252l-318 78q-15 5 -15 17.5t15 44.5q13 34 23.5 43.5t21.5 3.5z" />
<glyph unicode="+" d="M670 1016l-37 -332h328q13 0 16 -10t0 -41q-3 -29 -8.5 -39t-18.5 -10h-327l-35 -332q-2 -14 -12 -19.5t-41 -5.5q-32 0 -43 5.5t-9 19.5l35 332h-328q-13 0 -15.5 10t1.5 39q3 32 7.5 41.5t17.5 9.5h327l35 332q2 12 12.5 16t42.5 4t42 -4t10 -16z" />
<glyph unicode="," horiz-adv-x="450" d="M240 217q44 0 57 -6.5t6 -28.5q-59 -160 -221 -442q-13 -19 -57 -19q-21 0 -31.5 5t-7.5 16q123 267 170 444q5 21 18.5 26t65.5 5z" />
<glyph unicode="-" horiz-adv-x="804" d="M178 600h490q12 0 15.5 -9.5t0.5 -39.5t-8 -38.5t-17 -8.5h-489q-13 0 -16 8t0 39q3 32 7 40.5t17 8.5z" />
<glyph unicode="." horiz-adv-x="450" d="M184 -2q-46 0 -59 6t-12 29l14 143q1 24 16 29.5t62 5.5t60.5 -5.5t10.5 -29.5l-14 -143q-1 -22 -17 -28.5t-61 -6.5z" />
<glyph unicode="/" horiz-adv-x="724" d="M797 1438l-699 -1581q-8 -15 -19.5 -20t-51.5 -5q-34 0 -42.5 5.5t-2.5 19.5l698 1581q6 15 18.5 19.5t53.5 4.5q34 0 42 -5t3 -19z" />
<glyph unicode="0" horiz-adv-x="1155" d="M666 1288q204 0 296.5 -112t92.5 -349q0 -80 -4.5 -153t-18.5 -160.5t-36.5 -160t-62.5 -143t-92.5 -119t-130 -78t-171.5 -29.5q-205 0 -298.5 111.5t-93.5 350.5q0 80 4.5 152.5t18.5 160t37 160t63 143t93 119t130.5 78t172.5 29.5zM545 84q86 0 154 40.5t112 109.5 t72.5 166.5t40.5 204t12 229.5q0 187 -64.5 270.5t-212.5 83.5q-87 0 -155 -41t-112 -109.5t-72.5 -166t-40 -204t-11.5 -229.5q0 -187 64.5 -270.5t212.5 -83.5z" />
<glyph unicode="1" horiz-adv-x="808" d="M334 25l119 1130l-277 -82q-14 -4 -18.5 7t-1.5 36q3 34 7.5 44.5t18.5 15.5l375 110q29 9 29 -14l-133 -1247q0 -17 -11.5 -22t-50.5 -5q-37 0 -47 5t-10 22z" />
<glyph unicode="2" horiz-adv-x="1067" d="M629 1288q182 0 269 -78.5t87 -222.5q0 -74 -13 -134.5t-49.5 -113.5t-65.5 -88t-97.5 -81.5t-106.5 -69t-130 -73.5q-15 -9 -23 -13q-62 -35 -105.5 -64.5t-86 -68.5t-66.5 -83.5t-29 -95.5v-2h676q13 0 16 -10t0 -39q-5 -35 -8 -43t-16 -8h-777q-14 0 -17.5 9.5 t-0.5 39.5l4 33q11 122 92.5 213.5t229.5 181.5q28 17 76 44.5t79.5 45t74.5 46.5t71.5 53.5t59.5 60.5t49 72.5t30 84.5t12 101q0 104 -58 153.5t-185 49.5q-106 0 -172 -29t-98.5 -82t-45.5 -141q-2 -16 -12.5 -21.5t-44.5 -5.5t-44.5 5.5t-10.5 19.5q22 183 125.5 268.5 t310.5 85.5z" />
<glyph unicode="3" horiz-adv-x="1067" d="M555 608h-129q-12 0 -15 9.5t-1 39.5q5 30 9.5 40t14.5 10h133q281 0 281 288q0 99 -60 147t-190 48q-152 0 -222.5 -53.5t-86.5 -161.5q-2 -15 -12.5 -20t-45.5 -5t-46 4.5t-9 18.5q41 315 430 315q361 0 361 -287q0 -117 -52.5 -208.5t-164.5 -130.5q88 -21 138 -86.5 t50 -172.5q0 -200 -116 -309.5t-326 -109.5q-216 0 -317 81t-87 240q2 14 13.5 18.5t44.5 4.5q36 0 45.5 -5t7.5 -20q-6 -109 61 -164t228 -55q157 0 240 78.5t83 236.5q0 112 -66.5 160.5t-193.5 48.5z" />
<glyph unicode="4" horiz-adv-x="1099" d="M735 -2q-37 0 -48 5t-11 22l31 292h-621q-13 0 -15.5 13.5t1.5 42.5q5 44 20 61l658 819q10 15 28.5 20t61.5 5q53 0 70 -4.5t16 -22.5l-88 -835h178q13 0 16 -10t0 -39t-8.5 -39.5t-17.5 -10.5h-179l-30 -292q-1 -17 -13.5 -22t-48.5 -5zM203 416h518l80 747z" />
<glyph unicode="5" horiz-adv-x="1021" d="M524 690q-167 0 -272 -55q-21 -8 -57 -8q-30 0 -40.5 4t-9.5 18l107 596q3 16 13.5 21.5t41.5 5.5h596q12 0 15 -10.5t0 -40.5q-2 -31 -7 -41.5t-18 -10.5h-547l-80 -440q117 57 273 57q179 0 272.5 -84t93.5 -251q0 -210 -115 -338.5t-337 -128.5q-399 0 -375 321 q2 14 13 18.5t44 4.5q36 0 45.5 -5t7.5 -20q-6 -108 57.5 -163.5t213.5 -55.5q162 0 243.5 97t81.5 270q0 120 -62.5 179.5t-197.5 59.5z" />
<glyph unicode="6" horiz-adv-x="1077" d="M877 1001q3 187 -232 187q-340 0 -383 -561q47 70 142.5 111.5t205.5 41.5q353 0 353 -313q0 -227 -111 -355t-326 -128q-204 0 -294.5 112.5t-90.5 323.5q0 198 26 351t83.5 272t157.5 182t239 63q162 0 254.5 -73.5t85.5 -215.5q-3 -14 -14 -18t-45 -4q-36 0 -44.5 4.5 t-6.5 19.5zM256 508v-84q0 -79 12.5 -138t42.5 -107t84.5 -72.5t132.5 -24.5q90 0 154 30t99.5 84.5t51 119.5t15.5 145q0 115 -58.5 168t-191.5 53q-113 0 -204.5 -46.5t-137.5 -127.5z" />
<glyph unicode="7" horiz-adv-x="966" d="M203 27q220 506 618 1142h-631q-13 0 -15.5 9.5t-0.5 42.5q3 30 8.5 40.5t18.5 10.5h739q13 0 15.5 -9.5t-1.5 -35.5q-2 -40 -22 -70q-376 -595 -610 -1132q-6 -17 -20 -22t-52 -5q-35 0 -44 6t-3 23z" />
<glyph unicode="8" horiz-adv-x="1114" d="M119 281q0 72 16.5 129.5t43.5 95.5t68.5 68t83 47t95.5 32q-99 33 -154 94t-55 175q0 181 114.5 273.5t315.5 92.5q184 0 276.5 -72.5t92.5 -205.5q-1 -84 -22 -146.5t-61 -103.5t-85 -66.5t-107 -44.5q53 -16 91.5 -35.5t74 -51t54 -80t18.5 -111.5q0 -193 -123.5 -290 t-337.5 -97q-198 0 -298.5 77t-100.5 220zM860 365q0 49 -15.5 87t-38 62t-62 43.5t-72.5 29.5t-84 23q-47 -11 -76.5 -18.5t-71 -22t-67 -29.5t-54 -39.5t-44.5 -53.5t-26.5 -70t-10.5 -90q0 -103 70 -153t216 -50q69 0 126.5 14.5t106 45.5t76 87.5t27.5 133.5zM332 926 q0 -55 18.5 -95.5t57 -66.5t76.5 -41.5t96 -30.5q59 14 98.5 27t85 37.5t72.5 55.5t45 80t18 112q0 96 -62.5 142t-197.5 46q-65 0 -118.5 -13.5t-97 -43.5t-67.5 -83t-24 -126z" />
<glyph unicode="9" horiz-adv-x="1077" d="M248 270q-3 -186 231 -186q338 0 381 559q-47 -70 -141.5 -110.5t-204.5 -40.5q-352 0 -352 313q0 227 110.5 355t325.5 128q204 0 294.5 -112.5t90.5 -323.5q0 -198 -26 -351t-83.5 -272t-157.5 -182t-239 -63q-163 0 -255 73t-85 215q3 14 15 18.5t45 4.5q35 0 44 -4.5 t7 -20.5zM868 848q0 79 -12.5 138t-42.5 107t-84.5 72.5t-132.5 24.5q-90 0 -154 -30t-99.5 -84.5t-51 -119.5t-15.5 -145q0 -115 58.5 -168t191.5 -53q113 0 204 45.5t136 126.5q2 31 2 86z" />
<glyph unicode=":" horiz-adv-x="491" d="M205 -2q-46 0 -59.5 6t-12.5 29l14 143q1 24 16 29.5t62 5.5t61 -5.5t11 -29.5l-14 -143q-1 -22 -17 -28.5t-61 -6.5zM287 776q-46 0 -59.5 6t-12.5 29l14 143q1 24 16 29.5t62 5.5t61 -5.5t11 -29.5l-14 -143q-1 -22 -17 -28.5t-61 -6.5z" />
<glyph unicode=";" horiz-adv-x="491" d="M287 776q-46 0 -59.5 6t-12.5 29l14 143q1 24 16 29.5t62 5.5t61 -5.5t11 -29.5l-14 -143q-1 -22 -17 -28.5t-61 -6.5zM256 217q44 0 57 -6.5t6 -28.5q-59 -160 -221 -442q-13 -19 -57 -19q-21 0 -31.5 5t-7.5 16q123 267 170 444q5 21 18.5 26t65.5 5z" />
<glyph unicode="&#x3c;" d="M197 637q4 36 8.5 46.5t17.5 18.5l684 476q14 8 21.5 3t25.5 -32q15 -27 16 -36t-12 -19l-655 -457l557 -457q13 -8 10.5 -18.5t-24.5 -36.5q-20 -26 -30.5 -32t-22.5 3l-584 475q-10 8 -12.5 19t0.5 47z" />
<glyph unicode="=" d="M190 496h746q13 0 15.5 -10.5t-1.5 -41.5q-3 -30 -8 -39.5t-18 -9.5h-746q-12 0 -14.5 10t0.5 39q3 32 8 42t18 10zM227 872h746q13 0 15.5 -10t-1.5 -41q-3 -30 -8 -39.5t-18 -9.5h-746q-12 0 -14.5 10t0.5 39q3 31 8 41t18 10z" />
<glyph unicode="&#x3e;" d="M942 637q-4 -36 -9 -47t-18 -19l-684 -475q-14 -8 -21.5 -3t-25.5 32q-15 27 -16 36t12 19l656 457l-557 457q-13 8 -10.5 18.5t24.5 36.5q20 26 30.5 32t22.5 -3l584 -476q10 -8 12.5 -18.5t-0.5 -46.5z" />
<glyph unicode="?" horiz-adv-x="1103" d="M592 459l-8 -51q-2 -14 -11.5 -19.5t-40.5 -5.5q-32 0 -39.5 5t-7.5 20l2 51q3 58 28 107t62.5 85t82 69.5t88.5 68t80 72.5t58.5 91.5t22.5 116.5q0 100 -63 149.5t-203 49.5q-172 0 -250.5 -65.5t-97.5 -207.5q0 -16 -11 -21t-48 -5q-34 0 -45 5t-9 19 q22 194 135.5 286.5t333.5 92.5q193 0 288 -79.5t95 -221.5q0 -75 -22 -135.5t-58 -101t-79.5 -75t-89.5 -65t-85.5 -62t-69 -76t-38.5 -97.5zM494 -2q-46 0 -59.5 6t-12.5 29l14 143q1 24 16 29.5t62 5.5t61 -5.5t11 -29.5l-15 -143q-1 -22 -16.5 -28.5t-60.5 -6.5z" />
<glyph unicode="@" horiz-adv-x="1785" d="M1133 549l34 325q-71 33 -192 33q-73 0 -127 -23t-86 -60t-51.5 -93t-26 -113t-6.5 -129q0 -114 44.5 -164.5t149.5 -50.5q112 0 180 69t81 206zM1124 -137h-256q-174 0 -298.5 28.5t-215 94.5t-134.5 178t-44 274q0 453 204.5 671t629.5 218q181 0 307 -33t202 -101.5 t110 -165t34 -232.5q0 -54 -2.5 -103.5t-10.5 -116t-22 -121.5t-39 -111.5t-58.5 -95t-84.5 -63t-113 -24.5q-104 0 -149 47t-47 135q-89 -160 -273 -160q-143 0 -217 73.5t-74 231.5q0 84 11 155t39 139t72.5 115t117 76t166.5 29q167 0 268 -53q16 -7 20.5 -14t4.5 -19 l-51 -479q-20 -196 110 -196q56 0 99 35t68 89t40.5 130t21 148t5.5 153q0 161 -52 256.5t-174.5 142.5t-332.5 47q-385 0 -558.5 -189t-173.5 -610q0 -146 37 -242.5t116 -151.5t185 -77t262 -22h261q10 0 12.5 -8t-0.5 -33q-3 -26 -8 -35.5t-15 -9.5z" />
<glyph unicode="A" horiz-adv-x="1155" d="M985 -2q-36 0 -46 4.5t-13 22.5q-33 187 -74 383h-547q-53 -126 -153 -383q-6 -17 -18.5 -22t-49.5 -5q-39 0 -50 5t-5 22q115 299 277 669t296 637q8 17 21 22t55 5t54.5 -5t15.5 -22q80 -273 165 -643.5t134 -662.5q4 -17 -9 -22t-53 -5zM664 1217q-179 -376 -316 -709 h481q-89 422 -165 709z" />
<glyph unicode="B" horiz-adv-x="1224" d="M340 645l-57 -541h317q377 0 377 320q0 123 -85 172t-261 49h-291zM705 1251h-302l-53 -503h303q155 0 248.5 71t93.5 228q0 107 -68 155.5t-222 48.5zM346 1356h369q401 0 401 -301q0 -273 -250 -350q108 -20 171 -88.5t63 -192.5q0 -214 -130.5 -319t-367.5 -105h-397 q-30 0 -41.5 5.5t-9.5 19.5l137 1306q2 14 13.5 19.5t41.5 5.5z" />
<glyph unicode="C" horiz-adv-x="1212" d="M166 680q20 189 58.5 316.5t106 213.5t167 124t243.5 38q212 0 315 -93t85 -288q0 -14 -12 -19t-48 -5q-35 0 -47 5t-10 19q11 140 -57.5 207.5t-233.5 67.5q-111 0 -185 -28t-126.5 -97.5t-82.5 -179t-48 -281.5q-12 -123 -12 -213q0 -210 76.5 -293.5t262.5 -83.5 q168 0 248 69.5t99 219.5q2 15 13 19.5t48 4.5t47.5 -4.5t9.5 -19.5q-24 -199 -136.5 -297t-336.5 -98q-246 0 -351 113.5t-105 371.5q0 94 12 211z" />
<glyph unicode="D" horiz-adv-x="1282" d="M283 109h297q161 0 253.5 52.5t142.5 173.5t73 343q12 114 12 199q0 208 -81.5 289t-279.5 81h-297zM575 0h-368q-32 0 -43.5 5.5t-9.5 19.5l137 1306q2 14 13 19.5t42 5.5h361q256 0 366.5 -114.5t110.5 -371.5q0 -104 -10 -192q-37 -366 -170 -522t-429 -156z" />
<glyph unicode="E" horiz-adv-x="1126" d="M1047 1245h-644l-53 -495h578q12 0 16.5 -11.5t1.5 -42.5q-3 -32 -9 -42.5t-19 -10.5h-578l-57 -532h649q26 0 18 -58q-3 -33 -8.5 -43t-17.5 -10h-717q-32 0 -43.5 5.5t-9.5 19.5l137 1306q2 14 13 19.5t42 5.5h711q14 0 17 -11t-1 -45q-1 -33 -6.5 -44t-19.5 -11z" />
<glyph unicode="F" horiz-adv-x="1048" d="M340 643l-66 -618q0 -17 -12 -22t-51 -5q-37 0 -47.5 5t-9.5 22l137 1306q2 14 13 19.5t42 5.5h692q13 0 17 -12t0 -44q-3 -33 -9 -44t-18 -11h-625l-53 -495h568q14 0 18 -11t0 -43q-3 -32 -9 -42.5t-20 -10.5h-567z" />
<glyph unicode="G" horiz-adv-x="1255" d="M1079 662q30 0 40.5 -6t10.5 -21l-24 -213q-23 -222 -141.5 -330t-337.5 -108q-244 0 -357.5 119.5t-113.5 390.5q0 73 10 186q20 189 58.5 315.5t106.5 213t168 125t244 38.5q222 0 325.5 -92.5t86.5 -271.5q-2 -16 -13.5 -21.5t-47.5 -5.5t-48 6t-10 21q12 130 -62 194 t-239 64q-148 0 -235.5 -55t-136 -180t-72.5 -351q-10 -87 -10 -186q0 -223 82.5 -313.5t269.5 -90.5q168 0 252 80t104 258l12 129h-325q-13 0 -17 10.5t0 42.5q3 32 8 42t19 10h393z" />
<glyph unicode="H" horiz-adv-x="1314" d="M1020 -2q-38 0 -48.5 5t-10.5 22l63 616h-686l-64 -616q0 -17 -12 -22t-51 -5q-37 0 -47.5 5t-9.5 22l137 1306q1 17 13 22t50 5t49.5 -5t8.5 -22l-62 -579h686l62 579q3 17 14 22t49 5t49.5 -5t8.5 -22l-138 -1306q0 -17 -12 -22t-49 -5z" />
<glyph unicode="I" horiz-adv-x="520" d="M219 -2q-38 0 -48.5 5t-10.5 22l137 1306q3 17 14 22t49 5t49.5 -5t8.5 -22l-137 -1306q0 -17 -12 -22t-50 -5z" />
<glyph unicode="J" horiz-adv-x="1046" d="M748 467l90 864q2 17 12.5 22t48.5 5q37 0 48.5 -5t10.5 -22l-92 -870q-13 -124 -40.5 -211t-78 -148t-126.5 -89.5t-183 -28.5q-346 0 -346 327q0 18 4 68q2 15 14 21t48 6t46.5 -5.5t8.5 -21.5q-12 -147 42 -216t189 -69q77 0 130.5 21.5t88.5 69.5t54.5 115t30.5 167z " />
<glyph unicode="K" horiz-adv-x="1159" d="M1167 1329l-538 -610l424 -692q15 -23 -27 -28q-10 -1 -22 -1q-44 0 -60.5 5t-25.5 20l-390 639h-186l-68 -637q-1 -17 -13 -22t-50 -5q-37 0 -47.5 5t-9.5 22l137 1306q1 17 13 22t50 5t51.5 -5t10.5 -22l-62 -559h185l489 561q12 15 30.5 20t61.5 5q58 0 53 -19 q-1 -5 -6 -10z" />
<glyph unicode="L" horiz-adv-x="1003" d="M412 1331l-129 -1222h596q14 0 18 -11.5t0 -44.5q-3 -32 -8.5 -42.5t-18.5 -10.5h-663q-32 0 -43.5 6t-9.5 21l137 1304q1 17 13 22t50 5t49.5 -5t8.5 -22z" />
<glyph unicode="M" horiz-adv-x="1595" d="M772 150q-37 0 -47.5 5t-15.5 21l-316 1022l-121 -1173q-1 -17 -12.5 -22t-48.5 -5t-47.5 5t-9.5 22l137 1306q1 17 18.5 22t71.5 5q48 0 66.5 -5t21.5 -22l317 -1034l535 1034q7 17 26 22t66 5q54 0 71.5 -5t14.5 -22l-137 -1306q0 -17 -12 -22t-50 -5q-37 0 -47 5 t-10 22l123 1173l-526 -1022q-8 -16 -20 -21t-48 -5z" />
<glyph unicode="N" horiz-adv-x="1325" d="M1174 1358q37 0 47.5 -5t7.5 -22l-137 -1306q0 -17 -14 -22t-62 -5q-37 0 -48.5 3.5t-17.5 18.5l-559 1151l-119 -1146q-1 -17 -12.5 -22t-48.5 -5t-47.5 5t-9.5 22l137 1306q2 17 15.5 22t60.5 5q38 0 49.5 -4t19.5 -19l555 -1145l121 1141q3 17 14 22t48 5z" />
<glyph unicode="O" horiz-adv-x="1290" d="M743 1372q239 0 345 -115.5t106 -375.5q0 -92 -12 -203q-20 -189 -59 -317.5t-107.5 -214t-168 -124t-241.5 -38.5q-239 0 -344.5 116t-105.5 377q0 109 10 201q40 375 169.5 534.5t407.5 159.5zM612 90q146 0 233.5 53.5t138.5 180t75 354.5q12 117 12 205 q0 213 -77.5 298t-258.5 85q-145 0 -232 -53.5t-137.5 -180t-74.5 -354.5q-12 -114 -12 -203q0 -215 76.5 -300t256.5 -85z" />
<glyph unicode="P" horiz-adv-x="1171" d="M608 528h-280l-54 -503q0 -17 -12 -22t-51 -5q-37 0 -47.5 5t-9.5 22l137 1306q2 14 13 19.5t42 5.5h340q226 0 328 -79.5t102 -256.5q0 -24 -4 -78q-20 -221 -138 -317.5t-366 -96.5zM403 1247l-65 -612h274q191 0 275 65t102 242q4 54 4 72q0 133 -73 183t-244 50h-273 z" />
<glyph unicode="Q" horiz-adv-x="1292" d="M743 1372q239 0 345 -115.5t106 -375.5q0 -92 -12 -203q-36 -342 -145.5 -503t-334.5 -185q45 -72 143.5 -116t211.5 -46q14 0 17.5 -10.5t0.5 -42.5t-9.5 -41.5t-21.5 -9.5q-145 0 -271.5 72.5t-190.5 187.5q-227 6 -326.5 121.5t-99.5 371.5q0 109 10 201 q40 375 169.5 534.5t407.5 159.5zM612 90q146 0 233.5 53.5t138.5 180t75 354.5q12 117 12 205q0 213 -77.5 298t-258.5 85q-145 0 -232 -53.5t-137.5 -180t-74.5 -354.5q-12 -114 -12 -203q0 -215 76.5 -300t256.5 -85z" />
<glyph unicode="R" horiz-adv-x="1200" d="M580 571h-248l-58 -546q0 -17 -12 -22t-51 -5q-37 0 -47.5 5t-9.5 22l137 1306q2 14 13 19.5t42 5.5h342q223 0 325.5 -79t102.5 -247q0 -18 -4 -72q-29 -289 -305 -358q75 -27 119 -95.5t71 -189.5q40 -168 52 -290q1 -9 -1.5 -14t-17.5 -9t-45 -4q-38 0 -51 5.5 t-16 19.5q-9 102 -46 268q-15 68 -35 116t-53 87t-84 58t-120 19zM403 1247l-61 -575h276q183 0 268.5 64.5t102.5 224.5q4 46 4 63q0 125 -72.5 174t-242.5 49h-275z" />
<glyph unicode="S" horiz-adv-x="1173" d="M561 88q75 0 135 14.5t110.5 47t78.5 92t28 141.5q0 55 -18 94t-59 67.5t-91 47t-131 39.5q-75 20 -129 39t-108.5 48.5t-88 65.5t-54.5 87.5t-21 115.5q0 196 118 290.5t335 94.5q216 0 314 -80.5t81 -261.5q0 -15 -11.5 -19.5t-48.5 -4.5q-36 0 -46.5 4.5t-10.5 19.5 q13 130 -54 184t-228 54q-56 0 -102.5 -7.5t-89.5 -26.5t-72 -49.5t-46.5 -79t-17.5 -112.5q0 -34 8 -62t20.5 -49t37 -40t46.5 -32t61.5 -28t69.5 -24.5t82 -24.5q104 -30 165 -55t113.5 -64t74.5 -92.5t22 -130.5q0 -205 -126 -306t-355 -101q-145 0 -243 34t-149 113.5 t-40 202.5q1 15 12.5 19.5t46.5 4.5q37 0 48 -4.5t10 -19.5q-12 -128 71 -187t252 -59z" />
<glyph unicode="T" horiz-adv-x="1062" d="M1057 1249h-377l-127 -1224q-1 -17 -13.5 -22t-50.5 -5t-48.5 5t-8.5 22l127 1224h-373q-13 0 -17 11t-1 43q4 33 9.5 43t19.5 10h870q13 0 16.5 -9.5t-0.5 -43.5q-3 -34 -8 -44t-18 -10z" />
<glyph unicode="U" horiz-adv-x="1296" d="M612 -16q-222 0 -324 92t-102 291q0 42 7 110l88 854q3 17 14 22t49 5t49 -5t8 -22l-88 -848q-6 -56 -6 -100q0 -152 71.5 -219.5t237.5 -67.5q190 0 275.5 89.5t107.5 297.5l91 848q2 17 12.5 22t48.5 5q37 0 48.5 -5t10.5 -22l-90 -854q-28 -261 -143.5 -377 t-364.5 -116z" />
<glyph unicode="V" horiz-adv-x="1146" d="M1118 1358q40 0 52 -5t6 -22q-114 -298 -275.5 -668t-294.5 -638q-6 -17 -20 -22t-56 -5q-41 0 -52.5 5t-16.5 22q-76 266 -159.5 636t-135.5 670q-1 17 11.5 22t51.5 5q38 0 49.5 -5t14.5 -22q100 -588 254 -1181q127 266 266 591.5t240 589.5q8 18 18.5 22.5t46.5 4.5z " />
<glyph unicode="W" horiz-adv-x="1837" d="M1792 1358q39 0 50 -5t7 -22q-96 -290 -241.5 -669.5t-259.5 -636.5q-6 -17 -20.5 -22t-53.5 -5q-35 0 -47 5.5t-17 21.5q-108 502 -211 1151q-224 -620 -452 -1151q-5 -15 -19 -21t-51 -6q-38 0 -49.5 5t-17.5 22q-61 265 -127 645.5t-99 660.5q-1 17 12 22t52 5 q36 0 47 -5t12 -22q59 -513 187 -1177q216 523 456 1177q6 17 19 22t51 5t50 -5t13 -22q100 -632 209 -1177q110 271 232 602.5t202 574.5q6 17 17.5 22t48.5 5z" />
<glyph unicode="X" horiz-adv-x="1173" d="M729 698l330 -671q6 -15 -6 -22t-49 -7q-41 0 -56 4.5t-22 20.5l-295 620h-41l-424 -620q-7 -16 -23 -20.5t-59 -4.5q-37 0 -47 6.5t-2 22.5l471 671l-324 631q-5 16 5 22.5t46 6.5q42 0 57 -4.5t21 -20.5l291 -583h37l418 583q9 17 24 21t58 4q52 0 52 -16q0 -5 -5 -13z " />
<glyph unicode="Y" horiz-adv-x="1120" d="M1020 1331q10 18 19 22.5t46 4.5q45 0 58 -6t6 -23q-105 -185 -254 -423t-262 -402h-2l-49 -479q-1 -17 -13.5 -22t-50.5 -5t-48.5 5t-8.5 22l49 481q-80 168 -179 406t-163 417q-5 18 7 23.5t56 5.5q37 0 47 -4.5t15 -22.5q119 -353 289 -719q209 311 438 719z" />
<glyph unicode="Z" horiz-adv-x="1116" d="M254 1356h807q15 0 18 -12t0 -48q-6 -36 -18 -53l-840 -1137h721q14 0 18.5 -10.5t0.5 -42.5q-1 -31 -7 -42t-20 -11h-838q-15 0 -18.5 11.5t0.5 45.5q3 32 16 52l840 1140h-690q-14 0 -18 10.5t-1 43.5q5 32 10.5 42.5t18.5 10.5z" />
<glyph unicode="[" horiz-adv-x="692" d="M131 -348l184 1745q2 14 11 19t36 5h310q13 0 16 -9.5t0 -35.5q-3 -30 -6.5 -38.5t-15.5 -8.5h-254l-168 -1610h254q11 0 13.5 -8t0.5 -39q-3 -28 -7.5 -36.5t-17.5 -8.5h-311q-28 0 -36.5 5.5t-8.5 19.5z" />
<glyph unicode="\" horiz-adv-x="724" d="M514 -143l-367 1581q-3 14 6.5 19t43.5 5q41 0 51.5 -4.5t15.5 -19.5l367 -1581q2 -15 -7 -20t-42 -5q-42 0 -53.5 5t-14.5 20z" />
<glyph unicode="]" horiz-adv-x="692" d="M561 1397l-184 -1745q-2 -14 -11 -19.5t-36 -5.5h-310q-13 0 -16 9.5t0 35.5q3 30 7 38.5t16 8.5h254l168 1610h-254q-12 0 -14.5 8.5t-0.5 38.5q3 28 7.5 36.5t17.5 8.5h311q28 0 36.5 -5t8.5 -19z" />
<glyph unicode="^" d="M651 1364q33 0 43.5 -3t16.5 -15l288 -631q6 -15 -4.5 -21t-46.5 -6q-34 0 -48.5 5t-20.5 20l-238 524l-346 -524q-11 -15 -26 -20t-50 -5q-52 0 -53 13q-1 6 6 14l418 631q9 12 19 15t42 3z" />
<glyph unicode="_" horiz-adv-x="796" d="M719 -221h-766q-13 0 -16 9t0 38q3 28 7 36.5t15 8.5h766q13 0 16 -9.5t0 -35.5q-1 -29 -5.5 -38t-16.5 -9z" />
<glyph unicode="`" horiz-adv-x="655" d="M549 1126l-309 160q-13 5 -12.5 16.5t20.5 40.5q21 28 31 33.5t20 -4.5l295 -184q9 -7 8.5 -14.5t-12.5 -26.5q-14 -21 -22 -24.5t-19 3.5z" />
<glyph unicode="a" horiz-adv-x="1056" d="M315 725q0 -14 -11.5 -19.5t-45.5 -5.5q-36 0 -45.5 5t-7.5 22q35 277 383 277q196 0 274.5 -78t63.5 -238l-72 -668q0 -15 -10 -18.5t-45 -3.5t-44.5 3.5t-9.5 18.5l15 150q-45 -78 -136.5 -130t-215.5 -52q-151 0 -230.5 61.5t-79.5 177.5q0 154 97 231t270 77h330 l16 151q12 122 -40.5 171.5t-186.5 49.5q-128 0 -192.5 -43.5t-76.5 -138.5zM784 444h-321q-55 0 -98 -10t-78.5 -32.5t-54.5 -64t-19 -101.5q0 -154 205 -154q138 0 242 79t116 193z" />
<glyph unicode="b" horiz-adv-x="1136" d="M395 1395l-57 -549q110 158 338 158q182 0 268 -98t86 -292q0 -52 -6 -114q-28 -263 -135.5 -389.5t-313.5 -126.5q-240 0 -315 168l-16 -132q0 -15 -10.5 -18.5t-45.5 -3.5q-34 0 -43.5 3.5t-9.5 18.5l146 1375q1 17 10.5 20.5t46.5 3.5q38 0 48 -4t9 -20zM301 494 q-6 -62 -6 -111q0 -155 63.5 -227t210.5 -72q162 0 238 98t98 318q8 82 8 114q0 149 -60.5 219t-197.5 70q-170 0 -251.5 -98.5t-102.5 -310.5z" />
<glyph unicode="c" horiz-adv-x="1024" d="M594 903q-168 0 -244 -95.5t-98 -313.5q-8 -90 -8 -123q0 -151 62 -219t210 -68q241 0 264 186q2 14 14.5 19.5t45.5 5.5q35 0 44 -5.5t9 -21.5q-20 -139 -118 -211.5t-265 -72.5q-201 0 -292 94.5t-91 292.5q0 55 6 123q29 263 136 386.5t333 123.5q166 0 254.5 -72 t79.5 -199q-2 -16 -12.5 -21t-44.5 -5q-35 0 -46.5 5t-9.5 19q6 84 -53.5 128t-175.5 44z" />
<glyph unicode="d" horiz-adv-x="1136" d="M813 20l10 127q-107 -163 -342 -163q-182 0 -268 97t-86 292q0 57 6 119q28 261 135 386.5t314 125.5q232 0 311 -166l57 557q1 16 12.5 20t49.5 4q37 0 46.5 -3.5t8.5 -20.5l-145 -1375q0 -14 -11 -18t-47 -4q-35 0 -43.5 3.5t-7.5 18.5zM856 494q6 58 6 106 q0 157 -63.5 230t-210.5 73q-162 0 -238 -97t-98 -314q-8 -86 -8 -119q0 -149 60.5 -219t197.5 -70q170 0 251 98t103 312z" />
<glyph unicode="e" horiz-adv-x="1050" d="M911 463h-669q-2 -31 -2 -82q0 -153 66.5 -225t215.5 -72q231 0 262 174q3 14 14.5 19.5t43.5 5.5q37 0 46.5 -5t6.5 -22q-22 -130 -118.5 -201t-258.5 -71q-201 0 -297 96.5t-96 294.5q0 49 6 110q30 266 140.5 392.5t330.5 126.5q184 0 267 -92t83 -250q0 -22 -4 -80 l-6 -60q-5 -37 -10.5 -48t-20.5 -11zM598 903q-156 0 -235 -82.5t-109 -267.5h582l6 47q4 46 4 66q0 237 -248 237z" />
<glyph unicode="f" horiz-adv-x="698" d="M662 889h-259l-90 -866q-1 -17 -12 -21t-47 -4t-45.5 4t-9.5 21l92 866h-154q-12 0 -14.5 9t0.5 38q2 30 6.5 39.5t17.5 9.5l154 2l14 133q17 162 87 234.5t214 72.5q102 0 164 -30q12 -5 11 -15t-13 -39q-13 -25 -21.5 -32t-19.5 -2q-56 18 -121 18q-96 0 -137 -48 t-53 -165l-14 -127h260q12 0 14.5 -10t-0.5 -39q-3 -30 -7.5 -39.5t-16.5 -9.5z" />
<glyph unicode="g" horiz-adv-x="1085" d="M188 -98q-9 -97 56.5 -145t212.5 -48q61 0 112 11t95 36t69 71.5t25 111.5q0 94 -68.5 141t-193.5 63q-185 0 -274 85.5t-89 256.5q0 57 4 88q24 217 128.5 324t312.5 107q92 0 165 -25l293 16q14 0 18 -10.5t1 -40.5q-3 -29 -8.5 -39t-18.5 -10h-162q74 -89 74 -242 q0 -24 -4 -82q-31 -306 -242 -393q176 -70 176 -237q0 -86 -31.5 -150.5t-89 -102.5t-131 -56.5t-163.5 -18.5q-198 0 -294 73t-83 214q1 17 11.5 21.5t47.5 4.5q33 0 43 -5t8 -19zM502 240q152 0 227 80.5t94 250.5q4 54 4 76q0 132 -61.5 196t-194.5 64 q-154 0 -227.5 -80.5t-91.5 -253.5q-6 -43 -6 -79q0 -131 60.5 -192.5t195.5 -61.5z" />
<glyph unicode="h" horiz-adv-x="1134" d="M395 1395l-61 -576q43 76 133.5 130.5t220.5 54.5q162 0 244.5 -87.5t64.5 -265.5l-67 -628q0 -17 -11.5 -21t-48.5 -4q-36 0 -45.5 4t-9.5 21l68 630q13 128 -41.5 187t-175.5 59q-144 0 -242.5 -85.5t-112.5 -209.5l-61 -581q0 -17 -11.5 -21t-48.5 -4q-36 0 -45.5 4 t-9.5 21l146 1372q1 17 10.5 20.5t46.5 3.5q38 0 48 -4t9 -20z" />
<glyph unicode="i" horiz-adv-x="468" d="M137 23l99 944q2 14 14 19t47 5t46 -5t9 -19l-100 -944q0 -17 -11 -21t-48 -4t-47 4t-9 21zM336 1370q43 0 52.5 -6t6.5 -29l-14 -141q-1 -23 -12.5 -29t-53.5 -6t-52 6t-7 29l14 141q2 23 12.5 29t53.5 6z" />
<glyph unicode="j" horiz-adv-x="489" d="M-88 -274q2 0 23 -4.5t42 -4.5q58 0 90 17.5t53 69t32 151.5l106 1012q2 14 13.5 19t45.5 5q35 0 46.5 -5t9.5 -19l-107 -1016q-11 -102 -32 -167.5t-56.5 -101.5t-78.5 -49.5t-107 -13.5t-92 8q-12 4 -14 12t1 37q3 30 8 40t17 10zM356 1370q43 0 53.5 -6t8.5 -29 l-15 -141q-3 -23 -14.5 -29t-52.5 -6q-42 0 -52.5 6t-9.5 29l15 141q3 23 14 29t53 6z" />
<glyph unicode="k" horiz-adv-x="976" d="M395 1395l-86 -811h133l383 377q18 19 33.5 24.5t56.5 5.5q61 0 58 -21q-1 -6 -8 -12l-433 -423l347 -508q18 -23 -26 -28q-11 -1 -26 -1q-43 0 -56 4t-26 23l-313 460h-133l-49 -462q0 -17 -11.5 -21t-48.5 -4q-36 0 -45.5 4t-9.5 21l146 1372q1 17 10.5 20.5t46.5 3.5 q38 0 48 -4t9 -20z" />
<glyph unicode="l" horiz-adv-x="493" d="M356 104h33q14 0 17.5 -10.5t-0.5 -42.5q-1 -31 -6 -41t-19 -10h-41q-112 0 -154 45t-30 152l125 1198q2 14 13.5 19t45.5 5q35 0 47 -5t10 -19l-125 -1186q-6 -60 11.5 -82.5t72.5 -22.5z" />
<glyph unicode="m" horiz-adv-x="1720" d="M946 604l-2 8l-61 -589q0 -17 -11 -21t-49 -4q-36 0 -45.5 4t-9.5 21l68 639q12 121 -35 179t-154 58q-128 0 -225 -86.5t-109 -208.5l-63 -581q0 -17 -11.5 -21t-48.5 -4q-36 0 -45.5 4t-9.5 21l101 944q1 15 12 19.5t45 4.5t43.5 -4.5t7.5 -19.5l-12 -154 q41 76 129.5 133.5t204.5 57.5q111 0 183 -51.5t93 -153.5q58 92 148.5 148.5t205.5 56.5q135 0 213 -67.5t78 -213.5q0 -18 -4 -64l-67 -636q0 -17 -11 -21t-49 -4q-36 0 -45.5 4t-9.5 21l67 639q12 121 -35 179t-153 58q-129 0 -225.5 -86t-108.5 -209z" />
<glyph unicode="n" horiz-adv-x="1134" d="M344 967l-12 -154q44 78 134 134.5t222 56.5q162 0 244.5 -86.5t64.5 -264.5l-67 -630q0 -17 -11.5 -21t-48.5 -4q-36 0 -45.5 4t-9.5 21l68 630q13 129 -41.5 187.5t-175.5 58.5q-144 0 -242.5 -85t-110.5 -210l-63 -581q0 -17 -11.5 -21t-48.5 -4q-36 0 -45.5 4 t-9.5 21l101 944q2 15 12 19.5t43 4.5q34 0 44 -4.5t9 -19.5z" />
<glyph unicode="o" horiz-adv-x="1089" d="M604 1004q199 0 288 -95.5t89 -292.5q0 -58 -6 -122q-27 -264 -135 -387t-336 -123q-199 0 -288 94t-89 291q0 57 6 125q14 131 45.5 223.5t87 158t139 97t199.5 31.5zM512 84q170 0 246 96t100 314q8 90 8 120q0 150 -62 219.5t-206 69.5q-88 0 -149.5 -24t-101.5 -76 t-62 -126t-33 -183q-8 -90 -8 -123q0 -151 61.5 -219t206.5 -68z" />
<glyph unicode="p" horiz-adv-x="1136" d="M344 967l-12 -127q109 164 344 164q182 0 268 -98t86 -292q0 -52 -6 -114q-28 -263 -135.5 -389.5t-313.5 -126.5q-234 0 -311 159l-53 -489q0 -17 -11 -21t-48 -4q-36 0 -46 4t-10 21l140 1313q2 15 12 19.5t43 4.5q34 0 44 -4.5t9 -19.5zM301 494q-6 -62 -6 -111 q0 -155 63.5 -227t210.5 -72q162 0 238 98t98 318q8 82 8 114q0 149 -60.5 219t-197.5 70q-170 0 -251.5 -98.5t-102.5 -310.5z" />
<glyph unicode="q" horiz-adv-x="1136" d="M823 -371q-37 0 -46.5 4t-8.5 21l51 487q-113 -157 -338 -157q-182 0 -268 97t-86 292q0 57 6 119q28 261 135 386.5t314 125.5q236 0 313 -170l16 133q3 15 13.5 19.5t44.5 4.5t44 -4.5t9 -19.5l-139 -1313q0 -17 -11.5 -21t-48.5 -4zM856 494q6 58 6 106 q0 157 -63.5 230t-210.5 73q-162 0 -238 -97t-98 -314q-8 -86 -8 -119q0 -149 60.5 -219t197.5 -70q170 0 251 98t103 312z" />
<glyph unicode="r" horiz-adv-x="718" d="M692 885q-163 0 -266 -85.5t-117 -224.5l-59 -552q0 -17 -11.5 -21t-48.5 -4q-36 0 -45.5 4t-9.5 21l101 944q2 15 12 19.5t43 4.5q34 0 44 -4.5t9 -19.5l-16 -179q44 90 140.5 150.5t233.5 60.5q16 0 20.5 -11.5t0.5 -45.5q-3 -36 -9 -46.5t-22 -10.5z" />
<glyph unicode="s" horiz-adv-x="993" d="M209 258q-5 -92 58 -134t208 -42q53 0 97 9t84.5 30t63.5 61t23 97q0 76 -57 111t-190 61q-81 16 -138 36.5t-102 51t-67.5 74t-22.5 100.5q0 291 371 291q182 0 267 -64.5t70 -198.5q-2 -14 -13 -19t-44 -5q-36 0 -44.5 4.5t-8.5 21.5q6 84 -46 123t-183 39 q-256 0 -256 -184q0 -32 12.5 -56.5t30.5 -40.5t56 -30.5t71 -23.5t94 -23q80 -18 130 -35.5t95 -46t65.5 -72t20.5 -104.5q0 -305 -381 -305q-201 0 -295 71.5t-80 200.5q2 17 12 22t46 5q32 0 42.5 -5.5t10.5 -19.5z" />
<glyph unicode="t" horiz-adv-x="737" d="M664 889h-271l-65 -619q-10 -102 16 -142t102 -40q72 0 125 23q10 6 17 -3.5t12 -33.5q7 -28 6 -37t-12 -14q-68 -33 -156 -33q-118 0 -173.5 50t-55.5 163q0 13 4 59l66 627h-144q-12 0 -14.5 9t0.5 38q3 31 7 40t17 9l144 2l28 254q0 14 12 19.5t46 5.5t45.5 -5.5 t9.5 -19.5l-27 -254h271q13 0 16 -10t0 -39q-3 -30 -8 -39.5t-18 -9.5z" />
<glyph unicode="u" horiz-adv-x="1122" d="M797 20l12 152q-103 -188 -326 -188q-170 0 -258.5 89t-70.5 269l65 625q1 15 13.5 19.5t48.5 4.5q35 0 45.5 -4.5t9.5 -19.5l-66 -619q-28 -262 234 -262q139 0 225.5 87.5t99.5 211.5l62 582q1 15 12.5 19.5t46.5 4.5q36 0 46.5 -4.5t9.5 -19.5l-101 -947 q0 -15 -10 -18.5t-45 -3.5q-34 0 -43.5 3.5t-9.5 18.5z" />
<glyph unicode="v" horiz-adv-x="968" d="M907 991q37 0 47 -6t4 -24q-83 -208 -208.5 -476.5t-231.5 -466.5q-4 -13 -20.5 -16.5t-57.5 -3.5q-39 0 -53 3.5t-18 16.5q-67 203 -135.5 471.5t-104.5 471.5q-3 18 8 24t49 6q36 0 48 -6.5t14 -21.5q84 -464 203 -859q220 423 391 859q5 15 17.5 21.5t47.5 6.5z" />
<glyph unicode="w" horiz-adv-x="1515" d="M1434 991q37 0 47 -5.5t8 -18.5q0 -5 -10 -35q-202 -537 -379 -914q-4 -13 -19 -16.5t-51 -3.5q-32 0 -41.5 3.5t-13.5 16.5q-89 376 -170 822q-183 -460 -344 -822q-4 -13 -15.5 -16.5t-46.5 -3.5t-47.5 3.5t-15.5 16.5q-79 310 -186 914q-5 30 -5 35q2 13 13 18.5 t47 5.5q35 0 46 -7t13 -26q55 -393 148 -825q246 585 340 830q5 15 19 21.5t50 6.5q34 0 46.5 -6.5t15.5 -21.5q44 -257 164 -828q145 337 319 823q6 18 19.5 25.5t48.5 7.5z" />
<glyph unicode="x" horiz-adv-x="962" d="M721 25l-219 438h-29l-315 -438q-10 -19 -22 -23t-52 -4q-24 0 -37 3.5t-15 10t3 15.5l356 485l-248 446q-13 33 56 33q39 0 49 -5t20 -25l213 -402h31l301 402q13 20 24.5 25t51.5 5q24 0 37.5 -4t16 -11.5t-4.5 -17.5l-342 -446l252 -485q5 -9 1 -15.5t-18 -10 t-38 -3.5q-40 0 -51.5 4t-20.5 23z" />
<glyph unicode="y" horiz-adv-x="997" d="M141 -283q48 0 82.5 12t67.5 47.5t59.5 77t71.5 123.5l12 23q-34 0 -39 18q-68 190 -143.5 459.5t-122.5 483.5q-3 18 8 24t49 6q36 0 49 -6.5t13 -21.5q40 -201 104.5 -446t126.5 -431q94 182 205.5 431t187.5 446q5 15 17 21.5t45 6.5q37 0 48 -7t5 -26 q-80 -210 -216.5 -502t-246.5 -495q-29 -52 -46 -82t-41 -69t-41 -60.5t-40 -46.5t-44 -38t-47 -25t-55 -16.5t-63 -4.5q-66 0 -108 12q-12 3 -14.5 12t0.5 38q5 32 9 39.5t17 7.5q3 0 13.5 -3t30.5 -5.5t46 -2.5z" />
<glyph unicode="z" horiz-adv-x="970" d="M889 901l-666 -807h580q12 0 15.5 -9t0.5 -38q-3 -30 -7 -38.5t-17 -8.5h-701q-12 0 -15.5 8.5t-0.5 34.5q3 28 10 37l672 813h-555q-14 0 -17 9t0 38q3 30 7.5 38.5t17.5 8.5h674q12 0 14.5 -10t-0.5 -35q0 -26 -12 -41z" />
<glyph unicode="{" horiz-adv-x="692" d="M70 524q3 30 8 39.5t18 9.5h51q65 0 96.5 68.5t53.5 263.5q9 84 14.5 128.5t17.5 109t26 98t38 74.5t55 60t75.5 32.5t101.5 13.5h63q13 0 16.5 -9t0.5 -36q-3 -30 -7 -38.5t-16 -8.5h-61q-32 0 -57 -6t-45 -22t-34 -32.5t-26 -49t-19 -59.5t-14.5 -76t-11.5 -86.5 t-11 -102.5q-14 -129 -39 -209.5t-53.5 -114t-68.5 -47.5q45 -15 68.5 -65.5t23.5 -159.5q0 -72 -8 -145q-19 -186 -19 -246q0 -98 31 -143.5t111 -45.5h63q11 0 13.5 -8t0.5 -39q-3 -28 -7 -36.5t-17 -8.5h-66q-134 0 -185.5 67t-51.5 204q0 79 18 245q12 108 12 176 q0 87 -21.5 121.5t-68.5 34.5h-51q-14 0 -17.5 10t-0.5 39z" />
<glyph unicode="|" horiz-adv-x="618" d="M367 1395v-1782q0 -17 -10.5 -21t-47.5 -4t-47 4t-10 21v1782q0 17 10 20.5t47 3.5t47.5 -3.5t10.5 -20.5z" />
<glyph unicode="}" horiz-adv-x="692" d="M623 524q-3 -29 -8.5 -39t-18.5 -10h-51q-65 0 -96.5 -68.5t-53.5 -263.5q-9 -85 -14.5 -128.5t-17.5 -109t-25.5 -98.5t-37.5 -74t-55 -60t-75.5 -32.5t-101.5 -13.5h-64q-13 0 -16 9.5t0 35.5q3 30 6.5 38.5t15.5 8.5h62q42 0 73 10.5t52.5 39.5t35.5 57.5t25 88 t16.5 105.5t14.5 134q14 129 39 209.5t54 113.5t69 47q-45 15 -69 66t-24 160q0 62 9 145q18 176 18 246q0 98 -30.5 143t-110.5 45h-64q-11 0 -13.5 8t-0.5 39q3 28 7 36.5t17 8.5h66q134 0 186 -67t52 -203q0 -71 -19 -246q-12 -108 -12 -176q0 -87 21.5 -121.5 t68.5 -34.5h51q14 0 18 -10t1 -39z" />
<glyph unicode="~" d="M510 664l158 -93q42 -26 84 -26q84 0 137 114q5 11 35 11q25 0 34.5 -6.5t4.5 -20.5q-74 -190 -220 -190q-64 0 -114 26l-158 92q-45 29 -86 29q-82 0 -133 -115q-9 -12 -37 -12q-24 0 -33 6.5t-4 20.5q72 192 217 192q67 0 115 -28z" />
<glyph unicode="&#xa1;" horiz-adv-x="542" d="M291 604q30 0 38.5 -5t6.5 -19l-74 -922q-1 -18 -16.5 -24.5t-55.5 -6.5q-41 0 -55.5 6.5t-11.5 24.5l121 922q1 10 3.5 14.5t12.5 7t31 2.5zM311 776q-46 0 -59 6t-12 29l14 143q1 24 16 29.5t62 5.5t60.5 -5.5t10.5 -29.5l-14 -143q-1 -22 -17 -28.5t-61 -6.5z" />
<glyph unicode="&#xa2;" horiz-adv-x="1050" d="M520 -2q-34 0 -43.5 5t-7.5 20l14 149q-172 13 -250.5 108t-78.5 279q0 57 6 121q29 252 127.5 376t302.5 136l16 147q2 14 12.5 19.5t45.5 5.5q34 0 43.5 -5.5t7.5 -19.5l-17 -149q142 -12 215.5 -81t65.5 -183q-2 -16 -12 -21.5t-45 -5.5q-33 0 -44.5 5.5t-9.5 19.5 q3 70 -44 113.5t-142 52.5l-86 -818q203 15 227 181q3 14 14.5 19t45.5 5t43.5 -5t7.5 -21q-17 -127 -104 -198.5t-238 -80.5l-17 -149q0 -15 -10 -20t-45 -5zM272 561q0 -141 53 -210t177 -79l86 818q-148 -12 -217.5 -108.5t-91.5 -301.5q-7 -72 -7 -119z" />
<glyph unicode="&#xa3;" horiz-adv-x="1200" d="M166 0q-14 -9 -22.5 -1.5t-22.5 38.5q-15 31 -15.5 43.5t13.5 19.5q104 62 173.5 159t69.5 214q0 70 -34 170h-166q-12 0 -15 8.5t0 38.5q3 31 7 39t16 8h121q-37 105 -37 207q0 202 119 315t338 113q198 0 291.5 -77t93.5 -230q0 -21 -4 -61q-2 -16 -13.5 -21.5 t-46.5 -5.5q-36 0 -47.5 6t-9.5 21q12 135 -49 198.5t-219 63.5q-154 0 -242 -77t-88 -239q0 -101 41 -213h346q14 0 17.5 -8.5t0.5 -38.5t-7.5 -38.5t-18.5 -8.5h-305q30 -99 30 -170q0 -145 -92 -274q137 -103 332 -103q124 0 177 66.5t71 216.5q2 16 13.5 21.5t47.5 5.5 t46.5 -5.5t8.5 -21.5q-22 -201 -105.5 -294t-254.5 -93q-117 0 -221.5 34.5t-181.5 92.5q-68 -68 -156 -119z" />
<glyph unicode="&#xa4;" horiz-adv-x="1140" d="M127 322l98 98q-49 95 -49 258q0 161 49 256l-98 100q-10 8 -6 19t26 32q22 22 31.5 26t18.5 -5l88 -88q96 96 286 96q183 0 285 -94l88 86q9 9 18 5t33 -26q21 -21 25 -32t-4 -19l-98 -100q49 -101 49 -256q0 -157 -49 -258l98 -98q8 -8 4 -19.5t-25 -32.5 q-23 -22 -32.5 -25.5t-18.5 5.5l-88 86q-98 -94 -285 -94q-192 0 -286 94l-88 -86q-9 -9 -18.5 -5.5t-31.5 25.5q-22 21 -26 32.5t6 19.5zM571 334q153 0 219 81.5t66 262.5t-66 262.5t-219 81.5q-154 0 -219 -81.5t-65 -262.5t65 -262.5t219 -81.5z" />
<glyph unicode="&#xa5;" horiz-adv-x="1142" d="M973 414h-340l-41 -389q-1 -17 -13.5 -22t-50.5 -5t-48.5 5t-8.5 22l41 389h-342q-12 0 -14.5 8t0.5 39q3 30 7.5 38.5t16.5 8.5h332q-36 75 -84 192h-231q-13 0 -16.5 9t-0.5 39q3 31 7.5 39t17.5 8h184q-139 327 -209 534q-5 17 8.5 23t59.5 6q38 0 48 -4.5t15 -22.5 q100 -300 281 -731q260 408 432 731q9 18 20.5 22.5t49.5 4.5q44 0 57 -6t6 -23q-137 -245 -321 -534h182q13 0 16 -8t0 -39q-3 -32 -7 -40t-17 -8h-234l-123 -192h330q13 0 15.5 -7.5t0.5 -39.5q-3 -30 -7.5 -38.5t-18.5 -8.5z" />
<glyph unicode="&#xa6;" horiz-adv-x="618" d="M365 311v-700q0 -15 -10.5 -19t-45.5 -4t-45 4t-10 19v700q0 15 10 19t45 4t45.5 -4t10.5 -19zM365 1397v-701q0 -15 -10.5 -18.5t-45.5 -3.5q-36 0 -45.5 3.5t-9.5 18.5v701q0 15 9.5 18.5t45.5 3.5q35 0 45.5 -3.5t10.5 -18.5z" />
<glyph unicode="&#xa7;" horiz-adv-x="1140" d="M219 -86q-3 -97 61 -148t209 -51q64 0 113.5 11.5t91 38t64 75.5t22.5 119q0 89 -54.5 131t-186.5 70q-70 14 -119 27.5t-101 38t-83 55.5t-51.5 79t-20.5 109q0 268 246 344q-138 81 -138 240q0 84 29 146t83 99.5t125.5 55.5t162.5 18q187 0 271 -72t69 -215 q-2 -15 -12.5 -19.5t-45.5 -4.5t-44 4.5t-9 19.5q5 97 -46.5 143t-190.5 46q-55 0 -101.5 -10t-88 -32.5t-65.5 -66.5t-24 -106q0 -86 60.5 -132.5t201.5 -80.5q39 -9 62.5 -15t57.5 -16.5t55.5 -19.5t48.5 -23t43 -29t34 -36t27.5 -44.5t15.5 -54t6 -65.5q0 -145 -60 -229 t-177 -119q133 -78 133 -234q0 -173 -106.5 -257.5t-299.5 -84.5q-203 0 -299 79t-82 214q1 17 12 22t48 5q32 0 41.5 -5.5t11.5 -19.5zM602 748q-20 2 -51 10q-121 -8 -198 -80t-77 -197q0 -32 8.5 -58.5t19.5 -45.5t36.5 -36t44 -27t59 -22t64.5 -18t76 -18l28 -6 q273 16 273 291q0 37 -7.5 65t-27 48.5t-39.5 34t-57.5 25t-67.5 18t-84 16.5z" />
<glyph unicode="&#xa8;" horiz-adv-x="655" d="M254 1341q41 0 50.5 -5.5t8.5 -28.5l-14 -133q-2 -22 -13.5 -28.5t-52.5 -6.5q-39 0 -50 6.5t-9 28.5l14 133q1 23 12.5 28.5t53.5 5.5zM598 1341q41 0 50.5 -5.5t8.5 -28.5l-14 -133q-2 -22 -13 -28.5t-52 -6.5q-39 0 -50.5 6.5t-9.5 28.5l14 133q1 23 12.5 28.5 t53.5 5.5z" />
<glyph unicode="&#xa9;" horiz-adv-x="1591" d="M494 680q0 221 69.5 317.5t247.5 96.5q266 0 272 -228q0 -12 -8.5 -15t-34.5 -3q-27 0 -35 3t-8 15q-3 76 -47 113t-139 37q-133 0 -181 -73.5t-48 -262.5q0 -192 48 -265t183 -73q99 0 141.5 38.5t44.5 123.5q0 20 45 20q41 0 41 -20q-2 -121 -67 -181.5t-205 -60.5 q-181 0 -250 97t-69 321zM795 1370q171 0 290.5 -41.5t193 -129t107 -215t33.5 -306.5t-33.5 -306.5t-107 -215t-193 -129t-290.5 -41.5t-290 41.5t-193 129t-107 215t-33 306.5t33 306.5t107 215t193 129t290 41.5zM795 68q153 0 256 34.5t165 111.5t88.5 188.5t26.5 275.5 t-26.5 275.5t-88.5 188.5t-165 111.5t-256 34.5q-152 0 -254.5 -34.5t-165 -111.5t-89 -188.5t-26.5 -275.5t26.5 -275.5t89 -188.5t165 -111.5t254.5 -34.5z" />
<glyph unicode="&#xaa;" horiz-adv-x="706" d="M555 1014h-195q-137 0 -137 -121q0 -46 29.5 -64t87.5 -18q78 0 140.5 43.5t68.5 106.5zM289 1192q-2 -11 -11.5 -14.5t-35.5 -3.5q-29 0 -36 3.5t-5 16.5q9 88 69 130t176 42q125 0 176 -50t40 -153l-41 -395q-1 -17 -9 -21t-37 -4q-28 0 -37 4.5t-8 20.5l11 82 q-79 -113 -219 -113q-89 0 -139 40.5t-50 113.5q0 96 61.5 143t170.5 47h196l10 84q6 69 -24 96t-105 27q-78 0 -113.5 -21.5t-39.5 -74.5z" />
<glyph unicode="&#xab;" horiz-adv-x="944" d="M143 551q3 22 17 39l231 270q7 10 19.5 13.5t48.5 3.5q46 0 42 -16l-5 -9l-256 -301l192 -299q5 -8 3 -13.5t-12.5 -8.5t-29.5 -3q-38 0 -50 3t-17 14l-174 268q-12 18 -9 39zM487 551q3 22 17 39l231 270q6 10 19 13.5t49 3.5q46 0 42 -16l-5 -9l-256 -301l192 -299 q5 -8 3 -13.5t-12.5 -8.5t-29.5 -3q-38 0 -50 3t-17 14l-174 268q-12 18 -9 39z" />
<glyph unicode="&#xad;" horiz-adv-x="804" d="M178 600h490q12 0 15.5 -9.5t0.5 -39.5t-8 -38.5t-17 -8.5h-489q-13 0 -16 8t0 39q3 32 7 40.5t17 8.5z" />
<glyph unicode="&#xae;" horiz-adv-x="1083" d="M543 1370q223 0 319 -108t96 -340t-96 -340.5t-319 -108.5q-224 0 -321 108.5t-97 340.5t96.5 340t321.5 108zM543 530q198 0 276 90.5t78 301.5q0 210 -78 300.5t-276 90.5q-200 0 -278.5 -90.5t-78.5 -300.5t78.5 -301t278.5 -91zM530 874h-75v-198q0 -8 -7 -10t-28 -2 h-15t-8.5 1.5t-6 4t-1.5 6.5v491q0 15 27 15h135q99 0 143.5 -36.5t44.5 -117.5q0 -107 -102 -141q56 -21 80 -94q18 -50 28 -119q1 -4 0.5 -6.5t-7 -4t-21.5 -1.5q-31 0 -33 12q-2 9 -5 29t-6.5 37t-8.5 34q-32 100 -134 100zM455 1130v-204h94q70 0 98.5 22t28.5 80 q0 61 -27 81.5t-100 20.5h-94z" />
<glyph unicode="&#xaf;" horiz-adv-x="655" d="M659 1151h-503q-13 0 -16.5 8.5t-0.5 34.5q2 26 7 35.5t18 9.5h504q13 0 15.5 -8.5t0.5 -36.5q-3 -27 -7.5 -35t-17.5 -8z" />
<glyph unicode="&#xb0;" horiz-adv-x="731" d="M463 1370q213 0 213 -188q0 -122 -63 -195.5t-189 -73.5q-105 0 -159 49t-54 142q0 120 64 193t188 73zM426 987q83 0 128.5 49t45.5 140q0 64 -32.5 92t-106.5 28q-84 0 -129 -48t-45 -138q0 -65 33 -94t106 -29z" />
<glyph unicode="&#xb1;" d="M672 1057l-35 -332h328q13 0 16 -10t0 -41q-3 -30 -7.5 -39.5t-17.5 -9.5h-329l-35 -334q0 -13 -11 -18t-42 -5t-42.5 5.5t-9.5 17.5l35 334h-325q-13 0 -16.5 10t-0.5 39q3 32 7.5 41.5t17.5 9.5h327l35 332q2 12 13 16t43 4t42 -4t7 -16zM137 94h762q12 0 15 -8.5 t1 -38.5q-3 -30 -6.5 -38.5t-15.5 -8.5h-764q-12 0 -14.5 9t0.5 38q2 30 5.5 38.5t16.5 8.5z" />
<glyph unicode="&#xb2;" horiz-adv-x="675" d="M592 664h-457q-10 0 -12.5 7t0.5 29l2 17q7 70 56.5 121.5t148.5 109.5q14 8 50 27.5t55 30.5t47.5 32.5t43 41.5t26 49.5t11.5 62.5q0 54 -31.5 78t-99.5 24q-81 0 -117.5 -29.5t-44.5 -95.5q-1 -10 -10 -13t-37 -3q-29 0 -37.5 3t-5.5 15q21 199 256 199 q110 0 164.5 -45t54.5 -129q0 -55 -18 -98.5t-62.5 -81t-75 -57.5t-97.5 -57q-15 -9 -23 -13q-90 -52 -115 -75q-37 -33 -45 -71h379q9 0 11 -8t-1 -33q-2 -25 -4.5 -31.5t-11.5 -6.5z" />
<glyph unicode="&#xb3;" horiz-adv-x="675" d="M401 989h-59q-17 0 -14 37q3 21 7 28t13 7h60q68 0 106.5 35t38.5 104q0 49 -32 70.5t-101 21.5q-80 0 -114 -23.5t-42 -76.5q-3 -11 -11 -14.5t-36 -3.5q-29 0 -36.5 2.5t-4.5 15.5q22 178 248 178q109 0 165 -45t56 -123q0 -58 -28.5 -105t-84.5 -69q95 -22 95 -141 q0 -106 -70 -170t-188 -64q-126 0 -187 46.5t-53 136.5q3 13 11.5 16.5t35.5 3.5q28 0 35.5 -4t7.5 -16q-2 -54 31 -79.5t119 -25.5q74 0 120 40.5t46 115.5q0 56 -32.5 79t-101.5 23z" />
<glyph unicode="&#xb4;" horiz-adv-x="655" d="M600 1286l-340 -160q-13 -7 -21 -3t-18 24q-9 20 -8.5 28t12.5 15l332 184q13 10 23.5 3.5t23.5 -34.5q14 -31 13 -40t-17 -17z" />
<glyph unicode="&#xb6;" horiz-adv-x="1044" d="M1020 1290h-98q-62 0 -88 -23t-33 -89l-129 -1219q-11 -100 -34.5 -167.5t-62 -105t-84 -52.5t-108.5 -15q-64 0 -96 8q-13 5 -15.5 12.5t0.5 36.5t8 37t19 8l27 -3q27 -3 49 -3q89 0 131 51t59 199l56 543h-66q-106 0 -172 12t-110.5 44.5t-62 86.5t-17.5 140 q0 57 10 159q10 94 23 159t36 116.5t53.5 82t79 50.5t108 27.5t144.5 7.5h381q13 0 16 -11.5t0 -40.5q-3 -31 -7.5 -41t-16.5 -10z" />
<glyph unicode="&#xb7;" horiz-adv-x="450" d="M231 442q-46 0 -59 6t-12 29l14 144q1 23 15.5 28.5t62.5 5.5t61.5 -5.5t10.5 -28.5l-15 -144q-1 -22 -17 -28.5t-61 -6.5z" />
<glyph unicode="&#xb8;" horiz-adv-x="655" d="M303 -113h49q87 0 129.5 -26.5t42.5 -93.5q0 -88 -50.5 -125t-147.5 -37h-185q-13 0 -16 7.5t0 29.5q2 23 5.5 29.5t16.5 6.5h179q23 0 38.5 2t34 9.5t28 25t9.5 45.5q0 35 -22 45.5t-72 10.5h-106q-23 0 -31 5.5t-2 20.5l71 162q4 9 10.5 10.5t26.5 1.5q22 0 31.5 -4.5 t3.5 -17.5z" />
<glyph unicode="&#xb9;" horiz-adv-x="675" d="M571 664h-393q-17 0 -12 38q2 23 5.5 32t12.5 9h156l55 523l-155 -39q-5 -1 -8.5 2.5t-5 12t0.5 22.5q3 39 17 43l231 61q23 7 23 -12l-66 -613h146q9 0 11 -9t-1 -32q-2 -22 -5 -30t-12 -8z" />
<glyph unicode="&#xba;" horiz-adv-x="747" d="M260 1053q-4 -50 -4 -68q0 -88 37 -128t123 -40q101 0 147 55t58 181q4 46 4 65q0 88 -37 128t-123 40q-100 0 -146.5 -54.5t-58.5 -178.5zM168 1053q15 160 85.5 236.5t217.5 76.5q130 0 189 -60t59 -184q0 -19 -4 -69q-18 -163 -88 -240.5t-217 -77.5q-128 0 -187 60 t-59 182q0 22 4 76z" />
<glyph unicode="&#xbb;" horiz-adv-x="944" d="M457 551q-3 -22 -17 -39l-231 -270q-7 -10 -19.5 -13.5t-48.5 -3.5q-46 0 -42 16l5 9l256 301l-192 299q-13 21 23 23q7 1 16 1q39 0 51 -3t16 -13l175 -268q11 -17 8 -39zM801 551q-3 -22 -17 -39l-231 -270q-7 -10 -19.5 -13.5t-48.5 -3.5q-45 0 -41 16q1 4 5 9 l256 301l-193 299q-13 21 23 23l16 1q39 0 51 -3t16 -13l175 -268q11 -17 8 -39z" />
<glyph unicode="&#xbc;" horiz-adv-x="1646" d="M1380 -2q-29 0 -37 4t-8 18l17 154h-346q-18 0 -15 39q2 28 17 43l366 436q17 17 66 17q36 0 48 -3.5t11 -17.5l-47 -438h92q11 0 14.5 -7.5t0.5 -31.5q-1 -24 -5.5 -30.5t-15.5 -6.5h-94l-17 -154q0 -13 -9.5 -17.5t-37.5 -4.5zM1391 1333l-854 -1315 q-7 -13 -19.5 -16.5t-44.5 -3.5q-26 0 -33 6.5t0 18.5l856 1314q7 13 18.5 17t43.5 4q28 0 35 -6.5t-2 -18.5zM571 664h-393q-17 0 -12 38q2 23 5.5 32t12.5 9h156l55 523l-155 -39q-5 -1 -8.5 2.5t-5 12t0.5 22.5q3 39 17 43l231 61q23 7 23 -12l-66 -613h146q9 0 11 -9 t-1 -32q-2 -22 -5 -30t-12 -8zM1096 250h266l39 360z" />
<glyph unicode="&#xbd;" horiz-adv-x="1646" d="M1491 0h-457q-9 0 -12 7.5t0 29.5l2 16q7 70 56.5 122t148.5 110q15 9 50.5 28t54.5 30t47.5 32.5t43 41t26 49t11.5 62.5q0 54 -31.5 78.5t-99.5 24.5q-81 0 -117.5 -29.5t-44.5 -95.5q-2 -11 -10.5 -14t-36.5 -3t-37 3.5t-6 15.5q21 199 256 199q110 0 164.5 -45.5 t54.5 -129.5q0 -55 -18 -98.5t-62.5 -81t-75 -57.5t-97.5 -57q-15 -9 -23 -13q-4 -3 -24 -14t-25 -14.5t-21.5 -13.5t-22.5 -15t-18.5 -14.5t-18 -16.5t-13 -16.5t-11.5 -19.5t-6 -21h379q9 0 11 -8t-1 -33q-2 -25 -4.5 -32t-11.5 -7zM1335 1333l-854 -1315 q-7 -13 -19 -16.5t-44 -3.5q-26 0 -33 6.5t0 18.5l856 1314q7 13 18.5 17t43.5 4q28 0 34.5 -6.5t-2.5 -18.5zM571 664h-393q-17 0 -12 38q2 23 5.5 32t12.5 9h156l55 523l-155 -39q-5 -1 -8.5 2.5t-5 12t0.5 22.5q3 39 17 43l231 61q23 7 23 -12l-66 -613h146q9 0 11 -9 t-1 -32q-2 -22 -5 -30t-12 -8z" />
<glyph unicode="&#xbe;" horiz-adv-x="1646" d="M1380 -2q-29 0 -37 4t-8 18l17 154h-346q-18 0 -15 39q2 28 17 43l366 436q17 17 66 17q36 0 48 -3.5t11 -17.5l-47 -438h92q11 0 14.5 -7.5t0.5 -31.5q-1 -24 -5.5 -30.5t-15.5 -6.5h-94l-17 -154q0 -13 -9.5 -17.5t-37.5 -4.5zM401 989h-59q-17 0 -14 37q3 21 7 28 t13 7h60q68 0 106.5 35t38.5 104q0 49 -32 70.5t-101 21.5q-80 0 -114 -23.5t-42 -76.5q-3 -11 -11 -14.5t-36 -3.5q-29 0 -36.5 2.5t-4.5 15.5q22 178 248 178q109 0 165 -45t56 -123q0 -58 -28.5 -105t-84.5 -69q95 -22 95 -141q0 -106 -70 -170t-188 -64 q-126 0 -187 46.5t-53 136.5q3 13 11.5 16.5t35.5 3.5q28 0 35.5 -4t7.5 -16q-2 -54 31 -79.5t119 -25.5q74 0 120 40.5t46 115.5q0 56 -32.5 79t-101.5 23zM1362 1333l-854 -1315q-7 -13 -19.5 -16.5t-44.5 -3.5q-26 0 -33 6.5t1 18.5l856 1314q8 14 18.5 17.5t42.5 3.5 q28 0 35 -6.5t-2 -18.5zM1096 250h266l39 360z" />
<glyph unicode="&#xbf;" horiz-adv-x="1085" d="M522 528l8 54q2 13 11.5 17.5t40.5 4.5t39 -4.5t8 -17.5l-2 -54q-3 -58 -28.5 -107t-63 -85t-82 -69.5t-88.5 -68t-80.5 -72.5t-59 -91.5t-22.5 -116.5q0 -100 63.5 -149.5t202.5 -49.5q173 0 251.5 65.5t96.5 207.5q2 15 13 20.5t47 5.5q35 0 46 -5t9 -19 q-22 -194 -135.5 -286.5t-333.5 -92.5q-194 0 -288.5 79.5t-94.5 221.5q0 75 22 135.5t58 101t79.5 75t89.5 65t85.5 62t69 76t38.5 97.5zM598 776q-46 0 -59.5 6t-12.5 29l15 143q1 24 15.5 29.5t61.5 5.5t61 -5.5t11 -29.5l-14 -143q-1 -22 -17 -28.5t-61 -6.5z" />
<glyph unicode="&#xc0;" horiz-adv-x="1155" d="M989 -2q-36 0 -46 4.5t-13 22.5q-33 187 -74 383h-547q-53 -126 -153 -383q-6 -17 -18.5 -22t-49.5 -5q-39 0 -50 5t-5 22q115 299 277 669t296 637q8 17 21 22t55 5t54.5 -5t15.5 -22q80 -273 165 -643.5t134 -662.5q4 -17 -9 -22t-53 -5zM668 1217q-178 -376 -316 -709 h482q-85 404 -166 709zM682 1475l-322 163q-14 6 -13 17t22 41q18 29 29 34.5t22 -4.5l307 -192q9 -6 8.5 -13t-12.5 -26q-13 -21 -21.5 -24t-19.5 4z" />
<glyph unicode="&#xc1;" horiz-adv-x="1155" d="M989 -2q-36 0 -46 4.5t-13 22.5q-33 187 -74 383h-547q-53 -126 -153 -383q-6 -17 -18.5 -22t-49.5 -5q-39 0 -50 5t-5 22q115 299 277 669t296 637q8 17 21 22t55 5t54.5 -5t15.5 -22q80 -273 165 -643.5t134 -662.5q4 -17 -9 -22t-53 -5zM668 1217q-178 -376 -316 -709 h482q-85 404 -166 709zM1063 1638l-358 -163q-13 -7 -20.5 -3.5t-16.5 23.5q-8 18 -7.5 26t11.5 15l348 193q13 10 22.5 4t22.5 -35q14 -33 13 -42.5t-15 -17.5z" />
<glyph unicode="&#xc2;" horiz-adv-x="1155" d="M989 -2q-36 0 -46 4.5t-13 22.5q-33 187 -74 383h-547q-53 -126 -153 -383q-6 -17 -18.5 -22t-49.5 -5q-39 0 -50 5t-5 22q115 299 277 669t296 637q8 17 21 22t55 5t54.5 -5t15.5 -22q80 -273 165 -643.5t134 -662.5q4 -17 -9 -22t-53 -5zM668 1217q-178 -376 -316 -709 h482q-85 404 -166 709zM711 1620l-170 -135q-17 -15 -62 -15q-17 0 -26.5 3.5t-10 9.5t6.5 14l221 205q13 16 51 16q36 0 49 -16l172 -205q18 -20 -14 -26l-19 -1q-44 0 -59 15z" />
<glyph unicode="&#xc3;" horiz-adv-x="1155" d="M989 -2q-36 0 -46 4.5t-13 22.5q-33 187 -74 383h-547q-53 -126 -153 -383q-6 -17 -18.5 -22t-49.5 -5q-39 0 -50 5t-5 22q115 299 277 669t296 637q8 17 21 22t55 5t54.5 -5t15.5 -22q80 -273 165 -643.5t134 -662.5q4 -17 -9 -22t-53 -5zM668 1217q-178 -376 -316 -709 h482q-85 404 -166 709zM920 1630l2 27q2 12 10 16t33 4q29 0 36 -4.5t5 -19.5l-9 -47q-22 -136 -143 -136q-66 0 -127 37l-100 66q-34 24 -70 24q-29 0 -45 -16t-20 -59l-3 -29q-1 -12 -8.5 -15t-31.5 -3q-30 0 -37.5 4t-5.5 18l8 49q20 135 143 135q63 0 125 -36l102 -66 q44 -27 68 -27q30 0 47 17.5t21 60.5z" />
<glyph unicode="&#xc4;" horiz-adv-x="1155" d="M989 -2q-36 0 -46 4.5t-13 22.5q-33 187 -74 383h-547q-53 -126 -153 -383q-6 -17 -18.5 -22t-49.5 -5q-39 0 -50 5t-5 22q115 299 277 669t296 637q8 17 21 22t55 5t54.5 -5t15.5 -22q80 -273 165 -643.5t134 -662.5q4 -17 -9 -22t-53 -5zM668 1217q-178 -376 -316 -709 h482q-85 404 -166 709zM895 1681q42 0 52 -5.5t7 -28.5l-14 -134q-2 -22 -13 -28t-50 -6q-41 0 -52.5 6t-9.5 28l14 134q3 23 13.5 28.5t52.5 5.5zM537 1681q41 0 50.5 -5.5t6.5 -28.5l-14 -134q-2 -22 -12.5 -28t-51.5 -6t-51.5 6t-7.5 28l12 134q3 23 14.5 28.5t53.5 5.5z " />
<glyph unicode="&#xc5;" horiz-adv-x="1155" d="M989 -2q-36 0 -46 4.5t-13 22.5q-33 187 -74 383h-547q-53 -126 -153 -383q-6 -17 -18.5 -22t-49.5 -5q-39 0 -50 5t-5 22q111 290 270 654t293 634q-80 30 -80 131q0 82 50 133t141 51q163 0 163 -147q0 -62 -28.5 -107t-83.5 -63q78 -271 160.5 -634.5t132.5 -651.5 q4 -17 -9 -22t-53 -5zM668 1217q-178 -376 -316 -709h482q-85 404 -166 709zM682 1362q55 0 88 30t33 89q0 44 -22.5 64t-75.5 20q-55 0 -88 -31t-33 -90q0 -43 22.5 -62.5t75.5 -19.5z" />
<glyph unicode="&#xc6;" horiz-adv-x="1759" d="M1679 1245h-596l-51 -495h533q13 0 17 -11t1 -43q-3 -31 -9.5 -42t-19.5 -11h-534l-57 -532h604q13 0 16.5 -11t-0.5 -45q-3 -34 -7.5 -44.5t-16.5 -10.5h-672q-31 0 -42 5.5t-11 19.5l38 366h-530q-138 -227 -215 -366q-9 -17 -22.5 -22t-49.5 -5q-40 0 -51 5t-4 22 q160 283 391 653t422 653q11 15 26.5 20t55.5 5h795q14 0 17.5 -11t0.5 -45q-3 -33 -9 -44t-20 -11zM885 1249q-206 -304 -479 -753h477l80 753h-78z" />
<glyph unicode="&#xc7;" horiz-adv-x="1212" d="M537 -119h47q85 0 128.5 -28t43.5 -95q0 -164 -201 -164h-176q-13 0 -16.5 8t-0.5 31q2 23 6 31t17 8h168q24 0 39 2t34.5 9t29.5 25t10 46q0 37 -22 46.5t-75 9.5h-106q-22 0 -29.5 5.5t-1.5 20.5l66 156q-184 23 -264 136t-80 341q0 94 12 211q20 189 58.5 316.5 t106 213.5t167 124t243.5 38q212 0 315 -93t85 -288q0 -14 -12 -19t-48 -5q-35 0 -47 5t-10 19q11 140 -57.5 207.5t-233.5 67.5q-111 0 -185 -28t-126.5 -97.5t-82.5 -179t-48 -281.5q-12 -123 -12 -213q0 -210 76.5 -293.5t262.5 -83.5q168 0 248 69.5t99 219.5 q2 15 13 19.5t48 4.5t47.5 -4.5t9.5 -19.5q-24 -199 -136.5 -297t-336.5 -98h-35z" />
<glyph unicode="&#xc8;" horiz-adv-x="1126" d="M1047 1245h-644l-53 -495h578q12 0 16.5 -11.5t1.5 -42.5q-3 -32 -9 -42.5t-19 -10.5h-578l-57 -532h649q26 0 18 -58q-3 -33 -8.5 -43t-17.5 -10h-717q-32 0 -43.5 5.5t-9.5 19.5l137 1306q2 14 13 19.5t42 5.5h711q14 0 17 -11t-1 -45q-1 -33 -6.5 -44t-19.5 -11z M760 1475l-322 163q-14 6 -13.5 17.5t21.5 40.5q18 29 29.5 35t22.5 -5l307 -192q9 -6 8.5 -13t-12.5 -26q-13 -21 -21.5 -24t-19.5 4z" />
<glyph unicode="&#xc9;" horiz-adv-x="1126" d="M1047 1245h-644l-53 -495h578q12 0 16.5 -11.5t1.5 -42.5q-3 -32 -9 -42.5t-19 -10.5h-578l-57 -532h649q26 0 18 -58q-3 -33 -8.5 -43t-17.5 -10h-717q-32 0 -43.5 5.5t-9.5 19.5l137 1306q2 14 13 19.5t42 5.5h711q14 0 17 -11t-1 -45q-1 -33 -6.5 -44t-19.5 -11z M1051 1638l-359 -163q-13 -7 -20.5 -3.5t-16.5 23.5q-8 18 -7.5 26t11.5 15l349 193q13 10 22.5 4t22.5 -35q14 -33 13 -42.5t-15 -17.5z" />
<glyph unicode="&#xca;" horiz-adv-x="1126" d="M1047 1245h-644l-53 -495h578q12 0 16.5 -11.5t1.5 -42.5q-3 -32 -9 -42.5t-19 -10.5h-578l-57 -532h649q26 0 18 -58q-3 -33 -8.5 -43t-17.5 -10h-717q-32 0 -43.5 5.5t-9.5 19.5l137 1306q2 14 13 19.5t42 5.5h711q14 0 17 -11t-1 -45q-1 -33 -6.5 -44t-19.5 -11z M713 1620l-170 -135q-18 -15 -62 -15q-17 0 -26.5 3.5t-10 9.5t6.5 14l221 205q13 16 51 16q36 0 49 -16l172 -205q18 -20 -14 -26l-19 -1q-44 0 -59 15z" />
<glyph unicode="&#xcb;" horiz-adv-x="1126" d="M1047 1245h-644l-53 -495h578q12 0 16.5 -11.5t1.5 -42.5q-3 -32 -9 -42.5t-19 -10.5h-578l-57 -532h649q26 0 18 -58q-3 -33 -8.5 -43t-17.5 -10h-717q-32 0 -43.5 5.5t-9.5 19.5l137 1306q2 14 13 19.5t42 5.5h711q14 0 17 -11t-1 -45q-1 -33 -6.5 -44t-19.5 -11z M545 1681q41 0 50.5 -5.5t6.5 -28.5l-14 -134q-2 -22 -12.5 -28t-51.5 -6t-51.5 6t-7.5 28l12 134q3 23 14.5 28.5t53.5 5.5zM903 1681q42 0 52.5 -5.5t7.5 -28.5l-15 -134q-2 -22 -13 -28t-50 -6q-41 0 -52.5 6t-9.5 28l15 134q3 23 13.5 28.5t51.5 5.5z" />
<glyph unicode="&#xcc;" horiz-adv-x="520" d="M219 -2q-38 0 -48.5 5t-10.5 22l137 1306q3 17 14 22t49 5t49.5 -5t8.5 -22l-137 -1306q0 -17 -12 -22t-50 -5zM360 1475l-321 163q-14 6 -13.5 17.5t21.5 40.5q18 29 29 34.5t22 -4.5l308 -192q9 -6 8 -13t-13 -26q-13 -21 -21.5 -24t-19.5 4z" />
<glyph unicode="&#xcd;" horiz-adv-x="520" d="M219 -2q-38 0 -48.5 5t-10.5 22l137 1306q3 17 14 22t49 5t49.5 -5t8.5 -22l-137 -1306q0 -17 -12 -22t-50 -5zM741 1638l-358 -163q-13 -7 -20.5 -3.5t-16.5 23.5q-8 18 -7.5 26t11.5 15l348 193q13 10 22.5 4t22.5 -35q14 -33 13 -42.5t-15 -17.5z" />
<glyph unicode="&#xce;" horiz-adv-x="520" d="M219 -2q-38 0 -48.5 5t-10.5 22l137 1306q3 17 14 22t49 5t49.5 -5t8.5 -22l-137 -1306q0 -17 -12 -22t-50 -5zM389 1620l-170 -135q-17 -15 -61 -15q-17 0 -26.5 3.5t-10.5 9.5t6 14l221 205q13 16 51 16q37 0 50 -16l172 -205q18 -20 -14 -26l-19 -1q-45 0 -60 15z" />
<glyph unicode="&#xcf;" horiz-adv-x="520" d="M219 -2q-38 0 -48.5 5t-10.5 22l137 1306q3 17 14 22t49 5t49.5 -5t8.5 -22l-137 -1306q0 -17 -12 -22t-50 -5zM215 1681q41 0 50.5 -5.5t6.5 -28.5l-14 -134q-2 -22 -12 -28t-51 -6t-52 6t-8 28l12 134q3 23 14.5 28.5t53.5 5.5zM573 1681q42 0 52.5 -5.5t7.5 -28.5 l-15 -134q-2 -22 -13 -28t-50 -6q-41 0 -52 6t-9 28l14 134q3 23 13.5 28.5t51.5 5.5z" />
<glyph unicode="&#xd0;" horiz-adv-x="1286" d="M580 0h-369q-32 0 -43.5 5.5t-9.5 19.5l59 573h-127q-12 0 -15.5 8.5t-0.5 36.5q3 31 7 38t17 7h129l68 643q2 14 13 19.5t42 5.5h361q256 0 366.5 -114.5t110.5 -371.5q0 -104 -10 -192q-19 -184 -58 -308.5t-109 -209t-175 -122.5t-256 -38zM287 109h297 q161 0 253.5 52.5t142.5 173.5t73 343q12 114 12 199q0 208 -81 289t-279 81h-297l-60 -559h295q12 0 15.5 -8.5t0.5 -36.5q-3 -30 -7 -37.5t-17 -7.5h-297z" />
<glyph unicode="&#xd1;" horiz-adv-x="1325" d="M1174 1358q37 0 47.5 -5t7.5 -22l-137 -1306q0 -17 -14 -22t-62 -5q-37 0 -48.5 3.5t-17.5 18.5l-559 1151l-119 -1146q-1 -17 -12.5 -22t-48.5 -5t-47.5 5t-9.5 22l137 1306q2 17 15.5 22t60.5 5q38 0 49.5 -4t19.5 -19l555 -1145l121 1141q3 17 14 22t48 5zM1001 1630 l3 27q2 12 10 16t33 4q29 0 35.5 -4.5t4.5 -19.5l-8 -47q-22 -136 -143 -136q-66 0 -127 37l-100 66q-34 24 -70 24q-29 0 -45.5 -16t-20.5 -59l-2 -29q-1 -12 -9 -15t-32 -3q-30 0 -37.5 4t-5.5 18l9 49q20 135 143 135q63 0 125 -36l102 -66q44 -27 68 -27q30 0 46.5 17 t20.5 61z" />
<glyph unicode="&#xd2;" horiz-adv-x="1290" d="M743 1372q239 0 345 -115.5t106 -375.5q0 -92 -12 -203q-20 -189 -59 -317.5t-107.5 -214t-168 -124t-241.5 -38.5q-239 0 -344.5 116t-105.5 377q0 109 10 201q40 375 169.5 534.5t407.5 159.5zM612 90q146 0 233.5 53.5t138.5 180t75 354.5q12 117 12 205 q0 213 -77.5 298t-258.5 85q-145 0 -232 -53.5t-137.5 -180t-74.5 -354.5q-12 -114 -12 -203q0 -215 76.5 -300t256.5 -85zM764 1475l-322 163q-14 6 -13 17t22 41q18 29 29 34.5t22 -4.5l307 -192q9 -6 8.5 -13t-12.5 -26q-13 -21 -21.5 -24t-19.5 4z" />
<glyph unicode="&#xd3;" horiz-adv-x="1290" d="M743 1372q239 0 345 -115.5t106 -375.5q0 -92 -12 -203q-20 -189 -59 -317.5t-107.5 -214t-168 -124t-241.5 -38.5q-239 0 -344.5 116t-105.5 377q0 109 10 201q40 375 169.5 534.5t407.5 159.5zM612 90q146 0 233.5 53.5t138.5 180t75 354.5q12 117 12 205 q0 213 -77.5 298t-258.5 85q-145 0 -232 -53.5t-137.5 -180t-74.5 -354.5q-12 -114 -12 -203q0 -215 76.5 -300t256.5 -85zM1110 1638l-358 -163q-13 -7 -20.5 -3.5t-16.5 23.5q-8 18 -7.5 26t11.5 15l348 193q13 10 22.5 4t22.5 -35q14 -33 13 -42.5t-15 -17.5z" />
<glyph unicode="&#xd4;" horiz-adv-x="1290" d="M743 1372q239 0 345 -115.5t106 -375.5q0 -92 -12 -203q-20 -189 -59 -317.5t-107.5 -214t-168 -124t-241.5 -38.5q-239 0 -344.5 116t-105.5 377q0 109 10 201q40 375 169.5 534.5t407.5 159.5zM612 90q146 0 233.5 53.5t138.5 180t75 354.5q12 117 12 205 q0 213 -77.5 298t-258.5 85q-145 0 -232 -53.5t-137.5 -180t-74.5 -354.5q-12 -114 -12 -203q0 -215 76.5 -300t256.5 -85zM774 1620l-170 -135q-18 -15 -61 -15q-17 0 -26.5 3.5t-10.5 9.5t6 14l221 205q13 16 51 16q37 0 50 -16l172 -205q18 -20 -14 -26l-19 -1 q-45 0 -60 15z" />
<glyph unicode="&#xd5;" horiz-adv-x="1290" d="M743 1372q239 0 345 -115.5t106 -375.5q0 -92 -12 -203q-20 -189 -59 -317.5t-107.5 -214t-168 -124t-241.5 -38.5q-239 0 -344.5 116t-105.5 377q0 109 10 201q40 375 169.5 534.5t407.5 159.5zM612 90q146 0 233.5 53.5t138.5 180t75 354.5q12 117 12 205 q0 213 -77.5 298t-258.5 85q-145 0 -232 -53.5t-137.5 -180t-74.5 -354.5q-12 -114 -12 -203q0 -215 76.5 -300t256.5 -85zM983 1630l2 27q2 12 10 16t33 4q29 0 36 -4.5t5 -19.5l-8 -47q-22 -136 -143 -136q-66 0 -127 37l-101 66q-34 24 -69 24q-29 0 -45.5 -16t-20.5 -59 l-2 -29q-1 -12 -9 -15t-32 -3q-30 0 -37.5 4t-5.5 18l8 49q20 135 144 135q62 0 124 -36l103 -66q44 -27 67 -27q30 0 47 17.5t21 60.5z" />
<glyph unicode="&#xd6;" horiz-adv-x="1290" d="M743 1372q239 0 345 -115.5t106 -375.5q0 -92 -12 -203q-20 -189 -59 -317.5t-107.5 -214t-168 -124t-241.5 -38.5q-239 0 -344.5 116t-105.5 377q0 109 10 201q40 375 169.5 534.5t407.5 159.5zM612 90q146 0 233.5 53.5t138.5 180t75 354.5q12 117 12 205 q0 213 -77.5 298t-258.5 85q-145 0 -232 -53.5t-137.5 -180t-74.5 -354.5q-12 -114 -12 -203q0 -215 76.5 -300t256.5 -85zM600 1681q41 0 50.5 -5.5t6.5 -28.5l-14 -134q-2 -22 -12 -28t-51 -6t-52 6t-8 28l12 134q3 23 14.5 28.5t53.5 5.5zM958 1681q42 0 52.5 -5.5 t7.5 -28.5l-14 -134q-2 -22 -13 -28t-51 -6q-41 0 -52 6t-9 28l14 134q3 23 13.5 28.5t51.5 5.5z" />
<glyph unicode="&#xd7;" d="M817 283l-250 280l-309 -280q-8 -10 -19 -6t-30 26q-21 22 -23 32.5t9 18.5l309 279l-252 282q-7 8 -1.5 18t28.5 32q26 23 36 26.5t19 -6.5l250 -280l309 280q9 11 18 7t31 -27q19 -22 22 -32.5t-8 -17.5l-311 -280l252 -281q9 -9 4.5 -18.5t-29.5 -32.5 q-24 -22 -35.5 -26t-19.5 6z" />
<glyph unicode="&#xd8;" horiz-adv-x="1298" d="M748 1372q205 0 315 -88l88 123q9 12 22 16t44 4q12 0 20 -1t12.5 -3t5.5 -5.5t0 -7t-4 -7.5l-131 -182q78 -118 78 -340q0 -92 -12 -203q-20 -189 -59 -317.5t-107.5 -214t-168 -124t-241.5 -38.5q-207 0 -315 86l-88 -127q-9 -12 -22.5 -16.5t-43.5 -4.5 q-11 0 -19.5 1.5t-13 3.5t-6 5t-0.5 7t4 8l134 184q-80 116 -80 346q0 109 10 201q40 375 170 534.5t408 159.5zM283 475q0 -159 36 -235l676 942q-78 84 -256 84q-145 0 -232 -53.5t-137.5 -180t-74.5 -354.5q-12 -114 -12 -203zM616 90q146 0 233.5 53.5t138.5 180 t75 354.5q12 117 12 205q0 145 -37 229l-673 -942q74 -80 251 -80z" />
<glyph unicode="&#xd9;" horiz-adv-x="1296" d="M612 -16q-222 0 -324 92t-102 291q0 42 7 110l88 854q3 17 14 22t49 5t49 -5t8 -22l-88 -848q-6 -56 -6 -100q0 -152 71.5 -219.5t237.5 -67.5q190 0 275.5 89.5t107.5 297.5l91 848q2 17 12.5 22t48.5 5q37 0 48.5 -5t10.5 -22l-90 -854q-28 -261 -143.5 -377 t-364.5 -116zM760 1475l-322 163q-14 6 -13.5 17.5t21.5 40.5q18 29 29.5 35t22.5 -5l307 -192q9 -6 8.5 -13t-12.5 -26q-13 -21 -21.5 -24t-19.5 4z" />
<glyph unicode="&#xda;" horiz-adv-x="1296" d="M612 -16q-222 0 -324 92t-102 291q0 42 7 110l88 854q3 17 14 22t49 5t49 -5t8 -22l-88 -848q-6 -56 -6 -100q0 -152 71.5 -219.5t237.5 -67.5q190 0 275.5 89.5t107.5 297.5l91 848q2 17 12.5 22t48.5 5q37 0 48.5 -5t10.5 -22l-90 -854q-28 -261 -143.5 -377 t-364.5 -116zM1118 1638l-358 -163q-13 -7 -20.5 -3.5t-16.5 23.5q-8 18 -7.5 26t11.5 15l348 193q13 10 22.5 4t22.5 -35q14 -33 13 -42.5t-15 -17.5z" />
<glyph unicode="&#xdb;" horiz-adv-x="1296" d="M612 -16q-222 0 -324 92t-102 291q0 42 7 110l88 854q3 17 14 22t49 5t49 -5t8 -22l-88 -848q-6 -56 -6 -100q0 -152 71.5 -219.5t237.5 -67.5q190 0 275.5 89.5t107.5 297.5l91 848q2 17 12.5 22t48.5 5q37 0 48.5 -5t10.5 -22l-90 -854q-28 -261 -143.5 -377 t-364.5 -116zM776 1620l-170 -135q-18 -15 -61 -15q-17 0 -26.5 3.5t-10.5 9.5t6 14l221 205q13 16 51 16q37 0 50 -16l172 -205q18 -20 -14 -26l-19 -1q-45 0 -60 15z" />
<glyph unicode="&#xdc;" horiz-adv-x="1296" d="M612 -16q-222 0 -324 92t-102 291q0 42 7 110l88 854q3 17 14 22t49 5t49 -5t8 -22l-88 -848q-6 -56 -6 -100q0 -152 71.5 -219.5t237.5 -67.5q190 0 275.5 89.5t107.5 297.5l91 848q2 17 12.5 22t48.5 5q37 0 48.5 -5t10.5 -22l-90 -854q-28 -261 -143.5 -377 t-364.5 -116zM602 1681q41 0 50.5 -5.5t6.5 -28.5l-14 -134q-2 -22 -12 -28t-51 -6t-52 6t-8 28l13 134q3 23 14 28.5t53 5.5zM961 1681q42 0 52 -5.5t7 -28.5l-14 -134q-2 -22 -13 -28t-51 -6q-41 0 -52 6t-9 28l14 134q3 23 13.5 28.5t52.5 5.5z" />
<glyph unicode="&#xdd;" horiz-adv-x="1120" d="M1020 1331q10 18 19 22.5t46 4.5q45 0 58 -6t6 -23q-105 -185 -254 -423t-262 -402h-2l-49 -479q-1 -17 -13.5 -22t-50.5 -5t-48.5 5t-8.5 22l49 481q-80 168 -179 406t-163 417q-5 18 7 23.5t56 5.5q37 0 47 -4.5t15 -22.5q119 -353 289 -719q209 311 438 719z M1042 1638l-358 -163q-13 -7 -20.5 -3.5t-16.5 23.5q-8 18 -7.5 26t11.5 15l348 193q13 10 22.5 4t22.5 -35q14 -33 13 -42.5t-15 -17.5z" />
<glyph unicode="&#xde;" horiz-adv-x="1146" d="M575 346h-268l-33 -321q0 -17 -12 -22t-51 -5q-37 0 -47.5 5t-9.5 22l112 1071l25 235q1 17 13 22t50 5t49.5 -5t8.5 -22l-21 -207h256q219 0 319.5 -75.5t100.5 -243.5q0 -18 -4 -72q-22 -208 -135.5 -297.5t-352.5 -89.5zM379 1016l-60 -563h259q183 0 263.5 59 t98.5 221q4 50 4 66q0 124 -71 170.5t-236 46.5h-258z" />
<glyph unicode="&#xdf;" horiz-adv-x="1296" d="M645 739q-12 0 -14.5 9t0.5 40q3 32 7 41t17 9q62 5 111 14t100.5 29.5t86.5 51.5t57 82t22 118q0 194 -299 194q-180 0 -264 -65.5t-96 -206.5l-111 -1032q0 -17 -11.5 -21t-49.5 -4q-35 0 -43.5 4t-7.5 21l108 1038q13 122 62.5 200.5t152.5 122t264 43.5 q197 0 302.5 -72t105.5 -212q0 -156 -95.5 -246.5t-261.5 -108.5q66 -7 119 -21t102.5 -41t82.5 -65.5t53 -97.5t20 -135q0 -91 -21 -168.5t-64.5 -140.5t-119 -99t-176.5 -36q-167 0 -238.5 71.5t-58.5 196.5q2 16 12.5 21.5t45.5 5.5q32 0 42.5 -5.5t10.5 -19.5 q-3 -90 36.5 -133t151.5 -43q74 0 127.5 28t83 78.5t43 111.5t13.5 136q0 81 -23 134.5t-77 87.5t-124.5 52.5t-183.5 32.5z" />
<glyph unicode="&#xe0;" horiz-adv-x="1056" d="M315 725q0 -14 -11.5 -19.5t-45.5 -5.5q-36 0 -45.5 5t-7.5 22q35 277 383 277q196 0 274.5 -78t63.5 -238l-72 -668q0 -15 -10 -18.5t-45 -3.5t-44.5 3.5t-9.5 18.5l15 150q-45 -78 -136.5 -130t-215.5 -52q-151 0 -230.5 61.5t-79.5 177.5q0 154 97 231t270 77h330 l16 151q12 122 -40.5 171.5t-186.5 49.5q-128 0 -192.5 -43.5t-76.5 -138.5zM784 444h-321q-55 0 -98 -10t-78.5 -32.5t-54.5 -64t-19 -101.5q0 -154 205 -154q138 0 242 79t116 193zM635 1126l-309 160q-13 5 -12.5 16.5t20.5 40.5q21 28 31 33.5t20 -4.5l295 -184 q9 -7 8.5 -14.5t-12.5 -26.5q-14 -21 -22 -24.5t-19 3.5z" />
<glyph unicode="&#xe1;" horiz-adv-x="1056" d="M315 725q0 -14 -11.5 -19.5t-45.5 -5.5q-36 0 -45.5 5t-7.5 22q35 277 383 277q196 0 274.5 -78t63.5 -238l-72 -668q0 -15 -10 -18.5t-45 -3.5t-44.5 3.5t-9.5 18.5l15 150q-45 -78 -136.5 -130t-215.5 -52q-151 0 -230.5 61.5t-79.5 177.5q0 154 97 231t270 77h330 l16 151q12 122 -40.5 171.5t-186.5 49.5q-128 0 -192.5 -43.5t-76.5 -138.5zM784 444h-321q-55 0 -98 -10t-78.5 -32.5t-54.5 -64t-19 -101.5q0 -154 205 -154q138 0 242 79t116 193zM911 1286l-340 -160q-13 -7 -21 -3t-18 24q-9 20 -8 27.5t13 15.5l331 184 q13 10 23.5 3.5t23.5 -34.5q14 -31 13 -40t-17 -17z" />
<glyph unicode="&#xe2;" horiz-adv-x="1056" d="M315 725q0 -14 -11.5 -19.5t-45.5 -5.5q-36 0 -45.5 5t-7.5 22q35 277 383 277q196 0 274.5 -78t63.5 -238l-72 -668q0 -15 -10 -18.5t-45 -3.5t-44.5 3.5t-9.5 18.5l15 150q-45 -78 -136.5 -130t-215.5 -52q-151 0 -230.5 61.5t-79.5 177.5q0 154 97 231t270 77h330 l16 151q12 122 -40.5 171.5t-186.5 49.5q-128 0 -192.5 -43.5t-76.5 -138.5zM784 444h-321q-55 0 -98 -10t-78.5 -32.5t-54.5 -64t-19 -101.5q0 -154 205 -154q138 0 242 79t116 193zM627 1290l-160 -139q-26 -21 -70 -21q-17 0 -25.5 3.5t-8.5 9.5t8 14l217 213 q11 14 49 14q34 0 45 -14l172 -213q10 -12 2 -19.5t-33 -7.5q-27 0 -40 4.5t-27 16.5z" />
<glyph unicode="&#xe3;" horiz-adv-x="1056" d="M315 725q0 -14 -11.5 -19.5t-45.5 -5.5q-36 0 -45.5 5t-7.5 22q35 277 383 277q196 0 274.5 -78t63.5 -238l-72 -668q0 -15 -10 -18.5t-45 -3.5t-44.5 3.5t-9.5 18.5l15 150q-45 -78 -136.5 -130t-215.5 -52q-151 0 -230.5 61.5t-79.5 177.5q0 154 97 231t270 77h330 l16 151q12 122 -40.5 171.5t-186.5 49.5q-128 0 -192.5 -43.5t-76.5 -138.5zM784 444h-321q-55 0 -98 -10t-78.5 -32.5t-54.5 -64t-19 -101.5q0 -154 205 -154q138 0 242 79t116 193zM821 1288l2 27q2 12 10 16t33 4q29 0 35.5 -5t3.5 -19l-8 -47q-20 -138 -135 -138 q-59 0 -123 39l-102 66q-34 24 -66 24q-27 0 -42 -16t-19 -59l-2 -29q-2 -12 -10 -16.5t-31 -4.5q-29 0 -36 5t-5 20l6 47q25 137 139 137q25 0 49.5 -7t35.5 -12.5t36 -19.5l102 -65q41 -25 66 -25q28 0 42.5 17t18.5 61z" />
<glyph unicode="&#xe4;" horiz-adv-x="1056" d="M315 725q0 -14 -11.5 -19.5t-45.5 -5.5q-36 0 -45.5 5t-7.5 22q35 277 383 277q196 0 274.5 -78t63.5 -238l-72 -668q0 -15 -10 -18.5t-45 -3.5t-44.5 3.5t-9.5 18.5l15 150q-45 -78 -136.5 -130t-215.5 -52q-151 0 -230.5 61.5t-79.5 177.5q0 154 97 231t270 77h330 l16 151q12 122 -40.5 171.5t-186.5 49.5q-128 0 -192.5 -43.5t-76.5 -138.5zM784 444h-321q-55 0 -98 -10t-78.5 -32.5t-54.5 -64t-19 -101.5q0 -154 205 -154q138 0 242 79t116 193zM453 1341q41 0 50.5 -5.5t8.5 -28.5l-14 -133q-2 -22 -13.5 -28.5t-52.5 -6.5 q-39 0 -50 6.5t-9 28.5l14 133q1 23 12.5 28.5t53.5 5.5zM799 1341q41 0 50.5 -5.5t8.5 -28.5l-14 -133q-2 -22 -13.5 -28.5t-52.5 -6.5q-39 0 -50 6.5t-9 28.5l14 133q1 23 12.5 28.5t53.5 5.5z" />
<glyph unicode="&#xe5;" horiz-adv-x="1056" d="M315 725q0 -14 -11.5 -19.5t-45.5 -5.5q-36 0 -45.5 5t-7.5 22q35 277 383 277q196 0 274.5 -78t63.5 -238l-72 -668q0 -15 -10 -18.5t-45 -3.5t-44.5 3.5t-9.5 18.5l15 150q-45 -78 -136.5 -130t-215.5 -52q-151 0 -230.5 61.5t-79.5 177.5q0 154 97 231t270 77h330 l16 151q12 122 -40.5 171.5t-186.5 49.5q-128 0 -192.5 -43.5t-76.5 -138.5zM784 444h-321q-55 0 -98 -10t-78.5 -32.5t-54.5 -64t-19 -101.5q0 -154 205 -154q138 0 242 79t116 193zM641 1448q158 0 158 -135q0 -85 -48 -136t-141 -51q-80 0 -119.5 37t-39.5 103 q0 82 49.5 132t140.5 50zM616 1188q55 0 86 30t31 91q0 80 -96 80q-53 0 -86 -31.5t-33 -89.5q0 -41 23 -60.5t75 -19.5z" />
<glyph unicode="&#xe6;" horiz-adv-x="1648" d="M1507 453h-626q-2 -25 -2 -70q0 -153 62.5 -226t197.5 -73q101 0 164 45t77 127q3 14 14.5 19.5t45.5 5.5q35 0 44.5 -5t8.5 -22q-22 -128 -116 -199t-242 -71q-265 0 -332 196q-61 -97 -166.5 -144.5t-220.5 -47.5q-153 0 -234.5 65.5t-81.5 182.5q0 156 98.5 231.5 t272.5 75.5h311l17 143q12 119 -40 170t-181 51q-124 0 -188.5 -44.5t-74.5 -137.5q0 -14 -11.5 -19.5t-45.5 -5.5q-36 0 -44.5 4.5t-8.5 22.5q34 277 381 277q254 0 303 -160q109 160 334 160q171 0 249 -92.5t78 -249.5q0 -22 -4 -80l-8 -70q-3 -35 -9.5 -47t-21.5 -12z M772 455h-307q-113 0 -182.5 -50.5t-69.5 -164.5q0 -158 209 -158q133 0 230.5 74.5t109.5 193.5zM1219 903q-144 0 -221.5 -85t-106.5 -275h543l6 57q2 23 2 64q0 239 -223 239z" />
<glyph unicode="&#xe7;" horiz-adv-x="1024" d="M426 -113h49q87 0 129.5 -26.5t42.5 -93.5q0 -88 -50.5 -125t-147.5 -37h-185q-13 0 -16 7.5t0 29.5q2 23 5.5 29.5t16.5 6.5h179q23 0 38.5 2t34 9.5t28 25t9.5 45.5q0 35 -22 45.5t-72 10.5h-107q-22 0 -30 5.5t-2 20.5l65 152q-137 24 -200.5 117t-63.5 260 q0 55 6 123q29 263 136 386.5t333 123.5q166 0 254.5 -72t79.5 -199q-2 -16 -12.5 -21t-44.5 -5q-35 0 -46.5 5t-9.5 19q6 84 -53.5 128t-175.5 44q-168 0 -244 -95.5t-98 -313.5q-8 -90 -8 -123q0 -151 62 -219t210 -68q241 0 264 186q2 14 14.5 19.5t45.5 5.5 q35 0 44 -5.5t9 -21.5q-20 -139 -118 -211.5t-265 -72.5q-31 0 -45 2z" />
<glyph unicode="&#xe8;" horiz-adv-x="1050" d="M911 463h-669q-2 -31 -2 -82q0 -153 66.5 -225t215.5 -72q231 0 262 174q3 14 14.5 19.5t43.5 5.5q37 0 46.5 -5t6.5 -22q-22 -130 -118.5 -201t-258.5 -71q-201 0 -297 96.5t-96 294.5q0 49 6 110q30 266 140.5 392.5t330.5 126.5q184 0 267 -92t83 -250q0 -22 -4 -80 l-6 -60q-5 -37 -10.5 -48t-20.5 -11zM598 903q-156 0 -235 -82.5t-109 -267.5h582l6 47q4 46 4 66q0 237 -248 237zM639 1126l-309 160q-13 5 -12.5 16.5t20.5 40.5q21 28 31 33.5t20 -4.5l295 -184q9 -7 8.5 -14.5t-12.5 -26.5q-14 -21 -22 -24.5t-19 3.5z" />
<glyph unicode="&#xe9;" horiz-adv-x="1050" d="M911 463h-669q-2 -31 -2 -82q0 -153 66.5 -225t215.5 -72q231 0 262 174q3 14 14.5 19.5t43.5 5.5q37 0 46.5 -5t6.5 -22q-22 -130 -118.5 -201t-258.5 -71q-201 0 -297 96.5t-96 294.5q0 49 6 110q30 266 140.5 392.5t330.5 126.5q184 0 267 -92t83 -250q0 -22 -4 -80 l-6 -60q-5 -37 -10.5 -48t-20.5 -11zM598 903q-156 0 -235 -82.5t-109 -267.5h582l6 47q4 46 4 66q0 237 -248 237zM938 1286l-340 -160q-13 -7 -21 -3t-18 24q-9 20 -8.5 28t12.5 15l332 184q13 10 23.5 3.5t23.5 -34.5q14 -31 13 -40t-17 -17z" />
<glyph unicode="&#xea;" horiz-adv-x="1050" d="M911 463h-669q-2 -31 -2 -82q0 -153 66.5 -225t215.5 -72q231 0 262 174q3 14 14.5 19.5t43.5 5.5q37 0 46.5 -5t6.5 -22q-22 -130 -118.5 -201t-258.5 -71q-201 0 -297 96.5t-96 294.5q0 49 6 110q30 266 140.5 392.5t330.5 126.5q184 0 267 -92t83 -250q0 -22 -4 -80 l-6 -60q-5 -37 -10.5 -48t-20.5 -11zM598 903q-156 0 -235 -82.5t-109 -267.5h582l6 47q4 46 4 66q0 237 -248 237zM627 1290l-160 -139q-26 -21 -70 -21q-17 0 -25.5 3.5t-8.5 9.5t8 14l217 213q11 14 49 14q34 0 45 -14l172 -213q10 -12 2 -19.5t-33 -7.5q-27 0 -40 4.5 t-27 16.5z" />
<glyph unicode="&#xeb;" horiz-adv-x="1050" d="M911 463h-669q-2 -31 -2 -82q0 -153 66.5 -225t215.5 -72q231 0 262 174q3 14 14.5 19.5t43.5 5.5q37 0 46.5 -5t6.5 -22q-22 -130 -118.5 -201t-258.5 -71q-201 0 -297 96.5t-96 294.5q0 49 6 110q30 266 140.5 392.5t330.5 126.5q184 0 267 -92t83 -250q0 -22 -4 -80 l-6 -60q-5 -37 -10.5 -48t-20.5 -11zM598 903q-156 0 -235 -82.5t-109 -267.5h582l6 47q4 46 4 66q0 237 -248 237zM459 1341q41 0 50.5 -5.5t8.5 -28.5l-14 -133q-2 -22 -13.5 -28.5t-52.5 -6.5q-39 0 -50 6.5t-9 28.5l14 133q1 23 12.5 28.5t53.5 5.5zM803 1341 q41 0 50.5 -5.5t8.5 -28.5l-14 -133q-2 -22 -13.5 -28.5t-52.5 -6.5q-39 0 -50 6.5t-9 28.5l14 133q1 23 12.5 28.5t53.5 5.5z" />
<glyph unicode="&#xec;" horiz-adv-x="477" d="M141 23l99 944q2 14 14 19t47 5t46 -5t9 -19l-100 -944q0 -17 -11 -21t-48 -4t-47 4t-9 21zM299 1126l-309 160q-13 5 -12.5 16.5t20.5 40.5q21 28 31 33.5t20 -4.5l295 -184q9 -7 8.5 -14.5t-12.5 -26.5q-14 -21 -22 -24.5t-19 3.5z" />
<glyph unicode="&#xed;" horiz-adv-x="477" d="M141 23l99 944q2 14 14 19t47 5t46 -5t9 -19l-100 -944q0 -17 -11 -21t-48 -4t-47 4t-9 21zM676 1286l-340 -160q-13 -7 -21 -3t-18 24q-9 20 -8.5 28t12.5 15l332 184q13 10 23.5 3.5t23.5 -34.5q14 -31 13 -40t-17 -17z" />
<glyph unicode="&#xee;" horiz-adv-x="477" d="M141 23l99 944q2 14 14 19t47 5t46 -5t9 -19l-100 -944q0 -17 -11 -21t-48 -4t-47 4t-9 21zM334 1290l-160 -139q-26 -21 -70 -21q-17 0 -25.5 3.5t-8.5 9.5t8 14l217 213q11 14 49 14q34 0 45 -14l172 -213q10 -12 2 -19.5t-33 -7.5q-27 0 -40 4.5t-27 16.5z" />
<glyph unicode="&#xef;" horiz-adv-x="477" d="M141 23l99 944q2 14 14 19t47 5t46 -5t9 -19l-100 -944q0 -17 -11 -21t-48 -4t-47 4t-9 21zM170 1341q41 0 50.5 -5.5t8.5 -28.5l-14 -133q-2 -22 -13 -28.5t-52 -6.5q-39 0 -50.5 6.5t-9.5 28.5l14 133q1 23 12.5 28.5t53.5 5.5zM504 1341q41 0 50.5 -5.5t8.5 -28.5 l-14 -133q-2 -22 -13.5 -28.5t-52.5 -6.5q-39 0 -50 6.5t-9 28.5l14 133q1 23 12.5 28.5t53.5 5.5z" />
<glyph unicode="&#xf0;" horiz-adv-x="1097" d="M1079 1286l-141 -55q66 -124 66 -361q0 -148 -21 -338q-31 -292 -139 -420t-336 -128q-200 0 -290.5 94.5t-90.5 292.5q0 55 6 123q14 131 46 224t87.5 158t139.5 96.5t200 31.5q111 0 189 -43t108 -119q3 244 -65 350l-215 -84q-12 -6 -18.5 -0.5t-12.5 27.5 q-7 25 -5.5 33t13.5 14l182 69q-89 70 -256 70q-14 0 -17.5 8.5t-0.5 38.5q3 31 9 40t20 9q247 0 356 -121l164 64q12 3 18 -2.5t12 -26.5q5 -17 6 -25.5t-2.5 -12.5t-11.5 -7zM514 84q169 0 246.5 96.5t101.5 313.5q6 65 6 118q0 152 -61.5 221.5t-206.5 69.5 q-170 0 -248 -96t-100 -313q-8 -86 -8 -121q0 -152 62 -220.5t208 -68.5z" />
<glyph unicode="&#xf1;" horiz-adv-x="1136" d="M344 967l-12 -154q44 78 134 134.5t222 56.5q162 0 244.5 -86.5t64.5 -264.5l-67 -630q0 -17 -11.5 -21t-48.5 -4q-36 0 -45.5 4t-9.5 21l68 630q13 129 -41.5 187.5t-175.5 58.5q-144 0 -242.5 -85t-110.5 -210l-63 -581q0 -17 -11.5 -21t-48.5 -4q-36 0 -45.5 4 t-9.5 21l101 944q2 15 12 19.5t43 4.5q34 0 44 -4.5t9 -19.5zM862 1288l2 27q2 12 10 16t33 4q29 0 35.5 -5t3.5 -19l-8 -47q-20 -138 -135 -138q-59 0 -123 39l-102 66q-34 24 -66 24q-27 0 -42 -16t-19 -59l-2 -29q-2 -12 -10 -16.5t-31 -4.5q-29 0 -36 5t-5 20l6 47 q25 137 139 137q50 0 121 -39l102 -65q41 -25 66 -25q28 0 42.5 17t18.5 61z" />
<glyph unicode="&#xf2;" horiz-adv-x="1089" d="M604 1004q199 0 288 -95.5t89 -292.5q0 -58 -6 -122q-27 -264 -135 -387t-336 -123q-199 0 -288 94t-89 291q0 57 6 125q14 131 45.5 223.5t87 158t139 97t199.5 31.5zM512 84q170 0 246 96t100 314q8 90 8 120q0 150 -62 219.5t-206 69.5q-88 0 -149.5 -24t-101.5 -76 t-62 -126t-33 -183q-8 -90 -8 -123q0 -151 61.5 -219t206.5 -68zM633 1126l-309 160q-13 5 -12.5 16.5t20.5 40.5q21 28 31 33.5t20 -4.5l295 -184q9 -7 8.5 -14.5t-12.5 -26.5q-14 -21 -22 -24.5t-19 3.5z" />
<glyph unicode="&#xf3;" horiz-adv-x="1089" d="M604 1004q199 0 288 -95.5t89 -292.5q0 -58 -6 -122q-27 -264 -135 -387t-336 -123q-199 0 -288 94t-89 291q0 57 6 125q14 131 45.5 223.5t87 158t139 97t199.5 31.5zM512 84q170 0 246 96t100 314q8 90 8 120q0 150 -62 219.5t-206 69.5q-88 0 -149.5 -24t-101.5 -76 t-62 -126t-33 -183q-8 -90 -8 -123q0 -151 61.5 -219t206.5 -68zM952 1286l-340 -160q-13 -7 -21 -3t-18 24q-9 20 -8 27.5t13 15.5l331 184q13 10 23.5 3.5t23.5 -34.5q14 -31 13 -40t-17 -17z" />
<glyph unicode="&#xf4;" horiz-adv-x="1089" d="M604 1004q199 0 288 -95.5t89 -292.5q0 -58 -6 -122q-27 -264 -135 -387t-336 -123q-199 0 -288 94t-89 291q0 57 6 125q14 131 45.5 223.5t87 158t139 97t199.5 31.5zM512 84q170 0 246 96t100 314q8 90 8 120q0 150 -62 219.5t-206 69.5q-88 0 -149.5 -24t-101.5 -76 t-62 -126t-33 -183q-8 -90 -8 -123q0 -151 61.5 -219t206.5 -68zM639 1290l-160 -139q-26 -21 -69 -21q-7 0 -13 0.5t-10.5 2t-7 3t-3.5 4t-0.5 5t2.5 6t5 6.5l217 213q11 14 49 14q34 0 45 -14l172 -213q10 -12 2.5 -19.5t-32.5 -7.5q-44 0 -68 21z" />
<glyph unicode="&#xf5;" horiz-adv-x="1089" d="M604 1004q199 0 288 -95.5t89 -292.5q0 -58 -6 -122q-27 -264 -135 -387t-336 -123q-199 0 -288 94t-89 291q0 57 6 125q14 131 45.5 223.5t87 158t139 97t199.5 31.5zM512 84q170 0 246 96t100 314q8 90 8 120q0 150 -62 219.5t-206 69.5q-88 0 -149.5 -24t-101.5 -76 t-62 -126t-33 -183q-8 -90 -8 -123q0 -151 61.5 -219t206.5 -68zM840 1288l2 27q2 12 10 16t33 4q29 0 35.5 -5t3.5 -19l-9 -47q-20 -138 -135 -138q-59 0 -123 39l-102 66q-34 24 -66 24q-27 0 -42 -16t-19 -59l-2 -29q-2 -12 -10 -16.5t-31 -4.5q-29 0 -36 5t-5 20l6 47 q25 137 139 137q25 0 49.5 -7t35.5 -12.5t36 -19.5l103 -65q41 -25 65 -25q28 0 43 17t19 61z" />
<glyph unicode="&#xf6;" horiz-adv-x="1089" d="M604 1004q199 0 288 -95.5t89 -292.5q0 -58 -6 -122q-27 -264 -135 -387t-336 -123q-199 0 -288 94t-89 291q0 57 6 125q14 131 45.5 223.5t87 158t139 97t199.5 31.5zM512 84q170 0 246 96t100 314q8 90 8 120q0 150 -62 219.5t-206 69.5q-88 0 -149.5 -24t-101.5 -76 t-62 -126t-33 -183q-8 -90 -8 -123q0 -151 61.5 -219t206.5 -68zM471 1341q41 0 50.5 -5.5t8.5 -28.5l-14 -133q-2 -22 -13 -28.5t-52 -6.5q-39 0 -50.5 6.5t-9.5 28.5l15 133q1 23 12 28.5t53 5.5zM817 1341q42 0 51.5 -5.5t8.5 -28.5l-15 -133q-2 -22 -13 -28.5t-52 -6.5 q-39 0 -50.5 6.5t-9.5 28.5l15 133q1 23 12 28.5t53 5.5z" />
<glyph unicode="&#xf7;" d="M209 684h745q13 0 15.5 -10t-0.5 -41q-3 -29 -8.5 -39t-18.5 -10h-745q-12 0 -15 10t0 39q3 31 8.5 41t18.5 10zM528 184q-46 0 -59 6t-12 29l14 143q1 24 16 29.5t62 5.5t61 -5.5t11 -29.5l-15 -143q-1 -22 -17 -28.5t-61 -6.5zM600 868q-46 0 -59.5 6t-12.5 29l15 144 q1 23 15.5 28.5t62.5 5.5t61 -5.5t10 -28.5l-14 -144q-1 -22 -17 -28.5t-61 -6.5z" />
<glyph unicode="&#xf8;" horiz-adv-x="1095" d="M606 1004q154 0 240 -56l74 96q13 21 59 21q18 0 28 -4t9.5 -9.5t-4.5 -11.5l-107 -143q78 -97 78 -281q0 -58 -6 -122q-27 -264 -135 -387t-336 -123q-152 0 -238 53l-69 -94q-11 -12 -23 -16.5t-39 -4.5q-19 0 -28.5 4t-9 10t4.5 13l105 137q-80 92 -80 283q0 57 6 125 q14 131 45.5 223.5t87 158t139 97t199.5 31.5zM246 371q0 -125 37 -187l499 670q-64 49 -182 49q-88 0 -149.5 -24t-101.5 -76t-62 -126t-33 -183q-8 -90 -8 -123zM514 84q170 0 246 96t100 314q8 90 8 120q0 117 -39 185l-497 -670q62 -45 182 -45z" />
<glyph unicode="&#xf9;" horiz-adv-x="1122" d="M797 20l12 152q-103 -188 -326 -188q-170 0 -258.5 89t-70.5 269l65 625q1 15 13.5 19.5t48.5 4.5q35 0 45.5 -4.5t9.5 -19.5l-66 -619q-28 -262 234 -262q139 0 225.5 87.5t99.5 211.5l62 582q1 15 12.5 19.5t46.5 4.5q36 0 46.5 -4.5t9.5 -19.5l-101 -947 q0 -15 -10 -18.5t-45 -3.5q-34 0 -43.5 3.5t-9.5 18.5zM645 1126l-309 160q-13 5 -12.5 16.5t20.5 40.5q21 28 31 33.5t20 -4.5l295 -184q9 -7 8.5 -14.5t-12.5 -26.5q-14 -21 -22 -24.5t-19 3.5z" />
<glyph unicode="&#xfa;" horiz-adv-x="1122" d="M797 20l12 152q-103 -188 -326 -188q-170 0 -258.5 89t-70.5 269l65 625q1 15 13.5 19.5t48.5 4.5q35 0 45.5 -4.5t9.5 -19.5l-66 -619q-28 -262 234 -262q139 0 225.5 87.5t99.5 211.5l62 582q1 15 12.5 19.5t46.5 4.5q36 0 46.5 -4.5t9.5 -19.5l-101 -947 q0 -15 -10 -18.5t-45 -3.5q-34 0 -43.5 3.5t-9.5 18.5zM954 1286l-340 -160q-13 -7 -21 -3t-18 24q-9 20 -8 27.5t13 15.5l331 184q13 10 23.5 3.5t23.5 -34.5q14 -31 13 -40t-17 -17z" />
<glyph unicode="&#xfb;" horiz-adv-x="1122" d="M797 20l12 152q-103 -188 -326 -188q-170 0 -258.5 89t-70.5 269l65 625q1 15 13.5 19.5t48.5 4.5q35 0 45.5 -4.5t9.5 -19.5l-66 -619q-28 -262 234 -262q139 0 225.5 87.5t99.5 211.5l62 582q1 15 12.5 19.5t46.5 4.5q36 0 46.5 -4.5t9.5 -19.5l-101 -947 q0 -15 -10 -18.5t-45 -3.5q-34 0 -43.5 3.5t-9.5 18.5zM651 1290l-159 -139q-26 -21 -70 -21q-7 0 -13 0.5t-10.5 2t-7 3t-3.5 4t-0.5 5t2.5 6t5 6.5l217 213q11 14 50 14q34 0 45 -14l172 -213q10 -12 2 -19.5t-33 -7.5q-44 0 -68 21z" />
<glyph unicode="&#xfc;" horiz-adv-x="1122" d="M797 20l12 152q-103 -188 -326 -188q-170 0 -258.5 89t-70.5 269l65 625q1 15 13.5 19.5t48.5 4.5q35 0 45.5 -4.5t9.5 -19.5l-66 -619q-28 -262 234 -262q139 0 225.5 87.5t99.5 211.5l62 582q1 15 12.5 19.5t46.5 4.5q36 0 46.5 -4.5t9.5 -19.5l-101 -947 q0 -15 -10 -18.5t-45 -3.5q-34 0 -43.5 3.5t-9.5 18.5zM481 1341q42 0 51.5 -5.5t8.5 -28.5l-15 -133q-2 -22 -13 -28.5t-52 -6.5q-39 0 -50.5 6.5t-9.5 28.5l15 133q1 23 12 28.5t53 5.5zM827 1341q42 0 51.5 -5.5t8.5 -28.5l-15 -133q-2 -22 -13 -28.5t-52 -6.5 q-39 0 -50 6.5t-9 28.5l14 133q1 23 12 28.5t53 5.5z" />
<glyph unicode="&#xfd;" horiz-adv-x="997" d="M141 -283q48 0 82.5 12t67.5 47.5t59.5 77t71.5 123.5l12 23q-34 0 -39 18q-68 190 -143.5 459.5t-122.5 483.5q-3 18 8 24t49 6q36 0 49 -6.5t13 -21.5q40 -201 104.5 -446t126.5 -431q94 182 205.5 431t187.5 446q5 15 17 21.5t45 6.5q37 0 48 -7t5 -26 q-80 -210 -216.5 -502t-246.5 -495q-29 -52 -46 -82t-41 -69t-41 -60.5t-40 -46.5t-44 -38t-47 -25t-55 -16.5t-63 -4.5q-66 0 -108 12q-12 3 -14.5 12t0.5 38q5 32 9 39.5t17 7.5q3 0 13.5 -3t30.5 -5.5t46 -2.5zM932 1286l-340 -160q-13 -7 -21 -3t-18 24q-9 20 -8.5 28 t12.5 15l332 184q13 10 23.5 3.5t23.5 -34.5q14 -31 13 -40t-17 -17z" />
<glyph unicode="&#xfe;" horiz-adv-x="1136" d="M395 1395l-59 -549q110 158 340 158q182 0 268 -98t86 -292q0 -52 -6 -114q-28 -263 -135.5 -389.5t-313.5 -126.5q-234 0 -311 159l-53 -489q0 -17 -11 -21t-48 -4q-36 0 -46 4t-10 21l185 1741q1 17 10.5 20.5t46.5 3.5q38 0 48 -4t9 -20zM301 494q-6 -62 -6 -111 q0 -155 63.5 -227t210.5 -72q162 0 238 98t98 318q8 82 8 114q0 149 -60.5 219t-197.5 70q-170 0 -251.5 -98.5t-102.5 -310.5z" />
<glyph unicode="&#xff;" horiz-adv-x="997" d="M141 -283q48 0 82.5 12t67.5 47.5t59.5 77t71.5 123.5l12 23q-34 0 -39 18q-68 190 -143.5 459.5t-122.5 483.5q-3 18 8 24t49 6q36 0 49 -6.5t13 -21.5q40 -201 104.5 -446t126.5 -431q94 182 205.5 431t187.5 446q5 15 17 21.5t45 6.5q37 0 48 -7t5 -26 q-80 -210 -216.5 -502t-246.5 -495q-29 -52 -46 -82t-41 -69t-41 -60.5t-40 -46.5t-44 -38t-47 -25t-55 -16.5t-63 -4.5q-66 0 -108 12q-12 3 -14.5 12t0.5 38q5 32 9 39.5t17 7.5q3 0 13.5 -3t30.5 -5.5t46 -2.5zM770 1341q41 0 50.5 -5.5t8.5 -28.5l-14 -133 q-2 -22 -13 -28.5t-52 -6.5q-39 0 -50.5 6.5t-9.5 28.5l15 133q1 23 12 28.5t53 5.5zM424 1341q41 0 50.5 -5.5t8.5 -28.5l-14 -133q-2 -22 -13.5 -28.5t-52.5 -6.5q-39 0 -50 6.5t-9 28.5l14 133q1 23 12.5 28.5t53.5 5.5z" />
<glyph unicode="&#x152;" horiz-adv-x="1798" d="M1718 1245h-606l-51 -495h543q13 0 16.5 -10t-0.5 -44q-3 -31 -9 -42t-18 -11h-544l-56 -532h611q13 0 17 -11.5t1 -44.5t-9 -44t-18 -11h-962q-256 0 -366.5 116t-110.5 376q0 73 10 186q20 184 59.5 308.5t110 209t175 122.5t253.5 38h965q13 0 16.5 -11t-0.5 -45 q-3 -33 -9 -44t-18 -11zM639 104h233l121 1147h-233q-118 0 -197.5 -27.5t-136 -96t-88 -175.5t-49.5 -274q-10 -120 -10 -193q0 -211 82 -296t278 -85z" />
<glyph unicode="&#x153;" horiz-adv-x="1703" d="M1565 459h-627q-4 -54 -4 -78q0 -152 62.5 -224.5t197.5 -72.5q101 0 165 45t79 127q3 14 14 19.5t43 5.5q37 0 46.5 -5t6.5 -22q-22 -127 -117 -198.5t-243 -71.5q-269 0 -330 211q-50 -108 -138.5 -159.5t-230.5 -51.5q-190 0 -276 93.5t-86 289.5q0 59 6 127 q14 131 45.5 224t85.5 158t134.5 96.5t191.5 31.5q143 0 222.5 -53t107.5 -160q52 107 139.5 160t220.5 53q88 0 152.5 -25.5t101.5 -72.5t54.5 -107t17.5 -135q0 -53 -4 -82l-7 -64q-3 -36 -9 -47.5t-21 -11.5zM498 84q162 0 238 97t98 313q8 86 8 120q0 150 -60 219.5 t-198 69.5q-162 0 -236 -96t-96 -313q-8 -94 -8 -125q0 -148 59 -216.5t195 -68.5zM1274 903q-145 0 -221 -83.5t-105 -270.5h543l4 51q4 46 4 64q0 239 -225 239z" />
<glyph unicode="&#x178;" horiz-adv-x="1120" d="M1020 1331q10 18 19 22.5t46 4.5q45 0 58 -6t6 -23q-105 -185 -254 -423t-262 -402h-2l-49 -479q-1 -17 -13.5 -22t-50.5 -5t-48.5 5t-8.5 22l49 481q-80 168 -179 406t-163 417q-5 18 7 23.5t56 5.5q37 0 47 -4.5t15 -22.5q119 -353 289 -719q209 311 438 719zM874 1681 q42 0 52.5 -5.5t7.5 -28.5l-14 -134q-2 -22 -13 -28t-51 -6q-41 0 -52 6t-9 28l14 134q3 23 13.5 28.5t51.5 5.5zM516 1681q41 0 50.5 -5.5t6.5 -28.5l-14 -134q-2 -22 -12 -28t-51 -6t-52 6t-8 28l13 134q3 23 14 28.5t53 5.5z" />
<glyph unicode="&#x2c6;" horiz-adv-x="655" d="M422 1290l-160 -139q-26 -21 -69 -21q-7 0 -13 0.5t-10.5 2t-7 3t-3.5 4t-0.5 5t2.5 6t5 6.5l217 213q11 14 49 14q34 0 45 -14l172 -213q10 -12 2 -19.5t-33 -7.5q-27 0 -40 4.5t-27 16.5z" />
<glyph unicode="&#x2dc;" horiz-adv-x="655" d="M621 1288l2 27q2 12 10 16t33 4q29 0 35.5 -5t3.5 -19l-9 -47q-20 -138 -135 -138q-59 0 -123 39l-102 66q-34 24 -66 24q-27 0 -42 -16t-19 -59l-2 -29q-2 -12 -10 -16.5t-31 -4.5q-29 0 -36 5t-5 20l6 47q25 137 139 137q50 0 121 -39l103 -65q41 -25 65 -25 q28 0 43 17t19 61z" />
<glyph unicode="&#x2000;" horiz-adv-x="867" />
<glyph unicode="&#x2001;" horiz-adv-x="1735" />
<glyph unicode="&#x2002;" horiz-adv-x="867" />
<glyph unicode="&#x2003;" horiz-adv-x="1735" />
<glyph unicode="&#x2004;" horiz-adv-x="578" />
<glyph unicode="&#x2005;" horiz-adv-x="433" />
<glyph unicode="&#x2006;" horiz-adv-x="289" />
<glyph unicode="&#x2007;" horiz-adv-x="289" />
<glyph unicode="&#x2008;" horiz-adv-x="216" />
<glyph unicode="&#x2009;" horiz-adv-x="347" />
<glyph unicode="&#x200a;" horiz-adv-x="96" />
<glyph unicode="&#x2010;" horiz-adv-x="804" d="M178 600h490q12 0 15.5 -9.5t0.5 -39.5t-8 -38.5t-17 -8.5h-489q-13 0 -16 8t0 39q3 32 7 40.5t17 8.5z" />
<glyph unicode="&#x2011;" horiz-adv-x="804" d="M178 600h490q12 0 15.5 -9.5t0.5 -39.5t-8 -38.5t-17 -8.5h-489q-13 0 -16 8t0 39q3 32 7 40.5t17 8.5z" />
<glyph unicode="&#x2012;" horiz-adv-x="804" d="M178 600h490q12 0 15.5 -9.5t0.5 -39.5t-8 -38.5t-17 -8.5h-489q-13 0 -16 8t0 39q3 32 7 40.5t17 8.5z" />
<glyph unicode="&#x2013;" horiz-adv-x="1050" d="M172 600h746q14 0 17.5 -9.5t0.5 -39.5q-5 -31 -9.5 -39t-17.5 -8h-745q-14 0 -17 8.5t0 38.5q3 31 7.5 40t17.5 9z" />
<glyph unicode="&#x2014;" horiz-adv-x="1464" d="M164 600h1175q13 0 17 -9t2 -40q-5 -31 -9.5 -39t-17.5 -8h-1175q-14 0 -17 8.5t0 38.5q3 31 7.5 40t17.5 9z" />
<glyph unicode="&#x2018;" horiz-adv-x="409" d="M315 1124l-12 -106q-1 -9 -3 -12.5t-14.5 -7t-37.5 -3.5q-34 0 -42.5 5.5t-6.5 17.5l10 110q23 209 197 289q13 7 20 2.5t16 -28.5q10 -28 8.5 -36t-14.5 -14q-58 -30 -85.5 -83.5t-35.5 -133.5z" />
<glyph unicode="&#x2019;" horiz-adv-x="409" d="M264 1288l12 107q1 9 3.5 12.5t15 6.5t37.5 3q34 0 42.5 -5t6.5 -17l-10 -111q-23 -209 -197 -289q-13 -7 -20.5 -2t-16.5 29q-10 28 -8.5 35.5t14.5 13.5q58 30 85.5 83.5t35.5 133.5z" />
<glyph unicode="&#x201a;" horiz-adv-x="409" d="M139 94l13 107q1 9 3.5 12.5t14.5 6.5t37 3q34 0 42.5 -5t6.5 -17l-10 -111q-23 -209 -197 -289q-13 -7 -20.5 -2t-16.5 29q-10 28 -8.5 35.5t14.5 13.5q58 30 85.5 83.5t35.5 133.5z" />
<glyph unicode="&#x201c;" horiz-adv-x="720" d="M315 1124l-12 -106q-1 -9 -3 -12.5t-14.5 -7t-37.5 -3.5q-34 0 -42.5 5.5t-6.5 17.5l10 110q23 209 197 289q13 7 20 2.5t16 -28.5q10 -28 8.5 -36t-14.5 -14q-58 -30 -85.5 -83.5t-35.5 -133.5zM627 1124l-13 -106q-1 -9 -3 -12.5t-14.5 -7t-37.5 -3.5q-34 0 -42.5 5.5 t-6.5 17.5l10 110q23 209 197 289q13 7 20.5 2.5t16.5 -28.5q10 -28 8.5 -36t-14.5 -14q-58 -30 -85.5 -83.5t-35.5 -133.5z" />
<glyph unicode="&#x201d;" horiz-adv-x="720" d="M264 1288l12 107q1 9 3.5 12.5t15 6.5t37.5 3q34 0 42.5 -5t6.5 -17l-10 -111q-23 -209 -197 -289q-13 -7 -20.5 -2t-16.5 29q-10 28 -8.5 35.5t14.5 13.5q58 30 85.5 83.5t35.5 133.5zM575 1288l13 107q1 9 3.5 12.5t14.5 6.5t37 3q34 0 42.5 -5t6.5 -17l-10 -111 q-23 -209 -197 -289q-13 -7 -20 -2t-16 29q-10 28 -8.5 35.5t14.5 13.5q58 30 85 83.5t35 133.5z" />
<glyph unicode="&#x201e;" horiz-adv-x="720" d="M139 94l13 107q1 9 3.5 12.5t14.5 6.5t37 3q34 0 42.5 -5t6.5 -17l-10 -111q-23 -209 -197 -289q-13 -7 -20.5 -2t-16.5 29q-10 28 -8.5 35.5t14.5 13.5q58 30 85.5 83.5t35.5 133.5zM449 94l12 107q1 9 3.5 12.5t14.5 6.5t37 3q34 0 42.5 -5t6.5 -17l-10 -111 q-23 -209 -197 -289q-13 -7 -20 -2t-16 29q-10 28 -8.5 35.5t14.5 13.5q58 30 85.5 83.5t35.5 133.5z" />
<glyph unicode="&#x2022;" horiz-adv-x="681" d="M342 379q-88 0 -117.5 18.5t-29.5 81.5q0 29 6 70q12 113 41 141.5t131 28.5q87 0 116 -18.5t29 -79.5q0 -29 -6 -72q-6 -60 -13 -90.5t-26.5 -50t-47.5 -24.5t-83 -5z" />
<glyph unicode="&#x2026;" horiz-adv-x="1353" d="M184 -2q-46 0 -59 6t-12 29l14 143q1 24 16 29.5t62 5.5t60.5 -5.5t10.5 -29.5l-14 -143q-1 -22 -17 -28.5t-61 -6.5zM635 -2q-45 0 -59 6.5t-13 28.5l15 143q3 24 16.5 29.5t60.5 5.5t61 -5.5t13 -29.5l-14 -143q-3 -23 -18.5 -29t-61.5 -6zM1087 -2q-46 0 -60 6t-11 29 l14 143q1 24 16 29.5t62 5.5q46 0 60.5 -6t11.5 -29l-15 -143q-1 -22 -17 -28.5t-61 -6.5z" />
<glyph unicode="&#x202f;" horiz-adv-x="347" />
<glyph unicode="&#x2039;" horiz-adv-x="600" d="M143 551q3 22 17 39l231 270q7 10 19.5 13.5t48.5 3.5q46 0 42 -16l-5 -9l-256 -301l192 -299q5 -8 3 -13.5t-12.5 -8.5t-29.5 -3q-38 0 -50 3t-17 14l-174 268q-12 18 -9 39z" />
<glyph unicode="&#x203a;" horiz-adv-x="600" d="M457 551q-3 -22 -17 -39l-231 -270q-7 -10 -19.5 -13.5t-48.5 -3.5q-46 0 -42 16l5 9l256 301l-192 299q-13 21 23 23q7 1 16 1q39 0 51 -3t16 -13l175 -268q11 -17 8 -39z" />
<glyph unicode="&#x205f;" horiz-adv-x="433" />
<glyph unicode="&#x20ac;" horiz-adv-x="1271" d="M713 496h-346v-31q0 -208 74 -291.5t251 -83.5q163 0 238.5 68t93.5 209q0 17 11.5 21.5t49.5 4.5q36 0 45.5 -4.5t8.5 -21.5q-21 -192 -126.5 -287.5t-324.5 -95.5q-237 0 -339.5 113.5t-102.5 369.5v29h-135q-14 0 -17 8.5t0 38.5q3 31 7.5 39t17.5 8h131q4 56 8 90 q2 29 10 88h-129q-13 0 -16 8t0 39q5 34 8 41.5t16 7.5h136q50 271 170.5 389.5t357.5 118.5q216 0 313.5 -94t79.5 -274q-2 -16 -13.5 -21.5t-47.5 -5.5t-47 5.5t-9 21.5q12 130 -53.5 196t-224.5 66q-179 0 -269 -88.5t-134 -313.5h425q14 0 17.5 -9t-0.5 -40 q-3 -31 -7.5 -39t-17.5 -8h-434q-8 -59 -10 -88q-4 -34 -8 -90h350q13 0 16 -8t0 -39t-7 -39t-17 -8z" />
<glyph unicode="&#x2122;" horiz-adv-x="1546" d="M881 1356q50 0 55 -19l172 -516l281 516q11 19 57 19q35 0 47.5 -3.5t11.5 -15.5l-75 -719q0 -12 -7.5 -15t-33.5 -3q-27 0 -34 3t-7 15l65 621l-264 -481q-11 -23 -49 -23q-42 0 -45 23l-166 481l-64 -621q-1 -12 -9 -15t-36 -3q-24 0 -31 3t-6 15l76 719q1 12 14 15.5 t48 3.5zM672 1278h-209l-70 -660q0 -11 -8.5 -14.5t-36.5 -3.5q-26 0 -33.5 3.5t-5.5 14.5l68 660h-203q-10 0 -12.5 8t0.5 31q3 27 5.5 33t12.5 6h498q11 0 13 -7t-1 -32q-2 -24 -5 -31.5t-13 -7.5z" />
<glyph unicode="&#x25fc;" horiz-adv-x="993" d="M0 993h993v-993h-993v993z" />
</font>
</defs>
</svg>
