<?xml version="1.0" standalone="no"?>
<!DOCTYPE svg PUBLIC "-//W3C//DTD SVG 1.1//EN" "http://www.w3.org/Graphics/SVG/1.1/DTD/svg11.dtd" >
<svg xmlns="http://www.w3.org/2000/svg" xmlns:xlink="http://www.w3.org/1999/xlink" version="1.1">
<metadata></metadata>
<defs>
<font id="frygiahairline" horiz-adv-x="1081" >
<font-face units-per-em="2048" ascent="1536" descent="-512" />
<missing-glyph horiz-adv-x="491" />
<glyph unicode="&#xfb01;" horiz-adv-x="1019" d="M797 1378q-93 27 -224 27q-164 0 -223 -71.5t-59 -243.5v-119h524q8 0 8 -4v-963q0 -4 -6 -4t-6 4v954h-520v-954q0 -4 -6 -4t-6 4v954h-205q-4 0 -4 7q0 6 4 6h205v121q0 176 63 250.5t231 74.5q120 0 230 -28q4 -2 2 -9q-2 -5 -8 -2z" />
<glyph unicode="&#xfb02;" horiz-adv-x="1040" d="M291 1090v-119h262q4 0 4 -6q0 -7 -4 -7h-262v-954q0 -4 -6 -4t-6 4v954h-205q-4 0 -4 7q0 6 4 6h205v121q0 90 13.5 147.5t48 99.5t96 60t157.5 18q131 0 221 -22q8 -3 8 -9v-1202q0 -96 26.5 -134t106.5 -38h43q5 0 5 -6t-5 -6h-45q-83 0 -113 42t-30 140v1202 q-72 21 -217 21q-93 0 -152.5 -17.5t-93 -58t-45.5 -96t-12 -143.5z" />
<glyph unicode="&#xfb03;" horiz-adv-x="1560" d="M819 971v121q0 176 63.5 250.5t231.5 74.5q119 0 229 -28q5 -3 3 -9q-3 -5 -9 -2q-93 27 -223 27q-164 0 -223.5 -71.5t-59.5 -243.5v-119h525q8 0 8 -4v-963q0 -4 -6 -4t-6 4v954h-521v-954q0 -4 -6 -4t-6 4v954h-528v-954q0 -4 -6 -4t-6 4v954h-205q-4 0 -4 7q0 6 4 6 h205v162q0 146 49 215t172 69q87 0 151 -22q4 -2 2 -9q-2 -5 -8 -2q-53 21 -145 21q-118 0 -163.5 -66.5t-45.5 -208.5v-159h528z" />
<glyph unicode="&#xfb04;" horiz-adv-x="1581" d="M819 971v121q0 89 13.5 147t48.5 100t96.5 60t157.5 18q131 0 221 -22q8 -3 8 -9v-1202q0 -96 26.5 -134t106.5 -38h43q4 0 4 -6t-4 -6h-45q-83 0 -113 42t-30 140v1202q-72 21 -217 21q-93 0 -152.5 -17.5t-93 -58t-46 -96t-12.5 -143.5v-119h263q4 0 4 -6q0 -7 -4 -7 h-263v-954q0 -4 -6 -4t-6 4v954h-528v-954q0 -4 -6 -4t-6 4v954h-205q-4 0 -4 7q0 6 4 6h205v162q0 146 49 215t172 69q87 0 151 -22q4 -2 2 -9q-2 -5 -8 -2q-53 21 -145 21q-118 0 -163.5 -66.5t-45.5 -208.5v-159h528z" />
<glyph horiz-adv-x="0" />
<glyph horiz-adv-x="682" />
<glyph unicode=" "  horiz-adv-x="491" />
<glyph unicode="&#x09;" horiz-adv-x="491" />
<glyph unicode="&#xa0;" horiz-adv-x="491" />
<glyph unicode="!" horiz-adv-x="462" d="M231 383q-6 0 -6 4l-2 965q0 4 8 4q9 0 9 -4l-2 -965q0 -4 -7 -4zM231 0q-6 0 -6 4v162q0 4 6 4q7 0 7 -4v-162q0 -4 -7 -4z" />
<glyph unicode="&#x22;" horiz-adv-x="634" d="M170 930l-6 473q0 6 10 6t10 -6l-6 -473q0 -4 -4 -4t-4 4zM455 924l-6 473q0 6 10 6t10 -6l-6 -473q0 -4 -4 -4t-4 4z" />
<glyph unicode="#" horiz-adv-x="1171" d="M664 4l96 410h-455l-96 -410q0 -4 -6 -4t-6 4l96 410h-199q-4 0 -4 6t4 6h201l100 422h-198q-4 0 -4 6t4 6h200l99 410q0 4 6 4t6 -4l-98 -410h454l99 410q0 4 6 4t6 -4l-98 -410h200q4 0 4 -6t-4 -6h-203l-100 -422h201q4 0 4 -6t-4 -6h-203l-96 -410q0 -4 -6 -4t-6 4z M408 848l-101 -422h455l100 422h-454z" />
<glyph unicode="$" horiz-adv-x="1146" d="M586 -184q-6 0 -6 4v172q-428 9 -428 342q0 4 6 4t6 -4q0 -324 416 -330v680q-81 22 -135.5 41.5t-110.5 49.5t-88.5 66t-53 89t-20.5 121q0 160 89.5 234.5t297.5 74.5h21v176q0 4 6 4t6 -4v-178q187 -6 271.5 -84.5t84.5 -245.5q0 -4 -6 -4t-6 4q0 163 -81 238.5 t-263 79.5v-654q1 0 4.5 -1t5.5 -1q89 -24 145 -44.5t108 -49.5t80 -64.5t44 -85.5t16 -118q0 -169 -90.5 -252.5t-306.5 -83.5h-6v-172q0 -4 -6 -4zM598 4q212 0 298.5 80t86.5 244q0 66 -16.5 115t-43.5 83t-78.5 62.5t-105.5 47.5t-139 42q-6 0 -8 2v-676h6zM184 1051 q0 -66 20 -117.5t50.5 -85.5t85.5 -63.5t107 -47.5t133 -41v652h-21q-203 0 -289 -71t-86 -226z" />
<glyph unicode="%" horiz-adv-x="1552" d="M381 1360q237 0 237 -307q0 -308 -237 -308q-238 0 -238 308q0 307 238 307zM381 758q114 0 169.5 72.5t55.5 222.5q0 151 -55 223t-170 72t-170 -72t-55 -223q0 -150 55.5 -222.5t169.5 -72.5zM1171 608q238 0 238 -307t-238 -307q-237 0 -237 307t237 307zM1171 6 q114 0 170 72.5t56 222.5q0 151 -55.5 223t-170.5 72t-170 -72t-55 -223q0 -150 55.5 -222.5t169.5 -72.5zM1206 1352l-846 -1348q-2 -4 -10 -4q-6 0 -4 4l846 1348q2 4 10 4q6 0 4 -4z" />
<glyph unicode="&#x26;" horiz-adv-x="1323" d="M1266 18q4 0 4 -6q0 -4 -4 -6q-35 -10 -90 -10q-81 0 -125 57t-50 185q-35 -113 -139.5 -179.5t-271.5 -66.5q-216 0 -329.5 102t-113.5 299q0 162 82 263.5t213 119.5q-100 10 -160.5 78.5t-60.5 206.5q0 295 330 295q178 0 252.5 -68.5t79.5 -210.5q0 -4 -6 -4 q-7 0 -7 4q-3 91 -32 147.5t-99 87.5t-188 31q-165 0 -241.5 -71.5t-76.5 -210.5q0 -144 68.5 -211.5t208.5 -67.5h154q4 0 4 -6t-4 -6h-152q-164 0 -258 -104t-94 -273q0 -193 109 -291t321 -98q204 0 311 97.5t107 254.5v414h-179q-4 0 -4 6t4 6h408q4 0 4 -6t-4 -6h-217 v-414q0 -36 -6 -73q1 -150 41.5 -212.5t120.5 -62.5q24 0 44.5 2.5t32 5t13.5 2.5z" />
<glyph unicode="'" horiz-adv-x="348" d="M170 930l-6 473q0 6 10 6t10 -6l-6 -473q0 -4 -4 -4t-4 4z" />
<glyph unicode="(" horiz-adv-x="643" d="M193 524q0 466 78.5 683.5t256.5 217.5h37q4 0 4 -6t-4 -6h-35q-173 0 -249 -214t-76 -675t76 -675t249 -214h35q4 0 4 -6t-4 -6h-37q-178 0 -256.5 217.5t-78.5 683.5z" />
<glyph unicode=")" horiz-adv-x="643" d="M451 524q0 -465 -79 -683t-257 -218h-37q-4 0 -4 6t4 6h35q173 0 249 214t76 675t-76 675t-249 214h-35q-4 0 -4 6t4 6h37q178 0 257 -218t79 -683z" />
<glyph unicode="*" horiz-adv-x="1032" d="M160 1147l352 -123l-6 375q0 6 10 6t10 -6l-6 -375l352 123q7 3 9 -8q4 -10 -2 -13l-359 -110l225 -295q3 -5 -4 -10q-9 -9 -12 -2l-213 299l-213 -299q-3 -7 -12 2q-7 5 -4 10l223 295l-356 110q-6 3 -2 13q1 7 3 8.5t5 -0.5z" />
<glyph unicode="+" d="M547 1026v-391h371q4 0 4 -6t-4 -6h-371v-392q0 -4 -6 -4t-6 4v392h-371q-4 0 -4 6t4 6h371v391q0 4 6 4t6 -4z" />
<glyph unicode="," horiz-adv-x="356" d="M223 197q6 0 6 -7q-49 -209 -161 -464q-2 -5 -7 -5q-6 0 -6 5q110 250 160 464q0 7 8 7z" />
<glyph unicode="-" horiz-adv-x="782" d="M147 555h488q4 0 4 -6t-4 -6h-488q-4 0 -4 6t4 6z" />
<glyph unicode="." horiz-adv-x="356" d="M178 0q-6 0 -6 4v162q0 4 6 4t6 -4v-162q0 -4 -6 -4z" />
<glyph unicode="/" horiz-adv-x="724" d="M678 1458l-619 -1622q-2 -4 -8 -4t-4 4l619 1622q2 4 8 4t4 -4z" />
<glyph unicode="0" horiz-adv-x="1138" d="M569 1282q222 0 322 -155t100 -490t-100 -490t-322 -155t-322 155t-100 490t100 490t322 155zM569 4q217 0 313.5 151t96.5 482t-96.5 482t-313.5 151t-313 -151t-96 -482t96 -482t313 -151z" />
<glyph unicode="1" horiz-adv-x="831" d="M422 4v1258l-301 -129q-6 -3 -6 4q0 4 4 6l307 133q8 4 8 -4v-1268q0 -4 -6 -4t-6 4z" />
<glyph unicode="2" horiz-adv-x="1040" d="M514 1282q356 0 356 -332q0 -52 -11 -99t-27.5 -84t-46.5 -74.5t-56.5 -63.5t-69 -58t-72.5 -52t-79 -50q-51 -32 -80.5 -51t-74.5 -51t-71.5 -56t-58 -58t-48.5 -65.5t-28.5 -71t-11.5 -81.5v-23h762q4 0 4 -6t-4 -6h-766q-8 0 -8 4v31q0 43 12 83.5t29 73t49.5 67.5 t58.5 59t72.5 57t75.5 52t82 52q68 42 108.5 70t94 74.5t82.5 89.5t50 105t21 132q0 163 -85.5 241.5t-258.5 78.5q-106 0 -177.5 -23t-111 -70.5t-56.5 -107t-19 -143.5q0 -4 -7 -4q-6 0 -6 4q2 86 20 148t59.5 110.5t115.5 73t182 24.5z" />
<glyph unicode="3" horiz-adv-x="1048" d="M569 655h-151q-4 0 -4 7q0 6 4 6h153q142 0 219.5 73t77.5 220q0 309 -354 309q-102 0 -172.5 -20t-111.5 -61t-59.5 -95.5t-20.5 -130.5q0 -5 -7 -5q-6 0 -6 5q2 78 22 135t62.5 99.5t115.5 63.5t177 21q367 0 367 -321q0 -73 -20 -129.5t-55 -91.5t-77 -54t-90 -24 q122 -19 198 -98t76 -224q0 -174 -102.5 -261t-280.5 -87q-210 0 -306 81.5t-101 241.5q0 4 6 4t6 -4q5 -155 97 -233t298 -78q174 0 272.5 83.5t98.5 252.5q0 152 -88.5 233.5t-243.5 81.5z" />
<glyph unicode="4" horiz-adv-x="1073" d="M778 0q-6 0 -6 4v328h-674q-4 0 -4 6t2 8l668 926q4 6 12 6t8 -6v-928h220q4 0 4 -6t-4 -6h-220v-328q0 -4 -6 -4zM111 344h661v918z" />
<glyph unicode="5" horiz-adv-x="1003" d="M471 752q-95 0 -177.5 -23.5t-131.5 -54.5q-8 -4 -12 -4q-7 0 -7 4l54 592q0 8 6 8h598q4 0 4 -6t-4 -6h-594l-51 -580q124 82 315 82q410 0 410 -381q0 -187 -96.5 -289t-286.5 -102q-200 0 -295.5 81.5t-100.5 241.5q0 4 7 4q6 0 6 -4q5 -156 96.5 -233.5t286.5 -77.5 q185 0 277.5 98.5t92.5 280.5q0 189 -98.5 279t-298.5 90z" />
<glyph unicode="6" horiz-adv-x="1064" d="M883 999q-12 129 -95 200t-235 71q-218 0 -305.5 -151.5t-87.5 -502.5q0 -63 2 -94q42 107 157.5 169.5t262.5 62.5q173 0 264.5 -89.5t91.5 -267.5q0 -90 -17.5 -160t-58 -127t-114 -87.5t-177.5 -30.5q-231 0 -327.5 153.5t-96.5 470.5q0 354 92 510t314 156 q157 0 243.5 -75t98.5 -208q0 -4 -6 -4t-6 4zM571 4q102 0 173.5 29.5t110 85t55 123t16.5 155.5q0 173 -88 258.5t-256 85.5q-147 0 -262 -62.5t-158 -174.5q14 -255 108.5 -377.5t300.5 -122.5z" />
<glyph unicode="7" horiz-adv-x="946" d="M248 4q190 513 571 1258h-713q-4 0 -4 6t4 6h725q5 0 5 -6t-5 -13q-354 -678 -569 -1251q-2 -4 -8 -4q-4 0 -5.5 0.5t-0.5 3.5z" />
<glyph unicode="8" horiz-adv-x="1093" d="M143 305q0 41 7.5 76.5t18 63t31.5 52t38.5 41t49 33t52.5 26t60 21t60.5 17.5t63.5 16q-63 15 -105.5 29t-92 40.5t-79 60t-49.5 87t-20 123.5q0 140 92 215.5t277 75.5t276.5 -75.5t91.5 -215.5q0 -70 -20 -123.5t-49.5 -87t-79 -60t-92 -40.5t-105.5 -29 q42 -10 63.5 -16t60.5 -17.5t60 -21t52.5 -26t49 -33t38.5 -41t31.5 -52t18 -63t7.5 -76.5q0 -153 -100.5 -233t-302.5 -80t-303 80t-101 233zM938 305q0 71 -23.5 125t-52 85.5t-89 58.5t-97 37.5t-113.5 29.5q-11 3 -16 4q-158 -38 -219 -66q-136 -63 -164 -192 q-8 -38 -8 -82q0 -301 391 -301t391 301zM190 991q0 -50 11 -91.5t27.5 -71t45.5 -55t55.5 -41t68 -31t71.5 -24t78 -20.5q48 12 78 20.5t71.5 24t67.5 31t55.5 41t45.5 55t27 71t11 91.5q0 279 -356 279q-181 0 -269 -72t-88 -207z" />
<glyph unicode="9" horiz-adv-x="1064" d="M182 274q12 -129 95 -199.5t235 -70.5q218 0 305.5 151.5t87.5 501.5q0 16 -1 47.5t-1 45.5q-44 -107 -158.5 -168.5t-261.5 -61.5q-173 0 -264.5 89.5t-91.5 267.5q0 90 17.5 160t58 127t114 87.5t177.5 30.5q118 0 200.5 -40t131.5 -121.5t70.5 -194t21.5 -269.5 q0 -354 -92 -509.5t-314 -155.5q-157 0 -243.5 74.5t-98.5 207.5q0 5 6 5t6 -5zM494 1270q-102 0 -173.5 -29.5t-110 -85t-55 -123t-16.5 -155.5q0 -173 88 -259t256 -86q146 0 260.5 62.5t157.5 173.5q-14 255 -107.5 378.5t-299.5 123.5z" />
<glyph unicode=":" horiz-adv-x="389" d="M195 0q-7 0 -7 4v162q0 4 7 4q6 0 6 -4v-162q0 -4 -6 -4zM195 801q-7 0 -7 4v162q0 4 7 4q6 0 6 -4v-162q0 -4 -6 -4z" />
<glyph unicode=";" horiz-adv-x="389" d="M199 801q-6 0 -6 4v162q0 4 6 4t6 -4v-162q0 -4 -6 -4zM231 197q7 0 7 -7q-47 -205 -162 -464q-2 -5 -6 -5q-7 0 -7 5q110 250 160 464q0 7 8 7z" />
<glyph unicode="&#x3c;" d="M205 641q0 6 4 8l600 490q5 3 8 0t0 -6l-602 -492l602 -491q3 -4 0 -7t-8 0l-600 490q-4 2 -4 8z" />
<glyph unicode="=" d="M168 461h745q5 0 5 -6t-5 -6h-745q-4 0 -4 6t4 6zM168 811h745q5 0 5 -6t-5 -6h-745q-4 0 -4 6t4 6z" />
<glyph unicode="&#x3e;" d="M877 641q0 -5 -5 -8l-600 -490q-5 -3 -8 0q-4 3 0 7l602 491l-602 492q-3 3 0 6t8 0l600 -490q5 -3 5 -8z" />
<glyph unicode="?" d="M551 442v-55q0 -4 -6 -4t-6 4v55q0 62 21 111t54.5 81.5t73.5 61t80.5 59t74 67t54.5 92t21 126.5q0 312 -375 312q-115 0 -194 -25t-123.5 -75t-64.5 -114.5t-22 -154.5q0 -4 -6 -4t-6 4q2 92 23 158.5t67 118.5t127.5 78t198.5 26q190 0 288.5 -81t98.5 -243 q0 -72 -21 -129t-54.5 -93.5t-73.5 -67t-80.5 -59.5t-74 -61t-54.5 -79.5t-21 -108.5zM545 0q-6 0 -6 4v162q0 4 6 4t6 -4v-162q0 -4 -6 -4z" />
<glyph unicode="@" horiz-adv-x="1753" d="M1137 473v459q-99 35 -232 35q-179 0 -245 -91t-66 -303q0 -199 59 -288.5t209 -89.5q121 0 198 67t77 211zM1147 -137h-203q-131 0 -231 13t-188.5 44t-149.5 84.5t-105 132.5t-65 189.5t-21 255.5q0 386 167 555.5t542 169.5q135 0 238 -18t178.5 -56.5t126.5 -93 t81 -133t43 -169.5t13 -210q0 -185 -22.5 -283t-71 -136t-138.5 -38q-98 0 -146.5 56t-53.5 175q-14 -100 -88.5 -159.5t-190.5 -59.5q-155 0 -217.5 93.5t-62.5 297.5q0 217 70 311.5t253 94.5q125 0 238 -37q6 -2 6 -8v-502q0 -130 48 -190t144 -60q86 0 131.5 36.5 t67 132t21.5 276.5q0 142 -18 244t-63 185.5t-121 134t-191 77t-275 26.5q-370 0 -533 -165.5t-163 -546.5q0 -143 20.5 -252t63.5 -187t102.5 -130t146.5 -82.5t185.5 -43t228.5 -12.5h203q4 0 4 -6t-4 -6z" />
<glyph unicode="A" horiz-adv-x="1118" d="M1034 0q-6 0 -8 4q-77 242 -147 451h-639q-89 -266 -148 -451q-2 -4 -8 -4t-4 4q92 302 231 700t240 648q2 4 8 4t8 -4q101 -250 240 -648t231 -700q2 -4 -4 -4zM559 1341q-124 -310 -315 -874h630q-173 512 -315 874z" />
<glyph unicode="B" horiz-adv-x="1204" d="M225 688v-676h400q228 0 328 88t100 256q0 332 -437 332h-391zM629 1343h-404v-643h396q212 0 301.5 80t89.5 250q0 159 -90.5 236t-292.5 77zM221 1356h410q205 0 299 -81.5t94 -244.5q0 -165 -75.5 -242.5t-227.5 -93.5q161 -19 252.5 -97.5t91.5 -240.5 q0 -173 -102.5 -264.5t-335.5 -91.5h-406q-8 0 -8 4v1348q0 4 8 4z" />
<glyph unicode="C" horiz-adv-x="1212" d="M152 682q0 358 112 520t369 162q417 0 426 -373q0 -4 -6 -4t-6 4q-5 180 -105 270.5t-309 90.5q-252 0 -360.5 -158t-108.5 -512q0 -183 24 -307t80 -209t148.5 -123.5t230.5 -38.5q208 0 304.5 94t101.5 287q0 4 6 4t6 -4q-5 -197 -105 -295t-313 -98 q-140 0 -234.5 39.5t-152.5 126t-83 213t-25 311.5z" />
<glyph unicode="D" horiz-adv-x="1265" d="M225 12h365q273 0 392.5 156t119.5 510t-119.5 509.5t-392.5 155.5h-365v-1331zM590 0h-369q-8 0 -8 4v1348q0 4 8 4h369q278 0 401 -160t123 -518t-123 -518t-401 -160z" />
<glyph unicode="E" horiz-adv-x="1097" d="M938 1343h-713v-643h656q4 0 4 -6t-4 -6h-656v-676h721q4 0 4 -6t-4 -6h-725q-8 0 -8 4v1348q0 4 8 4h717q4 0 4 -6q0 -7 -4 -7z" />
<glyph unicode="F" horiz-adv-x="1040" d="M225 688v-684q0 -4 -6 -4t-6 4v1348q0 4 8 4h701q4 0 4 -6q0 -7 -4 -7h-697v-643h652q4 0 4 -6t-4 -6h-652z" />
<glyph unicode="G" horiz-adv-x="1241" d="M1065 616q8 0 8 -6v-200q0 -203 -102.5 -310.5t-311.5 -107.5q-271 0 -389 164t-118 526q0 360 111.5 521t373.5 161q217 0 320.5 -89.5t109.5 -270.5q0 -5 -6 -5t-6 5q-6 175 -105.5 261.5t-312.5 86.5q-257 0 -365 -157.5t-108 -512.5q0 -358 114 -518t381 -160 q402 0 402 410v190h-397q-5 0 -5 6t5 6h401z" />
<glyph unicode="H" horiz-adv-x="1286" d="M1067 0q-6 0 -6 4v684h-836v-684q0 -4 -6 -4t-6 4v1348q0 4 6 4t6 -4v-652h836v652q0 4 6 4t6 -4v-1348q0 -4 -6 -4z" />
<glyph unicode="I" horiz-adv-x="454" d="M227 0q-6 0 -6 4v1348q0 4 6 4t6 -4v-1348q0 -4 -6 -4z" />
<glyph unicode="J" horiz-adv-x="1032" d="M815 453v899q0 4 6 4t6 -4v-901q0 -239 -76 -349t-264 -110q-183 0 -269 97t-91 298q0 4 6 4t6 -4q6 -197 87.5 -290t260.5 -93q183 0 255.5 106.5t72.5 342.5z" />
<glyph unicode="K" horiz-adv-x="1126" d="M1018 1350l-518 -631l530 -713q6 -6 -2 -6q-6 0 -10 4l-529 709h-264v-709q0 -4 -6 -4t-6 4v1348q0 4 6 4t6 -4v-627h264l517 627q4 4 10 4q8 0 2 -6z" />
<glyph unicode="L" horiz-adv-x="1003" d="M225 1352v-1340h693q4 0 4 -6t-4 -6h-697q-8 0 -8 4v1348q0 4 6 4t6 -4z" />
<glyph unicode="M" horiz-adv-x="1556" d="M778 150q-6 0 -8 4l-545 1177v-1327q0 -4 -6 -4t-6 4v1348q0 4 8 4t10 -4l547 -1186l547 1186q2 4 10 4t8 -4v-1348q0 -4 -6 -4t-6 4v1327l-545 -1177q-2 -4 -8 -4z" />
<glyph unicode="N" horiz-adv-x="1298" d="M1079 1356q6 0 6 -4v-1348q0 -4 -8 -4t-10 4l-842 1333v-1333q0 -4 -6 -4t-6 4v1348q0 4 8 4t10 -4l842 -1336v1336q0 4 6 4z" />
<glyph unicode="O" horiz-adv-x="1269" d="M635 1364q261 0 372 -162t111 -524t-111 -524t-372 -162t-372 162t-111 524t111 524t372 162zM635 4q256 0 363.5 158t107.5 516t-107.5 516t-363.5 158t-363.5 -158t-107.5 -516t107.5 -516t363.5 -158z" />
<glyph unicode="P" horiz-adv-x="1150" d="M571 586h-346v-582q0 -4 -6 -4t-6 4v1348q0 4 8 4h350q240 0 344.5 -87.5t104.5 -297.5t-104.5 -297.5t-344.5 -87.5zM225 1343v-745h344q236 0 337.5 84t101.5 289t-101.5 288.5t-337.5 83.5h-344z" />
<glyph unicode="Q" horiz-adv-x="1269" d="M635 1364q261 0 372 -162t111 -524q0 -360 -110.5 -522.5t-368.5 -163.5q65 -110 195 -180.5t276 -73.5q4 0 4 -6t-4 -6q-143 0 -282 74.5t-201 191.5q-256 3 -365.5 165t-109.5 521q0 362 111 524t372 162zM635 4q256 0 363.5 158t107.5 516t-107.5 516t-363.5 158 t-363.5 -158t-107.5 -516t107.5 -516t363.5 -158z" />
<glyph unicode="R" horiz-adv-x="1163" d="M575 614h-350v-610q0 -4 -6 -4t-6 4v1348q0 4 8 4h354q230 0 331.5 -85.5t101.5 -285.5q0 -172 -83.5 -261t-256.5 -106q126 -11 192 -80.5t107 -207.5q28 -94 71 -324q2 -6 -6 -6q-6 0 -8 6q-40 217 -70 320q-30 101 -68.5 160t-114.5 93.5t-196 34.5zM225 1343v-716 h348q218 0 320 84t102 274q0 195 -98 276.5t-324 81.5h-348z" />
<glyph unicode="S" horiz-adv-x="1163" d="M602 4q212 0 302.5 80.5t90.5 243.5q0 65 -17 114.5t-45.5 83.5t-81.5 62.5t-107 47t-140 42.5q-61 17 -103.5 30t-92 32t-82 38.5t-65 47t-51.5 59.5t-30.5 74t-11.5 92q0 159 93 234t302 75q207 0 302.5 -79t95.5 -253q0 -4 -7 -4q-6 0 -6 4q0 169 -91.5 244.5 t-293.5 75.5q-204 0 -293.5 -71.5t-89.5 -225.5q0 -49 11.5 -89.5t29 -70.5t50 -57t63 -45t80.5 -37.5t89.5 -31.5t102.5 -30q74 -20 123.5 -36.5t99 -39.5t79.5 -48t54.5 -59.5t35 -78.5t10.5 -100q0 -168 -94.5 -252t-311.5 -84t-336 85.5t-119 256.5q0 4 7 4q6 0 6 -4 q0 -330 442 -330z" />
<glyph unicode="T" horiz-adv-x="1040" d="M950 1343h-424v-1339q0 -4 -6 -4t-6 4v1339h-424q-4 0 -4 7q0 6 4 6h860q4 0 4 -6q0 -7 -4 -7z" />
<glyph unicode="U" horiz-adv-x="1265" d="M633 -8q-232 0 -332 112t-100 363v885q0 4 6 4t6 -4v-883q0 -247 96.5 -356t323.5 -109t323.5 109t96.5 356v883q0 4 6 4t6 -4v-885q0 -251 -100 -363t-332 -112z" />
<glyph unicode="V" horiz-adv-x="1101" d="M1014 1356q6 0 4 -6q-87 -305 -222 -703t-237 -643q-2 -4 -8 -4t-8 4q-102 245 -237 643t-222 703q-2 6 4 6t8 -4q87 -302 220 -695.5t235 -642.5q100 245 231.5 635.5t223.5 702.5q2 4 8 4z" />
<glyph unicode="W" horiz-adv-x="1892" d="M1794 1356q6 0 4 -4q-75 -290 -196 -688.5t-213 -659.5q-2 -4 -9 -4l-8 4q-100 271 -226.5 662.5t-201.5 672.5q-72 -275 -197 -661.5t-229 -673.5l-8 -4q-6 0 -8 4q-93 263 -214.5 661t-195.5 687q-2 4 4 4t8 -4q72 -278 192 -670.5t214 -667.5q101 285 227 676.5 t199 661.5q4 4 10 4l8 -4q71 -265 196 -653.5t230 -684.5q91 266 211 660t195 678q2 4 8 4z" />
<glyph unicode="X" horiz-adv-x="1175" d="M621 698l462 -692q3 -6 -4 -6q-8 0 -10 4l-459 688h-45l-459 -688q-2 -4 -10 -4q-7 0 -4 6l463 692l-457 652q-3 6 4 6q9 0 11 -4l452 -647h45l453 647q2 4 10 4q7 0 4 -6z" />
<glyph unicode="Y" horiz-adv-x="1097" d="M989 1350q2 4 8 4t4 -4q-94 -200 -220 -435.5t-226 -396.5v-514q0 -4 -6 -4t-6 4v514q-100 162 -227 398t-220 434q-2 4 4 4q7 0 9 -4q96 -201 221.5 -437t218.5 -385q93 149 218.5 385t221.5 437z" />
<glyph unicode="Z" horiz-adv-x="1110" d="M147 1356h814q4 0 4 -8q0 -5 -2 -9l-822 -1327h834q4 0 4 -6t-4 -6h-844q-4 0 -4 8q0 4 2 6l821 1329h-803q-4 0 -4 7q0 6 4 6z" />
<glyph unicode="[" horiz-adv-x="643" d="M233 -369v1786q0 4 9 4h286q4 0 4 -6t-4 -6h-282v-1769h291q4 0 4 -7q0 -6 -4 -6h-295q-9 0 -9 4z" />
<glyph unicode="\" horiz-adv-x="724" d="M666 -164l-619 1622q-2 4 4 4t8 -4l619 -1622q2 -4 -4 -4t-8 4z" />
<glyph unicode="]" horiz-adv-x="643" d="M410 1417v-1786q0 -4 -9 -4h-295q-4 0 -4 6q0 7 4 7h291v1769h-282q-4 0 -4 6t4 6h286q9 0 9 -4z" />
<glyph unicode="^" d="M541 1356q6 0 8 -4l369 -660q1 -3 0 -3.5t-5 -0.5q-6 0 -8 4l-364 651l-365 -651q-2 -4 -8 -4t-4 4l368 660q2 4 9 4z" />
<glyph unicode="_" horiz-adv-x="761" d="M758 -141h-754q-4 0 -4 6t4 6h754q4 0 4 -6t-4 -6z" />
<glyph unicode="`" horiz-adv-x="614" d="M473 1124l-334 156q-5 2 -5 3t1 9q4 7 10 4l332 -159q2 -1 2 -9q0 -7 -6 -4z" />
<glyph unicode="a" horiz-adv-x="1036" d="M207 713q0 -4 -6 -4t-6 4q0 139 81.5 202.5t249.5 63.5q172 0 251 -68.5t79 -222.5v-684q0 -4 -6 -4t-6 4v256q-25 -112 -137 -188t-261 -76q-141 0 -226 62.5t-85 191.5t75.5 188.5t242.5 59.5h391v188q0 150 -76 215.5t-242 65.5q-162 0 -240.5 -60t-78.5 -194z M844 485h-389q-163 0 -235.5 -55.5t-72.5 -179.5t81.5 -183t217.5 -59q165 0 281.5 94.5t116.5 239.5v143z" />
<glyph unicode="b" horiz-adv-x="1114" d="M209 1413v-770q26 166 116.5 251t262.5 85q208 0 297.5 -124.5t89.5 -369.5q0 -120 -20 -208.5t-64.5 -154t-120 -98t-182.5 -32.5q-172 0 -262.5 84.5t-116.5 251.5v-324q0 -4 -6 -4t-6 4v1409q0 4 6 4t6 -4zM209 485q0 -240 87.5 -360.5t291.5 -120.5t289.5 120.5 t85.5 360.5q0 241 -85.5 361.5t-289.5 120.5t-291.5 -121t-87.5 -361z" />
<glyph unicode="c" horiz-adv-x="999" d="M520 967q-104 0 -176.5 -31.5t-114 -95.5t-59.5 -150t-18 -205q0 -121 18 -206.5t60.5 -149t118 -94.5t186.5 -31q305 0 317 281q0 4 6 4t6 -4q-13 -293 -329 -293q-114 0 -192 32t-122.5 97.5t-63 153t-18.5 210.5q0 121 19 209t62 154t118 98.5t182 32.5 q161 0 246.5 -69.5t91.5 -192.5q0 -4 -6 -4t-6 4q-6 119 -89 184.5t-237 65.5z" />
<glyph unicode="d" horiz-adv-x="1114" d="M905 4v324q-26 -167 -116.5 -251.5t-262.5 -84.5q-107 0 -182.5 32.5t-120 98t-64.5 154t-20 208.5q0 245 89.5 369.5t297.5 124.5q172 0 262.5 -85t116.5 -251v770q0 4 6 4q7 0 7 -4v-1409q0 -4 -7 -4q-6 0 -6 4zM905 485q0 240 -87.5 361t-291.5 121t-289 -120.5 t-85 -361.5t85 -361t289 -120t291.5 120.5t87.5 360.5z" />
<glyph unicode="e" horiz-adv-x="1028" d="M889 502h-737v-17q0 -240 89.5 -360.5t301.5 -120.5q297 0 319 266q0 4 6 4t6 -4q-11 -135 -93.5 -206.5t-237.5 -71.5q-216 0 -310 124.5t-94 368.5q0 243 91.5 368.5t297.5 125.5q187 0 276 -105t89 -286v-78q0 -8 -4 -8zM528 967q-196 0 -283.5 -114.5t-92.5 -338.5 h729v74q0 177 -85.5 278t-267.5 101z" />
<glyph unicode="f" horiz-adv-x="684" d="M618 958h-327v-954q0 -4 -6 -4t-6 4v954h-205q-4 0 -4 7q0 6 4 6h205v162q0 146 49 215t172 69q87 0 151 -22q4 -2 2 -9q-2 -5 -8 -2q-53 21 -145 21q-118 0 -163.5 -66.5t-45.5 -208.5v-159h327q5 0 5 -6q0 -7 -5 -7z" />
<glyph unicode="g" horiz-adv-x="1024" d="M158 -86q0 -146 85.5 -214.5t268.5 -68.5q165 0 243.5 63t78.5 195q0 130 -89 190t-253 68q-190 0 -277.5 103.5t-87.5 312.5t87.5 312.5t277.5 103.5q59 0 100 -8h313q4 0 4 -6q0 -7 -4 -7h-266q112 -36 164.5 -134t52.5 -261q0 -191 -71.5 -293t-225.5 -120 q287 -33 287 -261q0 -137 -81.5 -203.5t-252.5 -66.5q-190 0 -278.5 72t-88.5 223q0 4 7 4q6 0 6 -4zM492 160q186 0 269 99t83 304t-83 304.5t-269 99.5t-269.5 -99.5t-83.5 -304.5t83.5 -304t269.5 -99z" />
<glyph unicode="h" horiz-adv-x="1114" d="M209 1413v-706q26 110 130 191t265 81q155 0 240.5 -81t85.5 -245v-649q0 -4 -6 -4t-6 4v647q0 161 -82 238.5t-232 77.5q-89 0 -165 -29t-125.5 -77t-77 -109t-27.5 -127v-621q0 -4 -6 -4t-6 4v1409q0 4 6 4t6 -4z" />
<glyph unicode="i" horiz-adv-x="405" d="M197 4v963q0 4 6 4t6 -4v-963q0 -4 -6 -4t-6 4zM203 1356q6 0 6 -4v-164q0 -4 -6 -4t-6 4v164q0 4 6 4z" />
<glyph unicode="j" horiz-adv-x="438" d="M-41 -356q2 0 13 -3t33.5 -6.5t51.5 -3.5q94 0 133 60.5t39 220.5v1055q0 4 7 4q6 0 6 -4v-1055q0 -164 -43 -228.5t-142 -64.5q-70 0 -98 12q-4 2 -4 7q0 6 4 6zM236 1356q6 0 6 -4v-164q0 -4 -6 -4q-7 0 -7 4v164q0 4 7 4z" />
<glyph unicode="k" horiz-adv-x="929" d="M209 1413v-887h199l423 441q4 4 11 4q10 0 4 -6l-428 -445l438 -514q6 -6 -4 -6q-6 0 -10 4l-436 510h-197v-510q0 -4 -6 -4t-6 4v1409q0 4 6 4t6 -4z" />
<glyph unicode="l" horiz-adv-x="425" d="M342 12h43q4 0 4 -6t-4 -6h-45q-83 0 -113 42t-30 140v1227q0 4 6 4t6 -4v-1225q0 -96 26.5 -134t106.5 -38z" />
<glyph unicode="m" horiz-adv-x="1703" d="M209 967v-240q12 46 38.5 88.5t69.5 80t109 60.5t145 23q131 0 205 -64.5t86 -191.5q29 108 123 182t242 74q293 0 293 -305v-670q0 -4 -7 -4q-6 0 -6 4v668q0 295 -280 295q-162 0 -260 -93.5t-103 -218.5v-651q0 -4 -6 -4t-6 4v668q0 295 -281 295q-85 0 -155.5 -28 t-114.5 -74.5t-68 -103t-24 -116.5v-641q0 -4 -6 -4t-6 4v963q0 4 6 4t6 -4z" />
<glyph unicode="n" horiz-adv-x="1114" d="M209 967v-260q26 110 130 191t265 81q155 0 240.5 -81t85.5 -245v-649q0 -4 -6 -4t-6 4v647q0 161 -82 238.5t-232 77.5q-89 0 -165 -29t-125.5 -77t-77 -109t-27.5 -127v-621q0 -4 -6 -4t-6 4v963q0 4 6 4t6 -4z" />
<glyph unicode="o" horiz-adv-x="1056" d="M528 979q210 0 300 -124.5t90 -369.5t-90 -369t-300 -124t-299.5 124t-89.5 369t89.5 369.5t299.5 124.5zM528 4q205 0 291 120t86 361t-86 361.5t-291 120.5t-290.5 -120.5t-85.5 -361.5t85.5 -361t290.5 -120z" />
<glyph unicode="p" horiz-adv-x="1114" d="M209 967v-324q26 166 116.5 251t262.5 85q208 0 297.5 -124.5t89.5 -369.5q0 -120 -20 -208.5t-64.5 -154t-120 -98t-182.5 -32.5q-172 0 -262.5 84.5t-116.5 251.5v-693q0 -4 -6 -4t-6 4v1332q0 4 6 4t6 -4zM209 485q0 -240 87.5 -360.5t291.5 -120.5t289.5 120.5 t85.5 360.5q0 241 -85.5 361.5t-289.5 120.5t-291.5 -121t-87.5 -361z" />
<glyph unicode="q" horiz-adv-x="1114" d="M911 -369q-6 0 -6 4v693q-26 -167 -116.5 -251.5t-262.5 -84.5q-107 0 -182.5 32.5t-120 98t-64.5 154t-20 208.5q0 245 89.5 369.5t297.5 124.5q172 0 262.5 -85t116.5 -251v324q0 4 6 4q7 0 7 -4v-1332q0 -4 -7 -4zM905 485q0 240 -87.5 361t-291.5 121t-289 -120.5 t-85 -361.5t85 -361t289 -120t291.5 120.5t87.5 360.5z" />
<glyph unicode="r" horiz-adv-x="663" d="M594 963q-183 0 -284 -104.5t-101 -266.5v-588q0 -4 -6 -4t-6 4v963q0 4 6 4t6 -4v-277q11 56 39.5 105.5t74 90.5t115.5 65t156 24q4 0 4 -6t-4 -6z" />
<glyph unicode="s" horiz-adv-x="962" d="M139 270q0 -266 359 -266q313 0 313 225q0 115 -72.5 169t-249.5 91q-186 38 -264 95.5t-78 171.5q0 119 80 171t234 52q336 0 336 -250q0 -4 -6 -4q-7 0 -7 4q0 238 -323 238q-150 0 -225.5 -48.5t-75.5 -162.5q0 -109 74.5 -162t257.5 -92q182 -39 256.5 -96t74.5 -177 q0 -117 -83.5 -177t-241.5 -60q-180 0 -275.5 69t-95.5 209q0 4 6 4t6 -4z" />
<glyph unicode="t" horiz-adv-x="716" d="M602 958h-332v-712q0 -127 43.5 -183.5t145.5 -56.5q87 0 153 29q6 3 9 -2q1 -4 -3 -8q-68 -31 -159 -31q-107 0 -154 59.5t-47 190.5v714h-184q-4 0 -4 7q0 6 4 6h184v284q0 5 6 5t6 -5v-284h332q4 0 4 -6q0 -7 -4 -7z" />
<glyph unicode="u" horiz-adv-x="1101" d="M893 4v260q-24 -111 -120.5 -191.5t-246.5 -80.5q-161 0 -251.5 86.5t-90.5 259.5v629q0 4 6 4q7 0 7 -4v-627q0 -169 86.5 -252.5t242.5 -83.5q110 0 195.5 49.5t128.5 127t43 165.5v621q0 4 6 4t6 -4v-963q0 -4 -6 -4t-6 4z" />
<glyph unicode="v" horiz-adv-x="925" d="M836 971q8 0 6 -6q-69 -219 -175.5 -495.5t-195.5 -465.5q-2 -4 -8 -4t-8 4q-89 189 -195.5 465.5t-175.5 495.5q-1 4 0 5t6 1q4 0 6 -4q66 -215 171.5 -488.5t195.5 -466.5q88 188 192 461t174 494q2 4 7 4z" />
<glyph unicode="w" horiz-adv-x="1527" d="M1427 971q5 0 5 -4q0 -5 -5 -15q-172 -543 -327 -948q-2 -4 -8 -4q-7 0 -9 4q-163 452 -319 946q-119 -379 -320 -946q-2 -4 -8 -4t-8 4q-161 419 -328 948q-4 8 -4 15q0 4 4 4q7 0 9 -4q140 -461 327 -953q194 554 320 953q2 4 8 4t8 -4q100 -327 320 -953 q185 496 327 953q2 4 8 4z" />
<glyph unicode="x" horiz-adv-x="946" d="M840 4l-351 502h-32l-351 -502q-2 -4 -10 -4q-7 0 -4 6l352 506l-342 453q-3 6 4 6q9 0 11 -4l338 -449h34l340 449q2 4 11 4q7 0 4 -6l-342 -453l352 -506q3 -6 -4 -6q-8 0 -10 4z" />
<glyph unicode="y" horiz-adv-x="950" d="M205 -369q47 0 85.5 22.5t73.5 73.5t62 106t66 147l8 20q0 1 -1 2t-1 2q-99 196 -218 474t-192 487q-1 4 0 5t6 1q4 0 6 -4q73 -210 189.5 -485.5t214.5 -469.5q67 161 172.5 441t181.5 514q2 4 6 4q8 0 6 -6q-76 -244 -185 -531t-183 -465q-31 -74 -52.5 -120t-50.5 -95 t-56 -75t-62 -43t-76 -17q-74 0 -123 21q-4 2 -4 6q0 6 4 6q2 0 16.5 -5t43 -10.5t63.5 -5.5z" />
<glyph unicode="z" horiz-adv-x="937" d="M795 954l-658 -942h670q4 0 4 -6t-4 -6h-680q-4 0 -4 8q0 4 2 6l657 944h-639q-4 0 -4 7q0 6 4 6h650q4 0 4 -8q0 -5 -2 -9z" />
<glyph unicode="{" horiz-adv-x="643" d="M57 524q0 6 4 6h58q83 0 117 97.5t34 283.5v60q0 52 0.5 84.5t2.5 77t6 72t11.5 61.5t18.5 54t27 42t36.5 33t48.5 18.5t62 7.5h49q5 0 5 -6t-5 -6h-49q-40 0 -70.5 -10.5t-51 -27t-35 -46.5t-22.5 -59t-12.5 -76t-5.5 -85t-1 -97v-99q0 -373 -135 -385q135 -12 135 -385 v-98q0 -59 1 -97t5.5 -85t12.5 -76t22.5 -59t35 -46.5t51 -27t70.5 -10.5h49q5 0 5 -7q0 -6 -5 -6h-49q-44 0 -77 12t-55.5 30.5t-38 53.5t-24 66.5t-12.5 85.5t-5 94.5t-1 108.5v59q0 186 -34 283.5t-117 97.5h-58q-4 0 -4 6z" />
<glyph unicode="|" horiz-adv-x="536" d="M274 1413v-1819q0 -4 -6 -4t-6 4v1819q0 4 6 4t6 -4z" />
<glyph unicode="}" horiz-adv-x="643" d="M586 524q0 -6 -4 -6h-58q-83 0 -117 -97.5t-34 -283.5v-59q0 -68 -1 -108.5t-5 -94.5t-12.5 -85.5t-24 -66.5t-38 -53.5t-55.5 -30.5t-77 -12h-49q-5 0 -5 6q0 7 5 7h49q40 0 70.5 10.5t51 27t35 46.5t22.5 59t12.5 76t5.5 85t1 97v98q0 373 136 385q-136 12 -136 385v99 q0 59 -1 97t-5.5 85t-12.5 76t-22.5 59t-35 46.5t-51 27t-70.5 10.5h-49q-5 0 -5 6t5 6h49q34 0 62 -7.5t48.5 -18.5t36.5 -33t27 -42t18.5 -54t11.5 -61.5t6 -72t2.5 -77t0.5 -84.5v-60q0 -186 34 -283.5t117 -97.5h58q4 0 4 -6z" />
<glyph unicode="~" d="M469 621l149 -82q61 -33 105 -33q54 0 88 32.5t59 104.5q2 4 9 4q6 0 4 -4q-27 -78 -63 -113.5t-97 -35.5q-50 0 -111 34l-149 82q-61 33 -105 33q-54 0 -88 -32.5t-59 -104.5q-2 -4 -8 -4t-4 4q27 79 62.5 114t96.5 35q50 0 111 -34z" />
<glyph unicode="&#xa1;" horiz-adv-x="462" d="M231 588q7 0 7 -4l2 -965q0 -4 -9 -4q-8 0 -8 4l2 965q0 4 6 4zM231 801q-6 0 -6 4v162q0 4 6 4q7 0 7 -4v-162q0 -4 -7 -4z" />
<glyph unicode="&#xa2;" horiz-adv-x="1028" d="M549 0q-6 0 -6 4v180q-115 1 -194 34t-125 99t-65.5 154.5t-19.5 210.5q0 246 91.5 372t306.5 126h6v172q0 4 6 4t6 -4v-172q158 -4 242 -73t90 -189q0 -5 -6 -5q-7 0 -7 5q-6 116 -86.5 180.5t-232.5 68.5v-970q314 0 326 280q0 4 6 4t6 -4q-13 -293 -338 -293v-180 q0 -4 -6 -4zM537 1167q-209 0 -297 -122t-88 -363q0 -120 19 -206t63 -150t120.5 -96t188.5 -33v970h-6z" />
<glyph unicode="&#xa3;" horiz-adv-x="1167" d="M135 0q-2 -2 -6 2q-3 5 0 8q250 167 250 387q0 53 -16 108.5t-31 87t-47 91.5h-179q-4 0 -4 6t4 6h173q-28 54 -44.5 91.5t-31.5 98t-15 120.5q0 182 104.5 270t289.5 88q208 0 297.5 -89.5t91.5 -273.5q0 -4 -6 -4q-7 0 -7 4q-2 180 -87.5 265.5t-288.5 85.5 q-180 0 -280.5 -84t-100.5 -262q0 -87 24 -157t68 -153h393q4 0 4 -6t-4 -6h-387q31 -58 46.5 -90.5t30.5 -87.5t15 -109q0 -122 -74 -227q256 -166 431 -166q59 0 103 12.5t72.5 38.5t47 56.5t28 77.5t13 89t4.5 103q0 4 6 4t6 -4q-1 -74 -6.5 -125.5t-22.5 -105 t-46.5 -85.5t-80.5 -52.5t-122 -20.5q-99 0 -200.5 41.5t-240.5 126.5q-64 -86 -174 -160z" />
<glyph unicode="&#xa4;" horiz-adv-x="1114" d="M135 283l113 112q-64 107 -64 283t64 283l-113 112q-4 4 0 8t8 0l111 -110q90 141 303 141q210 0 303 -141l111 110q4 4 8 0t0 -8l-113 -112q64 -107 64 -283t-64 -283l113 -112q5 -5 0 -9q-4 -4 -8 0l-111 111q-93 -141 -303 -141q-213 0 -303 141l-111 -111q-4 -4 -8 0 q-5 4 0 9zM557 256q361 0 361 422t-361 422q-360 0 -360 -422t360 -422z" />
<glyph unicode="&#xa5;" horiz-adv-x="1122" d="M934 449h-367v-445q0 -4 -6 -4t-6 4v445h-367q-4 0 -4 6t4 6h367v16q-52 84 -143 256h-240q-4 0 -4 6t4 6h234q-193 361 -306 605q-2 4 4 4q7 0 9 -4q95 -203 226.5 -457t221.5 -406q91 154 223 408.5t226 454.5q2 4 8 4t4 -4q-149 -312 -305 -605h233q4 0 4 -6t-4 -6 h-239q-98 -177 -144 -256v-16h367q4 0 4 -6t-4 -6z" />
<glyph unicode="&#xa6;" horiz-adv-x="536" d="M274 328v-734q0 -4 -6 -4t-6 4v734q0 4 6 4t6 -4zM274 1413v-733q0 -4 -6 -4t-6 4v733q0 4 6 4t6 -4z" />
<glyph unicode="&#xa7;" horiz-adv-x="1114" d="M201 -82q0 -140 89 -213.5t265 -73.5q322 0 322 267q0 132 -74 198.5t-246 102.5q-191 39 -282 112t-91 215q0 137 83 211t222 82q-136 37 -197 101.5t-61 189.5q0 130 81 192t249 62q172 0 246 -71.5t74 -213.5q0 -4 -7 -4q-6 0 -6 4q0 138 -70 205.5t-237 67.5 q-163 0 -240 -58t-77 -184q0 -73 20.5 -123.5t68.5 -84t106 -53.5t153 -40q91 -19 150.5 -42t102.5 -60t62 -89.5t19 -128.5q0 -138 -74.5 -212.5t-214.5 -83.5q134 -39 193 -106.5t59 -188.5q0 -139 -85 -209t-249 -70q-181 0 -274 77.5t-93 221.5q0 4 7 4q6 0 6 -4z M590 797q-41 7 -64 14q-150 -2 -239.5 -72.5t-89.5 -212.5q0 -71 23 -123.5t72 -88.5t112 -60t155 -43l45 -10q151 2 230 74.5t79 213.5q0 142 -73.5 206.5t-249.5 101.5z" />
<glyph unicode="&#xa8;" horiz-adv-x="614" d="M137 1303q6 0 6 -5v-161q0 -4 -6 -4t-6 4v161q0 5 6 5zM477 1303q6 0 6 -5v-161q0 -4 -6 -4t-6 4v161q0 5 6 5z" />
<glyph unicode="&#xa9;" horiz-adv-x="1589" d="M502 680q0 103 14 175t48 127.5t94.5 82.5t150.5 27q132 0 197.5 -58t70.5 -162q0 -2 -6 -2t-6 2q-9 207 -256 207q-70 0 -122 -17.5t-85 -49.5t-52.5 -82.5t-27.5 -110t-8 -139.5q0 -81 7.5 -140.5t27.5 -111t54 -83t87.5 -49t128.5 -17.5q128 0 187 57.5t65 175.5 q0 4 6 4t6 -4q-6 -121 -68 -182.5t-196 -61.5q-95 0 -158 26.5t-97.5 82.5t-48 127.5t-13.5 175.5zM795 1364q321 0 465.5 -170.5t144.5 -515.5t-144.5 -515.5t-465.5 -170.5t-466 170.5t-145 515.5t145 515.5t466 170.5zM795 4q317 0 457.5 167t140.5 507t-140.5 507 t-457.5 167t-457.5 -167t-140.5 -507t140.5 -507t457.5 -167z" />
<glyph unicode="&#xaa;" horiz-adv-x="671" d="M532 1049h-245q-100 0 -143.5 -34t-43.5 -110t50 -111.5t133 -35.5q103 0 176 61t73 152v78zM135 1198q0 -4 -6 -4t-6 4q0 88 51.5 127t157.5 39q109 0 161 -43.5t52 -138.5v-428q0 -4 -6 -4q-7 0 -7 4v157q-18 -70 -87.5 -118t-161.5 -48q-90 0 -143.5 39.5t-53.5 120.5 q0 80 47 118t152 38h247v119q0 92 -48.5 132t-151.5 40q-101 0 -149 -35.5t-48 -118.5z" />
<glyph unicode="&#xab;" horiz-adv-x="868" d="M139 549q0 4 2 6l221 309q2 4 9 4q6 0 4 -4l-225 -315l225 -316q2 -4 -4 -4q-7 0 -9 4l-221 310q-2 2 -2 6zM479 549q0 4 2 6l221 309q2 4 9 4q6 0 4 -4l-226 -315l226 -316q2 -4 -4 -4q-7 0 -9 4l-221 310q-2 2 -2 6z" />
<glyph unicode="&#xad;" horiz-adv-x="782" d="M147 555h488q4 0 4 -6t-4 -6h-488q-4 0 -4 6t4 6z" />
<glyph unicode="&#xae;" horiz-adv-x="1064" d="M532 1364q208 0 301 -109.5t93 -332.5q0 -224 -93 -333.5t-301 -109.5t-300.5 109.5t-92.5 333.5t92.5 333t300.5 109zM532 492q203 0 292 105.5t89 324.5t-89 324.5t-292 105.5q-202 0 -291 -105.5t-89 -324.5t89 -324.5t291 -105.5zM532 893h-116v-223q0 -4 -6 -4 q-7 0 -7 4v508q0 4 9 4h127q89 0 129.5 -33.5t40.5 -110.5q0 -123 -123 -141q42 -7 66 -32.5t36 -73.5q13 -56 23 -127q0 -5 -4 -5q-9 0 -9 5q-13 93 -20 122q-14 56 -46.5 81.5t-99.5 25.5zM416 1169v-264h121q81 0 120 31.5t39 101.5q0 74 -36.5 102.5t-122.5 28.5h-121z " />
<glyph unicode="&#xaf;" horiz-adv-x="614" d="M545 1157h-475q-4 0 -4 6t4 6h475q4 0 4 -6t-4 -6z" />
<glyph unicode="&#xb0;" horiz-adv-x="696" d="M348 1364q100 0 152.5 -54t52.5 -161t-52.5 -161t-152.5 -54t-152.5 54t-52.5 161t52.5 161t152.5 54zM348 946q193 0 193 203t-193 203q-192 0 -192 -203t192 -203z" />
<glyph unicode="&#xb1;" d="M547 1034v-391h371q4 0 4 -6t-4 -6h-371v-391q0 -4 -6 -4t-6 4v391h-371q-4 0 -4 6t4 6h371v391q0 4 6 4t6 -4zM164 12h754q4 0 4 -6t-4 -6h-754q-4 0 -4 6t4 6z" />
<glyph unicode="&#xb2;" horiz-adv-x="634" d="M524 664h-418q-4 0 -4 8v12q0 27 7 51t25 47t32 39t45.5 38.5l45.5 32.5t52 34q46 29 73 49t58.5 51.5t46.5 70t15 85.5q0 170 -187 170q-108 0 -149.5 -45t-44.5 -136q0 -4 -6 -4t-6 4q2 96 47 144.5t159 48.5q199 0 199 -182q0 -40 -11.5 -75t-28 -59.5t-45.5 -51 t-52 -42.5t-60 -39q-96 -58 -149 -111.5t-53 -119.5v-8h409q4 0 4 -6t-4 -6z" />
<glyph unicode="&#xb3;" horiz-adv-x="634" d="M344 1020h-84q-2 0 -2 6t2 6h84q77 0 118.5 39t41.5 117q0 164 -191 164q-107 0 -150 -39t-46 -121q0 -4 -6 -4q-7 0 -7 4q3 87 50 129.5t159 42.5q203 0 203 -176q0 -75 -35 -116t-90 -46q141 -25 141 -176q0 -95 -56.5 -143t-153.5 -48q-115 0 -168.5 45t-55.5 132 q0 4 6 4q7 0 7 -4q3 -83 52 -123.5t159 -40.5q93 0 145.5 43.5t52.5 134.5q0 84 -46 127t-130 43z" />
<glyph unicode="&#xb4;" horiz-adv-x="614" d="M475 1280l-334 -156q-6 -3 -6 4q0 8 2 9l332 159q6 3 10 -4q1 -8 1 -9t-5 -3z" />
<glyph unicode="&#xb6;" horiz-adv-x="1024" d="M819 1372h-82q-59 0 -81.5 -24.5t-22.5 -90.5v-1345q0 -164 -42.5 -228.5t-141.5 -64.5q-71 0 -99 12q-4 2 -4 7q0 6 4 6q2 0 13.5 -3t34 -6.5t51.5 -3.5q94 0 133 60.5t39 220.5v637h-103q-138 0 -212 35.5t-108 125t-34 257.5q0 167 34 256.5t108 125t212 35.5h301 q4 0 4 -6t-4 -6z" />
<glyph unicode="&#xb7;" horiz-adv-x="356" d="M178 455q-6 0 -6 4v162q0 4 6 4t6 -4v-162q0 -4 -6 -4z" />
<glyph unicode="&#xb8;" horiz-adv-x="614" d="M287 -133h100q76 0 115 -23t39 -88t-38.5 -87.5t-115.5 -22.5h-164q-4 0 -4 6t4 6h164q73 0 107 18.5t34 79.5t-34.5 80t-106.5 19h-106q-4 0 -5.5 0.5t-3 2.5t1.5 7l48 135q2 6 6 6t5.5 -0.5t0.5 -3.5z" />
<glyph unicode="&#xb9;" horiz-adv-x="634" d="M496 664h-344q-5 0 -5 6t5 6h172v665l-164 -61q-3 -1 -3.5 0.5t-0.5 5.5t4 6l170 66q6 3 6 -4v-678h160q4 0 4 -6t-4 -6z" />
<glyph unicode="&#xba;" horiz-adv-x="700" d="M115 1053q0 -150 53.5 -224.5t181.5 -74.5t182 74.5t54 224.5t-54 224.5t-182 74.5t-181.5 -74.5t-53.5 -224.5zM102 1053q0 154 57.5 232.5t190.5 78.5t190.5 -78.5t57.5 -232.5q0 -155 -57.5 -233.5t-190.5 -78.5t-190.5 78.5t-57.5 233.5z" />
<glyph unicode="&#xbb;" horiz-adv-x="868" d="M389 549q0 -4 -2 -6l-221 -310q-2 -4 -8 -4t-4 4l225 316l-225 315q-2 4 4 4t8 -4l221 -309q2 -2 2 -6zM729 549q0 -4 -2 -6l-221 -310q-2 -4 -8 -4t-4 4l225 316l-225 315q-2 4 4 4t8 -4l221 -309q2 -2 2 -6z" />
<glyph unicode="&#xbc;" horiz-adv-x="1576" d="M1350 0q-7 0 -7 4v178h-366q-2 0 -2 8q0 7 4 11l360 493q2 4 11 4q6 0 6 -4v-499h119q4 0 4 -7q0 -6 -4 -6h-119v-178q0 -4 -6 -4zM989 195h354v483zM1237 1352l-784 -1348q-2 -4 -9 -4q-4 0 -5.5 0.5t-0.5 3.5l785 1348q2 4 8 4q4 0 5.5 -0.5t0.5 -3.5zM496 664h-344 q-5 0 -5 6t5 6h172v665l-164 -61q-3 -1 -3.5 0.5t-0.5 5.5t4 6l170 66q6 3 6 -4v-678h160q4 0 4 -6t-4 -6z" />
<glyph unicode="&#xbd;" horiz-adv-x="1576" d="M1466 0h-417q-5 0 -5 8v12q0 27 7 51t25 47t32 39t45.5 38.5l45.5 32.5t52 34q46 29 73 49t58.5 51.5t46.5 70t15 85.5q0 170 -187 170q-109 0 -150 -44.5t-44 -135.5q0 -4 -6 -4t-6 4q2 96 47 144t159 48q199 0 199 -182q0 -49 -15 -89t-47 -73t-59.5 -54t-74.5 -50 q-96 -58 -149.5 -112t-53.5 -120v-8h409q4 0 4 -6t-4 -6zM1204 1352l-784 -1348q-2 -4 -8 -4q-4 0 -5.5 0.5t-0.5 3.5l784 1348q2 4 8 4q4 0 5.5 -0.5t0.5 -3.5zM496 664h-344q-5 0 -5 6t5 6h172v665l-164 -61q-3 -1 -3.5 0.5t-0.5 5.5t4 6l170 66q6 3 6 -4v-678h160 q4 0 4 -6t-4 -6z" />
<glyph unicode="&#xbe;" horiz-adv-x="1576" d="M1350 0q-7 0 -7 4v178h-366q-2 0 -2 8q0 7 4 11l360 493q2 4 11 4q6 0 6 -4v-499h119q4 0 4 -7q0 -6 -4 -6h-119v-178q0 -4 -6 -4zM989 195h354v483zM344 1020h-84q-2 0 -2 6t2 6h84q77 0 118.5 39t41.5 117q0 164 -191 164q-107 0 -150 -39t-46 -121q0 -4 -6 -4 q-7 0 -7 4q3 87 50 129.5t159 42.5q203 0 203 -176q0 -75 -35 -116t-90 -46q141 -25 141 -176q0 -95 -56.5 -143t-153.5 -48q-115 0 -168.5 45t-55.5 132q0 4 6 4q7 0 7 -4q3 -83 52 -123.5t159 -40.5q93 0 145.5 43.5t52.5 134.5q0 84 -46 127t-130 43zM1217 1352 l-785 -1348q-2 -4 -8 -4q-4 0 -5.5 0.5t-0.5 3.5l784 1348q2 4 8 4q4 0 6 -0.5t1 -3.5z" />
<glyph unicode="&#xbf;" horiz-adv-x="1048" d="M502 528v56q0 4 6 4t6 -4v-56q0 -62 -21 -111t-54.5 -81.5t-73.5 -61t-80.5 -59t-74 -67t-54.5 -92t-21 -126.5q0 -311 375 -311q115 0 194 25t123.5 75t64 114.5t21.5 154.5q0 4 7 4q6 0 6 -4q-2 -92 -23 -158.5t-67 -118.5t-127.5 -78t-198.5 -26q-387 0 -387 323 q0 72 21 129t54.5 93.5t73.5 67t80.5 59.5t74 61t54.5 79.5t21 108.5zM508 801q-6 0 -6 4v162q0 4 6 4t6 -4v-162q0 -4 -6 -4z" />
<glyph unicode="&#xc0;" horiz-adv-x="1118" d="M1034 0q-6 0 -8 4q-77 242 -147 451h-639q-89 -266 -148 -451q-2 -4 -8 -4t-4 4q92 302 231 700t240 648q2 4 8 4t8 -4q101 -250 240 -648t231 -700q2 -4 -4 -4zM559 1341q-124 -310 -315 -874h630q-173 512 -315 874zM547 1493l-346 160q-5 2 -5 3t1 9q4 7 10 4 l344 -164q2 -1 2 -8t-6 -4z" />
<glyph unicode="&#xc1;" horiz-adv-x="1118" d="M1034 0q-6 0 -8 4q-77 242 -147 451h-639q-89 -266 -148 -451q-2 -4 -8 -4t-4 4q92 302 231 700t240 648q2 4 8 4t8 -4q101 -250 240 -648t231 -700q2 -4 -4 -4zM559 1341q-124 -310 -315 -874h630q-173 512 -315 874zM918 1653l-347 -160q-6 -3 -6 4t2 8l344 164 q7 4 11 -4q2 -8 1 -9t-5 -3z" />
<glyph unicode="&#xc2;" horiz-adv-x="1118" d="M1034 0q-6 0 -8 4q-77 242 -147 451h-639q-89 -266 -148 -451q-2 -4 -8 -4t-4 4q92 302 231 700t240 648q2 4 8 4t8 -4q101 -250 240 -648t231 -700q2 -4 -4 -4zM559 1341q-124 -310 -315 -874h630q-173 512 -315 874zM561 1696l-203 -201q-4 -4 -10 -4t-2 4l207 213 q4 4 8 4t8 -4l203 -213q4 -4 -2 -4t-10 4z" />
<glyph unicode="&#xc3;" horiz-adv-x="1118" d="M1034 0q-6 0 -8 4q-77 242 -147 451h-639q-89 -266 -148 -451q-2 -4 -8 -4t-4 4q92 302 231 700t240 648q2 4 8 4t8 -4q101 -250 240 -648t231 -700q2 -4 -4 -4zM559 1341q-124 -310 -315 -874h630q-173 512 -315 874zM811 1610v32q0 5 6 5t6 -5v-32q0 -119 -94 -119 q-54 0 -117 39l-110 72q-59 36 -113 36q-41 0 -61.5 -23.5t-20.5 -82.5v-33q0 -4 -6 -4t-6 4v33q0 119 94 119q54 0 117 -39l110 -72q61 -37 113 -37q41 0 61.5 24t20.5 83z" />
<glyph unicode="&#xc4;" horiz-adv-x="1118" d="M1034 0q-6 0 -8 4q-77 242 -147 451h-639q-89 -266 -148 -451q-2 -4 -8 -4t-4 4q92 302 231 700t240 648q2 4 8 4t8 -4q101 -250 240 -648t231 -700q2 -4 -4 -4zM559 1341q-124 -310 -315 -874h630q-173 512 -315 874zM737 1671q6 0 6 -4v-162q0 -4 -6 -4t-6 4v162 q0 4 6 4zM381 1671q6 0 6 -4v-162q0 -4 -6 -4t-6 4v162q0 4 6 4z" />
<glyph unicode="&#xc5;" horiz-adv-x="1118" d="M1034 0q-6 0 -8 4q-77 242 -147 451h-639q-89 -266 -148 -451q-2 -4 -8 -4t-4 4q88 293 226.5 688.5t242.5 653.5q-143 3 -143 145q0 145 153 145q154 0 154 -145q0 -142 -144 -145q101 -251 239 -646t230 -696q2 -4 -4 -4zM559 1341q-124 -310 -315 -874h630 q-173 512 -315 874zM559 1358q141 0 141 133t-141 133t-141 -133t141 -133z" />
<glyph unicode="&#xc6;" horiz-adv-x="1699" d="M1540 1343h-651v-643h594q4 0 4 -6t-4 -6h-594v-676h659q4 0 4 -6t-4 -6h-663q-8 0 -8 4v434h-594q-137 -265 -220 -434q-2 -4 -8 -4t-4 4q144 300 357 698t366 650q2 4 8 4h758q4 0 4 -6q0 -7 -4 -7zM780 1343q-192 -320 -491 -892h588v892h-97z" />
<glyph unicode="&#xc7;" horiz-adv-x="1212" d="M551 -137h104q76 0 117 -24t41 -91t-41 -91t-117 -24h-168q-4 0 -4 7q0 6 4 6h168q73 0 109.5 20t36.5 82t-36.5 82t-109.5 20h-112q-9 0 -6 9l51 135q-241 17 -338.5 178t-97.5 510q0 358 112 520t369 162q417 0 426 -373q0 -4 -6 -4t-6 4q-5 180 -105 270.5t-309 90.5 q-252 0 -360.5 -158t-108.5 -512q0 -347 95 -505t333 -173q0 2 4 2t6 -2h45q208 0 304.5 94t101.5 287q0 4 6 4t6 -4q-5 -197 -105 -295t-313 -98q-33 0 -49 2z" />
<glyph unicode="&#xc8;" horiz-adv-x="1097" d="M938 1343h-713v-643h656q4 0 4 -6t-4 -6h-656v-676h721q4 0 4 -6t-4 -6h-725q-8 0 -8 4v1348q0 4 8 4h717q4 0 4 -6q0 -7 -4 -7zM647 1493l-346 160q-5 2 -5 3t1 9q4 7 10 4l344 -164q2 -1 2 -8t-6 -4z" />
<glyph unicode="&#xc9;" horiz-adv-x="1097" d="M938 1343h-713v-643h656q4 0 4 -6t-4 -6h-656v-676h721q4 0 4 -6t-4 -6h-725q-8 0 -8 4v1348q0 4 8 4h717q4 0 4 -6q0 -7 -4 -7zM936 1653l-346 -160q-6 -3 -6 4t2 8l344 164q6 3 10 -4q2 -8 1 -9t-5 -3z" />
<glyph unicode="&#xca;" horiz-adv-x="1097" d="M938 1343h-713v-643h656q4 0 4 -6t-4 -6h-656v-676h721q4 0 4 -6t-4 -6h-725q-8 0 -8 4v1348q0 4 8 4h717q4 0 4 -6q0 -7 -4 -7zM580 1696l-203 -201q-4 -4 -10 -4t-2 4l206 213q4 4 9 4q4 0 8 -4l203 -213q4 -4 -3 -4q-6 0 -10 4z" />
<glyph unicode="&#xcb;" horiz-adv-x="1097" d="M938 1343h-713v-643h656q4 0 4 -6t-4 -6h-656v-676h721q4 0 4 -6t-4 -6h-725q-8 0 -8 4v1348q0 4 8 4h717q4 0 4 -6q0 -7 -4 -7zM399 1671q7 0 7 -4v-162q0 -4 -7 -4q-6 0 -6 4v162q0 4 6 4zM756 1671q6 0 6 -4v-162q0 -4 -6 -4t-6 4v162q0 4 6 4z" />
<glyph unicode="&#xcc;" horiz-adv-x="454" d="M227 0q-6 0 -6 4v1348q0 4 6 4t6 -4v-1348q0 -4 -6 -4zM236 1493l-347 160q-5 2 -5 3t1 9q4 8 11 4l344 -164q2 -1 2 -8t-6 -4z" />
<glyph unicode="&#xcd;" horiz-adv-x="454" d="M227 0q-6 0 -6 4v1348q0 4 6 4t6 -4v-1348q0 -4 -6 -4zM565 1653l-346 -160q-6 -3 -6 4t2 8l344 164q6 3 10 -4q1 -8 1 -9t-5 -3z" />
<glyph unicode="&#xce;" horiz-adv-x="454" d="M227 0q-6 0 -6 4v1348q0 4 6 4t6 -4v-1348q0 -4 -6 -4zM229 1696l-202 -201q-4 -4 -11 -4q-6 0 -2 4l207 213q4 4 8 4q5 0 9 -4l202 -213q4 -4 -2 -4t-10 4z" />
<glyph unicode="&#xcf;" horiz-adv-x="454" d="M227 0q-6 0 -6 4v1348q0 4 6 4t6 -4v-1348q0 -4 -6 -4zM49 1671q6 0 6 -4v-162q0 -4 -6 -4t-6 4v162q0 4 6 4zM406 1671q6 0 6 -4v-162q0 -4 -6 -4q-7 0 -7 4v162q0 4 7 4z" />
<glyph unicode="&#xd0;" horiz-adv-x="1269" d="M594 0h-369q-8 0 -8 4v633h-151q-5 0 -5 6t5 6h151v703q0 4 8 4h369q278 0 401 -160t123 -518t-123 -518t-401 -160zM229 12h365q273 0 392.5 156t119.5 510t-119.5 509.5t-392.5 155.5h-365v-694h406q4 0 4 -6t-4 -6h-406v-625z" />
<glyph unicode="&#xd1;" horiz-adv-x="1298" d="M1079 1356q6 0 6 -4v-1348q0 -4 -8 -4t-10 4l-842 1333v-1333q0 -4 -6 -4t-6 4v1348q0 4 8 4t10 -4l842 -1336v1336q0 4 6 4zM901 1610v32q0 5 6 5t6 -5v-32q0 -119 -94 -119q-54 0 -117 39l-110 72q-59 36 -113 36q-41 0 -61.5 -23.5t-20.5 -82.5v-33q0 -4 -6 -4t-6 4 v33q0 119 94 119q54 0 117 -39l111 -72q61 -37 112 -37q41 0 61.5 24t20.5 83z" />
<glyph unicode="&#xd2;" horiz-adv-x="1269" d="M635 1364q261 0 372 -162t111 -524t-111 -524t-372 -162t-372 162t-111 524t111 524t372 162zM635 4q256 0 363.5 158t107.5 516t-107.5 516t-363.5 158t-363.5 -158t-107.5 -516t107.5 -516t363.5 -158zM643 1493l-346 160q-5 2 -5 3t1 9q4 7 10 4l344 -164q2 -1 2 -8 t-6 -4z" />
<glyph unicode="&#xd3;" horiz-adv-x="1269" d="M635 1364q261 0 372 -162t111 -524t-111 -524t-372 -162t-372 162t-111 524t111 524t372 162zM635 4q256 0 363.5 158t107.5 516t-107.5 516t-363.5 158t-363.5 -158t-107.5 -516t107.5 -516t363.5 -158zM973 1653l-346 -160q-6 -3 -6 4t2 8l344 164q6 3 10 -4q1 -8 1 -9 t-5 -3z" />
<glyph unicode="&#xd4;" horiz-adv-x="1269" d="M635 1364q261 0 372 -162t111 -524t-111 -524t-372 -162t-372 162t-111 524t111 524t372 162zM635 4q256 0 363.5 158t107.5 516t-107.5 516t-363.5 158t-363.5 -158t-107.5 -516t107.5 -516t363.5 -158zM637 1696l-203 -201q-4 -4 -10 -4t-2 4l207 213q4 4 8 4t8 -4 l203 -213q4 -4 -2 -4t-10 4z" />
<glyph unicode="&#xd5;" horiz-adv-x="1269" d="M635 1364q261 0 372 -162t111 -524t-111 -524t-372 -162t-372 162t-111 524t111 524t372 162zM635 4q256 0 363.5 158t107.5 516t-107.5 516t-363.5 158t-363.5 -158t-107.5 -516t107.5 -516t363.5 -158zM887 1610v32q0 5 6 5t6 -5v-32q0 -119 -94 -119q-54 0 -117 39 l-110 72q-59 36 -113 36q-41 0 -61.5 -23.5t-20.5 -82.5v-33q0 -4 -6 -4t-6 4v33q0 119 94 119q54 0 117 -39l110 -72q61 -37 113 -37q41 0 61.5 24t20.5 83z" />
<glyph unicode="&#xd6;" horiz-adv-x="1269" d="M635 1364q261 0 372 -162t111 -524t-111 -524t-372 -162t-372 162t-111 524t111 524t372 162zM635 4q256 0 363.5 158t107.5 516t-107.5 516t-363.5 158t-363.5 -158t-107.5 -516t107.5 -516t363.5 -158zM457 1671q6 0 6 -4v-162q0 -4 -6 -4t-6 4v162q0 4 6 4zM813 1671 q6 0 6 -4v-162q0 -4 -6 -4t-6 4v162q0 4 6 4z" />
<glyph unicode="&#xd7;" d="M860 299l-319 319l-320 -319q-2 -1 -8 2q-3 6 -2 8l319 320l-319 319q-1 2 2 8q6 3 8 2l320 -319l319 319q2 1 8 -2q3 -6 2 -8l-319 -319l319 -320q1 -2 -2 -8q-6 -3 -8 -2z" />
<glyph unicode="&#xd8;" horiz-adv-x="1277" d="M639 1364q232 0 346 -129l111 178q2 4 8 4t4 -4l-117 -186q131 -158 131 -549q0 -362 -111 -524t-372 -162q-231 0 -346 127l-111 -176q-2 -4 -8 -4t-4 4l117 184q-131 158 -131 551q0 362 111 524t372 162zM168 678q0 -390 125 -541l684 1088q-109 127 -338 127 q-256 0 -363.5 -158t-107.5 -516zM639 4q256 0 363.5 158t107.5 516q0 384 -125 539l-686 -1088q110 -125 340 -125z" />
<glyph unicode="&#xd9;" horiz-adv-x="1265" d="M633 -8q-232 0 -332 112t-100 363v885q0 4 6 4t6 -4v-883q0 -247 96.5 -356t323.5 -109t323.5 109t96.5 356v883q0 4 6 4t6 -4v-885q0 -251 -100 -363t-332 -112zM641 1493l-346 160q-5 2 -5 3t1 9q4 7 10 4l344 -164q2 -1 2 -8t-6 -4z" />
<glyph unicode="&#xda;" horiz-adv-x="1265" d="M633 -8q-232 0 -332 112t-100 363v885q0 4 6 4t6 -4v-883q0 -247 96.5 -356t323.5 -109t323.5 109t96.5 356v883q0 4 6 4t6 -4v-885q0 -251 -100 -363t-332 -112zM971 1653l-346 -160q-7 -3 -7 4t3 8l344 164q6 3 10 -4q1 -8 1 -9t-5 -3z" />
<glyph unicode="&#xdb;" horiz-adv-x="1265" d="M633 -8q-232 0 -332 112t-100 363v885q0 4 6 4t6 -4v-883q0 -247 96.5 -356t323.5 -109t323.5 109t96.5 356v883q0 4 6 4t6 -4v-885q0 -251 -100 -363t-332 -112zM635 1696l-203 -201q-4 -4 -10 -4t-2 4l207 213q4 4 8 4t8 -4l203 -213q4 -4 -2 -4t-10 4z" />
<glyph unicode="&#xdc;" horiz-adv-x="1265" d="M633 -8q-232 0 -332 112t-100 363v885q0 4 6 4t6 -4v-883q0 -247 96.5 -356t323.5 -109t323.5 109t96.5 356v883q0 4 6 4t6 -4v-885q0 -251 -100 -363t-332 -112zM455 1671q6 0 6 -4v-162q0 -4 -6 -4t-6 4v162q0 4 6 4zM811 1671q6 0 6 -4v-162q0 -4 -6 -4t-6 4v162 q0 4 6 4z" />
<glyph unicode="&#xdd;" horiz-adv-x="1097" d="M989 1350q2 4 8 4t4 -4q-94 -200 -220 -435.5t-226 -396.5v-514q0 -4 -6 -4t-6 4v514q-100 162 -227 398t-220 434q-2 4 4 4q7 0 9 -4q96 -201 221.5 -437t218.5 -385q93 149 218.5 385t221.5 437zM887 1653l-346 -160q-6 -3 -6 4t2 8l344 164q6 3 10 -4q1 -8 1 -9t-5 -3 z" />
<glyph unicode="&#xde;" horiz-adv-x="1126" d="M563 422h-338v-418q0 -4 -6 -4t-6 4v1348q0 4 6 4t6 -4v-242h338q230 0 327 -75.5t97 -268.5t-97 -268.5t-327 -75.5zM225 1098v-664h336q226 0 320 72t94 260t-94 260t-320 72h-336z" />
<glyph unicode="&#xdf;" horiz-adv-x="1236" d="M629 784q-4 0 -4 9q0 8 4 8q85 4 149 21t115 51.5t77.5 95t26.5 145.5q0 140 -95 215.5t-279 75.5q-414 0 -414 -346v-1055q0 -4 -6 -4t-6 4v1057q0 356 426 356q188 0 287.5 -80t99.5 -223q0 -87 -27 -149.5t-78.5 -98.5t-115.5 -53t-148 -20q87 -9 153 -26t124.5 -49 t95.5 -79.5t58.5 -118.5t21.5 -164q0 -184 -75 -274t-231 -90q-288 0 -288 262q0 4 6 4t6 -4q0 -250 276 -250q151 0 222 86t71 266q0 114 -30 193t-92 126.5t-139.5 72t-190.5 36.5z" />
<glyph unicode="&#xe0;" horiz-adv-x="1036" d="M207 713q0 -4 -6 -4t-6 4q0 139 81.5 202.5t249.5 63.5q172 0 251 -68.5t79 -222.5v-684q0 -4 -6 -4t-6 4v256q-25 -112 -137 -188t-261 -76q-141 0 -226 62.5t-85 191.5t75.5 188.5t242.5 59.5h391v188q0 150 -76 215.5t-242 65.5q-162 0 -240.5 -60t-78.5 -194z M844 485h-389q-163 0 -235.5 -55.5t-72.5 -179.5t81.5 -183t217.5 -59q165 0 281.5 94.5t116.5 239.5v143zM520 1124l-334 156q-4 2 -5 3t1 9q4 8 11 4l331 -159q2 -1 2 -9q0 -7 -6 -4z" />
<glyph unicode="&#xe1;" horiz-adv-x="1036" d="M207 713q0 -4 -6 -4t-6 4q0 139 81.5 202.5t249.5 63.5q172 0 251 -68.5t79 -222.5v-684q0 -4 -6 -4t-6 4v256q-25 -112 -137 -188t-261 -76q-141 0 -226 62.5t-85 191.5t75.5 188.5t242.5 59.5h391v188q0 150 -76 215.5t-242 65.5q-162 0 -240.5 -60t-78.5 -194z M844 485h-389q-163 0 -235.5 -55.5t-72.5 -179.5t81.5 -183t217.5 -59q165 0 281.5 94.5t116.5 239.5v143zM848 1280l-334 -156q-6 -3 -6 4q0 8 2 9l332 159q6 3 10 -4q2 -8 1 -9t-5 -3z" />
<glyph unicode="&#xe2;" horiz-adv-x="1036" d="M207 713q0 -4 -6 -4t-6 4q0 139 81.5 202.5t249.5 63.5q172 0 251 -68.5t79 -222.5v-684q0 -4 -6 -4t-6 4v256q-25 -112 -137 -188t-261 -76q-141 0 -226 62.5t-85 191.5t75.5 188.5t242.5 59.5h391v188q0 150 -76 215.5t-242 65.5q-162 0 -240.5 -60t-78.5 -194z M844 485h-389q-163 0 -235.5 -55.5t-72.5 -179.5t81.5 -183t217.5 -59q165 0 281.5 94.5t116.5 239.5v143zM520 1323l-194 -197q-4 -4 -11 -4q-6 0 -2 4l199 209q4 4 8 4t8 -4l195 -209q4 -4 -2 -4t-10 4z" />
<glyph unicode="&#xe3;" horiz-adv-x="1036" d="M207 713q0 -4 -6 -4t-6 4q0 139 81.5 202.5t249.5 63.5q172 0 251 -68.5t79 -222.5v-684q0 -4 -6 -4t-6 4v256q-25 -112 -137 -188t-261 -76q-141 0 -226 62.5t-85 191.5t75.5 188.5t242.5 59.5h391v188q0 150 -76 215.5t-242 65.5q-162 0 -240.5 -60t-78.5 -194z M844 485h-389q-163 0 -235.5 -55.5t-72.5 -179.5t81.5 -183t217.5 -59q165 0 281.5 94.5t116.5 239.5v143zM762 1241v33q0 4 6 4t6 -4v-33q0 -64 -22.5 -91.5t-67.5 -27.5q-50 0 -113 39l-110 72q-61 37 -109 37q-40 0 -59 -24t-19 -83v-33q0 -4 -6 -4t-6 4v33 q0 64 22.5 91.5t67.5 27.5q50 0 113 -39l110 -72q59 -36 109 -36q40 0 59 23.5t19 82.5z" />
<glyph unicode="&#xe4;" horiz-adv-x="1036" d="M207 713q0 -4 -6 -4t-6 4q0 139 81.5 202.5t249.5 63.5q172 0 251 -68.5t79 -222.5v-684q0 -4 -6 -4t-6 4v256q-25 -112 -137 -188t-261 -76q-141 0 -226 62.5t-85 191.5t75.5 188.5t242.5 59.5h391v188q0 150 -76 215.5t-242 65.5q-162 0 -240.5 -60t-78.5 -194z M844 485h-389q-163 0 -235.5 -55.5t-72.5 -179.5t81.5 -183t217.5 -59q165 0 281.5 94.5t116.5 239.5v143zM348 1303q6 0 6 -5v-161q0 -4 -6 -4t-6 4v161q0 5 6 5zM688 1303q6 0 6 -5v-161q0 -4 -6 -4t-6 4v161q0 5 6 5z" />
<glyph unicode="&#xe5;" horiz-adv-x="1036" d="M207 713q0 -4 -6 -4t-6 4q0 139 81.5 202.5t249.5 63.5q172 0 251 -68.5t79 -222.5v-684q0 -4 -6 -4t-6 4v256q-25 -112 -137 -188t-261 -76q-141 0 -226 62.5t-85 191.5t75.5 188.5t242.5 59.5h391v188q0 150 -76 215.5t-242 65.5q-162 0 -240.5 -60t-78.5 -194z M844 485h-389q-163 0 -235.5 -55.5t-72.5 -179.5t81.5 -183t217.5 -59q165 0 281.5 94.5t116.5 239.5v143zM518 1411q152 0 152 -145q0 -146 -152 -146q-151 0 -151 146q0 145 151 145zM518 1133q74 0 106.5 33.5t32.5 99.5t-32.5 99.5t-106.5 33.5t-106.5 -33.5 t-32.5 -99.5t32.5 -99.5t106.5 -33.5z" />
<glyph unicode="&#xe6;" horiz-adv-x="1617" d="M1479 494h-658v-9q0 -238 84 -359.5t275 -121.5q130 0 199 63.5t77 182.5q0 4 6 4t6 -4q-8 -122 -81 -190t-207 -68q-166 0 -252.5 89t-108.5 263q0 -107 -58 -188t-144 -120.5t-183 -39.5q-136 0 -217.5 62.5t-81.5 191.5q0 130 72 193t233 63h369v180q0 151 -69.5 216 t-225.5 65q-157 0 -232 -60t-75 -194q0 -4 -6 -4t-6 4q0 139 78 202.5t241 63.5q162 0 233.5 -68t71.5 -223v-51q21 168 102.5 255t235.5 87q166 0 246 -106.5t80 -288.5v-82q0 -8 -4 -8zM809 494h-367q-157 0 -226 -59.5t-69 -184.5q0 -124 78 -183t209 -59q155 0 265 94.5 t110 239.5v152zM1157 967q-177 0 -255 -116t-81 -345h649v78q0 177 -76 280t-237 103z" />
<glyph unicode="&#xe7;" horiz-adv-x="999" d="M414 -133h100q76 0 115 -23t39 -88t-38.5 -87.5t-115.5 -22.5h-164q-4 0 -4 6t4 6h164q73 0 107 18.5t34 79.5t-34.5 80t-106.5 19h-106q-4 0 -5.5 0.5t-3 2.5t1.5 7l45 133q-171 22 -239 141.5t-68 345.5q0 121 19 209t62 154t118 98.5t182 32.5q161 0 246.5 -69.5 t91.5 -192.5q0 -4 -6 -4t-6 4q-6 119 -89 184.5t-237 65.5q-104 0 -176.5 -31.5t-114 -95.5t-59.5 -150t-18 -205q0 -121 18 -206.5t60.5 -149t118 -94.5t186.5 -31q305 0 317 281q0 4 6 4t6 -4q-13 -293 -329 -293q-30 0 -76 4z" />
<glyph unicode="&#xe8;" horiz-adv-x="1028" d="M889 502h-737v-17q0 -240 89.5 -360.5t301.5 -120.5q297 0 319 266q0 4 6 4t6 -4q-11 -135 -93.5 -206.5t-237.5 -71.5q-216 0 -310 124.5t-94 368.5q0 243 91.5 368.5t297.5 125.5q187 0 276 -105t89 -286v-78q0 -8 -4 -8zM528 967q-196 0 -283.5 -114.5t-92.5 -338.5 h729v74q0 177 -85.5 278t-267.5 101zM545 1124l-334 156q-5 2 -5 3t1 9q4 7 10 4l332 -159q2 -1 2 -9q0 -7 -6 -4z" />
<glyph unicode="&#xe9;" horiz-adv-x="1028" d="M889 502h-737v-17q0 -240 89.5 -360.5t301.5 -120.5q297 0 319 266q0 4 6 4t6 -4q-11 -135 -93.5 -206.5t-237.5 -71.5q-216 0 -310 124.5t-94 368.5q0 243 91.5 368.5t297.5 125.5q187 0 276 -105t89 -286v-78q0 -8 -4 -8zM528 967q-196 0 -283.5 -114.5t-92.5 -338.5 h729v74q0 177 -85.5 278t-267.5 101zM831 1280l-333 -156q-6 -3 -6 4q0 8 2 9l331 159q7 4 11 -4q3 -8 -5 -12z" />
<glyph unicode="&#xea;" horiz-adv-x="1028" d="M889 502h-737v-17q0 -240 89.5 -360.5t301.5 -120.5q297 0 319 266q0 4 6 4t6 -4q-11 -135 -93.5 -206.5t-237.5 -71.5q-216 0 -310 124.5t-94 368.5q0 243 91.5 368.5t297.5 125.5q187 0 276 -105t89 -286v-78q0 -8 -4 -8zM528 967q-196 0 -283.5 -114.5t-92.5 -338.5 h729v74q0 177 -85.5 278t-267.5 101zM524 1323l-194 -197q-4 -4 -11 -4q-6 0 -2 4l199 209q4 4 8 4t8 -4l195 -209q4 -4 -2 -4t-10 4z" />
<glyph unicode="&#xeb;" horiz-adv-x="1028" d="M889 502h-737v-17q0 -240 89.5 -360.5t301.5 -120.5q297 0 319 266q0 4 6 4t6 -4q-11 -135 -93.5 -206.5t-237.5 -71.5q-216 0 -310 124.5t-94 368.5q0 243 91.5 368.5t297.5 125.5q187 0 276 -105t89 -286v-78q0 -8 -4 -8zM528 967q-196 0 -283.5 -114.5t-92.5 -338.5 h729v74q0 177 -85.5 278t-267.5 101zM352 1303q6 0 6 -5v-161q0 -4 -6 -4t-6 4v161q0 5 6 5zM692 1303q6 0 6 -5v-161q0 -4 -6 -4t-6 4v161q0 5 6 5z" />
<glyph unicode="&#xec;" horiz-adv-x="413" d="M201 4v963q0 4 6 4t6 -4v-963q0 -4 -6 -4t-6 4zM211 1124l-334 156q-5 2 -5 3t1 9q4 7 10 4l332 -159q2 -1 2 -9q0 -7 -6 -4z" />
<glyph unicode="&#xed;" horiz-adv-x="413" d="M201 4v963q0 4 6 4t6 -4v-963q0 -4 -6 -4t-6 4zM539 1280l-334 -156q-6 -3 -6 4q0 8 2 9l331 159q7 4 11 -4q1 -8 1 -9t-5 -3z" />
<glyph unicode="&#xee;" horiz-adv-x="413" d="M201 4v963q0 4 6 4t6 -4v-963q0 -4 -6 -4t-6 4zM209 1323l-195 -197q-4 -4 -10 -4t-2 4l199 209q4 4 8 4t8 -4l195 -209q4 -4 -2 -4q-7 0 -11 4z" />
<glyph unicode="&#xef;" horiz-adv-x="413" d="M201 4v963q0 4 6 4t6 -4v-963q0 -4 -6 -4t-6 4zM37 1303q6 0 6 -5v-161q0 -4 -6 -4t-6 4v161q0 5 6 5zM377 1303q6 0 6 -5v-161q0 -4 -6 -4t-6 4v161q0 5 6 5z" />
<glyph unicode="&#xf0;" horiz-adv-x="1060" d="M928 1348l-166 -74q83 -101 119.5 -292t36.5 -497q0 -245 -90 -369t-300 -124t-299.5 124t-89.5 369t89.5 369.5t299.5 124.5q165 0 252.5 -73.5t120.5 -213.5q-11 212 -45 352t-106 224l-256 -113q-8 -4 -11 2q-3 5 2 8l256 113q-110 119 -319 119q-4 0 -4 6t4 6 q219 0 332 -125l166 74q8 4 10 0q4 -7 -2 -10zM528 4q205 0 291 120t86 361t-86 361.5t-291 120.5t-290.5 -120.5t-85.5 -361.5t85.5 -361t290.5 -120z" />
<glyph unicode="&#xf1;" horiz-adv-x="1114" d="M209 967v-260q26 110 130 191t265 81q155 0 240.5 -81t85.5 -245v-649q0 -4 -6 -4t-6 4v647q0 161 -82 238.5t-232 77.5q-89 0 -165 -29t-125.5 -77t-77 -109t-27.5 -127v-621q0 -4 -6 -4t-6 4v963q0 4 6 4t6 -4zM801 1241v33q0 4 6 4t6 -4v-33q0 -64 -22.5 -91.5 t-67.5 -27.5q-50 0 -113 39l-110 72q-61 37 -109 37q-40 0 -59 -24t-19 -83v-33q0 -4 -6 -4t-6 4v33q0 64 22.5 91.5t67.5 27.5q50 0 113 -39l110 -72q59 -36 109 -36q40 0 59 23.5t19 82.5z" />
<glyph unicode="&#xf2;" horiz-adv-x="1056" d="M528 979q210 0 300 -124.5t90 -369.5t-90 -369t-300 -124t-299.5 124t-89.5 369t89.5 369.5t299.5 124.5zM528 4q205 0 291 120t86 361t-86 361.5t-291 120.5t-290.5 -120.5t-85.5 -361.5t85.5 -361t290.5 -120zM551 1124l-334 156q-5 2 -5 3t1 9q4 7 10 4l332 -159 q2 -1 2 -9q0 -7 -6 -4z" />
<glyph unicode="&#xf3;" horiz-adv-x="1056" d="M528 979q210 0 300 -124.5t90 -369.5t-90 -369t-300 -124t-299.5 124t-89.5 369t89.5 369.5t299.5 124.5zM528 4q205 0 291 120t86 361t-86 361.5t-291 120.5t-290.5 -120.5t-85.5 -361.5t85.5 -361t290.5 -120zM838 1280l-334 -156q-6 -3 -6 4q0 8 2 9l331 159 q7 4 11 -4q2 -8 1 -9t-5 -3z" />
<glyph unicode="&#xf4;" horiz-adv-x="1056" d="M528 979q210 0 300 -124.5t90 -369.5t-90 -369t-300 -124t-299.5 124t-89.5 369t89.5 369.5t299.5 124.5zM528 4q205 0 291 120t86 361t-86 361.5t-291 120.5t-290.5 -120.5t-85.5 -361.5t85.5 -361t290.5 -120zM530 1323l-194 -197q-4 -4 -10 -4t-2 4l198 209q4 4 8 4 q5 0 9 -4l194 -209q4 -4 -2 -4t-10 4z" />
<glyph unicode="&#xf5;" horiz-adv-x="1056" d="M528 979q210 0 300 -124.5t90 -369.5t-90 -369t-300 -124t-299.5 124t-89.5 369t89.5 369.5t299.5 124.5zM528 4q205 0 291 120t86 361t-86 361.5t-291 120.5t-290.5 -120.5t-85.5 -361.5t85.5 -361t290.5 -120zM772 1241v33q0 4 6 4t6 -4v-33q0 -64 -22.5 -91.5 t-67.5 -27.5q-49 0 -112 39l-111 72q-61 37 -109 37q-40 0 -58.5 -24t-18.5 -83v-33q0 -4 -6 -4q-7 0 -7 4v33q0 64 22.5 91.5t67.5 27.5q50 0 113 -39l111 -72q59 -36 108 -36q40 0 59 23.5t19 82.5z" />
<glyph unicode="&#xf6;" horiz-adv-x="1056" d="M528 979q210 0 300 -124.5t90 -369.5t-90 -369t-300 -124t-299.5 124t-89.5 369t89.5 369.5t299.5 124.5zM528 4q205 0 291 120t86 361t-86 361.5t-291 120.5t-290.5 -120.5t-85.5 -361.5t85.5 -361t290.5 -120zM358 1303q7 0 7 -5v-161q0 -4 -7 -4q-6 0 -6 4v161 q0 5 6 5zM698 1303q7 0 7 -5v-161q0 -4 -7 -4q-6 0 -6 4v161q0 5 6 5z" />
<glyph unicode="&#xf7;" d="M168 635h745q5 0 5 -6t-5 -6h-745q-4 0 -4 6t4 6zM541 227q-6 0 -6 4v162q0 4 6 4t6 -4v-162q0 -4 -6 -4zM541 860q-6 0 -6 4v162q0 4 6 4t6 -4v-162q0 -4 -6 -4z" />
<glyph unicode="&#xf8;" horiz-adv-x="1064" d="M532 979q176 0 269 -90l96 139q2 4 8 4t4 -4l-100 -147q113 -119 113 -396q0 -245 -90 -369t-300 -124q-177 0 -270 90l-94 -139q-2 -4 -8 -4t-4 4l100 145q-113 116 -113 397q0 245 89.5 369.5t299.5 124.5zM156 485q0 -276 106 -387l533 781q-91 88 -263 88 q-205 0 -290.5 -120.5t-85.5 -361.5zM532 4q205 0 291 120t86 361q0 271 -108 385l-531 -778q91 -88 262 -88z" />
<glyph unicode="&#xf9;" horiz-adv-x="1101" d="M893 4v260q-24 -111 -120.5 -191.5t-246.5 -80.5q-161 0 -251.5 86.5t-90.5 259.5v629q0 4 6 4q7 0 7 -4v-627q0 -169 86.5 -252.5t242.5 -83.5q110 0 195.5 49.5t128.5 127t43 165.5v621q0 4 6 4t6 -4v-963q0 -4 -6 -4t-6 4zM553 1124l-334 156q-5 2 -5 3t1 9q4 7 10 4 l332 -159q2 -1 2 -9q0 -7 -6 -4z" />
<glyph unicode="&#xfa;" horiz-adv-x="1101" d="M893 4v260q-24 -111 -120.5 -191.5t-246.5 -80.5q-161 0 -251.5 86.5t-90.5 259.5v629q0 4 6 4q7 0 7 -4v-627q0 -169 86.5 -252.5t242.5 -83.5q110 0 195.5 49.5t128.5 127t43 165.5v621q0 4 6 4t6 -4v-963q0 -4 -6 -4t-6 4zM860 1280l-334 -156q-6 -3 -6 4q0 8 2 9 l332 159q6 3 10 -4q2 -8 1 -9t-5 -3z" />
<glyph unicode="&#xfb;" horiz-adv-x="1101" d="M893 4v260q-24 -111 -120.5 -191.5t-246.5 -80.5q-161 0 -251.5 86.5t-90.5 259.5v629q0 4 6 4q7 0 7 -4v-627q0 -169 86.5 -252.5t242.5 -83.5q110 0 195.5 49.5t128.5 127t43 165.5v621q0 4 6 4t6 -4v-963q0 -4 -6 -4t-6 4zM553 1323l-195 -197q-4 -4 -10 -4t-2 4 l199 209q4 4 8 4t8 -4l195 -209q4 -4 -2 -4q-7 0 -11 4z" />
<glyph unicode="&#xfc;" horiz-adv-x="1101" d="M893 4v260q-24 -111 -120.5 -191.5t-246.5 -80.5q-161 0 -251.5 86.5t-90.5 259.5v629q0 4 6 4q7 0 7 -4v-627q0 -169 86.5 -252.5t242.5 -83.5q110 0 195.5 49.5t128.5 127t43 165.5v621q0 4 6 4t6 -4v-963q0 -4 -6 -4t-6 4zM381 1303q6 0 6 -5v-161q0 -4 -6 -4t-6 4 v161q0 5 6 5zM721 1303q6 0 6 -5v-161q0 -4 -6 -4t-6 4v161q0 5 6 5z" />
<glyph unicode="&#xfd;" horiz-adv-x="950" d="M205 -369q47 0 85.5 22.5t73.5 73.5t62 106t66 147l8 20q0 1 -1 2t-1 2q-99 196 -218 474t-192 487q-1 4 0 5t6 1q4 0 6 -4q73 -210 189.5 -485.5t214.5 -469.5q67 161 172.5 441t181.5 514q2 4 6 4q8 0 6 -6q-76 -244 -185 -531t-183 -465q-31 -74 -52.5 -120t-50.5 -95 t-56 -75t-62 -43t-76 -17q-74 0 -123 21q-4 2 -4 6q0 6 4 6q2 0 16.5 -5t43 -10.5t63.5 -5.5zM805 1280l-334 -156q-6 -3 -6 4q0 8 2 9l332 159q6 3 10 -4q1 -8 1 -9t-5 -3z" />
<glyph unicode="&#xfe;" horiz-adv-x="1114" d="M209 1413v-770q26 166 116.5 251t262.5 85q208 0 297.5 -124.5t89.5 -369.5q0 -120 -20 -208.5t-64.5 -154t-120 -98t-182.5 -32.5q-172 0 -262.5 84.5t-116.5 251.5v-693q0 -4 -6 -4t-6 4v1778q0 4 6 4t6 -4zM209 485q0 -240 87.5 -360.5t291.5 -120.5t289.5 120.5 t85.5 360.5q0 241 -85.5 361.5t-289.5 120.5t-291.5 -121t-87.5 -361z" />
<glyph unicode="&#xff;" horiz-adv-x="950" d="M205 -369q47 0 85.5 22.5t73.5 73.5t62 106t66 147l8 20q0 1 -1 2t-1 2q-99 196 -218 474t-192 487q-1 4 0 5t6 1q4 0 6 -4q73 -210 189.5 -485.5t214.5 -469.5q67 161 172.5 441t181.5 514q2 4 6 4q8 0 6 -6q-76 -244 -185 -531t-183 -465q-31 -74 -52.5 -120t-50.5 -95 t-56 -75t-62 -43t-76 -17q-74 0 -123 21q-4 2 -4 6q0 6 4 6q2 0 16.5 -5t43 -10.5t63.5 -5.5zM645 1303q6 0 6 -5v-161q0 -4 -6 -4t-6 4v161q0 5 6 5zM305 1303q6 0 6 -5v-161q0 -4 -6 -4t-6 4v161q0 5 6 5z" />
<glyph unicode="&#x152;" horiz-adv-x="1732" d="M1573 1343h-651v-643h594q4 0 4 -6t-4 -6h-594v-676h659q4 0 4 -6t-4 -6h-905q-278 0 -401 160t-123 518t123 518t401 160h897q4 0 4 -6q0 -7 -4 -7zM676 12h233v1331h-233q-273 0 -392.5 -155.5t-119.5 -509.5t119.5 -510t392.5 -156z" />
<glyph unicode="&#x153;" horiz-adv-x="1648" d="M1509 494h-657v-9q0 -239 83.5 -360t274.5 -121q130 0 199.5 63.5t77.5 182.5q0 4 6 4t6 -4q-8 -122 -81.5 -190t-207.5 -68q-175 0 -261.5 98.5t-102.5 290.5q-16 -194 -98.5 -291.5t-255.5 -97.5q-192 0 -272.5 124t-80.5 369q0 121 18 209.5t58.5 153.5t109.5 98 t167 33q171 0 254.5 -96.5t99.5 -286.5q16 190 97 286.5t245 96.5q166 0 245.5 -106.5t79.5 -288.5v-82q0 -8 -4 -8zM492 4q190 0 269 120t79 361t-79 361.5t-269 120.5q-96 0 -162.5 -31.5t-105 -95.5t-55.5 -150t-17 -205q0 -241 76.5 -361t263.5 -120zM1188 967 q-177 0 -255 -116t-81 -345h649v78q0 177 -76 280t-237 103z" />
<glyph unicode="&#x178;" horiz-adv-x="1097" d="M989 1350q2 4 8 4t4 -4q-94 -200 -220 -435.5t-226 -396.5v-514q0 -4 -6 -4t-6 4v514q-100 162 -227 398t-220 434q-2 4 4 4q7 0 9 -4q96 -201 221.5 -437t218.5 -385q93 149 218.5 385t221.5 437zM727 1671q6 0 6 -4v-162q0 -4 -6 -4t-6 4v162q0 4 6 4zM371 1671 q6 0 6 -4v-162q0 -4 -6 -4t-6 4v162q0 4 6 4z" />
<glyph unicode="&#x2c6;" horiz-adv-x="614" d="M309 1323l-194 -197q-4 -4 -11 -4q-6 0 -2 4l199 209q4 4 8 4t8 -4l195 -209q4 -4 -2 -4t-10 4z" />
<glyph unicode="&#x2dc;" horiz-adv-x="614" d="M551 1241v33q0 4 6 4t6 -4v-33q0 -64 -22.5 -91.5t-67.5 -27.5q-50 0 -113 39l-110 72q-61 37 -109 37q-40 0 -59 -24t-19 -83v-33q0 -4 -6 -4t-6 4v33q0 64 22.5 91.5t67.5 27.5q50 0 113 -39l111 -72q59 -36 108 -36q40 0 59 23.5t19 82.5z" />
<glyph unicode="&#x2000;" horiz-adv-x="856" />
<glyph unicode="&#x2001;" horiz-adv-x="1712" />
<glyph unicode="&#x2002;" horiz-adv-x="856" />
<glyph unicode="&#x2003;" horiz-adv-x="1712" />
<glyph unicode="&#x2004;" horiz-adv-x="570" />
<glyph unicode="&#x2005;" horiz-adv-x="428" />
<glyph unicode="&#x2006;" horiz-adv-x="285" />
<glyph unicode="&#x2007;" horiz-adv-x="285" />
<glyph unicode="&#x2008;" horiz-adv-x="214" />
<glyph unicode="&#x2009;" horiz-adv-x="342" />
<glyph unicode="&#x200a;" horiz-adv-x="95" />
<glyph unicode="&#x2010;" horiz-adv-x="782" d="M147 555h488q4 0 4 -6t-4 -6h-488q-4 0 -4 6t4 6z" />
<glyph unicode="&#x2011;" horiz-adv-x="782" d="M147 555h488q4 0 4 -6t-4 -6h-488q-4 0 -4 6t4 6z" />
<glyph unicode="&#x2012;" horiz-adv-x="782" d="M147 555h488q4 0 4 -6t-4 -6h-488q-4 0 -4 6t4 6z" />
<glyph unicode="&#x2013;" horiz-adv-x="1024" d="M147 555h730q4 0 4 -6t-4 -6h-730q-4 0 -4 6t4 6z" />
<glyph unicode="&#x2014;" horiz-adv-x="1413" d="M147 555h1119q4 0 4 -6t-4 -6h-1119q-4 0 -4 6t4 6z" />
<glyph unicode="&#x2018;" horiz-adv-x="356" d="M152 1141v-133q0 -4 -7 -4q-6 0 -6 4v133q0 201 127 270q3 2 6 -4q3 -3 -2 -6q-118 -67 -118 -260z" />
<glyph unicode="&#x2019;" horiz-adv-x="356" d="M205 1272v133q0 4 6 4t6 -4v-133q0 -202 -127 -271q-3 -1 -6 5q-3 3 2 6q63 36 91 106t28 154z" />
<glyph unicode="&#x201a;" horiz-adv-x="356" d="M205 72v133q0 4 6 4t6 -4v-133q0 -202 -127 -271q-3 -2 -6 4q-4 4 2 7q63 36 91 106t28 154z" />
<glyph unicode="&#x201c;" horiz-adv-x="626" d="M152 1141v-133q0 -4 -7 -4q-6 0 -6 4v133q0 201 127 270q3 2 6 -4q3 -3 -2 -6q-118 -67 -118 -260zM422 1141v-133q0 -4 -6 -4t-6 4v133q0 201 127 270q3 2 6 -4q3 -3 -2 -6q-63 -36 -91 -106t-28 -154z" />
<glyph unicode="&#x201d;" horiz-adv-x="626" d="M205 1272v133q0 4 6 4t6 -4v-133q0 -202 -127 -271q-3 -1 -6 5q-3 3 2 6q63 36 91 106t28 154zM475 1272v133q0 4 6 4t6 -4v-133q0 -202 -127 -271q-3 -1 -6 5q-3 3 2 6q63 36 91 106t28 154z" />
<glyph unicode="&#x201e;" horiz-adv-x="626" d="M205 72v133q0 4 6 4t6 -4v-133q0 -202 -127 -271q-3 -2 -6 4q-4 4 2 7q63 36 91 106t28 154zM475 72v133q0 4 6 4t6 -4v-133q0 -202 -127 -271q-3 -2 -6 4q-4 4 2 7q63 36 91 106t28 154z" />
<glyph unicode="&#x2022;" horiz-adv-x="626" d="M313 418q-68 0 -88 22t-20 101t20 101t88 22t88.5 -22t20.5 -101t-20.5 -101t-88.5 -22z" />
<glyph unicode="&#x2026;" horiz-adv-x="1069" d="M178 0q-6 0 -6 4v162q0 4 6 4t6 -4v-162q0 -4 -6 -4zM535 0q-7 0 -7 4v162q0 4 7 4q6 0 6 -4v-162q0 -4 -6 -4zM891 0q-6 0 -6 4v162q0 4 6 4t6 -4v-162q0 -4 -6 -4z" />
<glyph unicode="&#x202f;" horiz-adv-x="342" />
<glyph unicode="&#x2039;" horiz-adv-x="528" d="M139 549q0 4 2 6l221 309q2 4 9 4q6 0 4 -4l-225 -315l225 -316q2 -4 -4 -4q-7 0 -9 4l-221 310q-2 2 -2 6z" />
<glyph unicode="&#x203a;" horiz-adv-x="528" d="M389 549q0 -4 -2 -6l-221 -310q-2 -4 -8 -4t-4 4l225 316l-225 315q-2 4 4 4t8 -4l221 -309q2 -2 2 -6z" />
<glyph unicode="&#x205f;" horiz-adv-x="428" />
<glyph unicode="&#x20ac;" horiz-adv-x="1245" d="M657 549h-403q17 -286 122.5 -415.5t323.5 -129.5q197 0 288.5 93t96.5 288q0 4 7 4q6 0 6 -4q-5 -199 -100.5 -296t-297.5 -97q-222 0 -330.5 133t-127.5 424h-164q-4 0 -4 6t4 6h162q-2 37 -2 121q0 82 2 121h-162q-4 0 -4 6t4 6h164q19 284 125 416.5t315 132.5 q401 0 410 -373q0 -4 -7 -4q-6 0 -6 4q-9 361 -397 361q-204 0 -307.5 -129t-120.5 -408h526q4 0 4 -6t-4 -6h-528q-2 -39 -2 -121q0 -84 2 -121h405q5 0 5 -6t-5 -6z" />
<glyph unicode="&#x2122;" horiz-adv-x="1536" d="M721 1356q8 0 10 -4l303 -652l299 652q2 4 10 4q9 0 9 -4v-742q0 -4 -6 -4q-7 0 -7 4v721l-297 -643q-2 -4 -8 -4t-8 4l-301 643v-721q0 -4 -6 -4t-6 4v742q0 4 8 4zM565 1343h-231v-733q0 -4 -6 -4t-6 4v733h-232q-4 0 -4 7q0 6 4 6h475q4 0 4 -6q0 -7 -4 -7z" />
<glyph unicode="&#x25fc;" horiz-adv-x="972" d="M0 973h973v-973h-973v973z" />
</font>
</defs>
</svg>
