<?xml version="1.0" standalone="no"?>
<!DOCTYPE svg PUBLIC "-//W3C//DTD SVG 1.1//EN" "http://www.w3.org/Graphics/SVG/1.1/DTD/svg11.dtd" >
<svg xmlns="http://www.w3.org/2000/svg" xmlns:xlink="http://www.w3.org/1999/xlink" version="1.1">
<metadata></metadata>
<defs>
<font id="frygiabold_italic" horiz-adv-x="1093" >
<font-face units-per-em="2048" ascent="1536" descent="-512" />
<missing-glyph horiz-adv-x="450" />
<glyph unicode="&#xfb01;" horiz-adv-x="1241" d="M948 1192q-12 0 -88 12.5t-123 12.5q-58 0 -95.5 -11t-58.5 -36.5t-30 -56t-14 -79.5l-4 -26h497q91 0 115.5 -8.5t21.5 -38.5l-96 -918q-3 -30 -26 -38.5t-113 -8.5t-114 8.5t-21 38.5l75 735h-360l-76 -735q-3 -30 -26 -38.5t-113 -8.5t-114 8.5t-21 38.5l76 735h-111 q-25 0 -30.5 19t1.5 92q8 77 14.5 94t30.5 18l119 7l4 30q22 206 128.5 303t314.5 97q157 0 256 -29q23 -8 29.5 -29t0.5 -75q-7 -72 -16.5 -92.5t-32.5 -20.5z" />
<glyph unicode="&#xfb02;" horiz-adv-x="1286" d="M539 1034l-4 -26h155q18 0 25.5 -10t7.5 -40q0 -7 -4 -65q-8 -77 -14.5 -96t-30.5 -19h-160l-76 -735q-3 -30 -26 -38.5t-113 -8.5t-114 8.5t-21 38.5l76 735h-111q-25 0 -30.5 19t1.5 92q8 77 14.5 94t30.5 18l119 7l4 30q22 211 133.5 305.5t360.5 94.5q209 0 381 -43 q36 -9 54 -21.5t15 -36.5l-108 -1042q-5 -35 4 -46t43 -11h29q23 0 32 -11t9 -45q0 -9 -4 -63q-9 -80 -19 -99.5t-45 -19.5h-84q-132 0 -190 43.5t-58 153.5q0 15 4 61l99 944q-84 15 -168 15q-63 0 -104 -11t-64 -36.5t-33.5 -56.5t-15.5 -79z" />
<glyph unicode="&#xfb03;" horiz-adv-x="1880" d="M903 1008l4 30q22 206 128.5 303t314.5 97q157 0 256 -29q23 -8 29.5 -29t0.5 -75q-7 -72 -16.5 -92.5t-32.5 -20.5q-12 0 -88 12.5t-123 12.5q-58 0 -95.5 -11t-58.5 -36.5t-30 -56t-14 -79.5l-4 -26h497q91 0 115.5 -8.5t21.5 -38.5l-96 -918q-3 -30 -26 -38.5 t-113 -8.5t-114 8.5t-21 38.5l75 735h-360l-76 -735q-3 -30 -26 -38.5t-113 -8.5t-114 8.5t-21 38.5l76 735h-365l-76 -735q-3 -30 -26 -38.5t-113 -8.5t-114 8.5t-21 38.5l76 735h-111q-25 0 -30.5 19t1.5 92q8 77 14.5 94t30.5 18l119 7l8 73q21 196 108.5 276.5 t250.5 80.5q119 0 174 -25q26 -9 30 -30.5t-10 -82.5q-14 -67 -27 -86.5t-38 -17.5q-66 8 -92 8q-113 0 -125 -131l-8 -65h368z" />
<glyph unicode="&#xfb04;" horiz-adv-x="1925" d="M903 1008l4 30q22 211 133.5 305.5t360.5 94.5q209 0 381 -43q36 -9 54 -21.5t15 -36.5l-108 -1042q-5 -35 4 -46t43 -11h29q23 0 32 -11t9 -45q0 -7 -1 -16.5t-2 -23t-2 -23.5q-10 -81 -19 -100t-44 -19h-80q-137 0 -194.5 43t-57.5 152q0 17 4 63l99 944 q-84 15 -168 15q-63 0 -104 -11t-64 -36.5t-33.5 -56.5t-15.5 -79l-4 -26h155q18 0 25.5 -10t7.5 -40q0 -7 -4 -65q-8 -77 -14.5 -96t-30.5 -19h-160l-76 -735q-3 -30 -26 -38.5t-113 -8.5t-114 8.5t-21 38.5l76 735h-365l-76 -735q-3 -30 -26 -38.5t-113 -8.5t-114 8.5 t-21 38.5l76 735h-111q-25 0 -30.5 19t1.5 92q8 77 14.5 94t30.5 18l119 7l8 73q21 196 108.5 276.5t250.5 80.5q109 0 174 -25q26 -10 30 -31t-10 -82q-14 -67 -27 -86.5t-38 -17.5q-66 8 -92 8q-113 0 -125 -131l-8 -65h368z" />
<glyph horiz-adv-x="0" />
<glyph horiz-adv-x="682" />
<glyph unicode=" "  horiz-adv-x="450" />
<glyph unicode="&#x09;" horiz-adv-x="450" />
<glyph unicode="&#xa0;" horiz-adv-x="450" />
<glyph unicode="!" horiz-adv-x="606" d="M313 453q-74 0 -96 9.5t-20 37.5l43 805q2 26 12.5 36.5t42.5 15.5t104 5q105 0 133.5 -10.5t22.5 -46.5l-125 -805q-3 -29 -23.5 -38t-93.5 -9zM264 -4q-101 0 -128.5 10t-24.5 45l22 205q3 39 29.5 49t128.5 10t129 -10.5t24 -48.5l-22 -205q-3 -36 -30.5 -45.5 t-127.5 -9.5z" />
<glyph unicode="&#x22;" horiz-adv-x="806" d="M180 963l23 417q1 18 9 26t34 12.5t80 4.5q78 0 96.5 -8.5t13.5 -34.5l-63 -417q-5 -25 -22.5 -32t-78.5 -7t-77.5 7t-14.5 32zM553 963l22 417q1 18 9 26t34 12.5t80 4.5q78 0 97 -8.5t14 -34.5l-64 -417q-5 -25 -22 -32t-78 -7t-77.5 7t-14.5 32z" />
<glyph unicode="#" horiz-adv-x="1290" d="M641 35l74 284h-254l-74 -284q-5 -25 -25.5 -32t-93.5 -7q-50 0 -72 4t-24.5 13t0.5 22l74 284h-142q-22 0 -26 17t2 80q6 60 14.5 77t30.5 17h170q26 93 63 248h-141q-22 0 -26 16.5t2 79.5q7 61 15 77.5t30 16.5h170l75 287q6 25 26.5 32t92.5 7q50 0 72 -4t24.5 -13 t-0.5 -22l-75 -287h254l75 287q6 25 26.5 32t92.5 7q50 0 72 -4t24.5 -13t-0.5 -22l-75 -287h143q22 0 27 -16t-2 -78q-6 -61 -15 -78.5t-31 -17.5h-172l-63 -248h143q22 0 26.5 -16t-1.5 -78t-14.5 -79.5t-30.5 -17.5h-172l-74 -284q-5 -25 -25.5 -32t-93.5 -7q-50 0 -72 4 t-24.5 13t0.5 22zM764 510q26 93 63 248h-254l-63 -248h254z" />
<glyph unicode="$" horiz-adv-x="1191" d="M541 -190q-81 0 -100.5 6.5t-16.5 33.5l14 136q-192 20 -282.5 112t-75.5 248q3 27 14.5 39t41.5 17.5t95 5.5q62 0 89.5 -4.5t35.5 -15t6 -34.5q-4 -59 28.5 -90t101.5 -39l34 338q-60 20 -105 39.5t-97 52.5t-85.5 72t-56 97t-22.5 128q0 203 108.5 303.5t315.5 116.5 l14 133q3 28 24 34.5t101 6.5t100 -7t17 -34l-17 -139q171 -24 245 -112t60 -240q-5 -39 -32 -50.5t-121 -11.5q-87 0 -109 9.5t-20 44.5q6 93 -76 116l-37 -342l15 -4q57 -20 94.5 -35.5t82 -38.5t72.5 -49t53 -60.5t36.5 -80t11.5 -100.5q0 -204 -107.5 -305t-312.5 -121 l-12 -136q-3 -27 -23.5 -33.5t-101.5 -6.5zM451 977q0 -44 25.5 -73.5t80.5 -55.5l29 280q-135 -25 -135 -151zM805 383q0 42 -25.5 69.5t-74.5 49.5l-29 -269q129 30 129 150z" />
<glyph unicode="%" horiz-adv-x="1679" d="M496 1368q140 0 212 -70.5t72 -203.5q0 -83 -18 -150.5t-56 -122.5t-104.5 -85.5t-157.5 -30.5q-140 0 -213 69.5t-73 200.5q0 84 17.5 152t55.5 123.5t105.5 86.5t159.5 31zM451 868q124 0 124 226q0 59 -21 84.5t-69 25.5q-123 0 -123 -227q0 -57 21.5 -83t67.5 -26z M1395 1311l-838 -1272q-12 -20 -19.5 -26.5t-32.5 -11.5t-79 -5q-63 0 -81.5 9.5t-0.5 37.5l836 1272q18 26 27 31q23 12 104 12q63 0 82.5 -9.5t1.5 -37.5zM1296 651q140 0 212.5 -70.5t72.5 -203.5q0 -83 -18 -150.5t-56 -122.5t-104.5 -85.5t-157.5 -30.5 q-140 0 -213.5 69.5t-73.5 200.5q0 84 17.5 152t55.5 123.5t105.5 86.5t159.5 31zM1251 152q125 0 125 225q0 59 -21 84.5t-69 25.5q-123 0 -123 -227q0 -57 21 -82.5t67 -25.5z" />
<glyph unicode="&#x26;" horiz-adv-x="1433" d="M1300 229q23 0 30 -22.5t7 -89.5q3 -48 -4.5 -67.5t-25.5 -31.5q-40 -30 -127 -30q-168 0 -230 100q-144 -108 -356 -108q-248 0 -372 94.5t-124 269.5q0 126 57 226t173 149q-63 30 -98 97.5t-35 152.5q0 108 36.5 187.5t104.5 127t158.5 70t205.5 22.5q238 0 352.5 -87 t96.5 -265q-4 -39 -36 -51t-118 -12q-77 0 -101 11t-20 44q6 70 -34 97.5t-142 27.5q-109 0 -166 -45.5t-57 -159.5q0 -70 37.5 -96.5t128.5 -26.5h51q23 0 29 -19.5t0 -84.5q-8 -65 -17 -85t-32 -20h-47q-106 0 -172 -55.5t-66 -167.5q0 -88 52.5 -130t174.5 -42 q156 0 226.5 58t81.5 165l16 172h-88q-24 0 -29 19.5t2 85.5q6 66 15 85t32 19h473q23 0 28 -19t-1 -85q-8 -67 -16 -86t-31 -19h-145l-17 -164q-3 -25 -10 -55q-2 -25 -2 -66q0 -56 17.5 -78t54.5 -22q14 0 41 5t38 5z" />
<glyph unicode="'" horiz-adv-x="434" d="M180 963l23 417q1 18 9 26t34 12.5t80 4.5q78 0 96.5 -8.5t13.5 -34.5l-63 -417q-5 -25 -22.5 -32t-78.5 -7t-77.5 7t-14.5 32z" />
<glyph unicode="(" horiz-adv-x="757" d="M129 221q0 128 9 249t29 242t50.5 225.5t77 195.5t104 155t135 100.5t168.5 36.5h50q25 0 30 -17.5t-2 -88.5q-7 -70 -15.5 -88.5t-33.5 -18.5h-24q-73 0 -131.5 -70.5t-93 -178t-57.5 -250t-31.5 -272.5t-8.5 -259q0 -182 41 -264t135 -82h25q25 0 29.5 -18t-1.5 -88 q-7 -69 -17 -88t-36 -19h-49q-199 0 -291 149.5t-92 448.5z" />
<glyph unicode=")" horiz-adv-x="757" d="M629 827q0 -150 -12.5 -290.5t-39.5 -278t-72.5 -250.5t-107.5 -200.5t-149.5 -136t-192.5 -48.5h-49q-25 0 -30.5 18.5t1.5 88.5t16 88t34 18h24q73 0 131.5 70.5t93 178t57.5 250t31.5 272.5t8.5 259q0 182 -41 264t-135 82h-25q-25 0 -30 18t1 89q7 68 17.5 87 t36.5 19h49q199 0 291 -149.5t92 -448.5z" />
<glyph unicode="*" horiz-adv-x="1064" d="M289 1214l248 -124l-13 286q0 25 21.5 33t93.5 8q73 0 92.5 -8t13.5 -33l-73 -286l276 124q24 8 36.5 -9t25.5 -85q13 -72 8.5 -94t-29.5 -25l-291 -43l176 -213q12 -19 -1.5 -36.5t-77.5 -57.5q-65 -42 -88 -47.5t-31 17.5l-94 253l-148 -253q-11 -23 -32.5 -17.5 t-77.5 47.5q-57 41 -68 58t8 36l221 213l-282 43q-25 2 -25 25t29 94q29 69 43.5 85.5t38.5 8.5z" />
<glyph unicode="+" horiz-adv-x="1150" d="M760 1040l-31 -290h283q20 0 28.5 -11t8.5 -43q0 -6 -1 -15t-2 -22t-2 -22q-8 -74 -16 -93.5t-33 -19.5h-290l-29 -288q-3 -27 -23.5 -35t-95.5 -8q-76 0 -97 8t-18 35l29 288h-281q-27 0 -34 21t0 92q8 74 16.5 93.5t34.5 19.5h289l30 290q3 26 23 33.5t94 7.5 q76 0 98 -8t19 -33z" />
<glyph unicode="," horiz-adv-x="532" d="M279 315q81 0 110.5 -9.5t26.5 -39.5q-6 -60 -96.5 -238t-143.5 -249q-27 -36 -55 -44.5t-88 -8.5q-49 0 -66 13t-4 50q96 246 141 463q9 41 38 52t137 11z" />
<glyph unicode="-" horiz-adv-x="839" d="M170 670h551q20 0 28.5 -11t8.5 -43q0 -9 -4 -59q-8 -74 -16 -93.5t-33 -19.5h-551q-27 0 -34.5 21t-0.5 92q8 74 16.5 93.5t34.5 19.5z" />
<glyph unicode="." horiz-adv-x="532" d="M227 -4q-101 0 -128.5 10t-24.5 45l22 205q3 39 29.5 49t128.5 10t129.5 -10.5t24.5 -48.5l-23 -205q-3 -36 -30.5 -45.5t-127.5 -9.5z" />
<glyph unicode="/" horiz-adv-x="749" d="M836 1413l-607 -1534q-8 -22 -16.5 -30t-36.5 -12.5t-92 -4.5q-84 0 -105.5 10t-13.5 39l606 1534q8 22 17.5 30.5t38 12.5t92.5 4q44 0 69.5 -2.5t38 -8t13.5 -15t-4 -23.5z" />
<glyph unicode="0" horiz-adv-x="1200" d="M682 1290q229 0 340 -121t111 -370q0 -85 -6 -162t-22.5 -161.5t-43 -154.5t-70.5 -134.5t-102 -109t-140 -71t-182 -26.5q-229 0 -339.5 121t-110.5 370q0 85 6 162t22.5 161.5t43 154.5t70.5 134.5t101.5 109t139.5 71t182 26.5zM582 221q74 0 127 49t81.5 135.5 t41 185t12.5 216.5q0 132 -40.5 187t-135.5 55q-74 0 -127 -44.5t-81.5 -127.5t-41 -183.5t-12.5 -230.5q0 -128 40.5 -185t135.5 -57z" />
<glyph unicode="1" horiz-adv-x="872" d="M307 47l101 950l-222 -45q-22 -5 -30.5 6.5t-8.5 45.5q0 7 1 17t2 24.5t2 25.5q9 79 19 100.5t36 26.5l444 92q72 15 66 -39l-127 -1204q-3 -33 -27.5 -42t-116.5 -9q-94 0 -118 9t-21 42z" />
<glyph unicode="2" horiz-adv-x="1101" d="M635 1290q208 0 310 -86.5t102 -242.5q0 -85 -23 -156.5t-70.5 -132t-108.5 -110.5t-147 -103q-21 -13 -102.5 -56.5t-133 -80t-77.5 -76.5h557q21 0 29 -11t8 -45q0 -9 -4 -67q-9 -86 -16 -104.5t-33 -18.5h-830q-22 0 -30.5 10t-8.5 43q0 39 4 68l5 39 q11 121 102 212.5t295 207.5q8 4 23 13q38 21 57.5 32.5t53.5 34.5t52.5 40t43 44t37 53t21.5 60.5t9 72.5q0 119 -144 119q-85 0 -129 -34.5t-57 -113.5q-3 -22 -13 -32.5t-39 -15.5t-89 -5q-89 0 -113.5 12t-21.5 51q21 199 140 289t341 90z" />
<glyph unicode="3" d="M524 539h-110q-24 0 -28 17.5t3 88.5q6 68 14.5 87.5t32.5 19.5h115q199 0 199 186q0 61 -37.5 89t-116.5 28q-168 0 -186 -113q-6 -33 -30.5 -43t-111.5 -10q-89 0 -113 11t-20 50q24 180 140 260t335 80q209 0 316.5 -81t107.5 -228q0 -240 -192 -330q157 -54 157 -245 q0 -207 -132 -316.5t-357 -109.5q-228 0 -349.5 81.5t-103.5 257.5q5 40 32 52t114 12q86 0 108.5 -10.5t20.5 -42.5q0 -59 41 -87t141 -28q91 0 146 51.5t55 143.5q0 71 -47.5 100t-143.5 29z" />
<glyph unicode="4" horiz-adv-x="1159" d="M750 -4q-94 0 -118.5 9t-21.5 42l25 244h-547q-21 0 -30 11t-9 42q0 22 6 66q4 44 14.5 74t17.5 39.5t28 33.5l561 678q23 26 52.5 33.5t121.5 7.5q106 0 138 -9.5t28 -39.5l-74 -699h135q22 0 30.5 -10.5t8.5 -44.5q0 -9 -4 -63q-9 -80 -17.5 -99.5t-35.5 -19.5h-141 l-25 -244q-3 -33 -27 -42t-116 -9zM332 528h336l49 467z" />
<glyph unicode="5" horiz-adv-x="1073" d="M520 596q-91 0 -196 -33q-46 -14 -115 -14q-27 0 -41 1.5t-29 7t-19.5 18.5t-0.5 34l100 615q5 27 28.5 36t100.5 9h604q20 0 28.5 -9.5t8.5 -39.5q0 -25 -6 -74q-8 -84 -15.5 -103.5t-33.5 -19.5h-483l-43 -250q91 33 196 33q182 0 281.5 -87t99.5 -257 q0 -224 -124.5 -353.5t-360.5 -129.5q-110 0 -193.5 19t-143.5 58.5t-87.5 105.5t-18.5 156q5 40 32 52t114 12q86 0 108.5 -10.5t20.5 -42.5q0 -59 37.5 -87t124.5 -28q96 0 150 60.5t54 166.5q0 154 -178 154z" />
<glyph unicode="6" horiz-adv-x="1132" d="M786 969q3 54 -26.5 74t-100.5 20q-211 0 -262 -342q95 82 273 82q176 0 276.5 -81.5t100.5 -252.5q0 -234 -131.5 -361.5t-364.5 -127.5q-442 0 -442 469q0 194 31.5 345.5t96.5 264t172.5 172t252.5 59.5q123 0 213 -31t141.5 -102t42.5 -176q-3 -27 -13 -38.5 t-38.5 -17t-89.5 -5.5q-82 0 -108 9.5t-24 39.5zM379 516v-88q0 -106 39 -161.5t141 -55.5q118 0 168.5 63t50.5 177q0 77 -40 110t-136 33q-139 0 -223 -78z" />
<glyph unicode="7" horiz-adv-x="1032" d="M143 53q83 222 244.5 498t319.5 473h-523q-21 0 -29 10.5t-8 44.5q0 7 1 17t2 25t2 26q9 84 17 103.5t34 19.5h798q21 0 29 -10t8 -43q0 -12 -4 -66q-6 -45 -16.5 -72.5t-30.5 -52.5q-152 -203 -304.5 -480t-238.5 -499q-12 -34 -42.5 -43.5t-129.5 -9.5q-62 0 -93 6 t-37 19.5t1 33.5z" />
<glyph unicode="8" horiz-adv-x="1150" d="M86 299q0 146 64.5 227.5t179.5 126.5q-160 80 -160 248q0 103 36.5 179.5t104 121.5t155 66.5t196.5 21.5q209 0 320.5 -82.5t111.5 -234.5q0 -135 -60 -212t-166 -120q185 -85 185 -270q0 -391 -514 -391q-453 0 -453 319zM772 371q0 75 -44.5 118.5t-127.5 73.5 q-113 -34 -172 -84.5t-59 -148.5q0 -125 186 -125q91 0 154 40t63 126zM444 903q0 -64 40.5 -102t117.5 -68q50 15 85.5 31.5t67 41t47 59.5t15.5 81q0 65 -40 94t-132 29q-90 0 -145.5 -39.5t-55.5 -126.5z" />
<glyph unicode="9" horiz-adv-x="1134" d="M391 301q-3 -54 26.5 -74t100.5 -20q207 0 262 342q-91 -82 -272 -82q-176 0 -276.5 81.5t-100.5 252.5q0 234 131.5 361.5t364.5 127.5q442 0 442 -469q0 -194 -31.5 -345.5t-96.5 -264t-172.5 -172t-252.5 -59.5q-123 0 -213 31t-141.5 102t-42.5 176q3 27 13 38.5 t38.5 17t89.5 5.5q82 0 107.5 -9.5t23.5 -39.5zM799 842q0 106 -39.5 161.5t-141.5 55.5q-118 0 -168.5 -63t-50.5 -177q0 -77 40 -110t136 -33q140 0 222 76q2 31 2 90z" />
<glyph unicode=":" horiz-adv-x="581" d="M252 -4q-101 0 -129 10t-25 45l23 205q3 39 29.5 49t128.5 10t129 -10.5t24 -48.5l-22 -205q-3 -36 -30.5 -45.5t-127.5 -9.5zM324 692q-101 0 -129 10.5t-25 45.5l23 204q3 39 29.5 49.5t127.5 10.5t129 -11t25 -49l-23 -204q-3 -36 -30 -46t-127 -10z" />
<glyph unicode=";" horiz-adv-x="581" d="M293 315q81 0 110.5 -9.5t26.5 -39.5q-6 -60 -96.5 -238t-143.5 -249q-27 -36 -55 -44.5t-88 -8.5q-49 0 -66 13t-4 50q98 251 142 463q9 41 37.5 52t136.5 11zM324 692q-101 0 -129 10.5t-25 45.5l23 204q3 39 29.5 49.5t127.5 10.5t129 -11t25 -49l-23 -204 q-3 -36 -30 -46t-127 -10z" />
<glyph unicode="&#x3c;" horiz-adv-x="1150" d="M152 637q6 62 15.5 86.5t31.5 38.5l723 442q21 12 42 -2t54 -65q33 -53 38 -79t-14 -36l-630 -385l549 -385q17 -10 6.5 -35.5t-54.5 -79.5q-43 -51 -67.5 -65t-42.5 -2l-631 442q-25 19 -25 63q0 7 1 16.5t2 23t2 22.5z" />
<glyph unicode="=" horiz-adv-x="1150" d="M188 526h805q25 0 30.5 -19t-1.5 -93q-7 -72 -17.5 -92.5t-35.5 -20.5h-805q-20 0 -27.5 9t-7.5 38q0 8 4 66q7 72 17.5 92t37.5 20zM233 965h805q25 0 30.5 -19.5t-1.5 -93.5q-7 -72 -17.5 -92.5t-35.5 -20.5h-805q-20 0 -27.5 9t-7.5 38q0 8 4 66q7 72 17.5 92.5 t37.5 20.5z" />
<glyph unicode="&#x3e;" horiz-adv-x="1150" d="M999 637q-6 -62 -15.5 -86.5t-31.5 -38.5l-723 -442q-21 -12 -42 2t-54 65q-33 53 -38 79t14 36l630 385l-549 385q-17 10 -6.5 35.5t54.5 79.5q43 51 67.5 65t42.5 2l631 -442q25 -19 25 -64q0 -7 -1 -16t-2 -22.5t-2 -22.5z" />
<glyph unicode="?" horiz-adv-x="1142" d="M696 528l-8 -39q-6 -29 -28 -37t-101 -8q-56 0 -81 4.5t-30.5 12.5t-5.5 28v46q1 48 21.5 89t52 71t70 58t76.5 55t70 56t51.5 68t19.5 84q0 61 -38 90t-116 29q-91 0 -139 -36.5t-61 -115.5q-3 -22 -12.5 -32.5t-37.5 -15.5t-88 -5q-90 0 -116 12t-23 51 q21 199 145.5 291t352.5 92q214 0 318 -87t104 -232q0 -72 -20 -131t-52.5 -98t-72 -71t-80.5 -58t-76 -50t-61.5 -54.5t-33.5 -66.5zM514 -4q-101 0 -129 10t-25 45l23 205q3 39 29.5 49t128.5 10t129 -10.5t24 -48.5l-22 -205q-3 -36 -30.5 -45.5t-127.5 -9.5z" />
<glyph unicode="@" horiz-adv-x="1839" d="M1090 580l22 215q-48 20 -127 20q-49 0 -85 -17t-56 -43t-32 -67t-15.5 -79t-3.5 -89q0 -77 28 -110t94 -33q156 0 175 203zM1151 -147h-285q-137 0 -245 19t-197.5 63t-149 113t-92 172.5t-32.5 238.5q0 211 52 374.5t157.5 282t274.5 180.5t396 62q376 0 543.5 -144.5 t167.5 -455.5q0 -54 -4 -105t-15 -112.5t-29.5 -113t-50 -101.5t-73 -84.5t-101.5 -56t-133 -21.5q-93 0 -145.5 38.5t-65.5 104.5q-82 -133 -262 -133q-317 0 -317 322q0 524 459 524q185 0 309 -64q42 -20 39 -57l-47 -440q-7 -73 4 -105t57 -32q47 0 81 39t51.5 105.5 t25.5 138.5t8 153q0 122 -26.5 201.5t-89 128t-157 68.5t-239.5 20q-351 0 -506.5 -166.5t-155.5 -542.5q0 -105 23.5 -181.5t65 -124.5t109.5 -76.5t145.5 -39t183.5 -10.5h291q18 0 22.5 -19.5t-0.5 -72.5q-6 -53 -15 -71.5t-32 -18.5z" />
<glyph unicode="A" horiz-adv-x="1249" d="M1024 -4q-99 0 -128.5 10t-33.5 47q-11 107 -37 271h-419q-41 -114 -93 -271q-11 -37 -39.5 -47t-126.5 -10q-90 0 -116 11t-15 42q83 245 248 652.5t268 607.5q16 31 50 41t139 10q106 0 142.5 -10.5t45.5 -40.5q59 -198 137.5 -603t112.5 -657q5 -32 -20.5 -42.5 t-114.5 -10.5zM694 1057q-97 -225 -200 -498h294q-66 367 -94 498z" />
<glyph unicode="B" horiz-adv-x="1257" d="M455 573l-35 -327h205q42 0 75.5 4t67 16.5t55.5 33t35.5 55.5t13.5 83q0 79 -55.5 107t-173.5 28h-188zM688 1110h-178l-31 -299h183q45 0 82.5 8.5t69 27.5t49.5 55t18 85q0 66 -47 94.5t-146 28.5zM391 1356h330q457 0 457 -328q0 -101 -50 -185.5t-151 -129.5 q90 -27 139 -97t49 -178q0 -225 -140 -331.5t-390 -106.5h-385q-94 0 -118 9t-21 40l131 1256q3 22 13.5 32t41 14.5t94.5 4.5z" />
<glyph unicode="C" horiz-adv-x="1257" d="M135 678q40 378 179 538t444 160q241 0 358 -109t98 -309q-4 -40 -31 -50.5t-118 -10.5q-89 0 -114 10t-23 43q6 87 -35 129.5t-145 42.5q-105 0 -165.5 -38t-96 -133t-54.5 -273q-10 -113 -10 -174q0 -155 52.5 -213t178.5 -58q104 0 157 45t67 136q5 33 30.5 43 t114.5 10t115.5 -10t23.5 -45q-25 -215 -149 -323.5t-369 -108.5q-271 0 -394.5 123.5t-123.5 400.5q0 69 10 174z" />
<glyph unicode="D" horiz-adv-x="1294" d="M422 250h178q106 0 168.5 39t98 130.5t53.5 258.5q10 98 10 156q0 151 -55 211.5t-185 60.5h-178zM588 0h-338q-94 0 -118 9t-21 40l131 1256q3 32 29.5 41.5t119.5 9.5h316q272 0 396 -118t124 -380q0 -70 -10 -180q-19 -184 -60 -309.5t-115.5 -209.5t-185 -121.5 t-268.5 -37.5z" />
<glyph unicode="E" horiz-adv-x="1163" d="M1075 1106h-563l-31 -289h484q23 0 32 -10t9 -45q0 -34 -5 -70q-9 -87 -16.5 -106t-36.5 -19h-491l-35 -317h565q22 0 31.5 -12.5t9.5 -49.5q0 -9 -4 -63q-9 -84 -18 -104.5t-35 -20.5h-717q-95 0 -120.5 9t-22.5 40l131 1256q3 22 12.5 32t39 14.5t93.5 4.5h707 q22 0 31.5 -12.5t9.5 -51.5q0 -7 -1 -16t-2 -22.5t-2 -22.5q-9 -83 -18.5 -104t-36.5 -21z" />
<glyph unicode="F" horiz-adv-x="1089" d="M455 551l-54 -506q-3 -32 -27.5 -40.5t-119.5 -8.5q-97 0 -121.5 9t-21.5 40l131 1260q3 22 12.5 32t39 14.5t93.5 4.5h692q22 0 31.5 -12.5t9.5 -51.5q0 -11 -4 -61q-9 -83 -18.5 -104t-36.5 -21h-549l-31 -305h473q23 0 32 -9.5t9 -41.5q0 -28 -6 -74 q-9 -87 -16.5 -106t-36.5 -19h-481z" />
<glyph unicode="G" horiz-adv-x="1306" d="M1087 729q81 0 104.5 -16t18.5 -62l-22 -215q-24 -230 -162 -343t-379 -113q-272 0 -397 124.5t-125 401.5q0 70 10 172q40 377 181.5 537.5t447.5 160.5q243 0 360.5 -102.5t100.5 -290.5q-5 -37 -33.5 -49t-116.5 -12q-86 0 -113 10.5t-24 40.5q6 76 -40 114.5 t-150 38.5q-105 0 -165.5 -39t-96 -135t-54.5 -274q-10 -105 -10 -164q0 -160 56 -222.5t184 -62.5q226 0 247 207l6 56h-215q-22 0 -30 12t-8 43q0 9 4 63q9 82 16.5 100.5t34.5 18.5h370z" />
<glyph unicode="H" horiz-adv-x="1359" d="M1028 -4q-97 0 -121.5 9t-21.5 40l55 520h-483l-56 -520q-3 -32 -27.5 -40.5t-119.5 -8.5q-97 0 -121.5 9t-21.5 40l133 1264q2 24 11 33t38 13.5t96 4.5q96 0 122.5 -9.5t23.5 -41.5l-52 -490h484l51 490q2 24 11 33t38 13.5t96 4.5q96 0 122.5 -9.5t23.5 -41.5 l-133 -1264q-2 -22 -12.5 -31.5t-40 -13.5t-95.5 -4z" />
<glyph unicode="I" horiz-adv-x="598" d="M260 -4q-97 0 -121.5 9t-21.5 40l133 1264q2 24 11 33t38 13.5t96 4.5q96 0 122.5 -9.5t23.5 -41.5l-133 -1264q-2 -22 -12.5 -31.5t-40 -13.5t-95.5 -4z" />
<glyph unicode="J" horiz-adv-x="1091" d="M664 461l90 848q2 23 12 33t40 14t97 4q95 0 119.5 -9t21.5 -42l-92 -863q-9 -88 -26.5 -154.5t-53 -127.5t-87 -99.5t-131.5 -61.5t-185 -23q-207 0 -307.5 92.5t-100.5 263.5q0 10 5 67q5 40 31 51t118 11q88 0 113.5 -10.5t23.5 -42.5q-8 -91 21 -131.5t110 -40.5 q91 0 130.5 52.5t50.5 168.5z" />
<glyph unicode="K" horiz-adv-x="1269" d="M1282 1292l-479 -585l371 -644q25 -44 -35 -58q-37 -9 -113 -9q-80 0 -116 9.5t-54 39.5l-301 533h-98l-56 -533q-3 -32 -27.5 -40.5t-119.5 -8.5q-97 0 -121.5 9t-21.5 40l133 1264q2 24 11 33t38 13.5t96 4.5q96 0 122.5 -9.5t23.5 -41.5l-52 -480h95l395 488 q21 26 55.5 34.5t112.5 8.5q155 0 154 -40q0 -12 -13 -28z" />
<glyph unicode="L" horiz-adv-x="1040" d="M535 1309l-113 -1059h479q22 0 31.5 -12.5t9.5 -49.5q0 -9 -4 -63q-9 -84 -18 -104.5t-35 -20.5h-631q-95 0 -120.5 9t-22.5 40l133 1260q2 24 11 33t38 13.5t96 4.5q96 0 122.5 -9.5t23.5 -41.5z" />
<glyph unicode="M" horiz-adv-x="1695" d="M825 143q-79 0 -104 9t-31 36l-192 822l-101 -965q-3 -32 -27 -40.5t-118 -8.5q-67 0 -96.5 4t-38 13.5t-6.5 31.5l133 1262q2 23 16.5 34t58 16t136.5 5q121 0 166.5 -10.5t52.5 -40.5l184 -811l356 811q14 31 57 41t163 10q93 0 138 -5t60 -16t13 -34l-134 -1262 q-2 -22 -11 -31.5t-38 -13.5t-96 -4q-66 0 -95.5 4t-38.5 13.5t-7 31.5l100 961l-364 -818q-9 -20 -19 -28t-36.5 -12.5t-80.5 -4.5z" />
<glyph unicode="N" horiz-adv-x="1380" d="M1184 1360q97 0 122.5 -9t22.5 -40l-133 -1264q-2 -23 -12 -32.5t-44 -14t-110 -4.5q-81 0 -109.5 9t-39.5 34l-394 835l-86 -829q-3 -32 -27.5 -40.5t-119.5 -8.5q-97 0 -121.5 9t-21.5 40l133 1264q2 23 11.5 32t43 14t109.5 5q81 0 110.5 -9.5t38.5 -33.5l393 -838 l88 832q3 32 27.5 40.5t118.5 8.5z" />
<glyph unicode="O" horiz-adv-x="1343" d="M764 1376q268 0 390 -122.5t122 -395.5q0 -70 -10 -180q-19 -189 -61.5 -318.5t-117.5 -216t-184 -125t-264 -38.5q-270 0 -392 123t-122 399q0 71 10 176q40 377 181.5 537.5t447.5 160.5zM653 229q104 0 164.5 39.5t96.5 135.5t55 274q10 110 10 172q0 156 -52.5 216 t-178.5 60q-105 0 -165.5 -39t-96 -135t-54.5 -274q-10 -113 -10 -174q0 -155 52.5 -215t178.5 -60z" />
<glyph unicode="P" horiz-adv-x="1224" d="M641 457h-197l-43 -412q-3 -32 -27.5 -40.5t-119.5 -8.5q-97 0 -121.5 9t-21.5 40l131 1260q3 22 13.5 32t41 14.5t94.5 4.5h316q248 0 364.5 -89t116.5 -280q0 -22 -4 -80q-25 -239 -150 -344.5t-393 -105.5zM512 1106l-43 -399h178q122 0 175 41.5t65 158.5q2 14 2 43 q0 86 -48.5 121t-152.5 35h-176z" />
<glyph unicode="Q" horiz-adv-x="1343" d="M764 1376q268 0 390 -122.5t122 -395.5q0 -70 -10 -180q-33 -312 -134 -473t-301 -205q96 -47 246 -47q20 0 27.5 -9.5t7.5 -41.5q0 -8 -4 -74q-9 -82 -19.5 -103.5t-37.5 -21.5q-161 0 -300.5 76t-215.5 207q-214 20 -312 143.5t-98 372.5q0 71 10 176 q40 377 181.5 537.5t447.5 160.5zM653 229q104 0 164.5 39.5t96.5 135.5t55 274q10 110 10 172q0 156 -52.5 216t-178.5 60q-105 0 -165.5 -39t-96 -135t-54.5 -274q-10 -113 -10 -174q0 -155 52.5 -215t178.5 -60z" />
<glyph unicode="R" horiz-adv-x="1245" d="M537 506h-88l-48 -461q-3 -32 -27.5 -40.5t-119.5 -8.5q-97 0 -121.5 9t-21.5 40l131 1260q3 22 13 32t40 14.5t94 4.5h324q246 0 358.5 -87.5t112.5 -271.5q0 -19 -4 -69q-27 -273 -275 -367q47 -29 81 -74.5t65 -115.5q60 -148 75 -310q4 -15 1.5 -27.5t-13.5 -21.5 t-45 -13.5t-94 -4.5q-86 0 -113.5 10.5t-30.5 38.5q-13 137 -43 223q-71 240 -251 240zM512 1110l-39 -367h172q123 0 174.5 37.5t63.5 145.5q2 14 2 39q0 80 -47 112.5t-156 32.5h-170z" />
<glyph unicode="S" horiz-adv-x="1179" d="M561 221q41 0 74 4t64 15t51 29t32.5 47.5t12.5 68.5q0 27 -11 48t-27.5 35.5t-47.5 29t-58 23.5t-73 24q-9 3 -13 4q-50 16 -80.5 26.5t-78.5 30.5t-77.5 39t-65.5 50t-55.5 65t-33.5 81t-14 101q0 434 522 434q249 0 350.5 -89.5t83.5 -272.5q-5 -39 -32 -50.5 t-121 -11.5q-87 0 -109 9.5t-20 44.5q6 69 -34.5 99t-142.5 30q-206 0 -206 -156q0 -36 16 -62.5t52.5 -48.5t79.5 -39.5t113 -42.5q7 -2 10 -3t8.5 -3t10.5 -4q57 -20 94 -35t81 -37.5t71 -48t51.5 -59.5t35.5 -78.5t11 -99.5q0 -235 -135 -336.5t-399 -101.5 q-251 0 -369.5 93.5t-101.5 272.5q3 27 14.5 39t41.5 17.5t95 5.5q62 0 89.5 -4.5t35.5 -15t6 -34.5q-6 -73 43 -103t156 -30z" />
<glyph unicode="T" horiz-adv-x="1122" d="M1098 1106h-318l-110 -1061q-3 -32 -27.5 -40.5t-120.5 -8.5q-97 0 -121.5 9t-21.5 40l110 1061h-309q-22 0 -30.5 10.5t-8.5 46.5q0 39 4 68q7 81 17 103t37 22h917q22 0 31.5 -12.5t9.5 -51.5q0 -11 -4 -61q-9 -83 -18.5 -104t-36.5 -21z" />
<glyph unicode="U" horiz-adv-x="1339" d="M639 -20q-255 0 -374.5 101.5t-119.5 319.5q0 42 7 107l84 801q2 24 11 33t38 13.5t96 4.5q96 0 122 -9.5t23 -41.5l-84 -789q-4 -58 -4 -78q0 -108 48.5 -153t166.5 -45q136 0 195 61.5t74 214.5l84 789q2 23 11.5 33t38.5 14t95 4q97 0 122.5 -9t22.5 -42l-84 -801 q-20 -187 -82.5 -301t-182 -170.5t-308.5 -56.5z" />
<glyph unicode="V" horiz-adv-x="1245" d="M1157 1360q89 0 115 -10q33 -14 18 -45q-91 -256 -259.5 -664t-262.5 -596q-14 -31 -47 -40t-137 -9q-105 0 -139.5 9t-41.5 40q-53 181 -135 585t-125 675q-6 36 24.5 45.5t113.5 9.5q69 0 101 -4.5t45.5 -16.5t16.5 -39q55 -415 170 -970q242 577 375 970 q10 27 23.5 38.5t44.5 16.5t100 5z" />
<glyph unicode="W" horiz-adv-x="1961" d="M1835 1360q98 0 129.5 -10t20.5 -45q-78 -251 -226.5 -656.5t-238.5 -603.5q-14 -30 -45 -39.5t-129 -9.5q-70 0 -103 4.5t-45 14t-16 30.5q-76 392 -146 891q-164 -476 -329 -891q-9 -22 -21 -31t-44.5 -13.5t-102.5 -4.5q-99 0 -130.5 9.5t-39.5 39.5q-47 192 -111 596 t-92 664q-3 36 27 45.5t126 9.5q89 0 115 -11t29 -49q25 -345 115 -950q167 449 333 950q12 40 38.5 50t127.5 10q103 0 131 -10.5t31 -49.5q53 -457 133 -952q180 492 316 952q12 39 36 49.5t111 10.5z" />
<glyph unicode="X" horiz-adv-x="1290" d="M915 696l279 -635q15 -36 -21 -50.5t-133 -14.5q-81 0 -116.5 8.5t-46.5 36.5l-218 514l-319 -514q-18 -28 -53 -36.5t-115 -8.5q-151 0 -155 37q-1 12 10 28l409 635l-272 598q-18 39 15 52.5t136 13.5q79 0 116 -9t50 -38l209 -479l311 479q19 29 54 38t112 9 q143 0 157 -28q8 -14 -9 -38z" />
<glyph unicode="Y" horiz-adv-x="1204" d="M948 1309q11 23 23 32t43.5 14t99.5 5q136 0 144 -31q2 -10 -5 -24q-72 -138 -226.5 -392.5t-268.5 -423.5l-47 -446q-3 -32 -27.5 -40.5t-120.5 -8.5t-121 9t-22 40l47 446q-79 167 -181 422t-147 394q-6 20 4 31.5t43.5 17.5t96.5 6q98 0 127.5 -9.5t38.5 -41.5 q68 -249 188 -572q160 267 311 572z" />
<glyph unicode="Z" horiz-adv-x="1179" d="M258 1356h852q21 0 30 -11t9 -45q0 -26 -6 -75q-7 -75 -39 -127l-658 -848h562q22 0 31.5 -12.5t9.5 -49.5q0 -7 -1 -16.5t-2 -23t-2 -23.5q-9 -84 -18 -104.5t-35 -20.5h-885q-23 0 -31.5 11t-8.5 46q0 41 4 70q7 82 43 127l659 852h-532q-22 0 -30.5 10.5t-8.5 46.5 q0 39 4 68q7 82 16.5 103.5t36.5 21.5z" />
<glyph unicode="[" horiz-adv-x="757" d="M104 -324l179 1696q3 31 26.5 40t112.5 9h307q27 0 34.5 -19.5t0.5 -86.5q-8 -73 -14.5 -90t-30.5 -17h-203l-145 -1368h194q26 0 33 -19t0 -87q-7 -70 -15.5 -88.5t-33.5 -18.5h-307q-90 0 -115.5 9.5t-22.5 39.5z" />
<glyph unicode="\" horiz-adv-x="749" d="M410 -121l-279 1534q-5 29 18 39t107 10q64 0 91 -4.5t34 -12.5t10 -30l279 -1534q6 -29 -16 -39t-107 -10q-64 0 -91.5 4.5t-35 12.5t-10.5 30z" />
<glyph unicode="]" horiz-adv-x="757" d="M653 1372l-178 -1696q-3 -31 -26.5 -40t-112.5 -9h-307q-26 0 -34 20t-1 87q8 73 14.5 89.5t30.5 16.5h203l145 1368h-194q-26 0 -33 19.5t0 87.5q7 70 15.5 88t33.5 18h307q90 0 115 -9.5t22 -39.5z" />
<glyph unicode="^" horiz-adv-x="1150" d="M674 1370q82 0 109 -8t38 -31l260 -600q14 -33 -11.5 -43t-108.5 -10q-82 0 -109.5 9.5t-38.5 37.5l-162 395l-243 -395q-18 -29 -45 -38t-107 -9q-111 0 -124 20q-6 12 7 33l387 600q10 16 21.5 23.5t40.5 11.5t86 4z" />
<glyph unicode="_" horiz-adv-x="843" d="M756 -307h-805q-22 0 -27 15.5t0 74.5q6 63 11 76.5t24 13.5h807q22 0 26.5 -15.5t-1.5 -74.5q-7 -73 -12.5 -81.5t-22.5 -8.5z" />
<glyph unicode="`" horiz-adv-x="749" d="M586 1126l-326 152q-14 7 -17.5 15t5 30t35.5 63q38 60 56.5 73.5t35.5 -1.5l295 -203q19 -11 17.5 -25t-28.5 -56q-28 -41 -39.5 -49t-33.5 1z" />
<glyph unicode="a" d="M432 715q-3 -28 -23.5 -35.5t-103.5 -7.5q-89 0 -113 9.5t-20 45.5q30 301 434 301q214 0 307 -74.5t93 -224.5q0 -5 -5 -67l-63 -619q-2 -21 -10.5 -30t-35.5 -13t-89 -4q-87 0 -110 8.5t-21 38.5l4 74q-92 -133 -299 -133q-154 0 -230.5 71.5t-76.5 190.5 q0 170 109.5 247.5t301.5 77.5h242l8 91q9 84 -20 113.5t-123 29.5q-80 0 -115.5 -21.5t-40.5 -68.5zM705 391h-209q-156 0 -156 -117q0 -84 121 -84q103 0 167 44.5t72 117.5z" />
<glyph unicode="b" horiz-adv-x="1187" d="M508 1372l-49 -452q102 108 286 108q177 0 270 -105t93 -317q0 -65 -4 -102q-49 -524 -457 -524q-194 0 -276 122l-11 -59q-6 -31 -27.5 -39t-107.5 -8q-88 0 -111 8.5t-20 38.5l139 1329q3 30 26 38.5t112 8.5q91 0 115.5 -8.5t21.5 -38.5zM416 504q-6 -49 -6 -92 q0 -111 43 -158t141 -47q112 0 163 66.5t68 230.5q6 55 6 98q0 107 -40 153t-134 46q-115 0 -169.5 -67t-71.5 -230z" />
<glyph unicode="c" horiz-adv-x="1073" d="M610 797q-114 0 -161.5 -64t-65.5 -229q-6 -58 -6 -105q0 -104 38.5 -146t133.5 -42q140 0 153 98q3 22 11 31.5t34.5 14.5t81.5 5q99 0 123.5 -9.5t20.5 -47.5q-16 -151 -122.5 -237t-313.5 -86q-224 0 -331.5 103t-107.5 314q0 51 6 107q28 269 151 396.5t370 127.5 q210 0 304.5 -85t80.5 -230q-3 -39 -27.5 -48.5t-120.5 -9.5q-81 0 -103 10.5t-20 41.5q3 46 -27.5 68t-101.5 22z" />
<glyph unicode="d" horiz-adv-x="1187" d="M754 43v49q-100 -112 -283 -112q-181 0 -277 104t-96 315q0 49 6 105q52 524 451 524q195 0 281 -123l49 467q2 21 10.5 30t36 13t90.5 4q90 0 115 -9t22 -38l-139 -1329q-3 -30 -25.5 -38.5t-109.5 -8.5t-109 8.5t-22 38.5zM793 504q6 53 6 94q0 109 -43 156t-140 47 q-112 0 -164 -66.5t-69 -230.5q-6 -52 -6 -96q0 -108 41 -154.5t135 -46.5q115 0 169 67t71 230z" />
<glyph unicode="e" d="M956 434h-587v-28q0 -112 43 -164t141 -52q71 0 110.5 25.5t45.5 67.5q3 22 11.5 30.5t34 12.5t85.5 4q62 0 88 -4t35 -16t6 -40q-14 -130 -123 -210t-303 -80q-227 0 -336 103t-109 314q0 51 6 107q28 266 153 395t361 129q205 0 304.5 -102.5t99.5 -278.5q0 -22 -4 -72 l-6 -53q-5 -53 -15.5 -70.5t-40.5 -17.5zM612 817q-96 0 -147.5 -51t-75.5 -164h369l4 29q2 12 2 33q0 153 -152 153z" />
<glyph unicode="f" horiz-adv-x="761" d="M707 778h-191l-78 -735q-3 -30 -26 -38.5t-113 -8.5t-114 8.5t-21 38.5l76 735h-111q-25 0 -30.5 19t1.5 92q8 77 14.5 94t30.5 18l119 7l8 73q11 103 38.5 173t75 110.5t108 57t145.5 16.5q46 0 101 -9.5t81 -19.5q26 -11 30 -31t-9 -82q-14 -67 -27.5 -86.5 t-38.5 -17.5q-11 1 -31 4.5t-36.5 5.5t-32.5 2q-65 0 -96 -30.5t-37 -100.5l-8 -65h188q18 0 25.5 -10t7.5 -40q0 -7 -4 -65q-8 -77 -14.5 -96t-30.5 -19z" />
<glyph unicode="g" horiz-adv-x="1167" d="M324 -72q-6 -53 32.5 -77.5t132.5 -24.5q107 0 158 36t51 134q0 62 -41.5 92.5t-132.5 42.5q-209 1 -310 92.5t-101 274.5q0 24 4 82q25 229 140 338.5t347 109.5q145 0 238 -43l297 39q27 3 33 -20.5t-1 -88.5q-6 -71 -14.5 -89.5t-36.5 -18.5h-119q21 -64 21 -143 q0 -53 -4 -84q-27 -252 -182 -365q122 -70 122 -229q0 -375 -475 -375q-232 0 -334.5 75.5t-87.5 229.5q4 38 29 47.5t111 9.5q83 0 104.5 -8.5t18.5 -36.5zM543 350q101 0 149 54t60 176q4 46 4 63q0 87 -39 126.5t-125 39.5q-100 0 -147.5 -53t-61.5 -176q-4 -46 -4 -62 q0 -89 38 -128.5t126 -39.5z" />
<glyph unicode="h" horiz-adv-x="1179" d="M508 1372l-51 -485q41 59 120 100t185 41q159 0 243.5 -76.5t84.5 -224.5q0 -9 -5 -59l-65 -625q-3 -30 -26 -38.5t-113 -8.5t-114.5 8.5t-21.5 38.5l62 582q9 89 -27.5 128.5t-120.5 39.5q-98 0 -161 -58t-74 -155l-55 -537q-3 -30 -26.5 -38.5t-113.5 -8.5t-114 8.5 t-21 38.5l139 1329q3 30 26 38.5t112 8.5q91 0 115.5 -8.5t21.5 -38.5z" />
<glyph unicode="i" horiz-adv-x="536" d="M94 43l96 922q3 30 26 38.5t112 8.5q91 0 115.5 -8.5t21.5 -38.5l-96 -922q-3 -30 -26.5 -38.5t-113.5 -8.5t-114 8.5t-21 38.5zM369 1403q98 0 122 -11t19 -51l-14 -139q-3 -29 -12 -40t-37 -16t-97 -5q-99 0 -122.5 10.5t-18.5 50.5l14 139q3 29 12 40.5t37.5 16.5 t96.5 5z" />
<glyph unicode="j" horiz-adv-x="557" d="M-53 -143q4 0 25 -2t36 -2q47 0 70 26.5t31 110.5l102 975q2 21 11 30t36.5 13t89.5 4q91 0 115.5 -8.5t21.5 -38.5l-104 -990q-12 -115 -37 -188t-68 -111t-94 -51.5t-129 -13.5q-89 0 -133 14q-20 6 -27.5 16.5t-7.5 36.5q0 10 4 60q9 78 19.5 98.5t38.5 20.5z M389 1403q98 0 122 -11t19 -51l-14 -139q-3 -29 -12 -40t-36.5 -16t-96.5 -5q-99 0 -123 10.5t-19 50.5l15 139q3 30 11.5 41t37 16t96.5 5z" />
<glyph unicode="k" d="M508 1372l-76 -713h82l285 310q25 26 53.5 34.5t108.5 8.5q150 0 151 -35q0 -12 -16 -29l-379 -403l301 -486q26 -42 -38 -55q-39 -8 -112 -8q-74 0 -104 8.5t-47 34.5l-238 391h-69l-41 -389q-3 -30 -26.5 -38.5t-113.5 -8.5t-114 8.5t-21 38.5l139 1331q3 30 26 38.5 t112 8.5q91 0 115.5 -8.5t21.5 -38.5z" />
<glyph unicode="l" horiz-adv-x="577" d="M446 238h29q21 0 29 -9t8 -39q0 -9 -4 -71q-9 -80 -19 -99.5t-45 -19.5h-84q-132 0 -189.5 43.5t-57.5 153.5q0 15 4 61l116 1114q3 30 26 38.5t112 8.5q91 0 115.5 -8.5t21.5 -38.5l-113 -1077q-4 -35 6.5 -46t44.5 -11z" />
<glyph unicode="m" horiz-adv-x="1765" d="M1042 600l-57 -557q-3 -30 -26 -38.5t-113 -8.5t-114 8.5t-21 38.5l63 602q7 78 -26 113t-111 35q-92 0 -149 -52.5t-66 -140.5l-57 -557q-3 -30 -26.5 -38.5t-113.5 -8.5t-114 8.5t-21 38.5l96 922q3 30 26 38.5t112 8.5q87 0 109 -8t20 -37l-4 -80q100 141 290 141 q111 0 187 -39t108 -112q126 151 326 151q155 0 235 -76t80 -227q0 -17 -4 -63l-65 -619q-3 -30 -26.5 -38.5t-113.5 -8.5t-114 8.5t-21 38.5l64 602q7 78 -26.5 113t-111.5 35q-92 0 -149 -52.5t-66 -140.5z" />
<glyph unicode="n" horiz-adv-x="1171" d="M453 967l-4 -84q42 61 120.5 103t186.5 42q323 0 323 -311q0 -22 -4 -72l-63 -602q-3 -30 -26.5 -38.5t-113.5 -8.5t-114 8.5t-21 38.5l62 582q9 89 -27 128.5t-119 39.5q-98 0 -160 -58t-73 -155l-55 -537q-3 -30 -26.5 -38.5t-113.5 -8.5t-114 8.5t-21 38.5l96 922 q3 30 26 38.5t112 8.5q87 0 109 -8t20 -37z" />
<glyph unicode="o" horiz-adv-x="1138" d="M625 1028q223 0 329.5 -103.5t106.5 -316.5q0 -48 -6 -104q-27 -268 -150 -396t-370 -128q-224 0 -330.5 103t-106.5 316q0 49 6 105q27 268 150.5 396t370.5 128zM549 207q113 0 161 65.5t66 231.5q6 59 6 106q0 103 -38.5 147t-131.5 44q-114 0 -162.5 -65.5 t-66.5 -231.5q-6 -58 -6 -105q0 -105 38.5 -148.5t133.5 -43.5z" />
<glyph unicode="p" horiz-adv-x="1183" d="M453 965v-52q103 115 286 115q178 0 272.5 -105t94.5 -315q0 -48 -6 -104q-52 -524 -455 -524q-193 0 -274 118l-45 -424q-3 -30 -26.5 -38.5t-113.5 -8.5t-114 8.5t-21 38.5l135 1291q2 21 10.5 30t35 13t87.5 4q88 0 111 -8.5t23 -38.5zM412 504q-6 -49 -6 -92 q0 -111 43 -158t141 -47q112 0 163 66.5t68 230.5q6 55 6 98q0 107 -40 153t-134 46q-115 0 -169.5 -67t-71.5 -230z" />
<glyph unicode="q" horiz-adv-x="1183" d="M842 -373q-91 0 -114.5 8.5t-20.5 38.5l43 414q-96 -108 -279 -108q-181 0 -277 104t-96 315q0 49 6 105q52 524 451 524q197 0 281 -131l14 68q5 22 12 30t33 12.5t86 4.5q89 0 113.5 -9t21.5 -38l-135 -1291q-3 -30 -26.5 -38.5t-112.5 -8.5zM793 504q6 53 6 94 q0 109 -43 156t-140 47q-112 0 -164 -66.5t-69 -230.5q-6 -52 -6 -96q0 -108 41 -154.5t135 -46.5q115 0 169 67t71 230z" />
<glyph unicode="r" horiz-adv-x="802" d="M745 743q-143 0 -232 -61.5t-101 -177.5l-47 -461q-3 -30 -26.5 -38.5t-113.5 -8.5t-114 8.5t-21 38.5l96 922q3 30 26 38.5t112 8.5q87 0 109 -8t20 -37l-11 -136q45 80 133 135.5t199 55.5q26 0 35.5 -11t9.5 -46q0 -29 -6 -82q-10 -91 -22.5 -115.5t-45.5 -24.5z" />
<glyph unicode="s" horiz-adv-x="991" d="M324 266q-5 -44 26.5 -62t116.5 -18q162 0 162 103q0 33 -24.5 55.5t-50 31.5t-98.5 29q-16 5 -24 7q-55 15 -95 29t-82.5 38t-69 52.5t-43.5 72t-17 96.5q0 179 108.5 253.5t311.5 74.5q217 0 305.5 -67t73.5 -205q-3 -36 -29.5 -47t-110.5 -11q-78 0 -98.5 8.5 t-17.5 38.5q4 42 -25 59t-102 17q-146 0 -146 -98q0 -19 8 -34.5t20.5 -25.5t35.5 -20t45.5 -17t57.5 -17q12 -3 18 -5q57 -17 90.5 -28t75.5 -29t65.5 -37t46 -46.5t32 -64t9.5 -82.5q0 -78 -20.5 -136.5t-57 -96.5t-92.5 -61.5t-121 -33t-149 -9.5q-227 0 -317 68t-74 208 q3 35 29 46t110 11q78 0 99 -8.5t18 -38.5z" />
<glyph unicode="t" horiz-adv-x="819" d="M741 778h-239l-47 -448q-6 -59 13 -84t67 -25q34 0 71.5 11.5t42.5 11.5q18 0 31 -19t25 -67q12 -56 10 -77t-21 -38q-65 -55 -213 -55q-160 0 -230.5 62.5t-70.5 197.5q0 20 4 74l47 456h-114q-25 0 -30.5 19t1.5 92q8 75 15 93t32 19l129 7l25 227q3 30 25 37.5 t108 7.5q85 0 108.5 -8.5t20.5 -36.5l-25 -227h232q18 0 25.5 -10t7.5 -40q0 -9 -2 -31.5t-3 -33.5q-8 -77 -14.5 -96t-30.5 -19z" />
<glyph unicode="u" horiz-adv-x="1159" d="M729 41l4 84q-43 -61 -121.5 -103t-183.5 -42q-315 0 -315 319q0 22 4 80l61 586q2 21 10.5 30t36 13t90.5 4q90 0 115.5 -9t22.5 -38l-62 -578q-17 -172 144 -172q95 0 155.5 58t69.5 155l57 537q2 21 10.5 30t36 13t90.5 4q90 0 115.5 -9t22.5 -38l-97 -922 q-3 -30 -26.5 -38.5t-112.5 -8.5q-87 0 -108 8t-19 37z" />
<glyph unicode="v" horiz-adv-x="1060" d="M934 1012q100 0 127.5 -11t15.5 -45q-73 -191 -200.5 -473t-217.5 -444q-12 -27 -43 -35t-124 -8q-94 0 -126.5 8.5t-41.5 34.5q-56 165 -124 448t-98 469q-4 24 5 35t40 16t99 5q81 0 110 -8t31 -29q38 -320 127 -721q192 441 283 721q5 21 31 29t106 8z" />
<glyph unicode="w" horiz-adv-x="1630" d="M1491 1012q86 0 113 -9t24 -32q0 -4 -1 -10t-2.5 -13.5t-2.5 -11.5q-10 -41 -23.5 -87t-32.5 -100.5t-35.5 -99.5t-43 -111t-42 -104.5t-46.5 -111t-43 -100t-44 -101t-38 -86.5q-9 -24 -38 -32.5t-118 -8.5t-119 9t-36 36q-48 183 -121 633q-145 -389 -252 -633 q-11 -27 -39.5 -36t-116.5 -9q-89 0 -119 8.5t-36 32.5q-46 187 -92.5 453t-63.5 448q-2 12 -2 35q3 24 28 32.5t109 8.5q81 0 108 -9.5t29 -37.5q19 -297 76 -691q146 362 262 697q10 25 35 33t106 8q83 0 111 -8.5t31 -32.5q39 -301 117 -697q124 352 221 691q8 29 33 38 t104 9z" />
<glyph unicode="x" horiz-adv-x="1083" d="M692 47l-147 354h-10l-220 -354q-19 -32 -47.5 -41.5t-115.5 -9.5q-153 0 -137 45q1 5 5 10l310 467l-209 438q-19 38 43 49q36 7 102 7q75 0 104.5 -8t39.5 -33l149 -340h10l222 340q17 26 43.5 33.5t99.5 7.5q152 0 152 -37q0 -9 -7 -19l-303 -438l211 -467 q7 -18 -1.5 -29.5t-41.5 -18.5t-92 -7q-88 0 -118 10t-42 41z" />
<glyph unicode="y" horiz-adv-x="1073" d="M203 -147q81 0 130 32t87 113q-42 3 -59 11.5t-23 29.5q-58 167 -129.5 450.5t-102.5 466.5q-7 37 21 46.5t123 9.5q81 0 110 -8t31 -29q42 -333 137 -731q215 498 281 731q6 21 31.5 29t105.5 8q98 0 127.5 -11t16.5 -45q-72 -183 -208.5 -491t-232.5 -494 q-53 -102 -94.5 -164.5t-93.5 -109.5t-112.5 -66.5t-143.5 -19.5q-92 0 -125 10q-22 6 -29.5 31t-1.5 84q7 76 19.5 99.5t40.5 23.5q6 0 36 -3t58 -3z" />
<glyph unicode="z" horiz-adv-x="991" d="M883 764l-482 -535h445q18 0 25.5 -10t7.5 -39q0 -9 -2 -31.5t-3 -33.5q-9 -91 -17 -103q-7 -12 -26 -12h-749q-20 0 -27.5 9t-7.5 40q0 8 4 62q4 42 13 63t26 41l508 563h-420q-18 0 -25.5 10t-7.5 39q0 9 2 32.5t3 33.5q8 77 14.5 96t30.5 19h720q20 0 27.5 -9.5 t7.5 -40.5q0 -7 -4 -61q-6 -50 -17 -72.5t-46 -60.5z" />
<glyph unicode="{" horiz-adv-x="757" d="M53 524q7 67 18 87t38 20h41q32 0 50.5 20.5t32.5 78.5t27 173q6 58 11 96.5t14 88t20 82.5t28.5 71t39 62.5t52 49t68.5 38t87 22t108 8.5h66q20 0 27 -9t7 -38q0 -9 -4 -59q-7 -70 -15.5 -88.5t-33.5 -18.5h-53q-86 0 -117.5 -69.5t-54.5 -282.5q-15 -148 -56 -227.5 t-112 -104.5q104 -40 104 -223q0 -47 -6 -108q-14 -147 -14 -199q0 -86 24.5 -120t86.5 -34h53q25 0 30 -18t-2 -88q-7 -69 -17 -88t-36 -19h-65q-99 0 -166.5 22t-103 66.5t-50 99.5t-14.5 132q0 72 14 198q10 85 10 158q0 66 -14.5 90.5t-48.5 24.5h-41q-27 0 -33 19t0 87 z" />
<glyph unicode="|" horiz-adv-x="692" d="M475 1374v-1741q0 -29 -23 -38t-106 -9t-106 9t-23 38v1741q0 29 23 38t106 9t106 -9t23 -38z" />
<glyph unicode="}" horiz-adv-x="757" d="M705 524q-7 -67 -18 -86.5t-38 -19.5h-41q-32 0 -50.5 -20.5t-32.5 -79t-27 -173.5q-6 -58 -11 -96.5t-14 -88t-20 -82.5t-28.5 -71t-39 -62.5t-52 -49t-68.5 -38t-87 -22t-108 -8.5h-66q-20 0 -27.5 9t-7.5 38q0 10 4 60q7 70 16 88t34 18h53q36 0 61 11.5t42.5 33.5 t30 67t21 99t17.5 142q15 148 56 227t112 104q-105 40 -105 224q0 46 6 108q15 158 15 199q0 86 -24.5 119.5t-86.5 33.5h-53q-25 0 -30.5 18t1.5 89q7 68 17.5 87t36.5 19h65q99 0 166.5 -22t103 -66t50 -99t14.5 -132q0 -73 -14 -199q-11 -93 -11 -158q0 -66 15 -90 t49 -24h41q27 0 33 -19.5t0 -87.5z" />
<glyph unicode="~" horiz-adv-x="1150" d="M557 709l152 -82q52 -27 75 -27q38 0 64 24.5t47 75.5q6 16 22.5 21.5t69.5 5.5q56 0 72 -10.5t6 -40.5q-47 -131 -120 -203t-187 -72q-63 0 -127 33l-152 82q-52 27 -78 27q-38 0 -62.5 -24t-47.5 -77q-6 -16 -21.5 -21t-68.5 -5q-56 0 -73 10.5t-7 40.5q98 274 309 274 q65 0 127 -32z" />
<glyph unicode="&#xa1;" horiz-adv-x="606" d="M315 555q74 0 96.5 -9.5t20.5 -37.5l-45 -805q-1 -25 -12 -36t-43.5 -16t-104.5 -5q-104 0 -132 10.5t-23 46.5l127 805q3 29 23.5 38t92.5 9zM336 692q-101 0 -129 10.5t-25 45.5l23 204q3 39 29.5 49.5t127.5 10.5t129 -11t25 -49l-22 -204q-3 -36 -30.5 -46 t-127.5 -10z" />
<glyph unicode="&#xa2;" horiz-adv-x="1089" d="M524 -4q-78 0 -98.5 7t-17.5 34l14 133q-155 29 -230 130t-75 278q0 49 6 104q25 235 121.5 361t285.5 155l15 133q3 28 22 34.5t95 6.5q78 0 98.5 -7t17.5 -34l-14 -133q151 -22 218 -102.5t58 -204.5q-2 -27 -12.5 -38t-38.5 -15t-96 -4q-81 0 -103 10t-20 41 q3 65 -57 82l-60 -570q69 22 82 90q5 32 25.5 42t99.5 10q99 0 123.5 -10t20.5 -48q-30 -281 -351 -319l-12 -125q-3 -28 -22 -34.5t-95 -6.5zM395 582q0 -73 17.5 -115.5t58.5 -60.5l59 550q-58 -26 -87.5 -90t-41.5 -184q-6 -55 -6 -100z" />
<glyph unicode="&#xa3;" horiz-adv-x="1228" d="M227 2q-32 -16 -53.5 5.5t-50.5 76.5l-8 16q-8 16 -11 23t-9.5 23t-6.5 26t0.5 22.5t7.5 21.5t19 15q80 45 130 122.5t50 174.5q0 22 -4 58h-139q-25 0 -31 17.5t0 82.5q8 72 13.5 87t29.5 15h72q-19 82 -19 146q0 212 137 327t369 115q236 0 343 -93t87 -279 q-5 -43 -28 -54.5t-109 -11.5q-87 0 -117 10.5t-27 42.5q7 72 -33.5 105.5t-133.5 33.5q-98 0 -151.5 -54.5t-53.5 -155.5q0 -66 16 -132h285q24 0 30 -17t0 -85q-6 -67 -13 -83.5t-30 -16.5h-227q4 -40 4 -66q0 -126 -67 -248q95 -39 204 -39q80 0 118 36t48 126 q3 33 29.5 43.5t112.5 10.5q85 0 112.5 -14t22.5 -52q-12 -112 -44.5 -189.5t-84.5 -121t-115 -62t-145 -18.5q-103 0 -205.5 30t-183.5 78q-67 -61 -140 -98z" />
<glyph unicode="&#xa4;" horiz-adv-x="1191" d="M119 330l82 82q-47 100 -47 264q0 162 47 262l-82 84q-23 22 43 88t88 43l76 -76q106 64 270 64t270 -64l76 76q22 23 88 -43t43 -88l-84 -84q49 -104 49 -262q0 -160 -49 -264l84 -82q23 -22 -43 -88t-88 -43l-76 73q-101 -61 -270 -61t-270 61l-76 -73q-22 -23 -88 43 t-43 88zM596 434q110 0 156.5 55t46.5 187t-46.5 187t-156.5 55t-156.5 -55t-46.5 -187t46.5 -187t156.5 -55z" />
<glyph unicode="&#xa5;" horiz-adv-x="1200" d="M1040 342h-299l-30 -299q-2 -22 -12.5 -31.5t-40.5 -13.5t-97 -4q-96 0 -122 9t-23 40l30 299h-292q-22 0 -27 15.5t0 78.5q6 66 12 81t27 15h274q-34 78 -49 119h-205q-22 0 -26.5 15.5t0.5 78.5q8 69 13 83t26 14h118q-115 315 -163 463q-6 18 -0.5 30t40 18.5 t103.5 6.5q97 0 124.5 -9t35.5 -42q59 -227 178 -566q196 338 301 566q11 24 22.5 33t41 13.5t96.5 4.5q139 0 145 -32q1 -9 -6 -23q-83 -164 -260 -463h110q24 0 29.5 -16t-0.5 -81t-12 -79.5t-29 -14.5h-213q-11 -19 -24 -39.5t-27.5 -44t-22.5 -35.5h267q24 0 29 -16 t-1 -80q-6 -65 -12 -79.5t-29 -14.5z" />
<glyph unicode="&#xa6;" horiz-adv-x="692" d="M475 309v-676q0 -29 -23 -38t-106 -9t-106 9t-23 38v676q0 29 23 38t106 9t106 -9t23 -38zM475 1374v-676q0 -29 -23 -38t-106 -9t-106 9t-23 38v676q0 29 23 38t106 9t106 -9t23 -38z" />
<glyph unicode="&#xa7;" horiz-adv-x="1183" d="M319 -74q-2 -53 38 -80.5t137 -27.5q99 0 151.5 34.5t52.5 129.5q0 55 -45 84.5t-172 62.5q-60 16 -101.5 30.5t-93.5 42t-83.5 60.5t-53.5 85t-22 116q0 239 209 323q-107 90 -107 230q0 94 35 164.5t98.5 112.5t145.5 62.5t182 20.5q224 0 319.5 -74t80.5 -219 q-2 -25 -11 -36t-34.5 -16t-83.5 -5q-80 0 -99.5 8.5t-17.5 38.5q2 52 -33.5 77.5t-124.5 25.5q-32 0 -60 -5t-57.5 -17.5t-47 -40t-17.5 -66.5q0 -64 52 -108t159 -75q151 -41 211 -73q127 -69 139 -209q2 -17 2 -35q0 -238 -190 -324q86 -76 86 -213q0 -199 -123.5 -296 t-345.5 -97q-124 0 -211 21.5t-134.5 62.5t-65.5 93.5t-11 121.5q3 26 11 36.5t34 15.5t84 5q55 0 79.5 -4.5t31.5 -13.5t7 -29zM565 684h-6q-73 -13 -123.5 -60.5t-50.5 -121.5q0 -30 11.5 -53.5t28 -39t46 -29.5t53.5 -21.5t62 -18.5q8 -3 26.5 -7t26.5 -7 q81 13 131.5 59.5t50.5 130.5q0 27 -7 48t-23.5 36.5t-33 26t-47 20.5t-52.5 15.5t-62 14.5q-7 1 -10.5 2t-9.5 2.5t-11 2.5z" />
<glyph unicode="&#xa8;" horiz-adv-x="749" d="M274 1389q87 0 111.5 -12t20.5 -56l-13 -117q-5 -45 -28.5 -57t-108.5 -12q-92 0 -114.5 14.5t-16.5 67.5l10 104q5 45 28.5 56.5t110.5 11.5zM676 1389q87 0 111 -12t20 -56l-12 -117q-5 -45 -28.5 -57t-109.5 -12q-92 0 -114.5 14.5t-16.5 67.5l11 104q5 45 28.5 56.5 t110.5 11.5z" />
<glyph unicode="&#xa9;" horiz-adv-x="1613" d="M492 676q0 212 75.5 304.5t251.5 92.5q140 0 214.5 -64.5t74.5 -183.5q0 -25 -16 -32t-70 -7t-70 7t-16 28q-3 52 -29.5 76.5t-85.5 24.5q-86 0 -118.5 -51.5t-32.5 -194.5q0 -144 32.5 -195t118.5 -51q56 0 87.5 27t31.5 80q0 21 15.5 27.5t68.5 6.5q51 0 68.5 -6.5 t17.5 -27.5q0 -258 -291 -258q-176 0 -251.5 92.5t-75.5 304.5zM807 1374q352 0 507.5 -165.5t155.5 -530.5q0 -366 -155 -531t-508 -165t-508.5 165t-155.5 531q0 365 156 530.5t508 165.5zM807 131q277 0 390.5 123t113.5 424q0 299 -113.5 422t-390.5 123t-390.5 -123 t-113.5 -422q0 -301 113.5 -424t390.5 -123z" />
<glyph unicode="&#xaa;" horiz-adv-x="749" d="M514 973h-125q-90 0 -90 -74q0 -27 17.5 -36t56.5 -9q59 0 97 22t42 66zM358 1171q-1 -14 -6 -19t-21 -7t-57 -2q-62 0 -77.5 6t-12.5 31q19 192 287 192q149 0 203 -59t43 -174l-41 -381q-2 -24 -15.5 -29.5t-72.5 -5.5q-61 0 -77 6t-15 29l4 49q-34 -44 -75 -67 t-110 -23q-94 0 -142 46t-48 118q0 204 256 204h145l6 54q5 48 -11.5 65t-69.5 17q-49 0 -69.5 -11.5t-23.5 -38.5z" />
<glyph unicode="&#xab;" horiz-adv-x="1142" d="M115 561q6 45 28 72l199 244q21 24 44.5 30t98.5 6q134 0 134 -30q-1 -8 -9 -17l-254 -305l191 -305q19 -33 -42 -42q-31 -5 -85 -5q-76 0 -102.5 7t-41.5 30l-147 243q-17 28 -14 72zM569 561q6 43 29 72l199 244q21 24 44.5 30t98.5 6q134 0 134 -30q-1 -8 -9 -17 l-254 -305l190 -305q19 -33 -42 -42q-31 -5 -85 -5q-76 0 -102 7t-41 30l-147 243q-18 30 -15 72z" />
<glyph unicode="&#xad;" horiz-adv-x="839" d="M170 670h551q20 0 28.5 -11t8.5 -43q0 -9 -4 -59q-8 -74 -16 -93.5t-33 -19.5h-551q-27 0 -34.5 21t-0.5 92q8 74 16.5 93.5t34.5 19.5z" />
<glyph unicode="&#xae;" horiz-adv-x="1122" d="M561 1372q238 0 344.5 -113t106.5 -350q0 -238 -106.5 -350.5t-344.5 -112.5q-236 0 -343 112.5t-107 350.5q0 237 107 350t343 113zM561 559q185 0 257.5 79t72.5 271q0 190 -72.5 269t-257.5 79q-184 0 -256 -79t-72 -269q0 -192 72 -271t256 -79zM549 844h-37v-160 q0 -11 -11 -14.5t-46 -3.5q-36 0 -47 3.5t-11 14.5v446q0 10 9 14.5t38 4.5h131q101 0 146 -37.5t45 -120.5q0 -47 -18 -78t-66 -49q32 -23 49 -47q43 -58 43 -135q0 -14 -59 -14q-31 0 -40.5 3.5t-12.5 14.5q-13 61 -29 94q-31 61 -84 64zM512 1053v-123h61q46 0 64 13.5 t18 47.5q0 37 -17.5 49.5t-64.5 12.5h-61z" />
<glyph unicode="&#xaf;" horiz-adv-x="749" d="M743 1147h-573q-22 0 -27 15.5t0 76.5q6 62 12 77t27 15h574q22 0 27 -16t-1 -76q-6 -63 -12 -77.5t-27 -14.5z" />
<glyph unicode="&#xb0;" horiz-adv-x="761" d="M475 1372q127 0 191.5 -58t64.5 -167q0 -305 -295 -305q-127 0 -192.5 60t-65.5 169q0 143 72.5 222t224.5 79zM442 985q67 0 102.5 37.5t35.5 110.5q0 50 -26.5 73t-84.5 23q-67 0 -103 -37.5t-36 -106.5q0 -51 26.5 -75.5t85.5 -24.5z" />
<glyph unicode="&#xb1;" horiz-adv-x="1150" d="M774 1184l-31 -281h285q20 0 28.5 -10.5t8.5 -42.5q0 -9 -4 -59q-8 -74 -16 -93.5t-33 -19.5h-291l-29 -279q-3 -27 -23 -35t-94 -8q-76 0 -97.5 8t-18.5 35l28 279h-280q-27 0 -34.5 21t-0.5 92q8 74 16.5 93t34.5 19h287l31 281q3 26 22.5 33.5t93.5 7.5q76 0 98 -8 t19 -33zM152 225h804q20 0 28.5 -10.5t8.5 -42.5q0 -9 -4 -59q-8 -75 -15.5 -94t-31.5 -19h-805q-28 0 -36 21.5t-1 91.5q7 73 16.5 92.5t35.5 19.5z" />
<glyph unicode="&#xb2;" horiz-adv-x="729" d="M641 653h-500q-19 0 -24.5 14t0.5 62l2 23q2 26 11 49t27 43.5t33 35t44 33t44.5 27.5t50.5 27.5t48 25.5q28 15 47 27.5t44.5 33.5t39.5 48.5t14 58.5q0 66 -76 66q-91 0 -102 -78q-3 -21 -16.5 -26t-69.5 -5q-54 0 -72.5 6.5t-15.5 26.5q12 119 82.5 172t204.5 53 q125 0 186.5 -54t61.5 -146q0 -51 -18.5 -94t-54.5 -77t-73 -58.5t-90 -51.5q-8 -4 -25 -13t-24.5 -13t-21.5 -11.5t-22 -12.5t-18 -12t-17 -13.5t-13 -12.5h321q16 0 20.5 -14t0.5 -64q-6 -53 -10 -64.5t-19 -11.5z" />
<glyph unicode="&#xb3;" horiz-adv-x="729" d="M403 954h-51q-16 0 -20 11t0 51q5 46 8 54.5t18 8.5h62q48 0 76 19t28 71q0 62 -82 62q-89 0 -98 -57q-5 -20 -18.5 -25.5t-67.5 -5.5q-58 0 -74.5 7t-13.5 32q12 102 82.5 149t200.5 47q125 0 189.5 -49.5t64.5 -138.5q0 -115 -109 -168q88 -29 88 -137 q0 -115 -81.5 -178.5t-207.5 -63.5q-138 0 -208 48t-60 149q0 26 15.5 32.5t70.5 6.5q58 0 72 -5.5t16 -27.5q0 -28 22 -40.5t74 -12.5q50 0 79.5 23.5t29.5 72.5q0 36 -25.5 50.5t-79.5 14.5z" />
<glyph unicode="&#xb4;" horiz-adv-x="749" d="M674 1278l-359 -152q-22 -9 -33 0t-30 50q-19 43 -18.5 57.5t22.5 26.5l340 202q17 15 34.5 1t43.5 -74q25 -64 24 -82.5t-24 -28.5z" />
<glyph unicode="&#xb6;" horiz-adv-x="1159" d="M1155 1167h-104q-66 0 -92.5 -22.5t-32.5 -89.5l-113 -1071q-10 -92 -30.5 -158t-49 -106.5t-70.5 -64t-87.5 -32t-108.5 -8.5q-89 0 -133 14q-27 8 -33 26.5t0 86.5q7 77 18.5 98t40.5 21q6 0 28 -2t32 -2q58 0 87 31.5t38 117.5l45 440h-29q-115 0 -189.5 15t-125 53 t-71.5 101t-21 161q0 73 8 146q15 145 44.5 234.5t88.5 144.5t143.5 75.5t218.5 20.5h514q19 0 27 -11.5t8 -42.5q0 -7 -4 -61q-8 -77 -15.5 -96t-31.5 -19z" />
<glyph unicode="&#xb7;" horiz-adv-x="532" d="M268 393q-101 0 -128.5 10.5t-24.5 45.5l22 204q3 39 30 49.5t128 10.5t129 -11t25 -49l-23 -204q-3 -36 -30.5 -46t-127.5 -10z" />
<glyph unicode="&#xb8;" horiz-adv-x="749" d="M377 -90h8q104 0 153.5 -30t49.5 -109q0 -113 -53.5 -161t-176.5 -48h-204q-18 0 -22.5 12t-0.5 55q8 57 12 62.5t17 5.5h207q57 0 57 57q0 21 -13.5 28t-48.5 7h-102q-36 0 -52.5 7t-8.5 28l75 176q4 13 16 16.5t54 3.5q41 0 54.5 -5t7.5 -21z" />
<glyph unicode="&#xb9;" horiz-adv-x="729" d="M625 653h-445q-18 0 -21 12.5t3 63.5q4 51 10.5 64.5t24.5 13.5h137l41 387l-131 -25q-20 -3 -24.5 12t1.5 66q4 48 10.5 61.5t24.5 16.5l276 51q42 7 39 -24l-57 -545h127q15 0 17.5 -12.5t-1.5 -65.5q-6 -51 -11.5 -63.5t-20.5 -12.5z" />
<glyph unicode="&#xba;" horiz-adv-x="786" d="M344 1042q-4 -46 -4 -61q0 -62 23.5 -88.5t78.5 -26.5q67 0 96 39t40 137q4 46 4 62q0 62 -24 89.5t-79 27.5q-66 0 -95 -40t-40 -139zM158 1042q15 171 90.5 250.5t236.5 79.5q147 0 215 -65t68 -201q0 -18 -4 -64q-15 -169 -92 -248t-238 -79q-146 0 -213 64.5 t-67 199.5q0 17 4 63z" />
<glyph unicode="&#xbb;" horiz-adv-x="1142" d="M573 561q-6 -45 -28 -72l-199 -243q-21 -24 -44.5 -30.5t-98.5 -6.5q-134 0 -134 30q0 7 9 17l254 305l-191 305q-19 33 42 42q30 5 85 5q77 0 103 -6.5t41 -29.5l147 -244q17 -28 14 -72zM1028 561q-6 -43 -29 -72l-198 -243q-21 -24 -45 -30.5t-99 -6.5q-134 0 -134 30 q0 7 9 17l254 305l-190 305q-19 33 42 42q30 5 85 5q77 0 102.5 -6.5t40.5 -29.5l148 -244q17 -28 14 -72z" />
<glyph unicode="&#xbc;" horiz-adv-x="1724" d="M1505 1311l-837 -1272q-13 -21 -18.5 -27t-30 -11t-78.5 -5q-63 0 -83 9.5t-3 37.5l835 1272q2 3 6.5 10t6 9t6 7t8 6t10 4t14 3.5t19 2t25.5 1.5h32q64 0 85 -9.5t3 -37.5zM1423 -2q-59 0 -75.5 6.5t-14.5 28.5l13 135h-310q-19 0 -23.5 12.5t-0.5 57.5q3 33 7 45.5 t19 29.5l332 383q14 16 32 20.5t75 4.5q66 0 85.5 -5.5t18.5 -25.5l-41 -377h76q18 0 22 -12.5t0 -58.5q-5 -51 -9 -62.5t-21 -11.5h-82l-15 -135q-2 -23 -16 -29t-72 -6zM625 651h-445q-18 0 -21 12.5t3 63.5q4 51 10.5 64.5t24.5 13.5h137l41 387l-131 -25 q-20 -3 -24.5 12t1.5 66q4 48 10.5 61.5t24.5 16.5l276 51q42 7 39 -24l-57 -545h127q15 0 17.5 -12.5t-1.5 -65.5q-6 -51 -11.5 -63.5t-20.5 -12.5zM1186 313h184l27 242z" />
<glyph unicode="&#xbd;" horiz-adv-x="1724" d="M1448 1311l-838 -1272q-13 -21 -18.5 -27t-30 -11t-78.5 -5q-63 0 -83 9.5t-3 37.5l836 1272q2 3 6.5 10t6 9t6 7t8 6t10 4t14 3.5t19 2t25.5 1.5h32q64 0 85 -9.5t3 -37.5zM1565 -10h-500q-19 0 -25 14t0 62l2 22q2 26 11 49t27 43.5t32.5 35t44 33.5t44.5 27.5t51.5 28 t47.5 25.5q28 15 47.5 27t45 33.5t39.5 49t14 58.5q0 65 -76 65q-91 0 -102 -78q-3 -20 -16.5 -25t-69.5 -5q-54 0 -72.5 6t-15.5 26q12 119 82.5 172.5t203.5 53.5q125 0 186.5 -54.5t61.5 -146.5q0 -51 -18.5 -94t-54 -77t-73 -58.5t-89.5 -51.5q-5 -3 -33 -17.5t-36 -19 t-26.5 -15t-28.5 -19t-18 -17.5h322q16 0 20 -13.5t0 -63.5q-6 -54 -10 -65t-18 -11zM625 651h-445q-18 0 -21 12.5t3 63.5q4 51 10.5 64.5t24.5 13.5h137l41 387l-131 -25q-20 -3 -24.5 12t1.5 66q4 48 10.5 61.5t24.5 16.5l276 51q42 7 39 -24l-57 -545h127 q15 0 17.5 -12.5t-1.5 -65.5q-6 -51 -11.5 -63.5t-20.5 -12.5z" />
<glyph unicode="&#xbe;" horiz-adv-x="1724" d="M1473 1311l-838 -1272q-13 -21 -18.5 -27t-30 -11t-78.5 -5q-63 0 -83 9.5t-3 37.5l835 1272q2 3 6.5 10t6 9t6 7t8 6t10 4t14 3.5t19 2t25.5 1.5h32q64 0 85.5 -9.5t3.5 -37.5zM1423 -2q-59 0 -75.5 6.5t-14.5 28.5l13 135h-310q-19 0 -23.5 12.5t-0.5 57.5q3 33 7 45.5 t19 29.5l332 383q14 16 32 20.5t75 4.5q66 0 85.5 -5.5t18.5 -25.5l-41 -377h76q18 0 22 -12.5t0 -58.5q-5 -51 -9 -62.5t-21 -11.5h-82l-15 -135q-2 -23 -16 -29t-72 -6zM403 952h-51q-16 0 -20 11t0 51q5 46 8 54.5t18 8.5h62q48 0 76 19t28 71q0 62 -82 62q-89 0 -98 -58 q-5 -20 -18 -25t-68 -5q-58 0 -74.5 7t-13.5 32q12 102 82.5 149t200.5 47q125 0 189.5 -49.5t64.5 -138.5q0 -115 -109 -168q88 -29 88 -137q0 -115 -81.5 -178.5t-207.5 -63.5q-138 0 -208 48t-60 149q0 26 15.5 32.5t70.5 6.5q58 0 72 -5.5t16 -27.5q0 -28 22 -40.5 t74 -12.5q50 0 79.5 23.5t29.5 72.5q0 36 -25.5 50.5t-79.5 14.5zM1186 313h184l27 242z" />
<glyph unicode="&#xbf;" horiz-adv-x="1130" d="M469 479l8 39q6 29 28 37t101 8q56 0 81 -4.5t30.5 -12.5t5.5 -28v-45q-1 -48 -21.5 -89t-52 -71t-70 -58t-76.5 -55t-70 -56t-51.5 -68t-19.5 -84q0 -61 38 -90t116 -29q91 0 139.5 36.5t61.5 115.5q5 33 28.5 43t108.5 10q89 0 115.5 -12.5t23.5 -51.5 q-21 -199 -145.5 -291t-351.5 -92q-214 0 -318 87.5t-104 232.5q0 72 20 131t52 98t71.5 71t80.5 57.5t76.5 49.5t61.5 54.5t33 66.5zM623 692q-101 0 -129 10.5t-25 45.5l23 204q3 39 29.5 49.5t127.5 10.5t129 -11t25 -49l-23 -204q-3 -36 -30 -46t-127 -10z" />
<glyph unicode="&#xc0;" horiz-adv-x="1249" d="M1024 -4q-99 0 -128.5 10t-33.5 47q-11 107 -37 271h-419q-41 -114 -93 -271q-11 -37 -39.5 -47t-126.5 -10q-90 0 -116 11t-15 42q83 245 248 652.5t268 607.5q16 31 50 41t139 10q106 0 142.5 -10.5t45.5 -40.5q59 -198 137.5 -603t112.5 -657q5 -32 -20.5 -42.5 t-114.5 -10.5zM721 1458l-346 146q-16 7 -20.5 16t4 32t34.5 66q36 62 56.5 76.5t35.5 -2.5l318 -199q21 -11 20 -26t-28 -58q-26 -44 -38.5 -52.5t-35.5 1.5zM694 1057q-97 -225 -200 -498h294q-66 367 -94 498z" />
<glyph unicode="&#xc1;" horiz-adv-x="1249" d="M1024 -4q-99 0 -128.5 10t-33.5 47q-11 107 -37 271h-419q-41 -114 -93 -271q-11 -37 -39.5 -47t-126.5 -10q-90 0 -116 11t-15 42q83 245 248 652.5t268 607.5q16 31 50 41t139 10q106 0 142.5 -10.5t45.5 -40.5q59 -198 137.5 -603t112.5 -657q5 -32 -20.5 -42.5 t-114.5 -10.5zM1133 1604l-379 -146q-23 -10 -35 -0.5t-29 53.5q-18 45 -16.5 59.5t22.5 26.5l363 199q19 17 36 2t42 -78q23 -67 21 -86.5t-25 -29.5zM694 1057q-97 -225 -200 -498h294q-66 367 -94 498z" />
<glyph unicode="&#xc2;" horiz-adv-x="1249" d="M1024 -4q-99 0 -128.5 10t-33.5 47q-11 107 -37 271h-419q-41 -114 -93 -271q-11 -37 -39.5 -47t-126.5 -10q-90 0 -116 11t-15 42q83 245 248 652.5t268 607.5q16 31 50 41t139 10q106 0 142.5 -10.5t45.5 -40.5q59 -198 137.5 -603t112.5 -657q5 -32 -20.5 -42.5 t-114.5 -10.5zM750 1585l-125 -106q-29 -25 -88 -25q-106 0 -106 26q1 8 9 17l205 213q17 17 24 22.5t30 11t63 5.5q58 0 80.5 -9t36.5 -30l159 -213q22 -32 -33 -40q-24 -3 -63 -3q-70 0 -92 25zM694 1057q-97 -225 -200 -498h294q-66 367 -94 498z" />
<glyph unicode="&#xc3;" horiz-adv-x="1249" d="M1024 -4q-99 0 -128.5 10t-33.5 47q-11 107 -37 271h-419q-41 -114 -93 -271q-11 -37 -39.5 -47t-126.5 -10q-90 0 -116 11t-15 42q83 245 248 652.5t268 607.5q16 31 50 41t139 10q106 0 142.5 -10.5t45.5 -40.5q59 -198 137.5 -603t112.5 -657q5 -32 -20.5 -42.5 t-114.5 -10.5zM922 1663l4 25q5 23 17 28.5t63 5.5q48 0 65.5 -7t13.5 -29l-10 -68q-31 -170 -192 -166q-58 0 -133 41l-84 49q-25 14 -45 14q-35 0 -43 -47l-5 -24q-5 -23 -17 -29t-62 -6q-47 0 -65.5 7.5t-14.5 29.5l10 67q31 170 192 166q59 0 134 -41l84 -49 q25 -14 43 -14q37 0 45 47zM694 1057q-97 -225 -200 -498h294q-66 367 -94 498z" />
<glyph unicode="&#xc4;" horiz-adv-x="1249" d="M1024 -4q-99 0 -128.5 10t-33.5 47q-11 107 -37 271h-419q-41 -114 -93 -271q-11 -37 -39.5 -47t-126.5 -10q-90 0 -116 11t-15 42q83 245 248 652.5t268 607.5q16 31 50 41t139 10q106 0 142.5 -10.5t45.5 -40.5q59 -198 137.5 -603t112.5 -657q5 -32 -20.5 -42.5 t-114.5 -10.5zM694 1057q-97 -225 -200 -498h294q-66 367 -94 498zM549 1714q88 0 111.5 -11.5t19.5 -55.5l-12 -117q-5 -45 -29 -57.5t-109 -12.5q-91 0 -112 14.5t-15 67.5l11 105q3 32 13 44.5t35.5 17.5t86.5 5zM967 1714q88 0 111.5 -11.5t19.5 -55.5l-13 -117 q-5 -45 -28.5 -57.5t-108.5 -12.5q-91 0 -112 14.5t-15 67.5l10 105q5 45 27 56t109 11z" />
<glyph unicode="&#xc5;" horiz-adv-x="1249" d="M1024 -4q-99 0 -128.5 10t-33.5 47q-11 107 -37 271h-419q-41 -114 -93 -271q-11 -37 -39.5 -47t-126.5 -10q-90 0 -116 11t-15 42q83 245 248 652.5t268 607.5l7 12q-25 42 -25 100q0 107 60 170.5t174 63.5q99 0 153.5 -47.5t54.5 -132.5q0 -98 -51 -158l4 -8 q59 -198 137.5 -603t112.5 -657q5 -32 -20.5 -42.5t-114.5 -10.5zM694 1057q-97 -225 -200 -498h294q-66 367 -94 498zM727 1362q98 0 98 102q0 70 -84 70q-96 0 -96 -102q0 -70 82 -70z" />
<glyph unicode="&#xc6;" horiz-adv-x="1884" d="M1796 1106h-518l-31 -289h439q23 0 31.5 -10t8.5 -45q0 -41 -4 -70q-9 -87 -16.5 -106t-36.5 -19h-446l-35 -317h520q22 0 31.5 -12.5t9.5 -49.5q0 -9 -4 -63q-9 -84 -18 -104.5t-35 -20.5h-672q-95 0 -120.5 9t-22.5 40l28 279h-454q-81 -144 -146 -275 q-19 -37 -49.5 -47t-128.5 -10q-82 0 -111.5 10t-11.5 43q432 799 731 1254q21 33 55 43t140 10h885q22 0 31 -12.5t9 -51.5q0 -11 -4 -61q-9 -83 -18.5 -104t-36.5 -21zM903 1106q-193 -319 -313 -528h342l55 528h-84z" />
<glyph unicode="&#xc7;" horiz-adv-x="1257" d="M606 -86h8q107 0 159 -34t52 -118q0 -110 -56 -159t-181 -49h-213q-18 0 -22.5 12.5t-0.5 56.5q6 59 13 66q6 4 16 4h215q59 0 59 57q0 23 -13 31t-50 8h-107q-38 0 -54.5 7t-6.5 30l68 164q-191 31 -279 154.5t-88 359.5q0 69 10 174q40 378 179 538t444 160 q241 0 358 -109t98 -309q-4 -40 -31 -50.5t-118 -10.5q-89 0 -114 10t-23 43q6 87 -35 129.5t-145 42.5q-105 0 -165.5 -38t-96 -133t-54.5 -273q-10 -113 -10 -174q0 -155 52.5 -213t178.5 -58q104 0 157 45t67 136q5 33 30.5 43t114.5 10t115.5 -10t23.5 -45 q-25 -215 -149 -323.5t-369 -108.5h-16z" />
<glyph unicode="&#xc8;" horiz-adv-x="1163" d="M1075 1106h-563l-31 -289h484q23 0 32 -10t9 -45q0 -34 -5 -70q-9 -87 -16.5 -106t-36.5 -19h-491l-35 -317h565q22 0 31.5 -12.5t9.5 -49.5q0 -9 -4 -63q-9 -84 -18 -104.5t-35 -20.5h-717q-95 0 -120.5 9t-22.5 40l131 1256q3 22 12.5 32t39 14.5t93.5 4.5h707 q22 0 31.5 -12.5t9.5 -51.5q0 -7 -1 -16t-2 -22.5t-2 -22.5q-9 -83 -18.5 -104t-36.5 -21zM737 1458l-346 146q-16 7 -20 16t4.5 32t34.5 66q36 62 56.5 76.5t35.5 -2.5l317 -199q21 -11 20 -26t-28 -58q-26 -44 -38.5 -52.5t-35.5 1.5z" />
<glyph unicode="&#xc9;" horiz-adv-x="1163" d="M1075 1106h-563l-31 -289h484q23 0 32 -10t9 -45q0 -34 -5 -70q-9 -87 -16.5 -106t-36.5 -19h-491l-35 -317h565q22 0 31.5 -12.5t9.5 -49.5q0 -9 -4 -63q-9 -84 -18 -104.5t-35 -20.5h-717q-95 0 -120.5 9t-22.5 40l131 1256q3 22 12.5 32t39 14.5t93.5 4.5h707 q22 0 31.5 -12.5t9.5 -51.5q0 -7 -1 -16t-2 -22.5t-2 -22.5q-9 -83 -18.5 -104t-36.5 -21zM1053 1604l-379 -146q-23 -10 -35 -0.5t-29 53.5q-18 45 -16.5 59.5t22.5 26.5l363 199q19 17 36 2t42 -78q23 -67 21 -86.5t-25 -29.5z" />
<glyph unicode="&#xca;" horiz-adv-x="1163" d="M1075 1106h-563l-31 -289h484q23 0 32 -10t9 -45q0 -34 -5 -70q-9 -87 -16.5 -106t-36.5 -19h-491l-35 -317h565q22 0 31.5 -12.5t9.5 -49.5q0 -9 -4 -63q-9 -84 -18 -104.5t-35 -20.5h-717q-95 0 -120.5 9t-22.5 40l131 1256q3 22 12.5 32t39 14.5t93.5 4.5h707 q22 0 31.5 -12.5t9.5 -51.5q0 -7 -1 -16t-2 -22.5t-2 -22.5q-9 -83 -18.5 -104t-36.5 -21zM725 1585l-125 -106q-29 -25 -88 -25q-105 0 -105 25q1 9 9 18l205 213l5 5q13 14 21.5 19.5t30.5 10t59 4.5q58 0 80.5 -9t36.5 -30l160 -213q22 -32 -33 -40q-24 -3 -63 -3 q-70 0 -93 25z" />
<glyph unicode="&#xcb;" horiz-adv-x="1163" d="M1075 1106h-563l-31 -289h484q23 0 32 -10t9 -45q0 -34 -5 -70q-9 -87 -16.5 -106t-36.5 -19h-491l-35 -317h565q22 0 31.5 -12.5t9.5 -49.5q0 -9 -4 -63q-9 -84 -18 -104.5t-35 -20.5h-717q-95 0 -120.5 9t-22.5 40l131 1256q3 22 12.5 32t39 14.5t93.5 4.5h707 q22 0 31.5 -12.5t9.5 -51.5q0 -7 -1 -16t-2 -22.5t-2 -22.5q-9 -83 -18.5 -104t-36.5 -21zM528 1714q88 0 111.5 -11.5t19.5 -55.5l-12 -117q-5 -45 -28.5 -57.5t-108.5 -12.5q-91 0 -112 14.5t-15 67.5l10 105q3 32 13 44.5t35.5 17.5t86.5 5zM946 1714q88 0 111.5 -11.5 t19.5 -55.5l-12 -117q-5 -45 -28.5 -57.5t-108.5 -12.5q-91 0 -112 14.5t-15 67.5l10 105q3 32 13 44.5t35.5 17.5t86.5 5z" />
<glyph unicode="&#xcc;" horiz-adv-x="598" d="M260 -4q-97 0 -121.5 9t-21.5 40l133 1264q2 24 11 33t38 13.5t96 4.5q96 0 122.5 -9.5t23.5 -41.5l-133 -1264q-2 -22 -12.5 -31.5t-40 -13.5t-95.5 -4zM393 1458l-346 146q-16 7 -20 16t4.5 32t34.5 66q36 62 56.5 76.5t35.5 -2.5l317 -199q21 -11 20 -26t-28 -58 q-26 -44 -38.5 -52.5t-35.5 1.5z" />
<glyph unicode="&#xcd;" horiz-adv-x="598" d="M260 -4q-97 0 -121.5 9t-21.5 40l133 1264q2 24 11 33t38 13.5t96 4.5q96 0 122.5 -9.5t23.5 -41.5l-133 -1264q-2 -22 -12.5 -31.5t-40 -13.5t-95.5 -4zM803 1604l-379 -146q-23 -10 -35 -0.5t-29 53.5q-18 45 -16 59t23 27l362 199q19 17 36 2t42 -78q23 -67 21 -86.5 t-25 -29.5z" />
<glyph unicode="&#xce;" horiz-adv-x="598" d="M260 -4q-97 0 -121.5 9t-21.5 40l133 1264q2 24 11 33t38 13.5t96 4.5q96 0 122.5 -9.5t23.5 -41.5l-133 -1264q-2 -22 -12.5 -31.5t-40 -13.5t-95.5 -4zM424 1585l-125 -106q-29 -25 -88 -25q-105 0 -105 25q1 9 9 18l204 213q17 17 24 22.5t30 11t63 5.5q58 0 80.5 -9 t36.5 -30l160 -213q22 -32 -34 -40q-25 -3 -63 -3q-70 0 -92 25z" />
<glyph unicode="&#xcf;" horiz-adv-x="598" d="M260 -4q-97 0 -121.5 9t-21.5 40l133 1264q2 24 11 33t38 13.5t96 4.5q96 0 122.5 -9.5t23.5 -41.5l-133 -1264q-2 -22 -12.5 -31.5t-40 -13.5t-95.5 -4zM223 1714q88 0 111.5 -11.5t19.5 -55.5l-12 -117q-5 -45 -28.5 -57.5t-108.5 -12.5q-91 0 -112 14.5t-15 67.5 l10 105q3 32 13 44.5t35.5 17.5t86.5 5zM641 1714q88 0 111.5 -11.5t19.5 -55.5l-12 -117q-5 -45 -28.5 -57.5t-108.5 -12.5q-91 0 -112 14.5t-15 67.5l10 105q3 32 13 44.5t35.5 17.5t86.5 5z" />
<glyph unicode="&#xd0;" horiz-adv-x="1298" d="M592 0h-338q-94 0 -118 9t-21 40l53 510h-86q-22 0 -27 15.5t0 76.5q6 62 12 77t27 15h92l60 562q3 32 29.5 41.5t119.5 9.5h316q272 0 396 -118t124 -380q0 -70 -10 -180q-19 -184 -60 -309.5t-115.5 -209.5t-185 -121.5t-268.5 -37.5zM426 250h178q106 0 168.5 39 t98 130.5t53.5 258.5q10 98 10 156q0 151 -55 211.5t-185 60.5h-178l-39 -363h185q22 0 27 -16t-1 -76q-6 -63 -12 -77.5t-27 -14.5h-190z" />
<glyph unicode="&#xd1;" horiz-adv-x="1380" d="M1184 1360q97 0 122.5 -9t22.5 -40l-133 -1264q-2 -23 -12 -32.5t-44 -14t-110 -4.5q-81 0 -109.5 9t-39.5 34l-394 835l-86 -829q-3 -32 -27.5 -40.5t-119.5 -8.5q-97 0 -121.5 9t-21.5 40l133 1264q2 23 11.5 32t43 14t109.5 5q81 0 110.5 -9.5t38.5 -33.5l393 -838 l88 832q3 32 27.5 40.5t118.5 8.5zM987 1663l4 25q5 23 17 28.5t63 5.5q48 0 66 -7t14 -29l-10 -68q-31 -170 -193 -166q-58 0 -133 41l-84 49q-25 14 -45 14q-35 0 -43 -47l-4 -24q-5 -23 -17.5 -29t-62.5 -6q-47 0 -65.5 7.5t-14.5 29.5l10 67q31 170 193 166 q58 0 133 -41l84 -49q25 -14 43 -14q37 0 45 47z" />
<glyph unicode="&#xd2;" horiz-adv-x="1343" d="M764 1376q268 0 390 -122.5t122 -395.5q0 -70 -10 -180q-19 -189 -61.5 -318.5t-117.5 -216t-184 -125t-264 -38.5q-270 0 -392 123t-122 399q0 71 10 176q40 377 181.5 537.5t447.5 160.5zM653 229q104 0 164.5 39.5t96.5 135.5t55 274q10 110 10 172q0 156 -52.5 216 t-178.5 60q-105 0 -165.5 -39t-96 -135t-54.5 -274q-10 -113 -10 -174q0 -155 52.5 -215t178.5 -60zM784 1458l-346 146q-16 7 -20 16t4.5 32t34.5 66q36 62 56.5 76.5t35.5 -2.5l317 -199q21 -11 20 -26t-28 -58q-26 -44 -38.5 -52.5t-35.5 1.5z" />
<glyph unicode="&#xd3;" horiz-adv-x="1343" d="M764 1376q268 0 390 -122.5t122 -395.5q0 -70 -10 -180q-19 -189 -61.5 -318.5t-117.5 -216t-184 -125t-264 -38.5q-270 0 -392 123t-122 399q0 71 10 176q40 377 181.5 537.5t447.5 160.5zM653 229q104 0 164.5 39.5t96.5 135.5t55 274q10 110 10 172q0 156 -52.5 216 t-178.5 60q-105 0 -165.5 -39t-96 -135t-54.5 -274q-10 -113 -10 -174q0 -155 52.5 -215t178.5 -60zM1157 1604l-379 -146q-23 -10 -34.5 -0.5t-28.5 53.5q-18 45 -16.5 59.5t22.5 26.5l362 199q19 17 36 2t42 -78q23 -67 21 -86.5t-25 -29.5z" />
<glyph unicode="&#xd4;" horiz-adv-x="1343" d="M764 1376q268 0 390 -122.5t122 -395.5q0 -70 -10 -180q-19 -189 -61.5 -318.5t-117.5 -216t-184 -125t-264 -38.5q-270 0 -392 123t-122 399q0 71 10 176q40 377 181.5 537.5t447.5 160.5zM653 229q104 0 164.5 39.5t96.5 135.5t55 274q10 110 10 172q0 156 -52.5 216 t-178.5 60q-105 0 -165.5 -39t-96 -135t-54.5 -274q-10 -113 -10 -174q0 -155 52.5 -215t178.5 -60zM795 1585l-125 -106q-29 -25 -88 -25q-106 0 -106 26q1 8 9 17l205 213q17 17 24 22.5t30 11t63 5.5q58 0 80.5 -9t36.5 -30l159 -213q22 -32 -33 -40q-24 -3 -63 -3 q-69 0 -92 25z" />
<glyph unicode="&#xd5;" horiz-adv-x="1343" d="M764 1376q268 0 390 -122.5t122 -395.5q0 -70 -10 -180q-19 -189 -61.5 -318.5t-117.5 -216t-184 -125t-264 -38.5q-270 0 -392 123t-122 399q0 71 10 176q40 377 181.5 537.5t447.5 160.5zM653 229q104 0 164.5 39.5t96.5 135.5t55 274q10 110 10 172q0 156 -52.5 216 t-178.5 60q-105 0 -165.5 -39t-96 -135t-54.5 -274q-10 -113 -10 -174q0 -155 52.5 -215t178.5 -60zM967 1663l4 25q5 23 17 28.5t63 5.5q48 0 65.5 -7t13.5 -29l-10 -68q-31 -170 -192 -166q-58 0 -133 41l-84 49q-25 14 -45 14q-35 0 -43 -47l-5 -24q-5 -23 -17 -29 t-62 -6q-47 0 -65.5 7.5t-14.5 29.5l10 67q31 170 193 166q58 0 133 -41l84 -49q25 -14 43 -14q37 0 45 47z" />
<glyph unicode="&#xd6;" horiz-adv-x="1343" d="M764 1376q268 0 390 -122.5t122 -395.5q0 -70 -10 -180q-19 -189 -61.5 -318.5t-117.5 -216t-184 -125t-264 -38.5q-270 0 -392 123t-122 399q0 71 10 176q40 377 181.5 537.5t447.5 160.5zM653 229q104 0 164.5 39.5t96.5 135.5t55 274q10 110 10 172q0 156 -52.5 216 t-178.5 60q-105 0 -165.5 -39t-96 -135t-54.5 -274q-10 -113 -10 -174q0 -155 52.5 -215t178.5 -60zM594 1714q88 0 111.5 -11.5t19.5 -55.5l-12 -117q-5 -45 -29 -57.5t-109 -12.5q-91 0 -111.5 14t-14.5 68l10 105q3 32 13 44.5t35.5 17.5t86.5 5zM1012 1714 q88 0 111.5 -11.5t19.5 -55.5l-13 -117q-5 -45 -28.5 -57.5t-108.5 -12.5q-91 0 -112 14.5t-15 67.5l11 105q3 32 13 44.5t35.5 17.5t86.5 5z" />
<glyph unicode="&#xd7;" horiz-adv-x="1150" d="M805 227l-221 248l-273 -246q-19 -20 -38.5 -11.5t-67.5 61.5q-47 55 -53 74.5t16 37.5l270 246l-219 246q-18 18 -7.5 37.5t69.5 74.5q58 53 79 61t37 -12l219 -245l275 248q17 19 36.5 10t69.5 -62q46 -54 52.5 -74t-13.5 -36l-274 -248l221 -248q18 -15 7 -36t-68 -74 q-60 -52 -82 -61.5t-35 9.5z" />
<glyph unicode="&#xd8;" horiz-adv-x="1351" d="M768 1376q163 0 270 -45l41 62q19 26 40 33.5t95 7.5q113 0 103 -35l-4 -10l-125 -172q92 -124 92 -359q0 -70 -10 -180q-19 -189 -61.5 -318.5t-117.5 -216t-184 -125t-264 -38.5q-161 0 -268 43l-45 -68q-16 -25 -38 -33t-97 -8q-113 0 -103 35q1 5 4 10l123 180 q-90 124 -90 363q0 71 10 176q40 377 181.5 537.5t447.5 160.5zM657 229q104 0 164.5 39.5t96.5 135.5t55 274q10 110 10 172q0 48 -6 86l-461 -680q47 -27 141 -27zM426 504q0 -57 4 -80l461 674q-49 28 -139 28q-105 0 -165.5 -39t-96 -135t-54.5 -274q-10 -113 -10 -174z " />
<glyph unicode="&#xd9;" horiz-adv-x="1339" d="M639 -20q-255 0 -374.5 101.5t-119.5 319.5q0 42 7 107l84 801q2 24 11 33t38 13.5t96 4.5q96 0 122 -9.5t23 -41.5l-84 -789q-4 -58 -4 -78q0 -108 48.5 -153t166.5 -45q136 0 195 61.5t74 214.5l84 789q2 23 11.5 33t38.5 14t95 4q97 0 122.5 -9t22.5 -42l-84 -801 q-20 -187 -82.5 -301t-182 -170.5t-308.5 -56.5zM760 1458l-346 146q-16 7 -20.5 16t4 32t34.5 66q36 62 56.5 76.5t35.5 -2.5l318 -199q21 -11 20 -26t-28 -58q-26 -44 -38.5 -52.5t-35.5 1.5z" />
<glyph unicode="&#xda;" horiz-adv-x="1339" d="M639 -20q-255 0 -374.5 101.5t-119.5 319.5q0 42 7 107l84 801q2 24 11 33t38 13.5t96 4.5q96 0 122 -9.5t23 -41.5l-84 -789q-4 -58 -4 -78q0 -108 48.5 -153t166.5 -45q136 0 195 61.5t74 214.5l84 789q2 23 11.5 33t38.5 14t95 4q97 0 122.5 -9t22.5 -42l-84 -801 q-20 -187 -82.5 -301t-182 -170.5t-308.5 -56.5zM1171 1604l-378 -146q-23 -10 -35 -0.5t-29 53.5q-18 45 -16.5 59.5t22.5 26.5l363 199q19 17 36 2t42 -78q23 -67 21 -86.5t-26 -29.5z" />
<glyph unicode="&#xdb;" horiz-adv-x="1339" d="M639 -20q-255 0 -374.5 101.5t-119.5 319.5q0 42 7 107l84 801q2 24 11 33t38 13.5t96 4.5q96 0 122 -9.5t23 -41.5l-84 -789q-4 -58 -4 -78q0 -108 48.5 -153t166.5 -45q136 0 195 61.5t74 214.5l84 789q2 23 11.5 33t38.5 14t95 4q97 0 122.5 -9t22.5 -42l-84 -801 q-20 -187 -82.5 -301t-182 -170.5t-308.5 -56.5zM795 1585l-125 -106q-29 -25 -88 -25q-106 0 -106 26q1 8 9 17l205 213q17 17 24 22.5t30 11t63 5.5q58 0 80.5 -9t36.5 -30l159 -213q22 -32 -33 -40q-24 -3 -63 -3q-69 0 -92 25z" />
<glyph unicode="&#xdc;" horiz-adv-x="1339" d="M639 -20q-255 0 -374.5 101.5t-119.5 319.5q0 42 7 107l84 801q2 24 11 33t38 13.5t96 4.5q96 0 122 -9.5t23 -41.5l-84 -789q-4 -58 -4 -78q0 -108 48.5 -153t166.5 -45q136 0 195 61.5t74 214.5l84 789q2 23 11.5 33t38.5 14t95 4q97 0 122.5 -9t22.5 -42l-84 -801 q-20 -187 -82.5 -301t-182 -170.5t-308.5 -56.5zM594 1714q88 0 111.5 -11.5t19.5 -55.5l-12 -117q-5 -45 -29 -57.5t-109 -12.5q-91 0 -111.5 14t-14.5 68l10 105q3 32 13 44.5t35.5 17.5t86.5 5zM1012 1714q88 0 111.5 -11.5t19.5 -55.5l-13 -117q-5 -45 -28.5 -57.5 t-108.5 -12.5q-91 0 -112 14.5t-15 67.5l11 105q3 32 13 44.5t35.5 17.5t86.5 5z" />
<glyph unicode="&#xdd;" horiz-adv-x="1204" d="M948 1309q11 23 23 32t43.5 14t99.5 5q136 0 144 -31q2 -10 -5 -24q-72 -138 -226.5 -392.5t-268.5 -423.5l-47 -446q-3 -32 -27.5 -40.5t-120.5 -8.5t-121 9t-22 40l47 446q-79 167 -181 422t-147 394q-6 20 4 31.5t43.5 17.5t96.5 6q98 0 127.5 -9.5t38.5 -41.5 q68 -249 188 -572q160 267 311 572zM1112 1604l-379 -146q-23 -10 -34.5 -0.5t-28.5 53.5q-18 45 -16.5 59.5t22.5 26.5l362 199q19 17 36 2t42 -78q23 -67 21 -86.5t-25 -29.5z" />
<glyph unicode="&#xde;" horiz-adv-x="1208" d="M608 293h-182l-25 -248q-3 -32 -27.5 -40.5t-119.5 -8.5q-97 0 -121.5 9t-21.5 40l110 1055l23 209q2 24 11 33t38 13.5t96 4.5q96 0 122.5 -9.5t23.5 -41.5l-19 -158h166q245 0 356 -85.5t111 -268.5q0 -20 -4 -74q-22 -225 -146.5 -327.5t-390.5 -102.5zM492 901 l-39 -358h163q119 0 170.5 39.5t61.5 140.5q2 12 2 33q0 77 -46.5 111t-148.5 34h-163z" />
<glyph unicode="&#xdf;" horiz-adv-x="1419" d="M698 657q-24 0 -29.5 18.5t1.5 88.5q6 70 13 87t30 17q36 2 57 3.5t60 7t64 13.5t56 23t49 35.5t30.5 51.5t12.5 69q0 146 -256 146q-115 0 -182.5 -29t-94.5 -77.5t-36 -129.5l-98 -940q-3 -30 -25.5 -37.5t-113.5 -7.5t-114 8t-20 37l93 887q14 131 48 221t102.5 157.5 t181.5 99.5t276 32q246 0 377 -86t131 -246q0 -141 -85 -226t-239 -110q76 -12 134 -34t105.5 -60.5t73 -101t25.5 -146.5q0 -208 -113 -328t-335 -120q-109 0 -182 19.5t-110 58t-49.5 86.5t-5.5 114q3 37 26 47t108 10q76 0 94 -8.5t18 -38.5q-2 -45 23.5 -67.5 t93.5 -22.5q47 0 81 20.5t52.5 56.5t26.5 76.5t8 88.5q0 81 -32 131.5t-113 78t-218 27.5z" />
<glyph unicode="&#xe0;" d="M432 715q-3 -28 -23.5 -35.5t-103.5 -7.5q-89 0 -113 9.5t-20 45.5q30 301 434 301q214 0 307 -74.5t93 -224.5q0 -5 -5 -67l-63 -619q-2 -21 -10.5 -30t-35.5 -13t-89 -4q-87 0 -110 8.5t-21 38.5l4 74q-92 -133 -299 -133q-154 0 -230.5 71.5t-76.5 190.5 q0 170 109.5 247.5t301.5 77.5h242l8 91q9 84 -20 113.5t-123 29.5q-80 0 -115.5 -21.5t-40.5 -68.5zM705 391h-209q-156 0 -156 -117q0 -84 121 -84q103 0 167 44.5t72 117.5zM596 1126l-326 152q-14 7 -17.5 15t5 30t35.5 63q38 60 56.5 73.5t35.5 -1.5l295 -203 q20 -11 18.5 -25t-28.5 -56q-28 -41 -40 -49t-34 1z" />
<glyph unicode="&#xe1;" d="M432 715q-3 -28 -23.5 -35.5t-103.5 -7.5q-89 0 -113 9.5t-20 45.5q30 301 434 301q214 0 307 -74.5t93 -224.5q0 -5 -5 -67l-63 -619q-2 -21 -10.5 -30t-35.5 -13t-89 -4q-87 0 -110 8.5t-21 38.5l4 74q-92 -133 -299 -133q-154 0 -230.5 71.5t-76.5 190.5 q0 170 109.5 247.5t301.5 77.5h242l8 91q9 84 -20 113.5t-123 29.5q-80 0 -115.5 -21.5t-40.5 -68.5zM705 391h-209q-156 0 -156 -117q0 -84 121 -84q103 0 167 44.5t72 117.5zM1008 1278l-359 -152q-22 -9 -33 0t-30 50q-19 43 -18.5 57.5t22.5 26.5l340 202q17 15 34.5 1 t43.5 -74q25 -64 24 -82.5t-24 -28.5z" />
<glyph unicode="&#xe2;" d="M432 715q-3 -28 -23.5 -35.5t-103.5 -7.5q-89 0 -113 9.5t-20 45.5q30 301 434 301q214 0 307 -74.5t93 -224.5q0 -5 -5 -67l-63 -619q-2 -21 -10.5 -30t-35.5 -13t-89 -4q-87 0 -110 8.5t-21 38.5l4 74q-92 -133 -299 -133q-154 0 -230.5 71.5t-76.5 190.5 q0 170 109.5 247.5t301.5 77.5h242l8 91q9 84 -20 113.5t-123 29.5q-80 0 -115.5 -21.5t-40.5 -68.5zM705 391h-209q-156 0 -156 -117q0 -84 121 -84q103 0 167 44.5t72 117.5zM639 1268l-127 -115q-29 -25 -90 -25q-104 0 -104 24q0 8 10 19l207 222q15 16 22.5 22 t30.5 11.5t63 5.5q58 0 79.5 -8.5t37.5 -30.5l162 -222q20 -32 -36 -40q-23 -3 -63 -3q-67 0 -90 25z" />
<glyph unicode="&#xe3;" d="M432 715q-3 -28 -23.5 -35.5t-103.5 -7.5q-89 0 -113 9.5t-20 45.5q30 301 434 301q214 0 307 -74.5t93 -224.5q0 -5 -5 -67l-63 -619q-2 -21 -10.5 -30t-35.5 -13t-89 -4q-87 0 -110 8.5t-21 38.5l4 74q-92 -133 -299 -133q-154 0 -230.5 71.5t-76.5 190.5 q0 170 109.5 247.5t301.5 77.5h242l8 91q9 84 -20 113.5t-123 29.5q-80 0 -115.5 -21.5t-40.5 -68.5zM705 391h-209q-156 0 -156 -117q0 -84 121 -84q103 0 167 44.5t72 117.5zM801 1341l6 25q3 23 15 29t63 6q47 0 65.5 -7.5t14.5 -29.5l-11 -68q-27 -169 -182 -166 q-58 0 -133 41l-86 50q-22 14 -39 14q-33 0 -41 -47l-4 -25q-3 -23 -16 -29t-64 -6q-47 0 -65 7.5t-15 29.5l13 68q27 169 182 166q58 0 133 -41l86 -49q24 -15 39 -15q16 0 25.5 10.5t13.5 36.5z" />
<glyph unicode="&#xe4;" d="M432 715q-3 -28 -23.5 -35.5t-103.5 -7.5q-89 0 -113 9.5t-20 45.5q30 301 434 301q214 0 307 -74.5t93 -224.5q0 -5 -5 -67l-63 -619q-2 -21 -10.5 -30t-35.5 -13t-89 -4q-87 0 -110 8.5t-21 38.5l4 74q-92 -133 -299 -133q-154 0 -230.5 71.5t-76.5 190.5 q0 170 109.5 247.5t301.5 77.5h242l8 91q9 84 -20 113.5t-123 29.5q-80 0 -115.5 -21.5t-40.5 -68.5zM705 391h-209q-156 0 -156 -117q0 -84 121 -84q103 0 167 44.5t72 117.5zM446 1389q87 0 111.5 -12t20.5 -56l-13 -117q-5 -45 -28.5 -57t-108.5 -12q-92 0 -114.5 14.5 t-16.5 67.5l10 104q5 45 28.5 56.5t110.5 11.5zM848 1389q87 0 111 -12t20 -56l-12 -117q-5 -45 -28.5 -57t-109.5 -12q-92 0 -114.5 14.5t-16.5 67.5l11 104q5 45 28.5 56.5t110.5 11.5z" />
<glyph unicode="&#xe5;" d="M432 715q-3 -28 -23.5 -35.5t-103.5 -7.5q-89 0 -113 9.5t-20 45.5q30 301 434 301q214 0 307 -74.5t93 -224.5q0 -5 -5 -67l-63 -619q-2 -21 -10.5 -30t-35.5 -13t-89 -4q-87 0 -110 8.5t-21 38.5l4 74q-92 -133 -299 -133q-154 0 -230.5 71.5t-76.5 190.5 q0 170 109.5 247.5t301.5 77.5h242l8 91q9 84 -20 113.5t-123 29.5q-80 0 -115.5 -21.5t-40.5 -68.5zM705 391h-209q-156 0 -156 -117q0 -84 121 -84q103 0 167 44.5t72 117.5zM659 1507q94 0 143.5 -44t49.5 -124q0 -97 -58.5 -159t-166.5 -62q-94 0 -143.5 42t-49.5 120 q0 100 57 163.5t168 63.5zM635 1231q42 0 68 23.5t26 72.5q0 36 -19 52t-59 16q-42 0 -68 -24t-26 -75q0 -35 19 -50t59 -15z" />
<glyph unicode="&#xe6;" horiz-adv-x="1691" d="M1554 434h-579q-5 -129 35.5 -186.5t144.5 -57.5q70 0 108 25.5t44 67.5q3 22 10 30t32.5 12.5t84.5 4.5q89 0 113 -10.5t20 -49.5q-14 -130 -121 -210t-301 -80q-240 0 -338 145q-148 -141 -399 -141q-178 0 -258 73.5t-80 190.5q0 323 411 323h230l8 91q9 85 -16.5 114 t-118.5 29q-79 0 -113 -21.5t-39 -68.5q-3 -28 -23.5 -35.5t-103.5 -7.5q-89 0 -113 9.5t-20 45.5q30 301 438 301q224 0 308 -104q113 104 301 104q204 0 302.5 -100t98.5 -273q0 -26 -4 -80l-6 -53q-5 -53 -15.5 -70.5t-40.5 -17.5zM1214 817q-96 0 -146.5 -51t-72.5 -164 h361l4 29q2 14 2 39q0 70 -34 108.5t-114 38.5zM692 391h-200q-152 0 -152 -121q0 -80 117 -80q102 0 162.5 44t68.5 118z" />
<glyph unicode="&#xe7;" horiz-adv-x="1073" d="M500 -90h8q104 0 153.5 -30t49.5 -109q0 -113 -53.5 -161t-176.5 -48h-205q-18 0 -22 12t0 55q8 57 12 62.5t17 5.5h206q58 0 58 57q0 21 -13.5 28t-48.5 7h-102q-36 0 -52.5 7t-8.5 28l71 168q-295 57 -295 405q0 51 6 107q28 269 151 396.5t370 127.5q210 0 304.5 -85 t80.5 -230q-3 -39 -27.5 -48.5t-120.5 -9.5q-81 0 -103 10.5t-20 41.5q3 46 -27.5 68t-101.5 22q-114 0 -161.5 -64t-65.5 -229q-6 -58 -6 -105q0 -104 38.5 -146t133.5 -42q140 0 153 98q3 22 11 31.5t34.5 14.5t81.5 5q99 0 123.5 -9.5t20.5 -47.5q-16 -151 -122.5 -237 t-313.5 -86h-15z" />
<glyph unicode="&#xe8;" d="M956 434h-587v-28q0 -112 43 -164t141 -52q71 0 110.5 25.5t45.5 67.5q3 22 11.5 30.5t34 12.5t85.5 4q62 0 88 -4t35 -16t6 -40q-14 -130 -123 -210t-303 -80q-227 0 -336 103t-109 314q0 51 6 107q28 266 153 395t361 129q205 0 304.5 -102.5t99.5 -278.5q0 -22 -4 -72 l-6 -53q-5 -53 -15.5 -70.5t-40.5 -17.5zM616 1126l-325 152q-14 7 -18 15t4.5 30t35.5 63q38 60 57 73.5t36 -1.5l294 -203q20 -11 18.5 -25t-28.5 -56q-28 -41 -40 -49t-34 1zM612 817q-96 0 -147.5 -51t-75.5 -164h369l4 29q2 12 2 33q0 153 -152 153z" />
<glyph unicode="&#xe9;" d="M956 434h-587v-28q0 -112 43 -164t141 -52q71 0 110.5 25.5t45.5 67.5q3 22 11.5 30.5t34 12.5t85.5 4q62 0 88 -4t35 -16t6 -40q-14 -130 -123 -210t-303 -80q-227 0 -336 103t-109 314q0 51 6 107q28 266 153 395t361 129q205 0 304.5 -102.5t99.5 -278.5q0 -22 -4 -72 l-6 -53q-5 -53 -15.5 -70.5t-40.5 -17.5zM987 1278l-358 -152q-22 -9 -33.5 0t-30.5 50q-19 43 -18.5 57.5t22.5 26.5l340 202q17 15 34.5 1t43.5 -74q25 -64 24 -82.5t-24 -28.5zM612 817q-96 0 -147.5 -51t-75.5 -164h369l4 29q2 12 2 33q0 153 -152 153z" />
<glyph unicode="&#xea;" d="M956 434h-587v-28q0 -112 43 -164t141 -52q71 0 110.5 25.5t45.5 67.5q3 22 11.5 30.5t34 12.5t85.5 4q62 0 88 -4t35 -16t6 -40q-14 -130 -123 -210t-303 -80q-227 0 -336 103t-109 314q0 51 6 107q28 266 153 395t361 129q205 0 304.5 -102.5t99.5 -278.5q0 -22 -4 -72 l-6 -53q-5 -53 -15.5 -70.5t-40.5 -17.5zM639 1268l-127 -115q-29 -25 -90 -25q-104 0 -104 24q0 8 10 19l207 222q15 16 22.5 22t30.5 11.5t63 5.5q58 0 79.5 -8.5t37.5 -30.5l162 -222q20 -32 -36 -40q-23 -3 -63 -3q-67 0 -90 25zM612 817q-96 0 -147.5 -51t-75.5 -164 h369l4 29q2 12 2 33q0 153 -152 153z" />
<glyph unicode="&#xeb;" d="M956 434h-587v-28q0 -112 43 -164t141 -52q71 0 110.5 25.5t45.5 67.5q3 22 11.5 30.5t34 12.5t85.5 4q62 0 88 -4t35 -16t6 -40q-14 -130 -123 -210t-303 -80q-227 0 -336 103t-109 314q0 51 6 107q28 266 153 395t361 129q205 0 304.5 -102.5t99.5 -278.5q0 -22 -4 -72 l-6 -53q-5 -53 -15.5 -70.5t-40.5 -17.5zM612 817q-96 0 -147.5 -51t-75.5 -164h369l4 29q2 12 2 33q0 153 -152 153zM446 1389q87 0 111.5 -12t20.5 -56l-13 -117q-5 -45 -28.5 -57t-108.5 -12q-92 0 -114.5 14.5t-16.5 67.5l10 104q5 45 28.5 56.5t110.5 11.5zM848 1389 q87 0 111 -12t20 -56l-12 -117q-5 -45 -28.5 -57t-109.5 -12q-92 0 -114.5 14.5t-16.5 67.5l11 104q5 45 28.5 56.5t110.5 11.5z" />
<glyph unicode="&#xec;" horiz-adv-x="536" d="M94 41l96 926q3 30 27 38.5t113 8.5q91 0 114.5 -8.5t20.5 -38.5l-96 -926q-3 -30 -26.5 -38.5t-113.5 -8.5t-114 8.5t-21 38.5zM338 1126l-326 152q-14 7 -17.5 15t5 30t35.5 63q38 60 56.5 73.5t35.5 -1.5l295 -203q20 -11 18.5 -25t-28.5 -56q-28 -41 -40 -49t-34 1z " />
<glyph unicode="&#xed;" horiz-adv-x="536" d="M94 41l96 926q3 30 27 38.5t113 8.5q91 0 114.5 -8.5t20.5 -38.5l-96 -926q-3 -30 -26.5 -38.5t-113.5 -8.5t-114 8.5t-21 38.5zM709 1278l-359 -152q-22 -9 -33 0t-30 50q-19 43 -18.5 57.5t22.5 26.5l340 202q17 15 34.5 1t43.5 -74q25 -64 24 -82.5t-24 -28.5z" />
<glyph unicode="&#xee;" horiz-adv-x="536" d="M94 41l96 926q3 30 27 38.5t113 8.5q91 0 114.5 -8.5t20.5 -38.5l-96 -926q-3 -30 -26.5 -38.5t-113.5 -8.5t-114 8.5t-21 38.5zM360 1268l-127 -115q-29 -25 -90 -25q-104 0 -104 24q0 8 10 19l207 222q15 16 22.5 22t31 11.5t63.5 5.5q58 0 79 -8.5t37 -30.5l162 -222 q19 -31 -33 -39q-24 -4 -65 -4q-67 0 -90 25z" />
<glyph unicode="&#xef;" horiz-adv-x="536" d="M94 41l96 926q3 30 27 38.5t113 8.5q91 0 114.5 -8.5t20.5 -38.5l-96 -926q-3 -30 -26.5 -38.5t-113.5 -8.5t-114 8.5t-21 38.5zM168 1389q87 0 111 -12t20 -56l-12 -117q-5 -45 -28.5 -57t-108.5 -12q-92 0 -115 14.5t-17 67.5l11 104q5 45 28.5 56.5t110.5 11.5z M569 1389q87 0 111 -12t20 -56l-12 -117q-5 -45 -28.5 -57t-108.5 -12q-92 0 -114.5 14.5t-16.5 67.5l10 104q5 45 28.5 56.5t110.5 11.5z" />
<glyph unicode="&#xf0;" horiz-adv-x="1105" d="M1079 1241l-104 -47q65 -133 65 -363q0 -139 -18 -303q-31 -294 -148.5 -421t-357.5 -127q-215 0 -317.5 96.5t-102.5 298.5q0 47 6 102q26 258 138 379t329 121q150 0 219 -62q0 122 -30 183l-164 -72q-13 -7 -19.5 0.5t-21.5 48.5q-15 38 -15 50.5t15 19.5l109 47 q-70 31 -175 31q-22 0 -26 16.5t2 83.5q7 67 16 83.5t35 16.5q260 0 385 -125l139 62q15 7 22 -1.5t21 -47.5q15 -40 15 -51.5t-17 -18.5zM528 197q105 0 152.5 63t62.5 217q7 61 7 92q0 101 -38 145t-126 44q-104 0 -151 -63.5t-62 -217.5q-6 -52 -6 -94q0 -100 37 -143 t124 -43z" />
<glyph unicode="&#xf1;" horiz-adv-x="1171" d="M453 967l-4 -84q42 61 120.5 103t186.5 42q323 0 323 -311q0 -22 -4 -72l-63 -602q-3 -30 -26.5 -38.5t-113.5 -8.5t-114 8.5t-21 38.5l62 582q9 89 -27 128.5t-119 39.5q-98 0 -160 -58t-73 -155l-55 -537q-3 -30 -26.5 -38.5t-113.5 -8.5t-114 8.5t-21 38.5l96 922 q3 30 26 38.5t112 8.5q87 0 109 -8t20 -37zM840 1341l6 25q3 23 15.5 29t62.5 6q47 0 65.5 -7.5t14.5 -29.5l-11 -68q-27 -169 -182 -166q-58 0 -133 41l-86 50q-22 14 -39 14q-33 0 -41 -47l-4 -25q-3 -23 -16 -29t-64 -6q-47 0 -65 7.5t-15 29.5l12 68q27 169 183 166 q58 0 133 -41l86 -49q24 -15 39 -15q16 0 25.5 10.5t13.5 36.5z" />
<glyph unicode="&#xf2;" horiz-adv-x="1138" d="M625 1028q223 0 329.5 -103.5t106.5 -316.5q0 -48 -6 -104q-27 -268 -150 -396t-370 -128q-224 0 -330.5 103t-106.5 316q0 49 6 105q27 268 150.5 396t370.5 128zM549 207q113 0 161 65.5t66 231.5q6 59 6 106q0 103 -38.5 147t-131.5 44q-114 0 -162.5 -65.5 t-66.5 -231.5q-6 -58 -6 -105q0 -105 38.5 -148.5t133.5 -43.5zM639 1126l-326 152q-14 7 -17.5 15t5 30t35.5 63q38 60 56.5 73.5t35.5 -1.5l295 -203q20 -11 18.5 -25t-28.5 -56q-28 -41 -40 -49t-34 1z" />
<glyph unicode="&#xf3;" horiz-adv-x="1138" d="M625 1028q223 0 329.5 -103.5t106.5 -316.5q0 -48 -6 -104q-27 -268 -150 -396t-370 -128q-224 0 -330.5 103t-106.5 316q0 49 6 105q27 268 150.5 396t370.5 128zM549 207q113 0 161 65.5t66 231.5q6 59 6 106q0 103 -38.5 147t-131.5 44q-114 0 -162.5 -65.5 t-66.5 -231.5q-6 -58 -6 -105q0 -105 38.5 -148.5t133.5 -43.5zM1010 1278l-359 -152q-22 -9 -33 0t-30 50q-19 43 -18.5 57.5t22.5 26.5l340 202q17 15 34.5 1t43.5 -74q25 -64 24 -82.5t-24 -28.5z" />
<glyph unicode="&#xf4;" horiz-adv-x="1138" d="M625 1028q223 0 329.5 -103.5t106.5 -316.5q0 -48 -6 -104q-27 -268 -150 -396t-370 -128q-224 0 -330.5 103t-106.5 316q0 49 6 105q27 268 150.5 396t370.5 128zM549 207q113 0 161 65.5t66 231.5q6 59 6 106q0 103 -38.5 147t-131.5 44q-114 0 -162.5 -65.5 t-66.5 -231.5q-6 -58 -6 -105q0 -105 38.5 -148.5t133.5 -43.5zM662 1268l-127 -115q-29 -25 -91 -25q-104 0 -104 24q0 8 10 19l207 222q15 16 22.5 22t31 11.5t63.5 5.5q58 0 79.5 -8.5t37.5 -30.5l161 -222q19 -31 -33 -39q-24 -4 -65 -4q-68 0 -90 25z" />
<glyph unicode="&#xf5;" horiz-adv-x="1138" d="M625 1028q223 0 329.5 -103.5t106.5 -316.5q0 -48 -6 -104q-27 -268 -150 -396t-370 -128q-224 0 -330.5 103t-106.5 316q0 49 6 105q27 268 150.5 396t370.5 128zM549 207q113 0 161 65.5t66 231.5q6 59 6 106q0 103 -38.5 147t-131.5 44q-114 0 -162.5 -65.5 t-66.5 -231.5q-6 -58 -6 -105q0 -105 38.5 -148.5t133.5 -43.5zM823 1341l6 25q3 23 15 29t63 6q47 0 65.5 -7.5t14.5 -29.5l-10 -68q-27 -169 -182 -166q-58 0 -133 41l-87 50q-22 14 -38 14q-33 0 -41 -47l-4 -25q-3 -23 -16 -29t-64 -6q-47 0 -65 7.5t-15 29.5l12 68 q27 169 182 166q58 0 133 -41l86 -49q24 -15 39 -15q16 0 25.5 10.5t13.5 36.5z" />
<glyph unicode="&#xf6;" horiz-adv-x="1138" d="M625 1028q223 0 329.5 -103.5t106.5 -316.5q0 -48 -6 -104q-27 -268 -150 -396t-370 -128q-224 0 -330.5 103t-106.5 316q0 49 6 105q27 268 150.5 396t370.5 128zM549 207q113 0 161 65.5t66 231.5q6 59 6 106q0 103 -38.5 147t-131.5 44q-114 0 -162.5 -65.5 t-66.5 -231.5q-6 -58 -6 -105q0 -105 38.5 -148.5t133.5 -43.5zM469 1389q87 0 111 -12t20 -56l-12 -117q-5 -45 -28.5 -57t-108.5 -12q-92 0 -115 14.5t-17 67.5l11 104q5 45 28.5 56.5t110.5 11.5zM870 1389q87 0 111 -12t20 -56l-12 -117q-5 -45 -28.5 -57t-108.5 -12 q-92 0 -114.5 14.5t-16.5 67.5l10 104q5 45 28.5 56.5t110.5 11.5z" />
<glyph unicode="&#xf7;" horiz-adv-x="1150" d="M211 750h805q25 0 30 -20t-2 -93q-7 -72 -17.5 -92.5t-35.5 -20.5h-805q-20 0 -27 9t-7 38q0 8 4 66q7 72 17.5 92.5t37.5 20.5zM543 74q-101 0 -129 10t-25 45l23 205q3 39 29 49t128 10t129.5 -10.5t24.5 -48.5l-23 -205q-3 -36 -30 -45.5t-127 -9.5zM629 881 q-101 0 -129 10t-25 45l23 205q3 39 29 49t128 10t129.5 -10.5t24.5 -48.5l-23 -205q-3 -36 -30 -45.5t-127 -9.5z" />
<glyph unicode="&#xf8;" horiz-adv-x="1146" d="M629 1028q119 0 207 -31l26 41q15 21 35 28t78 7q86 0 86 -25q-1 -6 -6 -14l-86 -121q96 -102 96 -305q0 -48 -6 -104q-27 -268 -150 -396t-370 -128q-120 0 -199 26l-35 -49q-15 -21 -34 -28t-76 -7q-86 0 -86 24q0 6 6 15l88 127q-101 104 -101 311q0 40 7 105 q27 268 150 396t370 128zM381 399q0 -43 2 -61l315 450q-37 13 -82 13q-114 0 -162.5 -65.5t-66.5 -231.5q-6 -58 -6 -105zM553 207q113 0 161 65.5t66 231.5q6 59 6 106q0 33 -2 49l-307 -444q27 -8 76 -8z" />
<glyph unicode="&#xf9;" horiz-adv-x="1159" d="M729 41l4 84q-43 -61 -121.5 -103t-183.5 -42q-315 0 -315 319q0 22 4 80l61 586q2 21 10.5 30t36 13t90.5 4q90 0 115.5 -9t22.5 -38l-62 -578q-17 -172 144 -172q95 0 155.5 58t69.5 155l57 537q2 21 10.5 30t36 13t90.5 4q90 0 115.5 -9t22.5 -38l-97 -922 q-3 -30 -26.5 -38.5t-112.5 -8.5q-87 0 -108 8t-19 37zM629 1126l-326 152q-14 7 -17.5 15t5 30t35.5 63q38 60 56.5 73.5t35.5 -1.5l295 -203q19 -11 17.5 -25t-28.5 -56q-28 -41 -39.5 -49t-33.5 1z" />
<glyph unicode="&#xfa;" horiz-adv-x="1159" d="M729 41l4 84q-43 -61 -121.5 -103t-183.5 -42q-315 0 -315 319q0 22 4 80l61 586q2 21 10.5 30t36 13t90.5 4q90 0 115.5 -9t22.5 -38l-62 -578q-17 -172 144 -172q95 0 155.5 58t69.5 155l57 537q2 21 10.5 30t36 13t90.5 4q90 0 115.5 -9t22.5 -38l-97 -922 q-3 -30 -26.5 -38.5t-112.5 -8.5q-87 0 -108 8t-19 37zM1040 1278l-358 -152q-22 -9 -33.5 0t-30.5 50q-19 43 -18 57.5t23 26.5l340 202q17 15 34 1t43 -74q25 -64 24 -82.5t-24 -28.5z" />
<glyph unicode="&#xfb;" horiz-adv-x="1159" d="M729 41l4 84q-43 -61 -121.5 -103t-183.5 -42q-315 0 -315 319q0 22 4 80l61 586q2 21 10.5 30t36 13t90.5 4q90 0 115.5 -9t22.5 -38l-62 -578q-17 -172 144 -172q95 0 155.5 58t69.5 155l57 537q2 21 10.5 30t36 13t90.5 4q90 0 115.5 -9t22.5 -38l-97 -922 q-3 -30 -26.5 -38.5t-112.5 -8.5q-87 0 -108 8t-19 37zM672 1268l-127 -115q-29 -25 -90 -25q-106 0 -105 25q1 8 10 18l207 222q15 16 22.5 22t31 11.5t63.5 5.5q58 0 79.5 -8.5t37.5 -30.5l162 -222q20 -32 -36 -40q-23 -3 -63 -3q-68 0 -90 25z" />
<glyph unicode="&#xfc;" horiz-adv-x="1159" d="M729 41l4 84q-43 -61 -121.5 -103t-183.5 -42q-315 0 -315 319q0 22 4 80l61 586q2 21 10.5 30t36 13t90.5 4q90 0 115.5 -9t22.5 -38l-62 -578q-17 -172 144 -172q95 0 155.5 58t69.5 155l57 537q2 21 10.5 30t36 13t90.5 4q90 0 115.5 -9t22.5 -38l-97 -922 q-3 -30 -26.5 -38.5t-112.5 -8.5q-87 0 -108 8t-19 37zM479 1389q87 0 111 -12t20 -56l-12 -117q-5 -45 -28.5 -57t-108.5 -12q-92 0 -114.5 14.5t-16.5 67.5l10 104q5 45 28.5 56.5t110.5 11.5zM881 1389q87 0 111 -12t20 -56l-13 -117q-5 -45 -28.5 -57t-108.5 -12 q-92 0 -114.5 14.5t-16.5 67.5l10 104q3 31 14 44.5t38 18.5t88 5z" />
<glyph unicode="&#xfd;" horiz-adv-x="1073" d="M203 -147q81 0 130 32t87 113q-42 3 -59 11.5t-23 29.5q-58 167 -129.5 450.5t-102.5 466.5q-7 37 21 46.5t123 9.5q81 0 110 -8t31 -29q42 -333 137 -731q215 498 281 731q6 21 31.5 29t105.5 8q98 0 127.5 -11t16.5 -45q-72 -183 -208.5 -491t-232.5 -494 q-53 -102 -94.5 -164.5t-93.5 -109.5t-112.5 -66.5t-143.5 -19.5q-92 0 -125 10q-22 6 -29.5 31t-1.5 84q7 76 19.5 99.5t40.5 23.5q6 0 36 -3t58 -3zM997 1278l-358 -152q-22 -9 -33.5 0t-30.5 50q-19 43 -18 57.5t23 26.5l340 202q17 15 34 1t43 -74q25 -64 24 -82.5 t-24 -28.5z" />
<glyph unicode="&#xfe;" horiz-adv-x="1187" d="M508 1372l-49 -457q104 113 284 113q177 0 271 -106t94 -318q0 -65 -4 -100q-49 -524 -453 -524q-196 0 -276 120l-45 -426q-3 -30 -26.5 -38.5t-113.5 -8.5t-114 8.5t-21 38.5l178 1698q3 30 26 38.5t112 8.5q91 0 115.5 -8.5t21.5 -38.5zM416 504q-6 -49 -6 -92 q0 -111 43 -158t141 -47q112 0 163 66.5t68 230.5q6 55 6 98q0 107 -40 153t-134 46q-115 0 -169.5 -67t-71.5 -230z" />
<glyph unicode="&#xff;" horiz-adv-x="1073" d="M203 -147q81 0 130 32t87 113q-42 3 -59 11.5t-23 29.5q-58 167 -129.5 450.5t-102.5 466.5q-7 37 21 46.5t123 9.5q81 0 110 -8t31 -29q42 -333 137 -731q215 498 281 731q6 21 31.5 29t105.5 8q98 0 127.5 -11t16.5 -45q-72 -183 -208.5 -491t-232.5 -494 q-53 -102 -94.5 -164.5t-93.5 -109.5t-112.5 -66.5t-143.5 -19.5q-92 0 -125 10q-22 6 -29.5 31t-1.5 84q7 76 19.5 99.5t40.5 23.5q6 0 36 -3t58 -3zM838 1389q87 0 111 -12t20 -56l-13 -117q-5 -45 -28.5 -57t-108.5 -12q-92 0 -114.5 14.5t-16.5 67.5l10 104 q3 31 14 44.5t38 18.5t88 5zM436 1389q87 0 111 -12t20 -56l-12 -117q-5 -45 -28.5 -57t-108.5 -12q-92 0 -114.5 14.5t-16.5 67.5l10 104q5 45 28.5 56.5t110.5 11.5z" />
<glyph unicode="&#x152;" horiz-adv-x="1859" d="M1772 1106h-515l-30 -289h438q20 0 28.5 -13t8.5 -46q0 -12 -4 -66q-9 -87 -16.5 -106t-36.5 -19h-443l-35 -317h516q29 0 37 -29t0 -96q-9 -84 -18 -104.5t-35 -20.5h-981q-276 0 -397 120.5t-121 391.5q0 87 8 166q18 184 60 309.5t118 209.5t187.5 121.5t269.5 37.5 h979q23 0 32 -15.5t9 -50.5q0 -9 -4 -59q-7 -81 -17.5 -103t-37.5 -22zM702 250h183l90 856h-182q-156 0 -225 -91.5t-95 -336.5q-10 -98 -10 -156q0 -153 54.5 -212.5t184.5 -59.5z" />
<glyph unicode="&#x153;" horiz-adv-x="1732" d="M1595 434h-579q-5 -129 35.5 -186.5t144.5 -57.5q70 0 108 25.5t44 67.5q3 22 10 30t32.5 12.5t84.5 4.5q89 0 113 -10.5t20 -49.5q-14 -132 -121.5 -211t-302.5 -79q-226 0 -326 129q-117 -129 -332 -129q-220 0 -324 103.5t-104 315.5q0 49 6 105q27 268 148.5 396 t365.5 128q220 0 316 -131q119 131 330 131q205 0 301 -101t96 -276q0 -22 -4 -76l-6 -53q-5 -53 -15.5 -70.5t-40.5 -17.5zM541 207q108 0 157 66.5t66 230.5q6 59 6 102q0 104 -38.5 149.5t-127.5 45.5q-107 0 -155.5 -66t-65.5 -231q-6 -59 -6 -103q0 -105 37.5 -149.5 t126.5 -44.5zM1255 817q-96 0 -146.5 -51t-72.5 -164h361l4 29q2 14 2 39q0 70 -34 108.5t-114 38.5z" />
<glyph unicode="&#x178;" horiz-adv-x="1204" d="M948 1309q11 23 23 32t43.5 14t99.5 5q136 0 144 -31q2 -10 -5 -24q-72 -138 -226.5 -392.5t-268.5 -423.5l-47 -446q-3 -32 -27.5 -40.5t-120.5 -8.5t-121 9t-22 40l47 446q-79 167 -181 422t-147 394q-6 20 4 31.5t43.5 17.5t96.5 6q98 0 127.5 -9.5t38.5 -41.5 q68 -249 188 -572q160 267 311 572zM944 1714q88 0 111.5 -11.5t19.5 -55.5l-12 -117q-5 -45 -28.5 -57.5t-108.5 -12.5q-91 0 -112 14.5t-15 67.5l10 105q3 32 13 44.5t35.5 17.5t86.5 5zM526 1714q88 0 111.5 -11.5t19.5 -55.5l-12 -117q-5 -45 -28.5 -57.5t-108.5 -12.5 q-91 0 -112 14.5t-15 67.5l10 105q3 32 13 44.5t35.5 17.5t86.5 5z" />
<glyph unicode="&#x2c6;" horiz-adv-x="749" d="M467 1268l-127 -115q-29 -25 -90 -25q-104 0 -104 24q0 8 10 19l206 222q15 16 22.5 22t31 11.5t63.5 5.5q58 0 79.5 -8.5t37.5 -30.5l162 -222q20 -32 -36 -40q-23 -3 -63 -3q-67 0 -90 25z" />
<glyph unicode="&#x2dc;" horiz-adv-x="749" d="M629 1341l6 25q3 23 15 29t63 6q47 0 65.5 -7.5t14.5 -29.5l-11 -68q-27 -169 -182 -166q-58 0 -133 41l-86 50q-22 14 -39 14q-33 0 -41 -47l-4 -25q-3 -23 -16 -29t-64 -6q-47 0 -65 7.5t-15 29.5l13 68q27 169 182 166q58 0 133 -41l86 -49q24 -15 39 -15 q16 0 25.5 10.5t13.5 36.5z" />
<glyph unicode="&#x2000;" horiz-adv-x="902" />
<glyph unicode="&#x2001;" horiz-adv-x="1805" />
<glyph unicode="&#x2002;" horiz-adv-x="902" />
<glyph unicode="&#x2003;" horiz-adv-x="1805" />
<glyph unicode="&#x2004;" horiz-adv-x="601" />
<glyph unicode="&#x2005;" horiz-adv-x="451" />
<glyph unicode="&#x2006;" horiz-adv-x="300" />
<glyph unicode="&#x2007;" horiz-adv-x="300" />
<glyph unicode="&#x2008;" horiz-adv-x="225" />
<glyph unicode="&#x2009;" horiz-adv-x="361" />
<glyph unicode="&#x200a;" horiz-adv-x="100" />
<glyph unicode="&#x2010;" horiz-adv-x="839" d="M170 670h551q20 0 28.5 -11t8.5 -43q0 -9 -4 -59q-8 -74 -16 -93.5t-33 -19.5h-551q-27 0 -34.5 21t-0.5 92q8 74 16.5 93.5t34.5 19.5z" />
<glyph unicode="&#x2011;" horiz-adv-x="839" d="M170 670h551q20 0 28.5 -11t8.5 -43q0 -9 -4 -59q-8 -74 -16 -93.5t-33 -19.5h-551q-27 0 -34.5 21t-0.5 92q8 74 16.5 93.5t34.5 19.5z" />
<glyph unicode="&#x2012;" horiz-adv-x="839" d="M170 670h551q20 0 28.5 -11t8.5 -43q0 -9 -4 -59q-8 -74 -16 -93.5t-33 -19.5h-551q-27 0 -34.5 21t-0.5 92q8 74 16.5 93.5t34.5 19.5z" />
<glyph unicode="&#x2013;" horiz-adv-x="1105" d="M170 670h817q20 0 28.5 -11t8.5 -43q0 -9 -4 -59q-8 -74 -16 -93.5t-33 -19.5h-817q-27 0 -34.5 21t-0.5 92q8 74 16.5 93.5t34.5 19.5z" />
<glyph unicode="&#x2014;" horiz-adv-x="1536" d="M170 670h1247q20 0 28.5 -11t8.5 -43q0 -9 -4 -59q-8 -74 -16 -93.5t-33 -19.5h-1247q-27 0 -34.5 21t-0.5 92q8 74 16.5 93.5t34.5 19.5z" />
<glyph unicode="&#x2018;" horiz-adv-x="454" d="M393 1077l-8 -82q-1 -17 -7 -24.5t-30 -12t-74 -4.5q-70 0 -90.5 9t-17.5 32l8 88q24 233 262 338q18 11 32 0.5t32 -53.5q18 -48 16 -62.5t-24 -29.5q-44 -29 -68 -75t-31 -124z" />
<glyph unicode="&#x2019;" horiz-adv-x="454" d="M227 1298l9 82q1 17 7 24t29.5 12t73.5 5q70 0 91 -9t18 -32l-9 -88q-24 -233 -262 -338q-19 -9 -32 1t-31 53q-18 48 -16 62.5t24 29.5q44 28 67.5 74t30.5 124z" />
<glyph unicode="&#x201a;" horiz-adv-x="454" d="M104 111l9 82q1 17 7 24t29.5 11.5t73.5 4.5q71 0 91.5 -8.5t17.5 -31.5l-8 -89q-24 -232 -263 -337q-18 -11 -31.5 -0.5t-31.5 53.5q-18 48 -16 62.5t24 29.5q44 28 67.5 74.5t30.5 124.5z" />
<glyph unicode="&#x201c;" horiz-adv-x="831" d="M393 1077l-8 -82q-1 -17 -7 -24.5t-30 -12t-74 -4.5q-70 0 -90.5 9t-17.5 32l8 88q24 233 262 338q18 11 32 0.5t32 -53.5q18 -48 16 -62.5t-24 -29.5q-44 -29 -68 -75t-31 -124zM770 1077l-8 -82q-1 -17 -7 -24.5t-30 -12t-74 -4.5q-70 0 -90.5 9t-17.5 32l8 88 q24 233 262 338q18 11 32 0.5t32 -53.5q18 -49 15.5 -63t-24.5 -29q-44 -28 -67.5 -74.5t-30.5 -124.5z" />
<glyph unicode="&#x201d;" horiz-adv-x="831" d="M227 1298l9 82q1 17 7 24t29.5 12t73.5 5q70 0 91 -9t18 -32l-9 -88q-24 -233 -262 -338q-19 -9 -32 1t-31 53q-18 48 -16 62.5t24 29.5q44 28 67.5 74t30.5 124zM604 1298l8 82q1 17 7 24.5t30 12t74 4.5q70 0 90.5 -9t17.5 -32l-8 -88q-24 -233 -262 -338q-19 -9 -32 1 t-31 53q-18 48 -16 62.5t24 29.5q44 28 67.5 74t30.5 124z" />
<glyph unicode="&#x201e;" horiz-adv-x="831" d="M104 111l9 82q1 17 7 24t29.5 11.5t73.5 4.5q71 0 91.5 -8.5t17.5 -31.5l-8 -89q-24 -232 -263 -337q-18 -11 -31.5 -0.5t-31.5 53.5q-18 48 -16 62.5t24 29.5q44 28 67.5 74.5t30.5 124.5zM479 111l8 82q1 16 7 23.5t30 12t74 4.5q71 0 91.5 -8.5t17.5 -31.5l-9 -89 q-24 -232 -262 -337q-18 -11 -31.5 -0.5t-31.5 53.5q-18 48 -16 62.5t24 29.5q44 28 67.5 74.5t30.5 124.5z" />
<glyph unicode="&#x2022;" horiz-adv-x="745" d="M365 322q-127 0 -171 29.5t-44 121.5q0 35 6 88q9 80 22 124t42.5 72.5t73.5 37t122 8.5q126 0 169.5 -29t43.5 -119q0 -39 -6 -94q-8 -80 -20 -123.5t-42 -71.5t-73.5 -36t-122.5 -8z" />
<glyph unicode="&#x2026;" horiz-adv-x="1597" d="M227 -4q-101 0 -128.5 10t-24.5 45l22 205q3 39 29.5 49t128.5 10t129.5 -10.5t24.5 -48.5l-23 -205q-3 -36 -30.5 -45.5t-127.5 -9.5zM760 -4q-101 0 -129 10t-25 45l23 205q3 39 29 49t128 10t129.5 -10.5t24.5 -48.5l-22 -205q-3 -36 -30.5 -45.5t-127.5 -9.5z M1292 -4q-101 0 -128.5 10t-24.5 45l22 205q3 39 29.5 49t128.5 10t129.5 -10.5t24.5 -48.5l-23 -205q-3 -36 -30.5 -45.5t-127.5 -9.5z" />
<glyph unicode="&#x202f;" horiz-adv-x="361" />
<glyph unicode="&#x2039;" horiz-adv-x="688" d="M115 561q6 45 28 72l199 244q21 24 44.5 30t98.5 6q134 0 134 -30q-1 -8 -9 -17l-254 -305l191 -305q19 -33 -42 -42q-31 -5 -85 -5q-76 0 -102.5 7t-41.5 30l-147 243q-17 28 -14 72z" />
<glyph unicode="&#x203a;" horiz-adv-x="688" d="M573 561q-6 -45 -28 -72l-199 -243q-21 -24 -44.5 -30.5t-98.5 -6.5q-134 0 -134 30q0 7 9 17l254 305l-191 305q-19 33 42 42q30 5 85 5q77 0 103 -6.5t41 -29.5l147 -244q17 -28 14 -72z" />
<glyph unicode="&#x205f;" horiz-adv-x="451" />
<glyph unicode="&#x20ac;" horiz-adv-x="1318" d="M723 449h-229q7 -127 59 -175.5t168 -48.5q189 0 217 164q3 22 13 32.5t38.5 15.5t87.5 5q88 0 114.5 -11t22.5 -50q-42 -401 -512 -401q-253 0 -369.5 110.5t-127.5 358.5h-107q-20 0 -26 15.5t0 70.5q6 60 11 73t23 13h103l6 57l6 55h-94q-20 0 -25.5 15t0.5 71 q6 59 11.5 72.5t23.5 13.5h113q56 249 190.5 360t386.5 111q241 0 355 -103t94 -294q-5 -40 -28.5 -50.5t-112.5 -10.5q-84 0 -112 11t-26 42q3 78 -38 117.5t-144 39.5q-117 0 -178 -48.5t-96 -174.5h280q20 0 26.5 -15.5t0.5 -70.5q-6 -58 -12 -72t-25 -14h-301l-6 -55 q-1 -7 -2.5 -18.5t-2.5 -21t-1 -17.5h233q20 0 26.5 -15.5t0.5 -70.5q-6 -59 -11.5 -72.5t-23.5 -13.5z" />
<glyph unicode="&#x2122;" horiz-adv-x="1687" d="M991 1356q71 0 97 -6.5t30 -26.5l105 -401l190 401q11 21 33.5 27t93.5 6q81 0 108.5 -7t24.5 -28l-74 -713q-3 -20 -16.5 -25t-71.5 -5q-63 0 -79 5t-13 25l54 512l-181 -381q-6 -16 -25.5 -23t-64.5 -7t-64 7t-24 23l-96 379l-53 -510q-3 -20 -18 -25t-75 -5 q-61 0 -77 5t-13 25l74 713q3 22 29 28.5t106 6.5zM705 1192h-185l-59 -584q-3 -21 -17.5 -25.5t-76.5 -4.5q-61 0 -77.5 5t-13.5 25l60 584h-168q-21 0 -27 15.5t0 66.5q5 55 10 68.5t25 13.5h537q20 0 24.5 -15t-0.5 -67q-8 -67 -12 -74q-6 -8 -20 -8z" />
<glyph unicode="&#x25fc;" horiz-adv-x="1013" d="M0 1014h1014v-1014h-1014v1014z" />
</font>
</defs>
</svg>
