<?xml version="1.0" encoding="utf-8"?>
<!-- Generator: Adobe Illustrator 16.0.0, SVG Export Plug-In . SVG Version: 6.00 Build 0)  -->
<!DOCTYPE svg PUBLIC "-//W3C//DTD SVG 1.1//EN" "http://www.w3.org/Graphics/SVG/1.1/DTD/svg11.dtd">
<svg version="1.1" id="Layer_1" xmlns="http://www.w3.org/2000/svg" xmlns:xlink="http://www.w3.org/1999/xlink" x="0px" y="0px"
	 width="337.71px" height="36px" viewBox="0 0 337.71 36" enable-background="new 0 0 337.71 36" xml:space="preserve">
<g>
	<path fill="#FFFFFF" d="M65.943,27.357H50.479v-2.535h5.106V14.5h-2.499v-2.608h2.499V9.321h5.179V24.75h5.179V27.357z"/>
	<path fill="#FFFFFF" d="M86.152,22.251h-2.462v2.571h-2.572v2.535H70.724v-2.535h7.605v-2.571h2.644v-2.535H70.724v-2.608h-2.608
		v-5.179h2.463V9.321h13.002v2.535h2.571V22.251z M80.973,17v-5.071h-7.678V17H80.973z"/>
	<path fill="#FFFFFF" d="M106.071,24.75h-2.462v2.607H90.643v-2.463h-2.608v-5.251h2.463v-2.535h-2.463v-5.179h2.463V9.321h10.395
		v2.499h2.607V17h-2.607v2.571h5.179V24.75z M100.892,24.75v-2.644h-5.107v-2.463h-5.143v5.107H100.892z M100.892,17v-5.071h-7.678
		v2.608h2.571V17H100.892z"/>
	<path fill="#FFFFFF" d="M125.99,14.464h-2.462V17h-2.572v2.571h-2.571v7.787h-5.179v-7.787h2.39V17h2.572v-2.536h2.644v-2.535
		h-7.605v2.535h-5.251V9.321h18.036V14.464z"/>
	<path fill="#FFFFFF" d="M164.451,14.392h-5.106v-2.463h-5.107v2.463h-2.644v7.714h2.535v2.644h5.143v-2.499h5.179v2.499h-2.462
		v2.607h-10.395v-2.463h-2.572v-2.644h-2.607v-7.859h2.462v-2.463h2.608V9.321h10.395v2.463h2.571V14.392z"/>
	<path fill="#FFFFFF" d="M184.371,27.357h-5.18v-5.143h-7.678v5.143h-5.179V14.5h2.462v-2.572h2.644V9.321h7.75v2.463h2.608v2.571
		h2.572V27.357z M179.191,19.607v-5.251h-2.571v-2.427h-2.644V14.5h-2.463v5.106H179.191z"/>
	<path fill="#FFFFFF" d="M204.29,19.571h-2.462v2.608h-10.395v5.179h-5.18V9.321h15.465v2.463h2.571V19.571z M199.11,19.571v-7.642
		h-7.678v7.642H199.11z"/>
	<path fill="#FFFFFF" d="M224.209,14.392h-5.107v-2.463h-5.107v2.463h-2.643v7.714h2.535v2.644h5.144v-2.499h5.179v2.499h-2.463
		v2.607h-10.394v-2.463h-2.572v-2.644h-2.607v-7.859h2.463v-2.463h2.608V9.321h10.394v2.463h2.572V14.392z"/>
	<path fill="#FFFFFF" d="M244.128,24.75h-2.463v2.607h-12.966v-2.463h-2.607V11.929h2.462V9.321h13.001v2.463h2.572V24.75z
		 M238.949,24.75V11.929h-7.678V24.75H238.949z"/>
	<path fill="#FFFFFF" d="M264.047,27.357h-5.107v-7.714h-2.571v2.536h-2.608v-2.536h-2.499v7.714h-5.252V9.321h5.106v2.463h2.644
		v2.644h2.463v-2.535h2.644V9.321h5.18V27.357z"/>
	<path fill="#FFFFFF" d="M297.111,27.357h-15.465v-2.535h5.107V11.929h-5.107V9.321h15.465v2.499h-5.107v12.93h5.107V27.357z"/>
	<path fill="#FFFFFF" d="M317.791,27.357h-5.105v-2.463h-2.572v-2.607h-2.607v-2.644h-2.5v7.714h-5.251V9.321h5.106v2.463h2.645
		v2.571h2.607V17h2.499V9.321h5.179V27.357z"/>
	<path fill="#FFFFFF" d="M337.71,14.392h-5.106v-2.463h-5.107v2.463h-2.643v7.714h2.535v2.644h5.143v-2.499h5.179v2.499h-2.462
		v2.607h-10.395v-2.463h-2.572v-2.644h-2.607v-7.859h2.463v-2.463h2.607V9.321h10.395v2.463h2.571V14.392z"/>
</g>
<g>
	<path fill="#FFFFFF" d="M27.119,13.936h-5.258v-2.536h-5.258v2.536H13.88v7.943h2.61v2.722h5.295v-2.573h5.333v2.573h-2.536v2.686
		H13.88V24.75h-2.648v-2.723H8.547v-8.092h2.536v-2.536h2.685V8.715h10.703v2.535h2.648V13.936z"/>
</g>
<circle fill="none" stroke="#FFFFFF" stroke-width="3" stroke-miterlimit="10" cx="17.833" cy="18" r="15.667"/>
</svg>
