<?xml version="1.0" encoding="utf-8"?>
<!-- Generator: Adobe Illustrator 16.0.0, SVG Export Plug-In . SVG Version: 6.00 Build 0)  -->
<!DOCTYPE svg PUBLIC "-//W3C//DTD SVG 1.1//EN" "http://www.w3.org/Graphics/SVG/1.1/DTD/svg11.dtd">
<svg version="1.1" id="Layer_1" xmlns="http://www.w3.org/2000/svg" xmlns:xlink="http://www.w3.org/1999/xlink" x="0px" y="0px"
	 width="385.104px" height="103.016px" viewBox="0 0 385.104 103.016" enable-background="new 0 0 385.104 103.016"
	 xml:space="preserve">
<g>
	<path fill="#FFFFFF" d="M17.702,10.06h-2.417v2.56H5.083v5.083H0V0h15.178v2.417h2.524V10.06z M12.619,10.06v-7.5H5.083v7.5H12.619
		z"/>
	<path fill="#FFFFFF" d="M37.252,10.096h-5.083v2.453h2.559v2.595h2.524v2.56h-7.536v-2.382h-2.523v-2.666h-2.56v5.048H19.55V0
		h15.178v2.453h2.524V10.096z M32.169,7.536V2.56h-7.536v7.536h5.083v-2.56H32.169z"/>
	<path fill="#FFFFFF" d="M57.123,17.561H39.207V-0.32h17.916v2.488H44.361v5.083h7.643v2.63h-7.643v5.119h12.761V17.561z"/>
	<path fill="#FFFFFF" d="M76.354,15.143h-2.417v2.56H61.21v-2.417h-2.559v-2.56h5.083v2.417h7.536v-4.941H61.21V7.643h-2.559V2.56
		h2.417V0h10.202v2.417h2.559v2.559h-5.012V2.56h-5.083v4.906H73.83v2.595h2.524V15.143z"/>
	<path fill="#FFFFFF" d="M95.904,15.143h-2.417v2.56H80.761v-2.417h-2.559v-2.56h5.083v2.417h7.536v-4.941h-10.06V7.643h-2.559V2.56
		h2.417V0h10.202v2.417h2.559v2.559h-5.012V2.56h-5.083v4.906H93.38v2.595h2.524V15.143z"/>
	<path fill="#FFFFFF" d="M133.653,17.703h-7.536v-2.524h-2.523v-2.63h-2.488v5.154h-5.154V0h5.012v7.465h2.488V4.977h2.524V2.453
		h2.595V0h5.083v2.453h-2.417v2.523h-2.524v2.489h-2.595v2.559h2.453v2.524h2.559v2.595h2.524V17.703z"/>
	<path fill="#FFFFFF" d="M167.599,2.453h-4.977v15.25h-5.083V2.56h-5.119V0h15.179V2.453z"/>
	<path fill="#FFFFFF" d="M190.953,15.143h-2.417v2.56H175.81v-2.417h-2.559V2.56h2.417V0h12.761v2.417h2.524V15.143z M185.87,15.143
		V2.56h-7.536v12.583H185.87z"/>
	<path fill="#FFFFFF" d="M228.702,17.703h-7.537v-2.524h-2.523v-2.63h-2.488v5.154H211V0h5.011v7.465h2.488V4.977h2.525V2.453h2.594
		V0h5.084v2.453h-2.418v2.523h-2.523v2.489h-2.596v2.559h2.453v2.524h2.561v2.595h2.523V17.703z"/>
	<path fill="#FFFFFF" d="M247.506,17.703h-15.179v-2.488h5.012V2.56h-5.012V0h15.179v2.453h-5.013v12.69h5.013V17.703z"/>
	<path fill="#FFFFFF" d="M267.803,4.977h-5.012V2.56h-5.013v2.417h-2.595v7.572h2.488v2.595h5.048V12.69h5.083v2.453h-2.417v2.56
		h-10.202v-2.417h-2.523V12.69h-2.56V4.977h2.417V2.56h2.56V0h10.202v2.417h2.523V4.977z"/>
	<path fill="#FFFFFF" d="M287.353,17.703h-7.536v-2.524h-2.523v-2.63h-2.488v5.154h-5.154V0h5.012v7.465h2.488V4.977h2.524V2.453
		h2.595V0h5.083v2.453h-2.417v2.523h-2.524v2.489h-2.595v2.559h2.453v2.524h2.56v2.595h2.523V17.703z"/>
	<path fill="#FFFFFF" d="M17.702,52.716h-2.417v2.56H5.083v5.083H0V42.656h15.178v2.417h2.524V52.716z M12.619,52.716v-7.5H5.083
		v7.5H12.619z"/>
	<path fill="#FFFFFF" d="M37.252,52.752h-5.083v2.453h2.559v2.595h2.524v2.56h-7.536v-2.382h-2.523v-2.666h-2.56v5.048H19.55V42.656
		h15.178v2.453h2.524V52.752z M32.169,50.192v-4.977h-7.536v7.536h5.083v-2.56H32.169z"/>
	<path fill="#FFFFFF" d="M57.123,60.217H39.207v-17.88h17.916v2.488H44.361v5.083h7.643v2.63h-7.643v5.119h12.761V60.217z"/>
	<path fill="#FFFFFF" d="M76.354,57.799h-2.417v2.56H61.21v-2.417h-2.559v-2.56h5.083v2.417h7.536v-4.941H61.21v-2.559h-2.559
		v-5.083h2.417v-2.56h10.202v2.417h2.559v2.559h-5.012v-2.417h-5.083v4.906H73.83v2.595h2.524V57.799z"/>
	<path fill="#FFFFFF" d="M95.904,57.799h-2.417v2.56H80.761v-2.417h-2.559v-2.56h5.083v2.417h7.536v-4.941h-10.06v-2.559h-2.559
		v-5.083h2.417v-2.56h10.202v2.417h2.559v2.559h-5.012v-2.417h-5.083v4.906H93.38v2.595h2.524V57.799z"/>
	<path fill="#FFFFFF" d="M129.85,45.109h-4.977v15.25h-5.083V45.216h-5.119v-2.56h15.179V45.109z"/>
	<path fill="#FFFFFF" d="M167.599,45.109h-4.977v15.25h-5.083V45.216h-5.119v-2.56h15.179V45.109z"/>
	<path fill="#FFFFFF" d="M190.953,57.799h-2.417v2.56H175.81v-2.417h-2.559V45.216h2.417v-2.56h12.761v2.417h2.524V57.799z
		 M185.87,57.799V45.216h-7.536v12.583H185.87z"/>
	<path fill="#FFFFFF" d="M224.897,45.109h-4.977v15.25h-5.082V45.216h-5.119v-2.56h15.178V45.109z"/>
	<path fill="#FFFFFF" d="M248.252,60.359h-5.012v-7.607h-7.536v7.607h-5.154V42.656h5.012v7.536h7.607v-7.536h5.083V60.359z"/>
	<path fill="#FFFFFF" d="M267.803,52.752h-5.083v2.453h2.56v2.595h2.523v2.56h-7.536v-2.382h-2.523v-2.666h-2.56v5.048h-5.083
		V42.656h15.179v2.453h2.523V52.752z M262.72,50.192v-4.977h-7.536v7.536h5.083v-2.56H262.72z"/>
	<path fill="#FFFFFF" d="M287.353,57.799h-2.417v2.56H272.21v-2.417h-2.56V45.216h2.417v-2.56h12.762v2.417h2.523V57.799z
		 M282.27,57.799V45.216h-7.536v12.583H282.27z"/>
	<path fill="#FFFFFF" d="M306.903,60.359h-5.012v-2.417h-2.524v-2.631h-2.488v2.488h-2.523v2.56h-5.154V42.656h5.012v7.536h2.56
		V47.74h2.595v2.453h2.453v-7.536h5.083V60.359z"/>
	<path fill="#FFFFFF" d="M17.702,95.373h-2.417v2.56H5.083v5.083H0V85.313h15.178v2.417h2.524V95.373z M12.619,95.373v-7.5H5.083
		v7.5H12.619z"/>
	<path fill="#FFFFFF" d="M37.252,95.409h-5.083v2.453h2.559v2.595h2.524v2.56h-7.536v-2.382h-2.523v-2.666h-2.56v5.048H19.55V85.313
		h15.178v2.453h2.524V95.409z M32.169,92.849v-4.977h-7.536v7.536h5.083v-2.56H32.169z"/>
	<path fill="#FFFFFF" d="M57.123,102.874H39.207v-17.88h17.916v2.488H44.361v5.083h7.643v2.63h-7.643v5.119h12.761V102.874z"/>
	<path fill="#FFFFFF" d="M76.354,100.456h-2.417v2.56H61.21v-2.417h-2.559v-2.56h5.083v2.417h7.536v-4.941H61.21v-2.559h-2.559
		v-5.083h2.417v-2.56h10.202v2.417h2.559v2.559h-5.012v-2.417h-5.083v4.906H73.83v2.595h2.524V100.456z"/>
	<path fill="#FFFFFF" d="M95.904,100.456h-2.417v2.56H80.761v-2.417h-2.559v-2.56h5.083v2.417h7.536v-4.941h-10.06v-2.559h-2.559
		v-5.083h2.417v-2.56h10.202v2.417h2.559v2.559h-5.012v-2.417h-5.083v4.906H93.38v2.595h2.524V100.456z"/>
	<path fill="#FFFFFF" d="M133.653,100.456h-2.417v2.56H118.51v-2.417h-2.559v-2.56h5.083v2.417h7.536v-4.941h-10.06v-2.559h-2.559
		v-5.083h2.417v-2.56h10.202v2.417h2.559v2.559h-5.012v-2.417h-5.083v4.906h10.095v2.595h2.524V100.456z"/>
	<path fill="#FFFFFF" d="M153.203,95.373h-2.417v2.56h-10.202v5.083h-5.083V85.313h15.178v2.417h2.524V95.373z M148.12,95.373v-7.5
		h-7.536v7.5H148.12z"/>
	<path fill="#FFFFFF" d="M172.754,103.016h-5.083v-5.048h-7.536v5.048h-5.083V90.396h2.417v-2.524h2.595v-2.56h7.607v2.417h2.559
		v2.524h2.524V103.016z M167.671,95.409v-5.154h-2.524v-2.382h-2.595v2.524h-2.417v5.012H167.671z"/>
	<path fill="#FFFFFF" d="M192.304,90.29h-5.012v-2.417h-5.012v2.417h-2.595v7.572h2.488v2.595h5.048v-2.453h5.083v2.453h-2.417v2.56
		h-10.202v-2.417h-2.524v-2.595h-2.559V90.29h2.417v-2.417h2.56v-2.56h10.202v2.417h2.524V90.29z"/>
	<path fill="#FFFFFF" d="M212.175,102.874h-17.916v-17.88h17.916v2.488h-12.762v5.083h7.643v2.63h-7.643v5.119h12.762V102.874z"/>
	<path fill="#FFFFFF" d="M245.8,87.766h-4.977v15.25h-5.083V87.873h-5.119v-2.56H245.8V87.766z"/>
	<path fill="#FFFFFF" d="M269.154,100.456h-2.417v2.56h-12.726v-2.417h-2.56V87.873h2.417v-2.56h12.762v2.417h2.523V100.456z
		 M264.071,100.456V87.873h-7.536v12.583H264.071z"/>
	<path fill="#FFFFFF" d="M306.903,90.29h-5.012v-2.417h-5.013v2.417h-2.595v7.572h2.488v2.595h5.048v-2.453h5.083v2.453h-2.417v2.56
		h-10.202v-2.417h-2.523v-2.595h-2.56V90.29h2.417v-2.417h2.56v-2.56h10.202v2.417h2.523V90.29z"/>
	<path fill="#FFFFFF" d="M322.65,103.016h-15.179V85.313h5.013v15.143h10.166V103.016z"/>
	<path fill="#FFFFFF" d="M346.324,102.874h-17.916v-17.88h17.916v2.488h-12.762v5.083h7.643v2.63h-7.643v5.119h12.762V102.874z"/>
	<path fill="#FFFFFF" d="M365.555,103.016h-5.083v-5.048h-7.536v5.048h-5.083V90.396h2.417v-2.524h2.595v-2.56h7.607v2.417h2.56
		v2.524h2.523V103.016z M360.472,95.409v-5.154h-2.524v-2.382h-2.595v2.524h-2.417v5.012H360.472z"/>
	<path fill="#FFFFFF" d="M385.104,95.409h-5.083v2.453h2.56v2.595h2.523v2.56h-7.536v-2.382h-2.523v-2.666h-2.56v5.048h-5.083
		V85.313h15.179v2.453h2.523V95.409z M380.021,92.849v-4.977h-7.536v7.536h5.083v-2.56H380.021z"/>
</g>
</svg>
