<?xml version="1.0" encoding="utf-8"?>
<!-- Generator: Adobe Illustrator 16.0.0, SVG Export Plug-In . SVG Version: 6.00 Build 0)  -->
<!DOCTYPE svg PUBLIC "-//W3C//DTD SVG 1.1//EN" "http://www.w3.org/Graphics/SVG/1.1/DTD/svg11.dtd">
<svg version="1.1" id="Layer_1" xmlns="http://www.w3.org/2000/svg" xmlns:xlink="http://www.w3.org/1999/xlink" x="0px" y="0px"
	 width="432.033px" height="41.755px" viewBox="0 0 432.033 41.755" enable-background="new 0 0 432.033 41.755"
	 xml:space="preserve">
<g>
	<path fill="#FFFFFF" d="M41.014,24.048h-5.6v5.93H11.777v11.777H0V0.741h35.167v5.6h5.847V24.048z M29.237,24.048V6.671H11.777
		v17.377H29.237z"/>
	<path fill="#FFFFFF" d="M86.309,35.825h-5.6v5.93H51.225v-5.601h-5.93V6.671h5.601v-5.93h29.566v5.6h5.847V35.825z M74.532,35.825
		V6.671H57.072v29.154H74.532z"/>
	<path fill="#FFFFFF" d="M131.604,41.755h-11.612v-5.601h-5.847V30.06h-5.765v5.765h-5.847v5.93H90.59V0.741h11.612v17.459h5.93
		v-5.683h6.012v5.683h5.683V0.741h11.777V41.755z"/>
	<path fill="#FFFFFF" d="M177.64,41.425h-41.508V0h41.508v5.765h-29.566v11.777h17.707v6.094h-17.707v11.859h29.566V41.425z"/>
	<path fill="#FFFFFF" d="M222.194,24.13h-11.777v5.683h5.93v6.012h5.847v5.93h-17.459v-5.518h-5.847V30.06h-5.93v11.695H181.18
		V0.741h35.167v5.683h5.847V24.13z M210.417,18.201V6.671h-17.459V24.13h11.777v-5.93H210.417z"/>
	<path fill="#FFFFFF" d="M268.23,41.425h-41.508V0h41.508v5.765h-29.566v11.777h17.707v6.094h-17.707v11.859h29.566V41.425z"/>
	<path fill="#FFFFFF" d="M312.784,29.978h-5.6v5.848h-5.848v5.93h-29.566V0.741h29.237v5.6h5.93v5.848h5.847V29.978z
		 M301.007,29.978V12.189h-5.847V6.671h-11.612v29.154h11.859v-5.848H301.007z"/>
	<path fill="#FFFFFF" d="M389.702,35.825h-5.6v5.93h-35.414V0.741h35.166v5.683h5.848v11.777h-5.682v5.847h5.682V35.825z
		 M377.924,18.201V6.671h-17.459v11.53H377.924z M377.924,35.825V24.13h-17.459v11.695H377.924z"/>
	<path fill="#FFFFFF" d="M432.033,18.201h-5.601v5.847h-6.012v17.707h-11.942V24.377h-5.683v-5.93h-5.93V0.741h11.612v17.459h11.777
		V0.741h11.777V18.201z"/>
</g>
</svg>
