<?xml version="1.0" standalone="no"?>
<!DOCTYPE svg PUBLIC "-//W3C//DTD SVG 1.1//EN" "http://www.w3.org/Graphics/SVG/1.1/DTD/svg11.dtd" >
<svg xmlns="http://www.w3.org/2000/svg" xmlns:xlink="http://www.w3.org/1999/xlink" version="1.1">
<metadata></metadata>
<defs>
<font id="frygiablack" horiz-adv-x="1171" >
<font-face units-per-em="2048" ascent="1536" descent="-512" />
<missing-glyph horiz-adv-x="430" />
<glyph unicode="&#xfb01;" horiz-adv-x="1298" d="M885 1133q-13 0 -66 8t-104 8q-75 0 -113 -12.5t-49.5 -34t-11.5 -62.5v-16h473q87 0 125 -5t49.5 -16t11.5 -38v-912q0 -27 -11.5 -38t-49.5 -16t-125 -5t-125 5t-50 16.5t-12 37.5v664h-274v-664q0 -27 -11.5 -38t-49.5 -16t-125 -5t-125 5t-50 16.5t-12 37.5v664h-96 q-23 0 -33 9t-14 39.5t-4 100.5t4.5 100t13.5 39t33 11l96 8v16q0 214 110.5 309t346.5 95q156 0 240 -27q38 -12 49.5 -37.5t11.5 -103.5q0 -64 -5.5 -95t-16 -39.5t-31.5 -8.5z" />
<glyph unicode="&#xfb02;" horiz-adv-x="1351" d="M541 1040v-16h125q33 0 42 -26.5t9 -127.5t-9 -127t-42 -26h-113v-664q0 -27 -11.5 -38t-49.5 -16t-125 -5t-125 5t-50 16.5t-12 37.5v664h-96q-23 0 -33 9t-14 39.5t-4 100.5t4.5 100t13.5 39t33 11l96 8v16q0 217 119 310.5t397 93.5q243 0 443 -53q41 -11 55 -23 t14 -43v-967q0 -25 8.5 -34t30.5 -9h10q27 0 38.5 -10t17.5 -43.5t6 -105.5q0 -102 -15 -131t-67 -29h-115q-169 0 -227.5 59.5t-58.5 231.5v854q-58 8 -111 8q-79 0 -119.5 -12.5t-52.5 -33.5t-12 -63z" />
<glyph unicode="&#xfb03;" horiz-adv-x="1953" d="M836 1024v16q0 214 110 309t346 95q156 0 240 -27q38 -12 49.5 -37.5t11.5 -103.5q0 -64 -5.5 -95t-16 -39.5t-31.5 -8.5q-13 0 -66 8t-104 8q-75 0 -113 -12.5t-49.5 -34t-11.5 -62.5v-16h473q87 0 125 -5t49.5 -16t11.5 -38v-912q0 -27 -11.5 -38t-49.5 -16t-125 -5 t-125 5t-49.5 16t-11.5 38v664h-275v-664q0 -27 -11.5 -38t-49.5 -16t-125 -5t-125 5t-49.5 16t-11.5 38v664h-283v-664q0 -27 -11.5 -38t-49.5 -16t-125 -5t-125 5t-50 16.5t-12 37.5v664h-96q-23 0 -33 9t-14 39.5t-4 100.5t4.5 100t13.5 39t33 11l96 8v66q0 100 25.5 171 t73.5 110t107.5 56t137.5 17q93 0 152 -19q39 -12 50 -38t11 -107q0 -65 -6.5 -97.5t-17.5 -41t-33 -8.5q-9 0 -31 2t-35 2q-73 0 -73 -66v-47h295z" />
<glyph unicode="&#xfb04;" horiz-adv-x="2007" d="M836 1024v16q0 217 119 310.5t397 93.5q242 0 442 -53q41 -11 55.5 -23.5t14.5 -42.5v-967q0 -25 8.5 -34t30.5 -9h10q26 0 38 -10t17.5 -43.5t5.5 -105.5q0 -102 -15 -131t-67 -29h-114q-169 0 -228 59.5t-59 231.5v854q-58 8 -111 8q-79 0 -119.5 -12.5t-52.5 -33.5 t-12 -63v-16h125q33 0 42 -26.5t9 -127.5t-9 -127t-42 -26h-113v-664q0 -27 -11.5 -38t-49.5 -16t-125 -5t-125 5t-49.5 16t-11.5 38v664h-283v-664q0 -27 -11.5 -38t-49.5 -16t-125 -5t-125 5t-50 16.5t-12 37.5v664h-96q-23 0 -33 9t-14 39.5t-4 100.5t4.5 100t13.5 39 t33 11l96 8v66q0 100 25.5 171t73.5 110t107.5 56t137.5 17q93 0 152 -19q39 -12 50 -38t11 -107q0 -65 -6.5 -97.5t-17.5 -41t-33 -8.5q-9 0 -31 2t-35 2q-73 0 -73 -66v-47h295z" />
<glyph horiz-adv-x="0" />
<glyph horiz-adv-x="682" />
<glyph unicode=" "  horiz-adv-x="430" />
<glyph unicode="&#x09;" horiz-adv-x="430" />
<glyph unicode="&#xa0;" horiz-adv-x="430" />
<glyph unicode="!" horiz-adv-x="630" d="M315 518q-70 0 -103 5t-45 17t-13 38l-50 716q-2 39 40 53.5t171 14.5t171 -14.5t40 -53.5l-49 -716q-1 -26 -13.5 -38t-45.5 -17t-103 -5zM315 -6q-92 0 -132 5.5t-52 17t-12 40.5v271q0 29 12 40.5t52 17t132 5.5t132 -5t52.5 -17t12.5 -41v-271q0 -29 -12.5 -41 t-52.5 -17t-132 -5z" />
<glyph unicode="&#x22;" horiz-adv-x="851" d="M96 969l-24 405q-2 31 25 41t124 10q98 0 125 -10t25 -41l-25 -405q-2 -30 -23.5 -38.5t-101.5 -8.5t-101.5 8.5t-23.5 38.5zM506 969l-25 405q-2 31 25 41t125 10q97 0 124 -10t25 -41l-24 -405q-2 -30 -23.5 -38.5t-101.5 -8.5t-101.5 8.5t-23.5 38.5z" />
<glyph unicode="#" horiz-adv-x="1355" d="M702 41l35 246h-215l-35 -246q-3 -21 -14 -30t-40.5 -13t-94.5 -4q-93 0 -115.5 8.5t-17.5 38.5l35 246h-123q-19 0 -27 8t-12 35t-4 86t4 86t12 35t27 8h157l27 180h-123q-19 0 -27 8t-12 35t-4 86t4 86t12 35t27 8h158l35 246q3 21 14 30t40.5 13t94.5 4 q93 0 115.5 -8.5t17.5 -38.5l-35 -246h216l34 246q3 21 14 30t41 13t95 4q93 0 115.5 -8.5t17.5 -38.5l-35 -246h123q19 0 27 -8t12 -35t4 -86t-4 -86t-12 -35t-27 -8h-158l-26 -180h123q19 0 27 -8t12 -35t4 -86t-4 -86t-12 -35t-27 -8h-158l-35 -246q-3 -21 -14 -30 t-40.5 -13t-94.5 -4q-93 0 -116 8.5t-18 38.5zM584 725l-27 -180h215l27 180h-215z" />
<glyph unicode="$" horiz-adv-x="1212" d="M600 -190q-77 0 -110 4t-43.5 14t-10.5 33v129q-197 25 -280.5 118.5t-85.5 251.5q0 38 14.5 54.5t54.5 23t133 6.5q85 0 121.5 -5.5t48.5 -18.5t13 -45q2 -40 31 -58t102 -18q87 0 120 17t33 65q0 26 -14 45.5t-56.5 39t-69 28.5t-102.5 33q-10 3 -15 5t-13.5 4.5 t-15.5 4.5q-125 41 -175 66q-187 98 -203 313q-1 20 -1 41q0 182 81.5 281t278.5 124v129q0 23 10.5 33t43.5 14t110 4t110 -4t43.5 -14t10.5 -33v-131q180 -28 257 -120.5t79 -244.5q0 -38 -14.5 -54.5t-55 -23t-133.5 -6.5q-84 0 -120.5 6t-48 19t-13.5 45q-2 34 -27 53 t-94 19q-80 0 -102.5 -20.5t-22.5 -67.5q0 -25 19 -46t73.5 -45.5t84 -35t115.5 -39.5q15 -5 23 -8q124 -42 160 -60q129 -63 171 -186q24 -71 24 -166q0 -174 -85.5 -270t-289.5 -123v-129q0 -23 -10.5 -33t-43.5 -14t-110 -4z" />
<glyph unicode="%" horiz-adv-x="1765" d="M414 1370q331 0 331 -346t-331 -346q-332 0 -332 346t332 346zM414 885q36 0 48.5 30t12.5 109t-12.5 109t-48.5 30t-49 -30.5t-13 -108.5t13 -108.5t49 -30.5zM1352 678q331 0 331 -346t-331 -346q-332 0 -332 346t332 346zM1352 193q36 0 48.5 30t12.5 109t-12.5 109 t-48.5 30t-49 -30.5t-13 -108.5t13 -108.5t49 -30.5zM1352 1298l-656 -1247q-13 -25 -25 -35t-45 -16t-100 -6q-62 0 -90.5 7t-31 21t9.5 35l655 1248q13 25 25 35t45 16t100 6q62 0 91 -7t31.5 -21.5t-9.5 -35.5z" />
<glyph unicode="&#x26;" horiz-adv-x="1445" d="M1331 307q38 0 50 -28.5t12 -126.5q0 -78 -12 -107t-50 -41q-56 -18 -147 -18q-83 0 -134.5 23t-80.5 73q-155 -102 -355 -102q-260 0 -394 100t-134 295q0 123 46.5 207.5t127.5 115.5q-76 40 -113.5 114.5t-37.5 170.5q0 393 512 393q255 0 382.5 -92t131.5 -299 q1 -58 -38.5 -75t-154.5 -17q-68 0 -100 6.5t-43.5 21.5t-12.5 46q-3 59 -39.5 83.5t-111.5 24.5q-73 0 -115.5 -32t-42.5 -99q0 -77 35.5 -108t120.5 -31h22q29 0 38 -22.5t9 -96.5t-9 -96.5t-38 -22.5h-18q-96 0 -141 -32t-45 -105q0 -76 44.5 -106.5t149.5 -30.5 q139 0 200.5 46.5t61.5 141.5v86h-71q-29 0 -38.5 23t-9.5 96t9.5 96t38.5 23h507q29 0 38.5 -23t9.5 -96t-9.5 -96t-38.5 -23h-126v-141v-10q3 -113 57 -113q8 0 28 2t29 2z" />
<glyph unicode="'" horiz-adv-x="442" d="M96 969l-24 405q-2 31 25 41t124 10q98 0 125 -10t25 -41l-25 -405q-2 -30 -23.5 -38.5t-101.5 -8.5t-101.5 8.5t-23.5 38.5z" />
<glyph unicode="(" horiz-adv-x="790" d="M111 524q0 221 26.5 383.5t85.5 281t156.5 177.5t234.5 59h64q34 0 44.5 -25t10.5 -116q0 -92 -9 -116.5t-42 -24.5h-20q-75 0 -117.5 -59t-62 -192.5t-19.5 -367.5t19.5 -367.5t62 -192t117.5 -58.5h20q33 0 42 -24.5t9 -117.5q0 -91 -10.5 -116t-44.5 -25h-64 q-137 0 -234.5 59t-156.5 177.5t-85.5 281t-26.5 383.5z" />
<glyph unicode=")" horiz-adv-x="790" d="M680 524q0 -221 -27 -383.5t-85.5 -280.5t-156.5 -177.5t-235 -59.5h-63q-34 0 -45 25.5t-11 115.5q0 92 9.5 117t42.5 25h20q75 0 117.5 58.5t62 192t19.5 367.5t-19.5 367.5t-62 192.5t-117.5 59h-20q-33 0 -42.5 24.5t-9.5 116.5q0 90 11 115.5t45 25.5h63 q137 0 235 -59.5t156.5 -177.5t85.5 -280.5t27 -383.5z" />
<glyph unicode="*" horiz-adv-x="1064" d="M213 1229l225 -109l-39 248q-3 28 22 40.5t111 12.5t111.5 -12.5t22.5 -40.5l-41 -248l227 109q26 12 45 -8.5t45 -102.5q23 -88 18.5 -113t-32.5 -28l-246 -35l170 -180q14 -12 14.5 -26t-21 -36t-71.5 -57q-46 -33 -75 -44.5t-41.5 -7t-20.5 22.5l-105 222l-104 -222 q-8 -18 -20.5 -22.5t-41.5 7t-75 44.5q-50 35 -71.5 57t-21 36t14.5 26l170 180l-246 35q-28 3 -32.5 28t18.5 113q26 82 45 102.5t45 8.5z" />
<glyph unicode="+" horiz-adv-x="1187" d="M748 1069v-278h274q23 0 33 -10t14 -40t4 -100q0 -69 -4 -99.5t-14 -40t-33 -9.5h-274v-279q0 -23 -10 -33t-41 -14t-103 -4t-103 4t-41 14t-10 33v279h-274q-23 0 -33 9.5t-14 40t-4 99.5q0 70 4 100t14 40t33 10h274v278q0 23 10 33t41 14t103 4t103 -4t41 -14t10 -33z " />
<glyph unicode="," horiz-adv-x="565" d="M311 387q114 0 146 -14t28 -66q-7 -82 -86 -287t-120 -258q-17 -21 -47.5 -31t-52.5 -11t-79 -1q-38 0 -58.5 3t-32 13.5t-10.5 29t11 49.5q23 69 46.5 207.5t37.5 283.5q3 38 19 54t57.5 22t140.5 6z" />
<glyph unicode="-" horiz-adv-x="856" d="M135 717h586q23 0 33.5 -10t15 -42t4.5 -104t-4.5 -104t-15 -41.5t-33.5 -9.5h-586q-23 0 -33.5 9.5t-15 41.5t-4.5 104t4.5 104t15 42t33.5 10z" />
<glyph unicode="." horiz-adv-x="565" d="M283 -6q-92 0 -132 5t-52.5 17t-12.5 41v271q0 29 12.5 41t52.5 17t132 5t132 -5.5t52 -17t12 -40.5v-271q0 -29 -12 -40.5t-52 -17t-132 -5.5z" />
<glyph unicode="/" horiz-adv-x="778" d="M766 1403l-404 -1516q-7 -25 -18 -35t-46.5 -15t-117.5 -5q-80 0 -117.5 6t-47 18.5t-3.5 37.5l404 1515q7 25 18 35t46.5 15t117.5 5q61 0 95.5 -3t53 -10t21 -18.5t-1.5 -29.5z" />
<glyph unicode="0" horiz-adv-x="1236" d="M618 1290q282 0 411.5 -157.5t129.5 -497.5t-129.5 -497.5t-411.5 -157.5t-411 157t-129 498t129 498t411 157zM618 311q84 0 115 68.5t31 255.5q0 186 -30.5 254.5t-115.5 68.5q-84 0 -114.5 -68t-30.5 -255t30.5 -255.5t114.5 -68.5z" />
<glyph unicode="1" horiz-adv-x="876" d="M303 55v842l-178 -35q-40 -6 -52 26.5t-12 149.5q0 75 4.5 108t15 44.5t36.5 15.5l483 82q50 9 71 -4t21 -53v-1176q0 -29 -12 -40.5t-51.5 -17t-130.5 -5.5t-130.5 5t-52 17t-12.5 41z" />
<glyph unicode="2" horiz-adv-x="1122" d="M571 1290q121 0 212 -30t144.5 -84t79 -121.5t25.5 -149.5q0 -64 -15.5 -121t-39 -99.5t-61 -83.5t-71.5 -69t-79 -59q-36 -24 -109.5 -68t-103.5 -65h440q25 0 36 -10.5t15.5 -45t4.5 -114.5t-4.5 -114.5t-15.5 -45t-36 -10.5h-872q-25 0 -35.5 10.5t-15 44.5t-4.5 115 v41q0 43 11 82t35 72.5t47.5 59.5t64 54.5t67.5 46.5t74.5 46.5t70.5 43.5q48 31 78.5 54t63.5 55t49 67.5t16 75.5q0 50 -21 70t-63 20q-49 0 -73 -19.5t-27 -70.5q-3 -43 -37 -56t-154 -13q-85 0 -124 6.5t-55 24.5t-15 57q4 211 130 307t367 96z" />
<glyph unicode="3" horiz-adv-x="1105" d="M500 496h-105q-29 0 -37 23t-8 116t8 116t37 23h109q74 0 104.5 22.5t30.5 80.5q0 90 -107 90q-96 0 -102 -62q-2 -30 -14.5 -43t-50.5 -19.5t-121 -6.5q-122 0 -157 16t-34 72q2 103 35.5 174.5t98.5 113.5t152.5 60t207.5 18q239 0 357 -96.5t118 -280.5 q0 -190 -158 -274q172 -70 172 -279q0 -190 -124 -285t-367 -95q-121 0 -208.5 17t-155 57t-102 111.5t-36.5 174.5q-1 57 34 73.5t156 16.5q82 0 121 -7t51.5 -21t14.5 -44q3 -53 110 -53q61 0 90 22.5t29 73.5q0 95 -149 95z" />
<glyph unicode="4" horiz-adv-x="1200" d="M803 -6q-90 0 -129.5 5t-51.5 16.5t-12 39.5v224h-506q-36 0 -45.5 24.5t-9.5 124.5q0 67 7.5 96.5t31.5 61.5l483 645q24 31 61.5 40t158.5 9q93 0 134.5 -5t55.5 -17t14 -39v-625h113q36 0 45.5 -27t9.5 -131q0 -74 -4.5 -105.5t-15 -41.5t-35.5 -10h-113v-224 q0 -28 -12 -39.5t-51 -16.5t-129 -5zM381 594h246v334z" />
<glyph unicode="5" horiz-adv-x="1110" d="M528 557q-78 0 -157 -22q-67 -20 -160 -17q-75 1 -100.5 20.5t-22.5 63.5l35 604q2 28 15 40.5t48 18t111 5.5h614q25 0 36 -10.5t15.5 -45t4.5 -114.5t-4.5 -114.5t-15.5 -45t-36 -10.5h-436l-10 -144q78 29 188 29q80 0 146.5 -20t122 -63.5t87 -121t31.5 -182.5 q0 -219 -115 -333.5t-364 -114.5q-112 0 -198 18.5t-153 58.5t-103.5 109t-38.5 166q-1 57 34 73.5t156 16.5q82 0 121 -7t51 -21t14 -44q3 -53 99 -53q110 0 110 127q0 71 -30.5 102t-94.5 31z" />
<glyph unicode="6" horiz-adv-x="1179" d="M719 938q-3 34 -29.5 45.5t-79.5 11.5q-69 0 -104 -52t-47 -187q87 55 233 55q57 0 105 -6t98.5 -20.5t89 -43t69.5 -69.5t47.5 -103.5t16.5 -142.5q0 -91 -26.5 -168.5t-81.5 -141t-151 -100t-224 -36.5q-148 0 -256 41t-173.5 120.5t-96.5 188.5t-31 252 q0 367 132 537.5t417 170.5q202 0 320 -82t124 -247q2 -52 -32.5 -69.5t-145.5 -17.5q-77 0 -112.5 6t-47.5 18t-14 40zM608 276q81 0 116.5 37t35.5 107q0 72 -35 105.5t-115 33.5q-87 0 -157 -37q2 -133 33 -189.5t122 -56.5z" />
<glyph unicode="7" horiz-adv-x="1081" d="M121 72q42 193 177.5 443t283.5 415h-469q-25 0 -36 10.5t-15.5 45t-4.5 114.5t4.5 114.5t15.5 45t36 10.5h848q25 0 35.5 -10.5t15 -44.5t4.5 -115q0 -53 -9 -85.5t-34 -62.5q-127 -159 -251.5 -424t-180.5 -467q-8 -32 -28.5 -45.5t-64 -18.5t-139.5 -5q-68 0 -108 5 t-58.5 14.5t-22.5 24.5t1 36z" />
<glyph unicode="8" horiz-adv-x="1191" d="M74 362q0 193 180 283q-158 81 -158 260q0 192 127 288.5t373 96.5t373 -96.5t127 -288.5q0 -178 -160 -260q182 -91 182 -283q0 -183 -128 -282.5t-394 -99.5t-394 99.5t-128 282.5zM741 381q0 59 -38 95.5t-109 60.5q-69 -24 -106 -60.5t-37 -95.5q0 -105 145 -105 t145 105zM469 899q0 -52 32.5 -84.5t94.5 -56.5q62 24 94.5 56.5t32.5 84.5q0 49 -30 72.5t-97 23.5t-97 -23.5t-30 -72.5z" />
<glyph unicode="9" horiz-adv-x="1179" d="M461 332q3 -34 29.5 -46t78.5 -12q69 0 104.5 52.5t47.5 187.5q-90 -55 -234 -55q-57 0 -105 6t-98.5 20.5t-89 43t-69.5 69.5t-47.5 103.5t-16.5 142.5q0 91 26.5 168.5t82 141t151.5 100t224 36.5q148 0 256 -41t173.5 -120.5t96.5 -188.5t31 -252q0 -367 -132 -537.5 t-417 -170.5q-202 0 -320 82t-124 247q-2 52 32.5 69t145.5 17t141 -11.5t33 -51.5zM571 993q-81 0 -116 -36.5t-35 -106.5q0 -72 34.5 -105.5t114.5 -33.5q94 0 158 34q-3 133 -35 190.5t-121 57.5z" />
<glyph unicode=":" horiz-adv-x="614" d="M307 -6q-92 0 -132 5.5t-52 17t-12 40.5v271q0 29 12 40.5t52 17t132 5.5t132 -5t52.5 -17t12.5 -41v-271q0 -29 -12.5 -41t-52.5 -17t-132 -5zM307 647q-92 0 -132 5.5t-52 17.5t-12 41v270q0 29 12 40.5t52 17t132 5.5t132 -5t52.5 -17t12.5 -41v-270q0 -29 -12 -41 t-52.5 -17.5t-132.5 -5.5z" />
<glyph unicode=";" horiz-adv-x="614" d="M328 387q114 0 146 -14t28 -66q-7 -82 -86.5 -287t-120.5 -258q-17 -21 -47 -31t-52 -11t-79 -1q-38 0 -58.5 3t-32 13.5t-10.5 29t11 49.5q23 69 46.5 207.5t37.5 283.5q3 38 19 54t57.5 22t140.5 6zM307 647q-92 0 -132 5.5t-52 17.5t-12 41v270q0 29 12 40.5t52 17 t132 5.5t132 -5t52.5 -17t12.5 -41v-270q0 -29 -12 -41t-52.5 -17.5t-132.5 -5.5z" />
<glyph unicode="&#x3c;" horiz-adv-x="1187" d="M102 639q0 93 5 116t32 40l721 426q28 16 49 -1.5t72 -103.5q53 -88 58.5 -117.5t-23.5 -42.5l-547 -317l547 -317q29 -13 23.5 -42.5t-58.5 -117.5q-51 -86 -72 -103.5t-49 -1.5l-721 426q-27 17 -32 40t-5 116z" />
<glyph unicode="=" horiz-adv-x="1187" d="M174 541h840q23 0 33 -10t14 -40t4 -100q0 -69 -4 -99.5t-14 -40t-33 -9.5h-840q-23 0 -33 9.5t-14 40t-4 99.5q0 70 4 100t14 40t33 10zM174 1028h840q23 0 33 -9.5t14 -40t4 -99.5q0 -70 -4 -100t-14 -40t-33 -10h-840q-23 0 -33 10t-14 40t-4 100q0 69 4 99.5t14 40 t33 9.5z" />
<glyph unicode="&#x3e;" horiz-adv-x="1187" d="M1085 639q0 -94 -4.5 -116.5t-31.5 -39.5l-721 -426q-28 -16 -49 1.5t-72 103.5q-53 88 -58.5 117.5t23.5 42.5l547 317l-547 317q-29 13 -23.5 42.5t58.5 117.5q51 86 72 103.5t49 1.5l721 -426q27 -17 31.5 -39.5t4.5 -116.5z" />
<glyph unicode="?" horiz-adv-x="1167" d="M745 586l-2 -27q-2 -26 -12.5 -36t-44 -14.5t-113.5 -4.5t-114 4.5t-44.5 14.5t-11.5 36l-2 41q-2 41 11.5 74.5t37 56t52.5 42.5t58 38.5t53 38.5t39.5 49t15.5 64q0 44 -22.5 62.5t-70.5 18.5q-57 0 -82 -19t-28 -71q-3 -43 -37 -56t-154 -13q-85 0 -124 6.5t-55 24.5 t-15 57q4 211 132.5 307t375.5 96q124 0 217.5 -29.5t147 -81.5t79 -115.5t25.5 -137.5q0 -70 -22.5 -125.5t-56 -88.5t-73.5 -62t-74.5 -48.5t-59 -45.5t-26.5 -56zM575 -6q-92 0 -132 5.5t-52 17t-12 40.5v271q0 29 12 40.5t52 17t132 5.5t132 -5t52.5 -17t12.5 -41v-271 q0 -29 -12.5 -41t-52.5 -17t-132 -5z" />
<glyph unicode="@" horiz-adv-x="1851" d="M1038 571v183q-40 12 -92 12q-69 0 -92 -37.5t-23 -132.5q0 -90 22 -129t75 -39q58 0 84 34.5t26 108.5zM1208 -158h-278q-158 0 -280.5 23t-223.5 77.5t-166.5 142t-101 218.5t-35.5 305q0 403 203 585.5t610 182.5q289 0 464 -81.5t254 -247t79 -433.5 q0 -442 -353 -442q-99 0 -165.5 38t-90.5 101q-31 -60 -97.5 -94.5t-152.5 -34.5q-175 0 -261.5 97t-86.5 317q0 230 90 323t322 93q191 0 338 -64q25 -11 35 -26t10 -43v-424q0 -60 15 -85.5t55 -25.5q62 0 82 57t20 213q0 136 -19.5 229.5t-58 156t-107.5 97t-156 48.5 t-216 14q-152 0 -254 -25t-176 -87t-107.5 -169.5t-33.5 -269.5q0 -112 16 -197.5t49.5 -145.5t79 -100.5t111.5 -63.5t139.5 -32.5t169.5 -9.5h291q23 0 31 -21t8 -87q0 -64 -10 -86.5t-42 -22.5z" />
<glyph unicode="A" horiz-adv-x="1314" d="M1096 -6q-139 0 -181 14t-49 66q-10 60 -37 196h-346q-26 -129 -34 -196q-7 -52 -49 -66t-181 -14q-84 0 -122.5 6.5t-50 21.5t-5.5 46q55 257 159.5 629.5t190.5 598.5q15 39 65.5 52.5t200.5 13.5t201 -13.5t66 -52.5q86 -226 190.5 -598.5t159.5 -629.5 q6 -31 -5.5 -46t-50 -21.5t-122.5 -6.5zM657 963q-34 -113 -100 -377h201q-41 163 -101 377z" />
<glyph unicode="B" horiz-adv-x="1273" d="M508 543v-234h141q79 0 116.5 27.5t37.5 89.5q0 61 -37.5 89t-116.5 28h-141zM623 1044h-115v-198h115q66 0 99.5 23t33.5 77q0 53 -33.5 75.5t-99.5 22.5zM322 1356h325q261 0 387.5 -88.5t126.5 -272.5q0 -100 -44.5 -173t-110.5 -105q202 -68 202 -299 q0 -212 -127.5 -315t-390.5 -103h-368q-96 0 -138 5t-55.5 17.5t-13.5 40.5v1229q0 28 13.5 40.5t56 18t137.5 5.5z" />
<glyph unicode="C" horiz-adv-x="1290" d="M82 678q0 366 142 532t452 166q256 0 393.5 -122t142.5 -343q1 -56 -34.5 -70t-161.5 -14q-84 0 -124 6.5t-53.5 20t-15.5 43.5q-9 133 -141 133q-75 0 -116 -31t-60 -107t-19 -214t19 -214t60 -107t116 -31q72 0 107 34.5t40 106.5q2 30 15.5 43.5t53.5 20t124 6.5 q127 0 162.5 -14.5t34.5 -71.5q-5 -227 -143.5 -349t-399.5 -122q-310 0 -452 166t-142 532z" />
<glyph unicode="D" horiz-adv-x="1294" d="M512 344h96q103 0 151 76.5t48 257.5t-48 257.5t-151 76.5h-96v-668zM608 0h-286q-96 0 -138 5t-55.5 17.5t-13.5 40.5v1229q0 28 13.5 40.5t56 18t137.5 5.5h286q318 0 461 -159.5t143 -518.5t-143 -518.5t-461 -159.5z" />
<glyph unicode="E" d="M1022 1020h-514v-162h434q25 0 35 -9.5t15 -44t5 -112.5t-5 -112.5t-15 -44t-35 -9.5h-434v-190h526q25 0 35.5 -10t15.5 -45t5 -113t-5 -113t-15.5 -45t-35.5 -10h-712q-96 0 -138 5t-55.5 17.5t-13.5 40.5v1229q0 28 13.5 40.5t56 18t137.5 5.5h700q24 0 34.5 -10 t15.5 -45t5 -113t-5 -113t-15.5 -45t-34.5 -10z" />
<glyph unicode="F" horiz-adv-x="1118" d="M512 485v-430q0 -29 -12.5 -41t-53 -17t-133.5 -5t-133.5 5.5t-52.5 17t-12 40.5v1237q0 28 13.5 40.5t56 18t137.5 5.5h688q24 0 34.5 -10t15.5 -45t5 -113t-5 -113t-15.5 -45t-34.5 -10h-502v-203h434q25 0 35 -9.5t15 -44t5 -112.5t-5 -112.5t-15 -44t-35 -9.5h-430z " />
<glyph unicode="G" horiz-adv-x="1327" d="M1065 764q58 0 92 -5.5t52 -20.5t23 -34.5t5 -54.5v-205q0 -232 -140.5 -348t-400.5 -116q-323 0 -468.5 165.5t-145.5 532.5q0 365 144.5 531.5t457.5 166.5q263 0 400 -109t137 -309q0 -51 -37 -66t-160 -15q-81 0 -121.5 6t-55.5 19t-16 40q-3 96 -139 96 q-118 0 -165.5 -78.5t-47.5 -281.5q0 -204 50 -282.5t176 -78.5q84 0 119.5 28.5t35.5 90.5v41h-151q-22 0 -31 9.5t-12.5 38t-3.5 96.5t3.5 96.5t12.5 37.5t31 9h356z" />
<glyph unicode="H" horiz-adv-x="1388" d="M1075 -6q-93 0 -133.5 5.5t-52.5 17t-12 40.5v463h-365v-463q0 -29 -12.5 -41t-53 -17t-133.5 -5t-133.5 5.5t-52.5 17t-12 40.5v1241q0 29 12 41t52.5 17.5t133.5 5.5t133.5 -5.5t53 -17.5t12.5 -41v-434h365v434q0 29 12 41t52.5 17.5t133.5 5.5t133.5 -5.5t53 -17.5 t12.5 -41v-1241q0 -29 -12.5 -41t-53 -17t-133.5 -5z" />
<glyph unicode="I" horiz-adv-x="634" d="M317 -8q-93 0 -133.5 5.5t-52.5 17t-12 40.5v1243q0 29 12 41t52.5 17.5t133.5 5.5t133.5 -5.5t53 -17.5t12.5 -41v-1243q0 -29 -12.5 -41t-53 -17t-133.5 -5z" />
<glyph unicode="J" horiz-adv-x="1126" d="M614 512v786q0 29 12.5 41t53 17.5t133.5 5.5t133.5 -5.5t53 -17.5t12.5 -41v-794q0 -135 -24.5 -229.5t-80.5 -162.5t-150.5 -100t-232.5 -32q-474 0 -477 450q-1 57 34.5 71.5t162.5 14.5q84 0 123.5 -6.5t53 -20t15.5 -43.5q3 -59 20 -82.5t68 -23.5q57 0 73.5 32.5 t16.5 139.5z" />
<glyph unicode="K" horiz-adv-x="1351" d="M1286 1270l-393 -574l407 -610q36 -55 -26 -75q-53 -17 -195 -17q-97 0 -145.5 11.5t-71.5 47.5l-307 469h-43v-465q0 -29 -12.5 -41t-53 -17t-133.5 -5t-133.5 5.5t-52.5 17t-12 40.5v1241q0 29 12 41t52.5 17.5t133.5 5.5t133.5 -5.5t53 -17.5t12.5 -41v-436h35 l309 453q19 28 66.5 37.5t142.5 9.5q211 0 233 -42q8 -20 -12 -50z" />
<glyph unicode="L" horiz-adv-x="1069" d="M512 1298v-962h428q24 0 34.5 -10t15.5 -45t5 -113t-5 -113t-15.5 -45t-34.5 -10h-618q-96 0 -138 5t-55.5 17.5t-13.5 40.5v1235q0 29 12 41t52.5 17.5t133.5 5.5t133.5 -5.5t53 -17.5t12.5 -41z" />
<glyph unicode="M" horiz-adv-x="1769" d="M885 137q-102 0 -132.5 9.5t-39.5 41.5l-205 680v-811q0 -29 -12.5 -41t-52.5 -17t-132 -5t-132 5.5t-52 17t-12 40.5v1233q0 30 20.5 44.5t83 21t195.5 6.5q167 0 220.5 -12t65.5 -52l187 -643l190 643q8 28 31.5 40.5t78 18t169.5 5.5q133 0 195.5 -6.5t83 -21 t20.5 -44.5v-1233q0 -29 -12.5 -41t-52.5 -17t-132 -5t-132 5.5t-52 17t-12 40.5v811l-205 -680q-9 -32 -39.5 -41.5t-132.5 -9.5z" />
<glyph unicode="N" horiz-adv-x="1417" d="M1104 1362q93 0 133.5 -5.5t53 -17.5t12.5 -41v-1239q0 -29 -13 -41t-58.5 -18t-148.5 -6t-140.5 11.5t-53.5 41.5l-377 658v-648q0 -29 -12.5 -41t-53 -17t-133.5 -5t-133.5 5.5t-52.5 17t-12 40.5v1239q0 29 12.5 41.5t58 18.5t148.5 6t140.5 -11.5t53.5 -41.5 l377 -660v649q0 29 12.5 41t53 17.5t133.5 5.5z" />
<glyph unicode="O" horiz-adv-x="1380" d="M690 1376q323 0 465.5 -165t142.5 -533t-142.5 -533t-465.5 -165t-465.5 165t-142.5 533t142.5 533t465.5 165zM690 319q117 0 160 76.5t43 282.5t-43 282t-160 76t-160 -76t-43 -282t43 -282.5t160 -76.5z" />
<glyph unicode="P" horiz-adv-x="1257" d="M643 422h-131v-365q0 -29 -12.5 -41t-53 -17t-133.5 -5t-133.5 5.5t-52.5 17t-12 40.5v1235q0 28 13.5 40.5t56 18t137.5 5.5h321q287 0 412 -109.5t125 -357.5t-125 -357.5t-412 -109.5zM512 1020v-262h119q79 0 112 29t33 102t-33 102t-112 29h-119z" />
<glyph unicode="Q" horiz-adv-x="1380" d="M690 1376q323 0 465.5 -165t142.5 -533q0 -263 -71.5 -420.5t-225.5 -224.5q65 -9 144 -6q25 0 35.5 -10.5t15 -45t4.5 -116.5t-4.5 -116.5t-15 -45t-35.5 -10.5q-172 0 -327.5 79t-254.5 226q-253 29 -367 194t-114 496q0 368 142.5 533t465.5 165zM690 319 q117 0 160 76.5t43 282.5t-43 282t-160 76t-160 -76t-43 -282t43 -282.5t160 -76.5z" />
<glyph unicode="R" horiz-adv-x="1269" d="M535 475h-23v-418q0 -29 -12.5 -41t-53 -17t-133.5 -5t-133.5 5.5t-52.5 17t-12 40.5v1235q0 28 13.5 40.5t56 18t137.5 5.5h309q285 0 410.5 -106.5t125.5 -342.5q0 -251 -202 -356q59 -37 102 -96q99 -141 137 -367q5 -25 3 -42.5t-20.5 -29t-66 -17t-133.5 -5.5 q-80 0 -118.5 6t-51 17t-18.5 36q-34 156 -101 285q-72 130 -163 137zM512 1024v-238h106q83 0 114.5 23t31.5 96q0 64 -34 91.5t-112 27.5h-106z" />
<glyph unicode="S" horiz-adv-x="1204" d="M584 299q86 0 117.5 16.5t31.5 65.5q0 26 -14.5 46t-55.5 39t-71 29.5t-103 33.5q-8 3 -12.5 4.5t-12 3.5t-13.5 4q-125 41 -176 68q-187 99 -198 321q-1 15 -1 31q0 107 25.5 182t85.5 128.5t161.5 79t249.5 25.5q141 0 239.5 -26.5t154 -78t79.5 -117.5t25 -155 q0 -38 -14.5 -54.5t-55 -23t-133.5 -6.5q-84 0 -120.5 6t-48 19t-13.5 45q-2 35 -25.5 53.5t-91.5 18.5q-80 0 -102.5 -20.5t-22.5 -67.5q0 -17 10 -32.5t33 -31t45 -27t62.5 -27t68 -25t77.5 -26.5q10 -3 15 -5l27 -9q35 -12 53 -18t50.5 -19.5t50 -24.5t44.5 -30t42 -38.5 t33 -48t27.5 -60.5t16 -74t6.5 -90q0 -103 -26.5 -175t-89 -125t-169.5 -78t-263 -25q-145 0 -246 26.5t-158 79t-82 119t-26 155.5q0 38 14.5 54.5t54.5 23t133 6.5q85 0 121.5 -5.5t48.5 -18.5t13 -45q2 -40 29.5 -58t99.5 -18z" />
<glyph unicode="T" horiz-adv-x="1167" d="M1063 1012h-281v-955q0 -29 -12 -40.5t-52.5 -17t-133.5 -5.5t-133.5 5t-53 17t-12.5 41v955h-281q-25 0 -35.5 10.5t-15 45t-4.5 116.5t4.5 116.5t15 45t35.5 10.5h959q25 0 35.5 -10.5t15 -45t4.5 -116.5t-4.5 -116.5t-15 -45t-35.5 -10.5z" />
<glyph unicode="U" horiz-adv-x="1363" d="M682 -20q-313 0 -444.5 127.5t-131.5 422.5v768q0 29 12.5 41t53 17.5t133.5 5.5t133.5 -5.5t53 -17.5t12.5 -41v-753q0 -115 37.5 -160t140.5 -45t140.5 45t37.5 160v753q0 29 12.5 41t53 17.5t133.5 5.5t133.5 -5.5t52.5 -17.5t12 -41v-768q0 -295 -131 -422.5 t-444 -127.5z" />
<glyph unicode="V" horiz-adv-x="1318" d="M1100 1362q84 0 122.5 -6.5t50 -21.5t5.5 -46q-55 -243 -167.5 -618.5t-201.5 -610.5q-11 -27 -31 -40t-70 -19t-149 -6t-148.5 6t-69.5 19t-31 40q-89 235 -201.5 610.5t-167.5 618.5q-11 45 23 59.5t155 14.5q138 0 179.5 -14t50.5 -66q49 -274 210 -831 q155 533 211 831q9 52 50.5 66t179.5 14z" />
<glyph unicode="W" horiz-adv-x="2101" d="M1866 1362q84 0 122.5 -6.5t50 -21.5t5.5 -46q-47 -236 -148 -613.5t-180 -615.5q-12 -39 -57 -52t-180 -13q-99 0 -146 6.5t-63 18.5t-25 40q-81 251 -194 723q-100 -418 -195 -723q-9 -28 -25 -40t-62.5 -18.5t-145.5 -6.5q-135 0 -180.5 13t-57.5 52 q-79 238 -180 615.5t-148 613.5q-6 31 5.5 46t50.5 21.5t123 6.5q138 0 179 -14t50 -66q47 -300 168 -799q140 535 188 799q7 38 22.5 53t59 21t148.5 6t148 -6t58.5 -21t22.5 -53q48 -264 188 -799q109 448 168 799q9 52 50.5 66t179.5 14z" />
<glyph unicode="X" horiz-adv-x="1388" d="M1008 696l325 -610q28 -52 -11 -71q-42 -21 -206 -21q-96 0 -145 11.5t-68 47.5l-209 410l-209 -410q-19 -36 -68 -47.5t-145 -11.5q-186 0 -219 29q-22 19 2 63l326 610l-311 574q-28 52 11 71q44 21 206 21q97 0 145 -11t68 -48l194 -373l195 373q20 37 68 48t145 11 q186 0 219 -29q22 -19 -2 -63z" />
<glyph unicode="Y" horiz-adv-x="1282" d="M827 1296q10 29 29 42t63 18.5t138 5.5q69 0 108 -3.5t60 -12t22.5 -22t-6.5 -34.5q-57 -138 -182.5 -392.5t-218.5 -412.5v-430q0 -29 -12.5 -41t-53 -17t-133.5 -5t-133.5 5t-53 17t-12.5 41v430q-93 158 -218.5 412.5t-182.5 392.5q-8 21 -6.5 34.5t22.5 22t60 12 t108 3.5q94 0 138 -5.5t63 -18.5t29 -42q59 -177 186 -462q113 253 186 462z" />
<glyph unicode="Z" horiz-adv-x="1232" d="M166 1356h897q25 0 35.5 -10.5t15 -45t4.5 -116.5q0 -121 -39 -172l-485 -668h485q25 0 36 -10.5t15.5 -45.5t4.5 -116t-4.5 -116t-15.5 -45.5t-36 -10.5h-929q-25 0 -36 10.5t-15.5 45.5t-4.5 116q0 121 39 172l483 668h-450q-25 0 -35.5 10.5t-15 45t-4.5 116.5 t4.5 116.5t15 45t35.5 10.5z" />
<glyph unicode="[" horiz-adv-x="790" d="M156 -309v1667q0 28 13.5 40.5t55 17.5t137.5 5h304q34 0 44.5 -25t10.5 -116q0 -92 -9 -116.5t-42 -24.5h-170v-1229h170q33 0 42 -24.5t9 -116.5q0 -63 -5 -93t-16 -39.5t-34 -9.5h-304q-95 0 -137 5.5t-55.5 17.5t-13.5 41z" />
<glyph unicode="\" horiz-adv-x="778" d="M416 -113l-404 1516q-4 18 -1.5 29.5t21 18.5t53 10t95.5 3q82 0 117.5 -5t46.5 -15t18 -35l404 -1515q6 -25 -3.5 -37.5t-47 -18.5t-117.5 -6q-82 0 -117.5 5t-46.5 15t-18 35z" />
<glyph unicode="]" horiz-adv-x="790" d="M635 1358v-1667q0 -28 -13.5 -40.5t-56 -18t-137.5 -5.5h-303q-23 0 -34 9.5t-16 39.5t-5 93q0 92 9 116.5t42 24.5h170v1229h-170q-33 0 -42 24.5t-9 116.5q0 91 10.5 116t44.5 25h303q96 0 138 -5t55.5 -17.5t13.5 -40.5z" />
<glyph unicode="^" horiz-adv-x="1187" d="M594 1372q114 0 150 -10t51 -39l307 -586q20 -38 -9 -51q-31 -14 -155 -14q-73 0 -110.5 6t-52 16.5t-25.5 34.5l-156 332l-156 -332q-11 -24 -25.5 -34.5t-52 -16.5t-110.5 -6q-147 0 -167 22q-13 13 3 43l307 586q15 29 51 39t150 10z" />
<glyph unicode="_" horiz-adv-x="868" d="M848 -350h-828q-24 0 -30 18t-6 92t6 92.5t30 18.5h828q24 0 30.5 -19t6.5 -92t-6.5 -91.5t-30.5 -18.5z" />
<glyph unicode="`" horiz-adv-x="819" d="M547 1124l-363 144q-16 7 -20.5 17.5t3.5 39.5t34 82q27 53 45 77.5t30 26.5t25 -6l334 -207q24 -12 23.5 -31t-29.5 -75q-26 -54 -41 -66t-41 -2z" />
<glyph unicode="a" horiz-adv-x="1110" d="M451 700q0 -28 -8 -37.5t-41 -14.5t-115 -5q-53 0 -81 1.5t-51 5t-32 13t-13 22.5t-4 36q0 75 22 131.5t72.5 101t140 67.5t216.5 23q134 0 225 -25t142.5 -76t73.5 -119.5t22 -164.5v-606q0 -27 -11.5 -38t-48.5 -16t-122 -5q-84 0 -122 5.5t-49 16.5t-12 37l-2 62 q-42 -62 -106.5 -94.5t-173.5 -32.5q-87 0 -150.5 23.5t-98.5 65t-51 90.5t-16 109q0 165 94 232t308 67h194v64q0 66 -19 90.5t-89 24.5q-94 0 -94 -54zM653 379h-137q-63 0 -88 -16.5t-25 -57.5q0 -34 22 -48.5t77 -14.5q67 0 109 29.5t42 80.5v27z" />
<glyph unicode="b" horiz-adv-x="1212" d="M471 1364v-446q89 126 279 126q191 0 288 -125t97 -407t-97 -407t-288 -125q-194 0 -285 131l-2 -58q-1 -26 -12 -37t-48.5 -16.5t-121.5 -5.5q-85 0 -122.5 5t-49 16.5t-11.5 37.5v1311q0 26 12 37.5t50 16.5t125 5t125 -5t49.5 -16t11.5 -38zM471 512 q0 -126 32.5 -177.5t114.5 -51.5q75 0 105.5 51.5t30.5 177.5t-30.5 177.5t-105.5 51.5q-82 0 -114.5 -51.5t-32.5 -177.5z" />
<glyph unicode="c" horiz-adv-x="1093" d="M575 733q-70 0 -95 -47.5t-25 -173.5q0 -125 27.5 -173t97.5 -48q50 0 68.5 15t21.5 48q2 28 11.5 41t43 20t104.5 7q131 0 164.5 -12.5t32.5 -65.5q-2 -78 -23.5 -139.5t-70 -114t-139 -81.5t-218.5 -29q-257 0 -379 130t-122 402q0 273 120 402.5t377 129.5 q103 0 181.5 -19t127.5 -50.5t80 -78.5t43.5 -96.5t14.5 -111.5q1 -53 -32.5 -65.5t-164.5 -12.5q-71 0 -104.5 7t-43 20t-11.5 41t-20.5 41.5t-66.5 13.5z" />
<glyph unicode="d" horiz-adv-x="1212" d="M750 53l-5 58q-88 -131 -282 -131q-191 0 -288 125t-97 407t97 407t288 125q187 0 278 -126v446q0 26 12 37.5t50 16.5t125 5t125 -5t49.5 -16t11.5 -38v-1311q0 -27 -11.5 -38t-48.5 -16t-122 -5q-84 0 -121.5 5.5t-48.5 16.5t-12 37zM741 512q0 126 -32.5 177.5 t-114.5 51.5q-75 0 -105 -51.5t-30 -177.5t30 -177.5t105 -51.5q82 0 114.5 51.5t32.5 177.5z" />
<glyph unicode="e" horiz-adv-x="1116" d="M987 434h-543q7 -99 41.5 -137.5t106.5 -38.5q45 0 69.5 14.5t26.5 38.5q2 27 9.5 37t41 15.5t113.5 5.5q54 0 82 -1.5t51 -5t31 -13t12 -22.5t4 -36q0 -59 -24.5 -112.5t-74.5 -99t-139 -72.5t-206 -27q-262 0 -388 130t-126 402q0 274 120.5 403t383.5 129 q236 0 352.5 -125t116.5 -348v-45q0 -54 -11 -73t-49 -19zM584 766q-67 0 -98.5 -35.5t-39.5 -112.5h248v23q0 60 -23 92.5t-87 32.5z" />
<glyph unicode="f" horiz-adv-x="802" d="M711 717h-158v-664q0 -27 -11.5 -38t-49.5 -16t-125 -5t-125 5t-50 16.5t-12 37.5v664h-96q-23 0 -33 9t-14 39.5t-4 100.5t4.5 100t13.5 39t33 11l96 8v47q0 79 12 140t37 101t56 67t76 40.5t89.5 19t102.5 5.5q109 0 180 -23q39 -12 50.5 -38t11.5 -107q0 -65 -7 -97.5 t-18 -41.5t-33 -9q-17 0 -47 4.5t-47 4.5q-51 0 -76.5 -17t-25.5 -57v-39h170q33 0 42 -26.5t9 -127.5t-9 -127t-42 -26z" />
<glyph unicode="g" horiz-adv-x="1216" d="M446 -45q0 -70 125 -70q87 0 122.5 25t35.5 90q0 58 -28.5 86t-94.5 37h-35q-251 0 -366 113t-115 348q0 234 115 347t366 113q156 0 260 -49l289 47q25 3 35.5 -2t17.5 -36t7 -101q0 -96 -7.5 -118.5t-39.5 -22.5h-105q25 -83 25 -178q0 -232 -148 -357 q156 -88 156 -280q0 -168 -111 -252t-372 -84q-253 0 -362.5 83.5t-109.5 239.5q0 53 30.5 65.5t148.5 12.5q79 0 111.5 -4.5t41 -15t8.5 -37.5zM571 408q74 0 101.5 39.5t27.5 136.5t-27.5 136.5t-101.5 39.5q-71 0 -100 -40t-29 -136t29 -136t100 -40z" />
<glyph unicode="h" horiz-adv-x="1204" d="M471 1364v-457q37 58 112 97.5t185 39.5q178 0 260 -89.5t82 -282.5v-619q0 -27 -11.5 -38t-49.5 -16t-125 -5t-125 5t-50 16.5t-12 37.5v549q0 68 -27 95.5t-89 27.5q-150 0 -150 -147v-525q0 -27 -11.5 -38t-49.5 -16t-125 -5t-125 5t-50 16.5t-12 37.5v1311 q0 26 12 37.5t50 16.5t125 5t125 -5t49.5 -16t11.5 -38z" />
<glyph unicode="i" horiz-adv-x="569" d="M98 53v918q0 26 12 37.5t50 16.5t125 5t125 -5t49.5 -16t11.5 -38v-918q0 -27 -11.5 -38t-49.5 -16t-125 -5t-125 5t-50 16.5t-12 37.5zM285 1423q55 0 86.5 -2t55.5 -6t34 -14.5t14 -24t4 -37.5v-114q0 -24 -4 -37.5t-14 -24t-34 -14.5t-55.5 -6t-86.5 -2 q-129 0 -162 14t-33 70v114q0 56 33 70t162 14z" />
<glyph unicode="j" horiz-adv-x="589" d="M12 -47q9 0 29.5 -2t28.5 -2q30 0 43.5 15t13.5 59v948q0 27 11.5 38t49.5 16t125 5t125 -5t50 -16.5t12 -37.5v-987q0 -80 -10 -140t-31 -101t-48 -67t-68 -40.5t-83 -19.5t-100 -5q-92 0 -148 18q-39 12 -50 40t-11 118q0 76 5.5 110.5t17 45t38.5 10.5zM313 1423 q129 0 162 -14t33 -70v-114q0 -56 -33 -70t-162 -14q-55 0 -86.5 2t-55.5 6t-34 14.5t-14 24t-4 37.5v114q0 24 4 37.5t14 24t34 14.5t55.5 6t86.5 2z" />
<glyph unicode="k" horiz-adv-x="1179" d="M471 1364v-668h39l217 291q17 25 61 34t132 9q201 0 219 -38q7 -17 -11 -42l-311 -405l328 -471q34 -48 -26 -65q-51 -15 -183 -15q-88 0 -132 9t-61 34l-227 352h-45v-336q0 -27 -11.5 -38t-49.5 -16t-125 -5t-125 5t-50 16.5t-12 37.5v1311q0 26 12 37.5t50 16.5t125 5 t125 -5t49.5 -16t11.5 -38z" />
<glyph unicode="l" horiz-adv-x="614" d="M510 315h10q27 0 38.5 -10t17.5 -43.5t6 -105.5q0 -102 -15 -131t-67 -29h-115q-169 0 -228 59.5t-59 231.5v1077q0 26 12 37.5t50 16.5t125 5t125 -5t49.5 -16t11.5 -38v-1006q0 -25 8.5 -34t30.5 -9z" />
<glyph unicode="m" horiz-adv-x="1781" d="M1075 580v-527q0 -27 -11 -38t-48.5 -16t-124.5 -5t-124.5 5t-48.5 16t-11 38v549q0 123 -109 123q-61 0 -96 -37t-35 -108v-527q0 -27 -11.5 -38t-49.5 -16t-125 -5t-125 5t-50 16.5t-12 37.5v918q0 27 11.5 38t48.5 16t122 5q84 0 122 -5.5t49 -16.5t12 -37l4 -70 q36 59 108.5 101t178.5 42q220 0 292 -143q109 143 310 143q169 0 252.5 -82t83.5 -274v-635q0 -26 -12 -37.5t-50 -16.5t-125 -5t-125 5t-49.5 16t-11.5 38v549q0 123 -111 123q-61 0 -95 -37t-34 -108z" />
<glyph unicode="n" horiz-adv-x="1196" d="M459 971l4 -70q36 60 110.5 101.5t188.5 41.5q178 0 259 -89.5t81 -282.5v-619q0 -26 -12 -37.5t-50 -16.5t-125 -5t-125 5t-49.5 16t-11.5 38v549q0 68 -26.5 95.5t-88.5 27.5q-147 0 -147 -147v-525q0 -27 -11.5 -38t-49.5 -16t-125 -5t-125 5t-50 16.5t-12 37.5v918 q0 27 11.5 38t48.5 16t122 5q84 0 122 -5.5t49 -16.5t12 -37z" />
<glyph unicode="o" horiz-adv-x="1159" d="M580 1044q264 0 384.5 -129t120.5 -403t-120.5 -403t-384.5 -129t-385 129.5t-121 402.5t121 402.5t385 129.5zM580 279q74 0 100.5 51.5t26.5 181.5t-26.5 181.5t-100.5 51.5t-100.5 -51.5t-26.5 -181.5t26.5 -181.5t100.5 -51.5z" />
<glyph unicode="p" horiz-adv-x="1208" d="M459 971l4 -64q87 137 282 137q191 0 288 -125t97 -407t-97 -407t-288 -125t-278 118v-413q0 -27 -11.5 -38t-50 -16.5t-124.5 -5.5q-87 0 -125.5 5.5t-50 16.5t-11.5 38v1286q0 27 11.5 38t48.5 16t122 5q84 0 122 -5.5t49 -16.5t12 -37zM467 512q0 -126 32.5 -177.5 t114.5 -51.5q75 0 105.5 51.5t30.5 177.5t-30.5 177.5t-105.5 51.5q-82 0 -114.5 -51.5t-32.5 -177.5z" />
<glyph unicode="q" horiz-adv-x="1208" d="M928 -375q-87 0 -125.5 5.5t-50 16.5t-11.5 38v413q-90 -118 -278 -118q-191 0 -288 125t-97 407t97 407t288 125q192 0 282 -137l5 64q1 26 12 37t48.5 16.5t121.5 5.5q85 0 122 -5t48.5 -16t11.5 -38v-1286q0 -27 -11.5 -38t-50 -16.5t-124.5 -5.5zM741 512 q0 126 -32.5 177.5t-114.5 51.5q-75 0 -105 -51.5t-30 -177.5t30 -177.5t105 -51.5q82 0 114.5 51.5t32.5 177.5z" />
<glyph unicode="r" horiz-adv-x="851" d="M745 664q-132 0 -205 -51.5t-73 -155.5v-404q0 -27 -11.5 -38t-49.5 -16t-125 -5t-125 5t-50 16.5t-12 37.5v918q0 27 11.5 38t48.5 16t122 5q84 0 122 -5.5t49 -16.5t12 -37l4 -131q34 76 109.5 136t172.5 60q46 0 58 -31.5t12 -154.5t-12 -154.5t-58 -31.5z" />
<glyph unicode="s" horiz-adv-x="1028" d="M381 287q0 -49 104 -49q70 0 92.5 12t22.5 43q0 12 -4.5 21.5t-15.5 17.5t-21 14t-31 13t-35 11.5t-43.5 13t-46.5 13.5q-130 39 -185 70q-149 86 -150 264q0 82 20.5 138.5t70.5 97t136.5 59t216.5 18.5q126 0 210.5 -19.5t129 -59.5t62.5 -89t18 -118q0 -35 -11 -50 t-45.5 -21.5t-113.5 -6.5q-72 0 -103.5 5t-41 15.5t-9.5 36.5q0 49 -88 49q-57 0 -75.5 -13t-18.5 -42q0 -23 23 -41.5t46.5 -27.5t75.5 -25q13 -4 19 -6q16 -5 48 -14q36 -10 53.5 -15.5t49 -16t47.5 -18t41 -20.5t38 -25.5t30.5 -30t26.5 -37t18 -44.5t12.5 -54.5 t3.5 -64.5q0 -80 -22 -135.5t-74.5 -96t-142.5 -60t-223 -19.5q-104 0 -181 13.5t-126 37.5t-79 60.5t-41.5 78.5t-11.5 96q0 35 11 50t45.5 21.5t113.5 6.5q72 0 103.5 -5t41 -15.5t9.5 -36.5z" />
<glyph unicode="t" horiz-adv-x="884" d="M764 717h-219v-355q0 -28 17 -43.5t46 -15.5q41 0 84 16q36 12 58 -6t53 -102q26 -68 26 -105q0 -40 -43 -65q-90 -57 -278 -57t-262 83.5t-74 268.5v381h-92q-23 0 -33 9t-14 39.5t-4 100.5t4.5 100t13.5 39t33 11l108 8v219q0 26 12.5 36.5t47.5 14.5t119 4t118.5 -4 t47 -14.5t12.5 -36.5v-219h219q33 0 42 -26.5t9 -127.5t-9 -127t-42 -26z" />
<glyph unicode="u" d="M713 53l-4 70q-86 -143 -287 -143q-175 0 -255.5 96.5t-80.5 292.5v602q0 27 11.5 38t49.5 16t125 5t125 -5t50 -16.5t12 -37.5v-547q0 -68 25.5 -96.5t88.5 -28.5q72 0 102 34t30 109v529q0 27 11.5 38t49.5 16t125 5t125 -5t49.5 -16t11.5 -38v-918q0 -27 -11.5 -38 t-48.5 -16t-122 -5q-84 0 -121.5 5.5t-48.5 16.5t-12 37z" />
<glyph unicode="v" horiz-adv-x="1134" d="M901 1030q94 0 139.5 -7.5t57 -22t4.5 -42.5q-41 -157 -140 -440.5t-176 -464.5q-14 -34 -54.5 -45.5t-164.5 -11.5t-164.5 11.5t-54.5 45.5q-76 180 -175 463.5t-140 441.5q-7 28 4.5 42.5t56.5 22t139 7.5q107 0 141 -9t40 -40q80 -361 153 -621q90 332 154 621 q6 31 39.5 40t140.5 9z" />
<glyph unicode="w" horiz-adv-x="1744" d="M1511 1030q80 0 120.5 -5.5t53.5 -15.5t13 -30q0 -13 -2 -21q-30 -163 -104 -446.5t-134 -458.5q-8 -23 -24 -34.5t-59.5 -17t-129.5 -5.5q-125 0 -167 11.5t-54 45.5q-44 116 -152 514q-12 -43 -38 -137.5t-40.5 -146t-35 -118.5t-37.5 -112q-12 -34 -54 -45.5 t-167 -11.5q-86 0 -129.5 5.5t-59.5 17t-24 34.5q-60 175 -134 458.5t-104 446.5q-2 8 -2 25q0 19 13.5 28.5t53.5 14t119 4.5q108 0 143.5 -9t39.5 -40q80 -500 106 -635q88 310 166 635q5 21 20.5 31t51.5 14t112 4t112 -4t52 -14t21 -31q60 -259 162 -627q42 212 110 627 q4 31 39 40t143 9z" />
<glyph unicode="x" horiz-adv-x="1183" d="M721 51l-129 301l-129 -301q-16 -33 -62 -45t-135 -12q-200 0 -221 41q-9 16 6 43l221 444l-225 424q-28 50 33 69q52 15 182 15q89 0 135 -11t60 -40l135 -295l135 295q14 29 60 40t135 11q200 0 221 -41q9 -16 -6 -43l-226 -424l222 -444q28 -50 -33 -69 q-52 -15 -182 -15q-90 0 -136.5 12t-60.5 45z" />
<glyph unicode="y" horiz-adv-x="1134" d="M326 -68q65 0 91 18t44 68q-51 6 -72.5 18.5t-32.5 37.5q-75 164 -177.5 445t-145.5 439q-6 20 -2 33.5t25 22t61.5 12.5t109.5 4q104 0 137 -9t39 -40q71 -291 168 -604q108 368 156 604q6 31 39 40t137 9q91 0 135.5 -7.5t57 -22t6.5 -42.5q-40 -161 -139.5 -475.5 t-202.5 -605.5q-32 -94 -77.5 -150t-125.5 -86t-203 -30q-83 0 -139 18q-37 11 -49 38t-12 114q0 74 6.5 108.5t18 43t36.5 8.5q14 0 48.5 -4.5t62.5 -4.5z" />
<glyph unicode="z" horiz-adv-x="995" d="M874 717l-382 -410h391q33 0 42 -26t9 -127t-9 -127.5t-42 -26.5h-774q-33 0 -42.5 24t-9.5 115q0 75 8 105.5t37 62.5l383 410h-360q-33 0 -42 26t-9 127t9 127.5t42 26.5h745q33 0 42.5 -23t9.5 -108q0 -77 -9 -110t-39 -66z" />
<glyph unicode="{" horiz-adv-x="790" d="M41 524q0 63 5 93t16 39.5t34 9.5h37q38 0 54 52.5t16 184.5q0 53 1 90t6 85t13.5 81t24 72t37.5 65t55 52t75 41t99 24.5t125 9.5h63q34 0 45 -25.5t11 -115.5q0 -92 -9 -116.5t-42 -24.5h-45q-29 0 -47 -9t-30.5 -27.5t-18.5 -57.5t-8.5 -89.5t-2.5 -132.5 q0 -116 -37 -196.5t-112 -104.5q75 -24 112 -104.5t37 -196.5q0 -82 2.5 -132.5t8.5 -89.5t18.5 -57.5t30.5 -27t47 -8.5h45q33 0 42 -24.5t9 -116.5q0 -91 -11 -116.5t-45 -25.5h-63q-68 0 -125 9.5t-99 24.5t-75 41t-55 52t-37.5 65t-24 72t-13.5 81t-6 85t-1 90 q0 132 -16 185t-54 53h-37q-34 0 -44.5 25t-10.5 116z" />
<glyph unicode="|" horiz-adv-x="712" d="M528 1366v-1724q0 -24 -10.5 -35t-46.5 -16t-115 -5t-115 5t-46.5 16t-10.5 35v1724q0 24 11 34.5t46.5 15.5t114.5 5t114.5 -5t46.5 -15.5t11 -34.5z" />
<glyph unicode="}" horiz-adv-x="790" d="M750 524q0 -90 -11 -115.5t-45 -25.5h-37q-37 0 -53 -52.5t-16 -185.5q0 -53 -1 -90t-6 -85t-13.5 -81t-24 -72t-37.5 -65t-55 -52t-75 -41t-99 -24.5t-125 -9.5h-64q-23 0 -34 9.5t-16 39.5t-5 93q0 92 9 116.5t42 24.5h45q29 0 47 8.5t30.5 27t18.5 57.5t8.5 89.5 t2.5 132.5q0 116 37 196.5t112 104.5q-75 24 -112 104.5t-37 196.5q0 82 -2.5 132.5t-8.5 89.5t-18.5 57.5t-30.5 27.5t-47 9h-45q-33 0 -42 24.5t-9 116.5q0 91 10.5 116t44.5 25h64q68 0 125 -9.5t99 -24.5t75 -41t55 -52t37.5 -65t24 -72t13.5 -81t6 -85t1 -90 q0 -133 16 -185t53 -52h37q34 0 45 -25.5t11 -116.5z" />
<glyph unicode="~" horiz-adv-x="1187" d="M561 731l137 -69q52 -27 80 -27q68 0 90 92q6 25 27.5 32t99.5 7q76 0 97 -10.5t12 -50.5q-74 -328 -334 -328q-75 0 -143 35l-138 69q-48 25 -68 26q-5 1 -11 1q-69 0 -91 -92q-6 -25 -27 -32t-99 -7q-76 0 -97 10.5t-12 50.5q74 328 334 328q75 0 143 -35z" />
<glyph unicode="&#xa1;" horiz-adv-x="630" d="M315 506q70 0 103 -5t45.5 -17t13.5 -38l49 -716q2 -39 -40 -53.5t-171 -14.5t-171 14.5t-40 53.5l50 716q1 26 13 38t45 17t103 5zM315 633q-92 0 -132 5.5t-52 17t-12 40.5v271q0 29 12 40.5t52 17t132 5.5t132 -5t52.5 -17t12.5 -41v-271q0 -29 -12.5 -41t-52.5 -17 t-132 -5z" />
<glyph unicode="&#xa2;" horiz-adv-x="1064" d="M592 -6q-75 0 -107 4t-42.5 14t-10.5 33v117q-182 34 -270 162t-88 358q0 231 87 358.5t271 161.5v117q0 23 10.5 33t42.5 14t107 4t107 -4t42.5 -14t10.5 -33v-121q79 -16 134.5 -49t86 -80t45 -97.5t16.5 -113.5q1 -23 -4 -36t-14.5 -22.5t-35 -13t-56 -5t-86.5 -1.5 q-71 0 -104.5 7t-43.5 20t-12 41q-3 55 -94 55q-71 0 -100 -48.5t-29 -172.5q0 -123 30.5 -172t102.5 -49q51 0 73 16t25 47q2 28 12 41t43.5 20t104.5 7q56 0 86.5 -1.5t56 -5t35 -13t14.5 -22.5t4 -36q-7 -290 -290 -348v-121q0 -23 -10.5 -33t-42.5 -14t-107 -4z" />
<glyph unicode="&#xa3;" horiz-adv-x="1236" d="M272 -4q-37 -16 -61 5.5t-78 125.5q-36 71 -47.5 107t-5 51t30.5 26q51 22 84.5 81.5t33.5 127.5q0 6 -1 17.5t-1 17.5h-123q-28 0 -35.5 22t-7.5 109t7.5 109t35.5 22h48q-31 84 -31 158q0 401 506 401q250 0 369 -90t124 -282q1 -60 -34 -75.5t-156 -15.5 q-117 0 -150.5 12t-36.5 54q-5 65 -118 65q-60 0 -89.5 -21.5t-29.5 -76.5q0 -63 16 -129h254q28 0 35.5 -22t7.5 -109t-7.5 -109t-35.5 -22h-190q4 -46 4 -66q0 -67 -31 -151q77 -23 133 -23t79 22t24 79q1 29 15 42t51.5 18t119.5 5q122 0 156 -15.5t34 -76.5 q0 -399 -364 -399q-202 0 -399 114q-61 -61 -136 -108z" />
<glyph unicode="&#xa4;" d="M90 322l76 73q-53 109 -53 281t53 278l-76 76q-17 16 -8 34.5t61 70.5t70.5 61t34.5 -8l74 -76q103 53 264 53q158 0 264 -53l74 76q16 17 34 8t70 -61t61 -70.5t-8 -34.5l-75 -76q53 -106 53 -278t-53 -281l75 -73q17 -16 8 -34.5t-61 -70.5t-70 -61t-34 8l-74 74 q-104 -52 -264 -52q-163 0 -264 52l-74 -74q-16 -17 -34.5 -8t-70.5 61t-61 70.5t8 34.5zM586 492q84 0 123 43.5t39 140.5t-39 140.5t-123 43.5t-123 -43.5t-39 -140.5t39 -140.5t123 -43.5z" />
<glyph unicode="&#xa5;" horiz-adv-x="1245" d="M1092 291h-271v-236q0 -29 -12 -40.5t-52.5 -17t-133.5 -5.5t-133.5 5t-53 17t-12.5 41v236h-270q-25 0 -32 20.5t-7 100.5t7 100t32 20h239q-37 72 -45 89h-194q-25 0 -32 20t-7 100t7 100.5t32 20.5h77q-125 266 -184 428q-7 21 -5 34.5t22 22t59.5 12t107.5 3.5 q93 0 135.5 -5.5t58.5 -18t26 -42.5q64 -189 172 -446q123 300 172 446q10 30 26 42.5t58 18t135 5.5q68 0 107.5 -3.5t59.5 -12t22 -22t-5 -34.5q-78 -203 -184 -428h78q25 0 31.5 -20t6.5 -101t-6.5 -100.5t-31.5 -19.5h-195l-47 -89h242q25 0 31.5 -19.5t6.5 -100.5 t-6.5 -101t-31.5 -20z" />
<glyph unicode="&#xa6;" horiz-adv-x="712" d="M528 322v-680q0 -24 -10.5 -35t-46.5 -16t-115 -5t-115 5t-46.5 16t-10.5 35v680q0 24 11 34.5t46.5 15.5t114.5 5t114.5 -5t46.5 -15.5t11 -34.5zM528 1366v-680q0 -24 -11 -34.5t-46.5 -15.5t-114.5 -5t-114.5 5t-46.5 15.5t-11 34.5v680q0 24 11 34.5t46.5 15.5 t114.5 5t114.5 -5t46.5 -15.5t11 -34.5z" />
<glyph unicode="&#xa7;" horiz-adv-x="1208" d="M432 -61q0 -34 24.5 -50t92.5 -16q83 0 113 25t30 88q0 20 -6 35t-23.5 28t-31 21t-49.5 19t-56 16t-71 18q-86 22 -144.5 47t-109 66.5t-75 105t-24.5 150.5q0 191 168 274q-125 99 -125 260q0 175 109 262.5t362 87.5q127 0 213.5 -20t134 -60.5t66.5 -91.5t19 -123 q0 -35 -11 -50t-45 -21t-114 -6q-72 0 -103.5 5t-41 15.5t-9.5 36.5q0 29 -22.5 43t-77.5 14q-64 0 -92.5 -22t-28.5 -68q0 -59 52 -91.5t169 -68.5q44 -13 65.5 -19.5t60 -20.5t58.5 -24t50.5 -27.5t46.5 -34t35.5 -40.5t29 -51t16.5 -61t7 -74q0 -182 -136 -264 q93 -86 93 -252q0 -193 -111.5 -289t-372.5 -96q-136 0 -228 21t-141.5 63t-69 94t-19.5 125q0 35 11 50t45.5 21.5t113.5 6.5q103 0 128 -10t25 -47zM756 494q0 24 -11 43.5t-27 33t-46 27t-55 22t-68 21.5q-47 -13 -78 -44t-31 -75q0 -20 6.5 -36t23.5 -29.5t32 -22.5 t45.5 -20.5t49.5 -17t58 -17.5q46 14 73.5 44.5t27.5 70.5z" />
<glyph unicode="&#xa8;" horiz-adv-x="819" d="M178 1415q112 0 143 -14.5t31 -69.5v-114q0 -55 -31 -69.5t-143 -14.5t-143 14.5t-31 69.5v114q0 55 31 69.5t143 14.5zM641 1415q112 0 143 -14.5t31 -69.5v-114q0 -55 -31 -69.5t-143 -14.5t-143 14.5t-31 69.5v114q0 55 31 69.5t143 14.5z" />
<glyph unicode="&#xa9;" horiz-adv-x="1638" d="M496 676q0 196 80.5 287.5t252.5 91.5q146 0 224.5 -68.5t81.5 -193.5q0 -32 -21 -41t-92 -9q-48 0 -70 3.5t-30 11.5t-9 26q-3 37 -21 55.5t-58 18.5q-61 0 -85 -39.5t-24 -142.5t24 -142.5t85 -39.5q41 0 61 19t23 60q2 24 21 31.5t87 7.5q72 0 92 -8t19 -41 q-2 -128 -81 -197t-227 -69q-172 0 -252.5 91.5t-80.5 287.5zM819 1376q360 0 528.5 -167.5t168.5 -530.5t-168.5 -530.5t-528.5 -167.5t-528 167.5t-168 530.5t168 530.5t528 167.5zM819 168q265 0 381.5 114.5t116.5 395.5t-116.5 395.5t-381.5 114.5t-381 -114.5 t-116 -395.5t116 -395.5t381 -114.5z" />
<glyph unicode="&#xaa;" horiz-adv-x="774" d="M440 952h-86q-41 0 -57 -10t-16 -39q0 -39 63 -39q43 0 69.5 19.5t26.5 52.5v16zM313 1155q0 -17 -5 -23t-26.5 -9t-74.5 -3q-77 0 -97 8t-20 41q0 99 65.5 153t223.5 54q167 0 232 -60.5t65 -187.5v-385q0 -23 -20 -29.5t-97 -6.5q-78 0 -96.5 6t-20.5 30l-2 41 q-27 -42 -68 -63t-112 -21q-105 0 -152 52.5t-47 132.5q0 105 59.5 147.5t194.5 42.5h125v43q0 43 -11.5 57.5t-57.5 14.5q-58 0 -58 -35z" />
<glyph unicode="&#xab;" horiz-adv-x="1298" d="M74 569q0 52 24 86l158 238q23 33 62 42t151 9q169 0 169 -39q0 -9 -7 -20l-215 -316l215 -315q27 -41 -52 -53q-40 -6 -110 -6q-112 0 -151 9t-62 42l-158 237q-24 34 -24 86zM635 569q0 52 24 86l158 238q23 33 62 42t151 9q169 0 169 -39q0 -9 -7 -20l-215 -316 l215 -315q27 -41 -52 -53q-40 -6 -110 -6q-112 0 -151 9t-62 42l-158 237q-24 34 -24 86z" />
<glyph unicode="&#xad;" horiz-adv-x="856" d="M135 717h586q23 0 33.5 -10t15 -42t4.5 -104t-4.5 -104t-15 -41.5t-33.5 -9.5h-586q-23 0 -33.5 9.5t-15 41.5t-4.5 104t4.5 104t15 42t33.5 10z" />
<glyph unicode="&#xae;" horiz-adv-x="1155" d="M578 1372q242 0 356.5 -117t114.5 -356t-114.5 -356t-356.5 -117t-357 117.5t-115 355.5t115 355.5t357 117.5zM578 571q172 0 243.5 75t71.5 253t-71.5 253t-243.5 75q-173 0 -244.5 -75t-71.5 -253t71.5 -253t244.5 -75zM569 823h-18v-131q0 -12 -12.5 -16t-57.5 -4 t-57 4t-12 16v410q0 10 10.5 14t46.5 4h127q97 0 139.5 -35t42.5 -112q0 -85 -67 -121q18 -13 34 -35q35 -51 46 -112q2 -9 1.5 -14.5t-7.5 -9.5t-22.5 -5.5t-43.5 -1.5q-38 0 -48.5 3.5t-13.5 16.5l-18 66q-21 66 -70 63zM551 1004v-76h43q29 0 41 8.5t12 28.5 q0 22 -12 30.5t-41 8.5h-43z" />
<glyph unicode="&#xaf;" horiz-adv-x="819" d="M721 1145h-623q-25 0 -31 18t-6 99q0 57 2.5 79.5t9.5 29.5t25 7h623q18 0 25 -7t9.5 -29.5t2.5 -79.5q0 -81 -6 -99t-31 -18z" />
<glyph unicode="&#xb0;" horiz-adv-x="770" d="M385 1372q303 0 303 -295t-303 -295t-303 295t303 295zM385 967q58 0 84.5 26.5t26.5 83.5t-26.5 84t-84.5 27t-84.5 -27t-26.5 -84t26.5 -83.5t84.5 -26.5z" />
<glyph unicode="&#xb1;" horiz-adv-x="1187" d="M748 1274v-258h274q23 0 33 -10t14 -40t4 -100q0 -69 -4 -99.5t-14 -40t-33 -9.5h-274v-258q0 -23 -10 -33t-41 -14t-103 -4t-103 4t-41 14t-10 33v258h-274q-23 0 -33 9.5t-14 40t-4 99.5q0 70 4 100t14 40t33 10h274v258q0 23 10 33t41 14t103 4t103 -4t41 -14t10 -33z M166 299h856q23 0 33 -9.5t14 -40t4 -99.5q0 -70 -4 -100t-14 -40t-33 -10h-856q-23 0 -33 10t-14 40t-4 100q0 69 4 99.5t14 40t33 9.5z" />
<glyph unicode="&#xb2;" horiz-adv-x="757" d="M633 647h-518q-21 0 -27 16.5t-6 81.5l2 3h-2v24q0 28 10.5 53t24.5 43t40 38t44.5 31.5t51.5 31t48 28.5q73 45 94 67q29 33 29 71q0 29 -12 41t-37 12q-29 0 -44 -12t-16 -41q-3 -26 -22.5 -33.5t-89.5 -7.5q-73 0 -94.5 10t-20.5 43q1 123 76 179t217 56 q139 0 204.5 -62.5t65.5 -164.5q0 -61 -24 -109t-53 -74.5t-78 -58.5q-30 -21 -111 -65h248q21 0 26 -16.5t5 -86.5q0 -66 -5 -82t-26 -16z" />
<glyph unicode="&#xb3;" horiz-adv-x="757" d="M352 936h-59q-18 0 -22.5 11t-4.5 63q0 53 4.5 64t22.5 11h63q44 0 62 12t18 46q0 49 -63 49q-60 0 -62 -33q-2 -24 -20 -30.5t-90 -6.5q-71 0 -91.5 8.5t-19.5 40.5q1 115 74 163t217 48q140 0 209 -57t69 -162q0 -106 -92 -151q101 -32 101 -154q0 -108 -73.5 -164.5 t-215.5 -56.5q-144 0 -219 47t-76 160q-1 33 19.5 42t91.5 9q50 0 72 -3t29.5 -10.5t8.5 -25.5q2 -27 66 -27q38 0 54.5 12t16.5 42q0 28 -21.5 40.5t-68.5 12.5z" />
<glyph unicode="&#xb4;" horiz-adv-x="819" d="M631 1268l-363 -144q-26 -10 -41 2t-41 66q-29 56 -29.5 75t23.5 31l334 207q13 8 25 6t30 -26.5t45 -77.5q26 -53 34 -82t3.5 -39.5t-20.5 -17.5z" />
<glyph unicode="&#xb6;" horiz-adv-x="1261" d="M1153 1090h-98q-69 0 -91 -22t-22 -91v-993q0 -80 -10 -140t-31 -101t-48 -67t-68 -40.5t-83 -19.5t-100 -5q-91 0 -147 18q-39 12 -50.5 40.5t-11.5 117.5q0 76 6 110.5t17.5 45t38.5 10.5q9 0 29 -2t28 -2q30 0 43.5 15t13.5 59v387h-10q-129 0 -215.5 23.5t-147 80 t-87.5 151.5t-27 238t27 238t87.5 152t147 80.5t215.5 23.5h594q33 0 42 -26.5t9 -127.5t-9 -127t-42 -26z" />
<glyph unicode="&#xb7;" horiz-adv-x="565" d="M283 356q-92 0 -132.5 5.5t-52.5 17.5t-12 41v270q0 29 12 41t52.5 17.5t132.5 5.5t132 -5.5t52 -17.5t12 -41v-270q0 -29 -12 -41t-52 -17.5t-132 -5.5z" />
<glyph unicode="&#xb8;" horiz-adv-x="819" d="M467 -78h10q57 0 93 -6t67 -24.5t45 -55t14 -94.5q0 -63 -14.5 -103t-46 -61t-70 -28.5t-98.5 -8.5h-217q-17 0 -21 12.5t-4 69.5t4 69.5t21 12.5h199q34 0 45.5 7.5t11.5 29.5q0 20 -11.5 27.5t-45.5 7.5h-113q-49 0 -63.5 9t-8.5 32l55 178q6 17 20.5 20.5t72.5 3.5 q53 0 63.5 -3.5t7.5 -20.5z" />
<glyph unicode="&#xb9;" horiz-adv-x="757" d="M625 647h-475q-21 0 -26 16t-5 82q0 70 5 86.5t26 16.5h129v305l-115 -16q-23 -4 -30 15t-7 87q0 46 2.5 64.5t8.5 25.5t22 10l295 41q29 6 41 -1t12 -29v-502h117q20 0 25 -16.5t5 -86.5q0 -67 -5 -82.5t-25 -15.5z" />
<glyph unicode="&#xba;" horiz-adv-x="806" d="M322 1036q0 -84 16.5 -116.5t62.5 -32.5q48 0 65 32.5t17 116.5t-17 117t-65 33q-46 0 -62.5 -33t-16.5 -117zM82 1036q0 175 76 257.5t243 82.5q170 0 247 -82.5t77 -257.5t-77 -257.5t-247 -82.5q-167 0 -243 82.5t-76 257.5z" />
<glyph unicode="&#xbb;" horiz-adv-x="1298" d="M664 569q0 -50 -25 -86l-158 -237q-23 -33 -62 -42t-151 -9q-169 0 -169 39q0 9 7 20l216 315l-216 316q-27 41 52 53q40 6 110 6q112 0 151 -9t62 -42l158 -238q25 -36 25 -86zM1225 569q0 -50 -25 -86l-158 -237q-23 -33 -62 -42t-151 -9q-169 0 -168 39q0 9 7 20 l215 315l-215 316q-27 41 52 53q40 6 109 6q112 0 151 -9t62 -42l158 -238q25 -36 25 -86z" />
<glyph unicode="&#xbc;" horiz-adv-x="1761" d="M1415 1298l-667 -1247q-14 -26 -24 -35t-42 -15.5t-98 -6.5q-47 0 -73.5 3.5t-36 12t-8.5 19t11 28.5l668 1248q14 26 24 35t42 15.5t98 6.5q62 0 89 -7t28 -21.5t-11 -35.5zM1477 -2q-75 0 -94 6.5t-19 30.5v131h-299q-22 0 -27.5 14.5t-5.5 73.5q0 39 4.5 56t18.5 36 l286 356q14 17 35.5 22t91.5 5q80 0 100.5 -6.5t20.5 -28.5v-342h66q21 0 27 -16t6 -76q0 -63 -6 -78.5t-27 -15.5h-66v-131q0 -24 -18 -30.5t-94 -6.5zM625 641h-475q-21 0 -26 16t-5 82q0 70 5 86.5t26 16.5h129v305l-115 -17q-23 -4 -30 15.5t-7 87.5q0 46 2.5 64.5 t8.5 25.5t22 10l295 41q29 6 41 -1.5t12 -29.5v-501h117q20 0 25 -16.5t5 -86.5q0 -67 -5 -82.5t-25 -15.5zM1227 352h147v178z" />
<glyph unicode="&#xbd;" horiz-adv-x="1761" d="M1366 1298l-668 -1247q-14 -26 -23.5 -35t-41.5 -15.5t-98 -6.5q-47 0 -73.5 3.5t-36 12t-8.5 19t11 28.5l668 1248q14 26 24 35t42 15.5t98 6.5q62 0 89 -7t28 -21.5t-11 -35.5zM1636 -16h-518q-21 0 -27 16.5t-6 81.5l2 2h-2v25q0 28 10.5 53t24.5 43t40.5 38t45 31.5 t51.5 30.5t48 29q73 45 93 66q29 33 29 71q0 29 -12 41t-37 12q-29 0 -43.5 -11.5t-15.5 -41.5q-3 -26 -23 -33.5t-90 -7.5q-73 0 -94 10t-20 43q1 124 75.5 180t216.5 56q140 0 205.5 -62.5t65.5 -164.5q0 -46 -12 -83.5t-37 -67t-48 -48.5t-59 -43q-41 -28 -110 -66h247 q21 0 26 -16.5t5 -85.5q0 -66 -5 -82t-26 -16zM625 641h-475q-21 0 -26 16t-5 82q0 70 5 86.5t26 16.5h129v305l-115 -17q-23 -4 -30 15.5t-7 87.5q0 46 2.5 64.5t8.5 25.5t22 10l295 41q29 6 41 -1.5t12 -29.5v-501h117q20 0 25 -16.5t5 -86.5q0 -67 -5 -82.5t-25 -15.5z " />
<glyph unicode="&#xbe;" horiz-adv-x="1761" d="M1391 1298l-668 -1247q-14 -26 -24 -35t-42 -15.5t-98 -6.5q-62 0 -89 7t-28 21t11 35l667 1248q14 26 24 35t42 15.5t98 6.5q47 0 73.5 -3.5t36 -12.5t8.5 -19.5t-11 -28.5zM352 930h-59q-18 0 -22.5 11t-4.5 63q0 53 4.5 64t22.5 11h63q44 0 62 12t18 46q0 49 -63 49 q-60 0 -62 -33q-2 -24 -20 -30.5t-90 -6.5q-71 0 -91.5 8.5t-19.5 40.5q1 115 74 163t217 48q140 0 209 -57t69 -162q0 -106 -92 -151q101 -32 101 -154q0 -108 -73.5 -164.5t-215.5 -56.5q-144 0 -219 47t-76 160q-1 33 19.5 42t91.5 9q50 0 72 -3t29.5 -10.5t8.5 -25.5 q2 -27 66 -27q38 0 54.5 12t16.5 42q0 28 -21.5 40.5t-68.5 12.5zM1477 -2q-75 0 -94 6.5t-19 30.5v131h-299q-22 0 -27.5 14.5t-5.5 73.5q0 39 4.5 56t18.5 36l286 356q14 17 35.5 22t91.5 5q80 0 100.5 -6.5t20.5 -28.5v-342h66q21 0 27 -16t6 -76q0 -63 -6 -78.5 t-27 -15.5h-66v-131q0 -24 -18 -30.5t-94 -6.5zM1227 352h147v178z" />
<glyph unicode="&#xbf;" horiz-adv-x="1150" d="M422 438l2 27q2 26 12.5 36t44 14.5t113.5 4.5t114 -4.5t44.5 -14.5t11.5 -36l2 -41q2 -47 -16.5 -85t-48 -60.5t-64.5 -46.5t-65.5 -44.5t-51 -53.5t-20.5 -73q0 -44 22.5 -62.5t69.5 -18.5q56 0 81.5 19t28.5 71q3 43 37 56t154 13q85 0 124 -6.5t55 -24.5t15 -57 q-4 -211 -132 -307t-375 -96q-124 0 -217.5 29.5t-147 81.5t-79 115.5t-25.5 137.5q0 60 16.5 110t43.5 82.5t59.5 59t65 46.5t60 38.5t46 41t20.5 48.5zM592 633q-92 0 -132 5t-52.5 17t-12.5 41v271q0 29 12.5 41t52.5 17t132 5t132 -5.5t52 -17t12 -40.5v-271 q0 -29 -12 -40.5t-52 -17t-132 -5.5z" />
<glyph unicode="&#xc0;" horiz-adv-x="1314" d="M1096 -6q-139 0 -181 14t-49 66q-10 60 -37 196h-346q-26 -129 -34 -196q-7 -52 -49 -66t-181 -14q-84 0 -122.5 6.5t-50 21.5t-5.5 46q55 257 159.5 629.5t190.5 598.5q15 39 65.5 52.5t200.5 13.5t201 -13.5t66 -52.5q86 -226 190.5 -598.5t159.5 -629.5 q6 -31 -5.5 -46t-50 -21.5t-122.5 -6.5zM643 1452l-383 125q-17 7 -22.5 18t1.5 41.5t31 87.5q26 57 44 83.5t31 29.5t26 -6l354 -193q27 -14 27 -32t-27 -80q-25 -57 -39.5 -70.5t-42.5 -3.5zM657 963q-34 -113 -100 -377h201q-41 163 -101 377z" />
<glyph unicode="&#xc1;" horiz-adv-x="1314" d="M1096 -6q-139 0 -181 14t-49 66q-10 60 -37 196h-346q-26 -129 -34 -196q-7 -52 -49 -66t-181 -14q-84 0 -122.5 6.5t-50 21.5t-5.5 46q55 257 159.5 629.5t190.5 598.5q15 39 65.5 52.5t200.5 13.5t201 -13.5t66 -52.5q86 -226 190.5 -598.5t159.5 -629.5 q6 -31 -5.5 -46t-50 -21.5t-122.5 -6.5zM1055 1577l-383 -125q-28 -10 -42.5 3.5t-39.5 70.5q-27 62 -27 80t27 32l354 193q13 9 26 6t30.5 -29.5t43.5 -83.5q24 -58 31 -88t2 -41t-22 -18zM657 963q-34 -113 -100 -377h201q-41 163 -101 377z" />
<glyph unicode="&#xc2;" horiz-adv-x="1314" d="M1096 -6q-139 0 -181 14t-49 66q-10 60 -37 196h-346q-26 -129 -34 -196q-7 -52 -49 -66t-181 -14q-84 0 -122.5 6.5t-50 21.5t-5.5 46q55 257 159.5 629.5t190.5 598.5q15 39 65.5 52.5t200.5 13.5t201 -13.5t66 -52.5q86 -226 190.5 -598.5t159.5 -629.5 q6 -31 -5.5 -46t-50 -21.5t-122.5 -6.5zM657 1569l-86 -80q-31 -27 -46 -33q-26 -10 -95 -10q-117 0 -113 33q1 7 7 14l184 223q20 28 46 37.5t103 9.5t103.5 -9.5t46.5 -37.5l184 -223q26 -33 -42 -43q-26 -4 -64 -4q-49 0 -75.5 5.5t-35 11.5t-31.5 26zM657 963 q-34 -113 -100 -377h201q-41 163 -101 377z" />
<glyph unicode="&#xc3;" horiz-adv-x="1314" d="M1096 -6q-139 0 -181 14t-49 66q-10 60 -37 196h-346q-26 -129 -34 -196q-7 -52 -49 -66t-181 -14q-84 0 -122.5 6.5t-50 21.5t-5.5 46q55 257 159.5 629.5t190.5 598.5q15 39 65.5 52.5t200.5 13.5t201 -13.5t66 -52.5q86 -226 190.5 -598.5t159.5 -629.5 q6 -31 -5.5 -46t-50 -21.5t-122.5 -6.5zM815 1683v27q2 24 18.5 30.5t81.5 6.5q66 0 84.5 -7t16.5 -30l-4 -78q-12 -186 -195 -186q-69 0 -153 43l-89 47q-24 12 -43 12q-32 0 -32 -35v-26q-2 -24 -19 -30.5t-82 -6.5q-66 0 -84 7t-16 30l4 78q12 186 201 186q63 0 147 -43 l88 -47q24 -12 43 -12q33 0 33 34zM657 963q-34 -113 -100 -377h201q-41 163 -101 377z" />
<glyph unicode="&#xc4;" horiz-adv-x="1314" d="M1096 -6q-139 0 -181 14t-49 66q-10 60 -37 196h-346q-26 -129 -34 -196q-7 -52 -49 -66t-181 -14q-84 0 -122.5 6.5t-50 21.5t-5.5 46q55 257 159.5 629.5t190.5 598.5q15 39 65.5 52.5t200.5 13.5t201 -13.5t66 -52.5q86 -226 190.5 -598.5t159.5 -629.5 q6 -31 -5.5 -46t-50 -21.5t-122.5 -6.5zM893 1735q112 0 143 -14.5t31 -69.5v-115q0 -55 -31 -69.5t-143 -14.5t-143 14.5t-31 69.5v115q0 55 31 69.5t143 14.5zM422 1735q112 0 143 -14.5t31 -69.5v-115q0 -55 -31 -69.5t-143 -14.5t-143 14.5t-31 69.5v115q0 55 31 69.5 t143 14.5zM657 963q-34 -113 -100 -377h201q-41 163 -101 377z" />
<glyph unicode="&#xc5;" horiz-adv-x="1314" d="M1096 -6q-139 0 -181 14t-49 66q-10 60 -37 196h-346q-26 -129 -34 -196q-7 -52 -49 -66t-181 -14q-84 0 -122.5 6.5t-50 21.5t-5.5 46q55 257 159.5 629.5t190.5 598.5q9 26 35 41q-14 41 -14 99q0 225 245 225q246 0 246 -225q0 -53 -16 -99q24 -12 37 -41 q86 -226 190.5 -598.5t159.5 -629.5q6 -31 -5.5 -46t-50 -21.5t-122.5 -6.5zM657 963q-34 -113 -100 -377h201q-41 163 -101 377zM657 1364q80 0 80 72q0 71 -80 71q-40 0 -59.5 -16.5t-19.5 -54.5q0 -72 79 -72z" />
<glyph unicode="&#xc6;" horiz-adv-x="1961" d="M1812 1020h-464v-162h385q25 0 35 -9.5t15 -44t5 -112.5t-5 -112.5t-15 -44t-35 -9.5h-385v-190h477q24 0 34.5 -10t15.5 -45t5 -113t-5 -113t-15.5 -45t-34.5 -10h-664q-96 0 -138 5t-55.5 17.5t-13.5 40.5v230h-413q-70 -175 -84 -219q-13 -36 -36 -52.5t-68.5 -22 t-143.5 -5.5q-112 0 -144.5 16t-17.5 58q101 260 266.5 628.5t288.5 593.5q16 28 36.5 40.5t71.5 19t154 6.5h948q25 0 35.5 -10t15.5 -45t5 -113t-5 -113t-15.5 -45t-35.5 -10zM866 1040q-90 -187 -190 -419h278v419h-88z" />
<glyph unicode="&#xc7;" horiz-adv-x="1290" d="M715 -76h10q57 0 94 -6.5t68.5 -25.5t46 -56t14.5 -96q0 -64 -14.5 -105.5t-46.5 -63.5t-71.5 -30t-100.5 -8h-226q-17 0 -20.5 12.5t-3.5 71.5q0 58 3.5 70t20.5 12h207q34 0 46 9t12 32q0 21 -12.5 29t-45.5 8h-114q-51 0 -65.5 9t-8.5 32l53 168q-249 28 -364 194 t-115 498q0 366 142 532t452 166q256 0 393.5 -122t142.5 -343q1 -56 -34.5 -70t-161.5 -14q-84 0 -124 6.5t-53.5 20t-15.5 43.5q-9 133 -141 133q-75 0 -116 -31t-60 -107t-19 -214t19 -214t60 -107t116 -31q72 0 107 34.5t40 106.5q2 30 15.5 43.5t53.5 20t124 6.5 q127 0 162.5 -14.5t34.5 -71.5q-5 -216 -130 -336.5t-362 -132.5z" />
<glyph unicode="&#xc8;" d="M1022 1020h-514v-162h434q25 0 35 -9.5t15 -44t5 -112.5t-5 -112.5t-15 -44t-35 -9.5h-434v-190h526q25 0 35.5 -10t15.5 -45t5 -113t-5 -113t-15.5 -45t-35.5 -10h-712q-96 0 -138 5t-55.5 17.5t-13.5 40.5v1229q0 28 13.5 40.5t56 18t137.5 5.5h700q24 0 34.5 -10 t15.5 -45t5 -113t-5 -113t-15.5 -45t-34.5 -10zM612 1452l-383 125q-17 7 -22 18t2 41t31 88q26 57 43.5 83.5t30.5 29.5t26 -6l354 -193q27 -14 27 -32t-27 -80q-25 -57 -39.5 -70.5t-42.5 -3.5z" />
<glyph unicode="&#xc9;" d="M1022 1020h-514v-162h434q25 0 35 -9.5t15 -44t5 -112.5t-5 -112.5t-15 -44t-35 -9.5h-434v-190h526q25 0 35.5 -10t15.5 -45t5 -113t-5 -113t-15.5 -45t-35.5 -10h-712q-96 0 -138 5t-55.5 17.5t-13.5 40.5v1229q0 28 13.5 40.5t56 18t137.5 5.5h700q24 0 34.5 -10 t15.5 -45t5 -113t-5 -113t-15.5 -45t-34.5 -10zM942 1577l-383 -125q-28 -10 -42.5 3.5t-39.5 70.5q-27 62 -27 80t27 32l354 193q13 9 26 6t31 -29.5t44 -83.5q24 -57 31 -87.5t1.5 -41.5t-22.5 -18z" />
<glyph unicode="&#xca;" d="M1022 1020h-514v-162h434q25 0 35 -9.5t15 -44t5 -112.5t-5 -112.5t-15 -44t-35 -9.5h-434v-190h526q25 0 35.5 -10t15.5 -45t5 -113t-5 -113t-15.5 -45t-35.5 -10h-712q-96 0 -138 5t-55.5 17.5t-13.5 40.5v1229q0 28 13.5 40.5t56 18t137.5 5.5h700q24 0 34.5 -10 t15.5 -45t5 -113t-5 -113t-15.5 -45t-34.5 -10zM606 1569l-86 -80q-31 -27 -46 -33q-26 -10 -95 -10q-118 0 -114 33q2 7 7 14l185 223q20 28 46 37.5t103 9.5t103.5 -9.5t46.5 -37.5l184 -223q26 -33 -42 -43q-26 -4 -64 -4q-49 0 -75.5 5.5t-35 11.5t-31.5 26z" />
<glyph unicode="&#xcb;" d="M1022 1020h-514v-162h434q25 0 35 -9.5t15 -44t5 -112.5t-5 -112.5t-15 -44t-35 -9.5h-434v-190h526q25 0 35.5 -10t15.5 -45t5 -113t-5 -113t-15.5 -45t-35.5 -10h-712q-96 0 -138 5t-55.5 17.5t-13.5 40.5v1229q0 28 13.5 40.5t56 18t137.5 5.5h700q24 0 34.5 -10 t15.5 -45t5 -113t-5 -113t-15.5 -45t-34.5 -10zM371 1735q112 0 143 -14.5t31 -69.5v-115q0 -55 -31 -69.5t-143 -14.5t-143 14.5t-31 69.5v115q0 55 31 69.5t143 14.5zM842 1735q112 0 143 -14.5t31 -69.5v-115q0 -55 -31 -69.5t-143 -14.5t-143 14.5t-31 69.5v115 q0 55 31 69.5t143 14.5z" />
<glyph unicode="&#xcc;" horiz-adv-x="634" d="M317 -8q-93 0 -133.5 5.5t-52.5 17t-12 40.5v1243q0 29 12 41t52.5 17.5t133.5 5.5t133.5 -5.5t53 -17.5t12.5 -41v-1243q0 -29 -12.5 -41t-53 -17t-133.5 -5zM303 1452l-383 125q-17 7 -22.5 18t1.5 41.5t31 87.5q26 57 44 83.5t31 29.5t26 -6l354 -193q27 -14 27 -32 t-27 -80q-25 -57 -39.5 -70.5t-42.5 -3.5z" />
<glyph unicode="&#xcd;" horiz-adv-x="634" d="M317 -8q-93 0 -133.5 5.5t-52.5 17t-12 40.5v1243q0 29 12 41t52.5 17.5t133.5 5.5t133.5 -5.5t53 -17.5t12.5 -41v-1243q0 -29 -12.5 -41t-53 -17t-133.5 -5zM715 1577l-383 -125q-28 -10 -42.5 3.5t-39.5 70.5q-27 62 -27 80t27 32l354 193q13 9 26 6t31 -29.5 t44 -83.5q24 -57 31 -87.5t1.5 -41.5t-22.5 -18z" />
<glyph unicode="&#xce;" horiz-adv-x="634" d="M317 -8q-93 0 -133.5 5.5t-52.5 17t-12 40.5v1243q0 29 12 41t52.5 17.5t133.5 5.5t133.5 -5.5t53 -17.5t12.5 -41v-1243q0 -29 -12.5 -41t-53 -17t-133.5 -5zM317 1569l-86 -80q-31 -27 -46 -33q-26 -10 -95 -10q-117 0 -113 33q1 7 7 14l184 223q20 28 46 37.5t103 9.5 t103.5 -9.5t46.5 -37.5l184 -223q26 -33 -42 -43q-26 -4 -64 -4q-49 0 -75.5 5.5t-35 11.5t-31.5 26z" />
<glyph unicode="&#xcf;" horiz-adv-x="634" d="M317 -8q-93 0 -133.5 5.5t-52.5 17t-12 40.5v1243q0 29 12 41t52.5 17.5t133.5 5.5t133.5 -5.5t53 -17.5t12.5 -41v-1243q0 -29 -12.5 -41t-53 -17t-133.5 -5zM82 1735q112 0 143 -14.5t31 -69.5v-115q0 -55 -31 -69.5t-143 -14.5t-143 14.5t-31 69.5v115q0 55 31 69.5 t143 14.5zM553 1735q112 0 143 -14.5t31 -69.5v-115q0 -55 -31 -69.5t-143 -14.5t-143 14.5t-31 69.5v115q0 55 31 69.5t143 14.5z" />
<glyph unicode="&#xd0;" horiz-adv-x="1298" d="M612 0h-286q-96 0 -138 5t-55.5 17.5t-13.5 40.5v480h-62q-25 0 -31 17.5t-6 98.5t6 99t31 18h62v516q0 28 13.5 40.5t56 18t137.5 5.5h286q318 0 461.5 -159.5t143.5 -518.5t-143.5 -518.5t-461.5 -159.5zM516 344h96q103 0 151 76.5t48 257.5t-48 257.5t-151 76.5h-96 v-236h123q25 0 31 -18t6 -99t-6 -98.5t-31 -17.5h-123v-199z" />
<glyph unicode="&#xd1;" horiz-adv-x="1417" d="M1104 1362q93 0 133.5 -5.5t53 -17.5t12.5 -41v-1239q0 -29 -13 -41t-58.5 -18t-148.5 -6t-140.5 11.5t-53.5 41.5l-377 658v-648q0 -29 -12.5 -41t-53 -17t-133.5 -5t-133.5 5.5t-52.5 17t-12 40.5v1239q0 29 12.5 41.5t58 18.5t148.5 6t140.5 -11.5t53.5 -41.5 l377 -660v649q0 29 12.5 41t53 17.5t133.5 5.5zM866 1683v27q2 24 19 30.5t82 6.5q66 0 84 -7t16 -30l-4 -78q-12 -186 -195 -186q-69 0 -153 43l-88 47q-24 12 -43 12q-33 0 -33 -35v-26q-2 -24 -18.5 -30.5t-81.5 -6.5q-66 0 -84.5 7t-16.5 30l4 78q12 186 201 186 q63 0 147 -43l89 -47q24 -12 43 -12q32 0 32 34z" />
<glyph unicode="&#xd2;" horiz-adv-x="1380" d="M690 1376q323 0 465.5 -165t142.5 -533t-142.5 -533t-465.5 -165t-465.5 165t-142.5 533t142.5 533t465.5 165zM690 319q117 0 160 76.5t43 282.5t-43 282t-160 76t-160 -76t-43 -282t43 -282.5t160 -76.5zM676 1452l-383 125q-17 7 -22.5 18t1.5 41.5t31 87.5 q26 57 43.5 83.5t30.5 29.5t26 -6l355 -193q27 -14 27 -32t-27 -80q-25 -57 -39.5 -70.5t-42.5 -3.5z" />
<glyph unicode="&#xd3;" horiz-adv-x="1380" d="M690 1376q323 0 465.5 -165t142.5 -533t-142.5 -533t-465.5 -165t-465.5 165t-142.5 533t142.5 533t465.5 165zM690 319q117 0 160 76.5t43 282.5t-43 282t-160 76t-160 -76t-43 -282t43 -282.5t160 -76.5zM1087 1577l-382 -125q-28 -10 -42.5 3.5t-39.5 70.5 q-27 62 -27 80t27 32l354 193q13 9 26 6t30.5 -29.5t43.5 -83.5q24 -57 31 -87.5t1.5 -41.5t-22.5 -18z" />
<glyph unicode="&#xd4;" horiz-adv-x="1380" d="M690 1376q323 0 465.5 -165t142.5 -533t-142.5 -533t-465.5 -165t-465.5 165t-142.5 533t142.5 533t465.5 165zM690 319q117 0 160 76.5t43 282.5t-43 282t-160 76t-160 -76t-43 -282t43 -282.5t160 -76.5zM690 1569l-86 -80q-31 -27 -46 -33q-26 -10 -95 -10 q-118 0 -114 33q2 7 7 14l185 223q20 28 46 37.5t103 9.5t103.5 -9.5t46.5 -37.5l184 -223q26 -33 -42 -43q-26 -4 -64 -4q-49 0 -75.5 5.5t-35 11.5t-31.5 26z" />
<glyph unicode="&#xd5;" horiz-adv-x="1380" d="M690 1376q323 0 465.5 -165t142.5 -533t-142.5 -533t-465.5 -165t-465.5 165t-142.5 533t142.5 533t465.5 165zM690 319q117 0 160 76.5t43 282.5t-43 282t-160 76t-160 -76t-43 -282t43 -282.5t160 -76.5zM848 1683v27q2 24 18.5 30.5t81.5 6.5q66 0 84.5 -7t16.5 -30 l-5 -78q-12 -186 -194 -186q-70 0 -154 43l-88 47q-24 12 -43 12q-33 0 -33 -35v-26q-2 -24 -18.5 -30.5t-81.5 -6.5q-66 0 -84 7t-16 30l4 78q12 186 201 186q63 0 147 -43l88 -47q24 -12 43 -12q33 0 33 34z" />
<glyph unicode="&#xd6;" horiz-adv-x="1380" d="M690 1376q323 0 465.5 -165t142.5 -533t-142.5 -533t-465.5 -165t-465.5 165t-142.5 533t142.5 533t465.5 165zM690 319q117 0 160 76.5t43 282.5t-43 282t-160 76t-160 -76t-43 -282t43 -282.5t160 -76.5zM455 1735q112 0 143 -14.5t31 -69.5v-115q0 -55 -31 -69.5 t-143 -14.5t-143 14.5t-31 69.5v115q0 55 31 69.5t143 14.5zM926 1735q112 0 143 -14.5t31 -69.5v-115q0 -55 -31 -69.5t-143 -14.5t-143 14.5t-31 69.5v115q0 55 31 69.5t143 14.5z" />
<glyph unicode="&#xd7;" horiz-adv-x="1187" d="M834 188l-240 240l-240 -240q-22 -24 -46 -12.5t-97 82.5q-71 73 -82.5 97t12.5 46l240 240l-240 240q-24 22 -12.5 46t82.5 97q73 71 97 82.5t46 -12.5l240 -240l240 240q22 24 46 12.5t97 -82.5q71 -73 82.5 -97t-12.5 -46l-240 -240l240 -240q24 -22 12.5 -46 t-82.5 -97q-73 -71 -97 -82.5t-46 12.5z" />
<glyph unicode="&#xd8;" horiz-adv-x="1388" d="M694 1376q118 0 217 -22l19 30q12 21 23.5 30t46.5 14.5t106 5.5q138 0 147 -28q3 -10 -6 -26l-92 -166q148 -164 148 -536q0 -368 -143 -533t-466 -165q-110 0 -215 20l-20 -37q-12 -21 -23.5 -30t-46 -14t-106.5 -5q-138 0 -147 27q-4 10 5 26l95 170 q-150 163 -150 541q0 368 142.5 533t465.5 165zM492 678q0 -88 4 -123l264 473q-27 8 -66 8q-117 0 -159.5 -76t-42.5 -282zM694 319q117 0 160 76.5t43 282.5q0 47 -4 117l-262 -469q32 -7 63 -7z" />
<glyph unicode="&#xd9;" horiz-adv-x="1363" d="M682 -20q-313 0 -444.5 127.5t-131.5 422.5v768q0 29 12.5 41t53 17.5t133.5 5.5t133.5 -5.5t53 -17.5t12.5 -41v-753q0 -115 37.5 -160t140.5 -45t140.5 45t37.5 160v753q0 29 12.5 41t53 17.5t133.5 5.5t133.5 -5.5t52.5 -17.5t12 -41v-768q0 -295 -131 -422.5 t-444 -127.5zM668 1452l-383 125q-17 7 -22.5 18t1.5 41.5t31 87.5q26 57 43.5 83.5t30.5 29.5t26 -6l355 -193q27 -14 27 -32t-27 -80q-25 -57 -39.5 -70.5t-42.5 -3.5z" />
<glyph unicode="&#xda;" horiz-adv-x="1363" d="M682 -20q-313 0 -444.5 127.5t-131.5 422.5v768q0 29 12.5 41t53 17.5t133.5 5.5t133.5 -5.5t53 -17.5t12.5 -41v-753q0 -115 37.5 -160t140.5 -45t140.5 45t37.5 160v753q0 29 12.5 41t53 17.5t133.5 5.5t133.5 -5.5t52.5 -17.5t12 -41v-768q0 -295 -131 -422.5 t-444 -127.5zM1079 1577l-383 -125q-28 -10 -42.5 3.5t-39.5 70.5q-27 62 -27 80t27 32l355 193q13 9 26 6t30.5 -29.5t43.5 -83.5q24 -57 31 -87.5t1.5 -41.5t-22.5 -18z" />
<glyph unicode="&#xdb;" horiz-adv-x="1363" d="M682 -20q-313 0 -444.5 127.5t-131.5 422.5v768q0 29 12.5 41t53 17.5t133.5 5.5t133.5 -5.5t53 -17.5t12.5 -41v-753q0 -115 37.5 -160t140.5 -45t140.5 45t37.5 160v753q0 29 12.5 41t53 17.5t133.5 5.5t133.5 -5.5t52.5 -17.5t12 -41v-768q0 -295 -131 -422.5 t-444 -127.5zM682 1569l-86 -80q-31 -27 -46 -33q-26 -10 -95 -10q-118 0 -114 33q2 7 7 14l184 223q20 28 46.5 37.5t103.5 9.5t103 -9.5t46 -37.5l185 -223q26 -32 -42 -43q-27 -4 -65 -4q-48 0 -74.5 5.5t-35 11t-31.5 26.5z" />
<glyph unicode="&#xdc;" horiz-adv-x="1363" d="M682 -20q-313 0 -444.5 127.5t-131.5 422.5v768q0 29 12.5 41t53 17.5t133.5 5.5t133.5 -5.5t53 -17.5t12.5 -41v-753q0 -115 37.5 -160t140.5 -45t140.5 45t37.5 160v753q0 29 12.5 41t53 17.5t133.5 5.5t133.5 -5.5t52.5 -17.5t12 -41v-768q0 -295 -131 -422.5 t-444 -127.5zM446 1735q112 0 143.5 -14.5t31.5 -69.5v-115q0 -55 -31.5 -69.5t-143.5 -14.5t-143 14.5t-31 69.5v115q0 55 31 69.5t143 14.5zM918 1735q112 0 143 -14.5t31 -69.5v-115q0 -55 -31 -69.5t-143 -14.5t-143.5 14.5t-31.5 69.5v115q0 55 31.5 69.5t143.5 14.5z " />
<glyph unicode="&#xdd;" horiz-adv-x="1282" d="M823 1296q10 29 29 42t63 18.5t138 5.5q69 0 108 -3.5t60 -12t22.5 -22t-6.5 -34.5q-57 -138 -182.5 -392.5t-218.5 -412.5v-430q0 -29 -12.5 -41t-53 -17t-133.5 -5t-133.5 5t-53 17t-12.5 41v430q-93 158 -218.5 412.5t-182.5 392.5q-8 21 -6.5 34.5t22.5 22t60 12 t108 3.5q94 0 138 -5.5t63 -18.5t29 -42q59 -177 186 -462q113 253 186 462zM1038 1577l-383 -125q-28 -10 -42.5 3.5t-39.5 70.5q-27 62 -27 80t27 32l355 193q13 9 26 6t30.5 -29.5t43.5 -83.5q24 -57 31 -87.5t1.5 -41.5t-22.5 -18z" />
<glyph unicode="&#xde;" horiz-adv-x="1245" d="M627 279h-115v-222q0 -29 -12.5 -41t-53 -17t-133.5 -5t-133.5 5.5t-52.5 17t-12 40.5v1241q0 29 12 41t52.5 17.5t133.5 5.5t133.5 -5.5t53 -17.5t12.5 -41v-127h115q284 0 410 -107.5t126 -338.5t-126 -338.5t-410 -107.5zM512 836v-222h102q77 0 111.5 27.5t34.5 83.5 t-34.5 83.5t-111.5 27.5h-102z" />
<glyph unicode="&#xdf;" horiz-adv-x="1509" d="M733 606q-30 0 -38.5 23.5t-8.5 113.5t8.5 114t38.5 24q158 0 216.5 25t58.5 108q0 68 -60.5 102.5t-193.5 34.5q-70 0 -120 -10.5t-81.5 -29.5t-50 -50t-25 -66t-6.5 -84v-858q0 -27 -11.5 -38t-49.5 -16t-125 -5t-125 5t-50 16.5t-12 37.5v871q0 266 163.5 393 t496.5 127q301 0 454.5 -94.5t153.5 -280.5q0 -274 -281 -313q85 -11 148 -34.5t112 -66t74 -110.5t25 -162q0 -97 -23 -169t-74 -125.5t-137.5 -81t-208.5 -27.5q-98 0 -171 13.5t-119.5 37.5t-75 60.5t-40 78.5t-11.5 96q0 35 11 50t45.5 21.5t113.5 6.5q103 0 128 -10 t25 -47q0 -49 84 -49q52 0 73 35.5t21 103.5q0 57 -15 96.5t-53 71t-108.5 46.5t-175.5 15z" />
<glyph unicode="&#xe0;" horiz-adv-x="1110" d="M451 700q0 -28 -8 -37.5t-41 -14.5t-115 -5q-53 0 -81 1.5t-51 5t-32 13t-13 22.5t-4 36q0 75 22 131.5t72.5 101t140 67.5t216.5 23q134 0 225 -25t142.5 -76t73.5 -119.5t22 -164.5v-606q0 -27 -11.5 -38t-48.5 -16t-122 -5q-84 0 -122 5.5t-49 16.5t-12 37l-2 62 q-42 -62 -106.5 -94.5t-173.5 -32.5q-87 0 -150.5 23.5t-98.5 65t-51 90.5t-16 109q0 165 94 232t308 67h194v64q0 66 -19 90.5t-89 24.5q-94 0 -94 -54zM653 379h-137q-63 0 -88 -16.5t-25 -57.5q0 -34 22 -48.5t77 -14.5q67 0 109 29.5t42 80.5v27zM592 1124l-363 144 q-16 7 -20.5 17.5t3.5 39.5t34 82q27 53 45 77.5t30 26.5t25 -6l334 -207q24 -12 23.5 -31t-29.5 -75q-26 -54 -41 -66t-41 -2z" />
<glyph unicode="&#xe1;" horiz-adv-x="1110" d="M451 700q0 -28 -8 -37.5t-41 -14.5t-115 -5q-53 0 -81 1.5t-51 5t-32 13t-13 22.5t-4 36q0 75 22 131.5t72.5 101t140 67.5t216.5 23q134 0 225 -25t142.5 -76t73.5 -119.5t22 -164.5v-606q0 -27 -11.5 -38t-48.5 -16t-122 -5q-84 0 -122 5.5t-49 16.5t-12 37l-2 62 q-42 -62 -106.5 -94.5t-173.5 -32.5q-87 0 -150.5 23.5t-98.5 65t-51 90.5t-16 109q0 165 94 232t308 67h194v64q0 66 -19 90.5t-89 24.5q-94 0 -94 -54zM653 379h-137q-63 0 -88 -16.5t-25 -57.5q0 -34 22 -48.5t77 -14.5q67 0 109 29.5t42 80.5v27zM881 1268l-363 -144 q-26 -10 -41 2t-41 66q-29 56 -29.5 75t23.5 31l334 207q13 8 25 6t30 -26.5t45 -77.5q26 -53 34 -82t3.5 -39.5t-20.5 -17.5z" />
<glyph unicode="&#xe2;" horiz-adv-x="1110" d="M451 700q0 -28 -8 -37.5t-41 -14.5t-115 -5q-53 0 -81 1.5t-51 5t-32 13t-13 22.5t-4 36q0 75 22 131.5t72.5 101t140 67.5t216.5 23q134 0 225 -25t142.5 -76t73.5 -119.5t22 -164.5v-606q0 -27 -11.5 -38t-48.5 -16t-122 -5q-84 0 -122 5.5t-49 16.5t-12 37l-2 62 q-42 -62 -106.5 -94.5t-173.5 -32.5q-87 0 -150.5 23.5t-98.5 65t-51 90.5t-16 109q0 165 94 232t308 67h194v64q0 66 -19 90.5t-89 24.5q-94 0 -94 -54zM653 379h-137q-63 0 -88 -16.5t-25 -57.5q0 -34 22 -48.5t77 -14.5q67 0 109 29.5t42 80.5v27zM555 1262l-88 -93 q-20 -20 -30.5 -27t-36 -11.5t-74.5 -4.5q-118 0 -114 34q1 7 7 14l187 235q20 28 46 37.5t103 9.5t103.5 -9.5t46.5 -37.5l186 -235q26 -33 -42 -44q-27 -4 -65 -4q-70 0 -91.5 7.5t-49.5 35.5z" />
<glyph unicode="&#xe3;" horiz-adv-x="1110" d="M451 700q0 -28 -8 -37.5t-41 -14.5t-115 -5q-53 0 -81 1.5t-51 5t-32 13t-13 22.5t-4 36q0 75 22 131.5t72.5 101t140 67.5t216.5 23q134 0 225 -25t142.5 -76t73.5 -119.5t22 -164.5v-606q0 -27 -11.5 -38t-48.5 -16t-122 -5q-84 0 -122 5.5t-49 16.5t-12 37l-2 62 q-42 -62 -106.5 -94.5t-173.5 -32.5q-87 0 -150.5 23.5t-98.5 65t-51 90.5t-16 109q0 165 94 232t308 67h194v64q0 66 -19 90.5t-89 24.5q-94 0 -94 -54zM653 379h-137q-63 0 -88 -16.5t-25 -57.5q0 -34 22 -48.5t77 -14.5q67 0 109 29.5t42 80.5v27zM700 1360v26 q2 24 19 30.5t82 6.5q66 0 84 -7t16 -30l-4 -77q-12 -187 -188 -187q-64 0 -148 43l-88 47q-26 13 -37 13q-26 0 -26 -35v-27q-2 -24 -19 -30.5t-82 -6.5q-66 0 -84 7t-16 30l4 78q12 186 188 186q64 0 148 -43l88 -47q24 -12 37 -12q26 0 26 35z" />
<glyph unicode="&#xe4;" horiz-adv-x="1110" d="M451 700q0 -28 -8 -37.5t-41 -14.5t-115 -5q-53 0 -81 1.5t-51 5t-32 13t-13 22.5t-4 36q0 75 22 131.5t72.5 101t140 67.5t216.5 23q134 0 225 -25t142.5 -76t73.5 -119.5t22 -164.5v-606q0 -27 -11.5 -38t-48.5 -16t-122 -5q-84 0 -122 5.5t-49 16.5t-12 37l-2 62 q-42 -62 -106.5 -94.5t-173.5 -32.5q-87 0 -150.5 23.5t-98.5 65t-51 90.5t-16 109q0 165 94 232t308 67h194v64q0 66 -19 90.5t-89 24.5q-94 0 -94 -54zM653 379h-137q-63 0 -88 -16.5t-25 -57.5q0 -34 22 -48.5t77 -14.5q67 0 109 29.5t42 80.5v27zM324 1415 q112 0 143 -14.5t31 -69.5v-114q0 -55 -31 -69.5t-143 -14.5t-143 14.5t-31 69.5v114q0 55 31 69.5t143 14.5zM786 1415q112 0 143.5 -14.5t31.5 -69.5v-114q0 -55 -31.5 -69.5t-143.5 -14.5t-143 14.5t-31 69.5v114q0 55 31 69.5t143 14.5z" />
<glyph unicode="&#xe5;" horiz-adv-x="1110" d="M451 700q0 -28 -8 -37.5t-41 -14.5t-115 -5q-53 0 -81 1.5t-51 5t-32 13t-13 22.5t-4 36q0 75 22 131.5t72.5 101t140 67.5t216.5 23q134 0 225 -25t142.5 -76t73.5 -119.5t22 -164.5v-606q0 -27 -11.5 -38t-48.5 -16t-122 -5q-84 0 -122 5.5t-49 16.5t-12 37l-2 62 q-42 -62 -106.5 -94.5t-173.5 -32.5q-87 0 -150.5 23.5t-98.5 65t-51 90.5t-16 109q0 165 94 232t308 67h194v64q0 66 -19 90.5t-89 24.5q-94 0 -94 -54zM653 379h-137q-63 0 -88 -16.5t-25 -57.5q0 -34 22 -48.5t77 -14.5q67 0 109 29.5t42 80.5v27zM555 1522 q217 0 217 -201t-217 -201t-217 201t217 201zM555 1255q70 0 70 66q0 65 -70 65t-70 -65q0 -66 70 -66z" />
<glyph unicode="&#xe6;" horiz-adv-x="1716" d="M1587 422h-540q9 -93 42 -128.5t103 -35.5q45 0 69.5 14.5t26.5 38.5q2 27 9.5 37t41 15.5t113.5 5.5q54 0 82 -1.5t51 -5t31 -13t12 -22.5t4 -36q0 -58 -26 -112t-76.5 -99.5t-136 -72.5t-193.5 -27q-230 0 -358 141q-76 -67 -183.5 -102t-224.5 -35q-377 0 -377 307 q0 161 95.5 228t300.5 67h188v53q0 36 -2 52.5t-11.5 34t-30.5 23t-58 5.5q-51 0 -69.5 -13.5t-18.5 -40.5q0 -28 -8 -37.5t-41 -14.5t-115 -5q-53 0 -81 1.5t-51 5t-32 13t-13 22.5t-4 36q0 75 21 131.5t69.5 101t135.5 67.5t211 23q227 0 334 -104q125 104 331 104 q208 0 323.5 -127.5t115.5 -345.5v-57q0 -54 -11 -73t-49 -19zM1184 766q-70 0 -101 -38t-39 -122h250v35q0 60 -23 92.5t-87 32.5zM641 401h-131q-56 0 -81.5 -18t-25.5 -64q0 -41 22.5 -61t76.5 -20q66 0 102.5 30.5t36.5 83.5v49z" />
<glyph unicode="&#xe7;" horiz-adv-x="1093" d="M586 -78h10q57 0 93 -6t67 -24.5t45 -55t14 -94.5q0 -63 -14.5 -103t-46 -61t-70 -28.5t-98.5 -8.5h-217q-17 0 -21 12.5t-4 69.5t4 69.5t21 12.5h198q34 0 46 7.5t12 29.5q0 20 -12 27.5t-46 7.5h-112q-49 0 -63.5 9t-8.5 32l53 174q-185 31 -273.5 159t-88.5 361 q0 273 120 402.5t377 129.5q103 0 181.5 -19t127.5 -50.5t80 -78.5t43.5 -96.5t14.5 -111.5q1 -53 -32.5 -65.5t-164.5 -12.5q-71 0 -104.5 7t-43 20t-11.5 41t-20.5 41.5t-66.5 13.5q-70 0 -95 -47.5t-25 -173.5q0 -125 27.5 -173t97.5 -48q50 0 68.5 15t21.5 48 q2 28 11.5 41t43 20t104.5 7q131 0 164.5 -12.5t32.5 -65.5q-8 -354 -428 -364z" />
<glyph unicode="&#xe8;" horiz-adv-x="1116" d="M987 434h-543q7 -99 41.5 -137.5t106.5 -38.5q45 0 69.5 14.5t26.5 38.5q2 27 9.5 37t41 15.5t113.5 5.5q54 0 82 -1.5t51 -5t31 -13t12 -22.5t4 -36q0 -59 -24.5 -112.5t-74.5 -99t-139 -72.5t-206 -27q-262 0 -388 130t-126 402q0 274 120.5 403t383.5 129 q236 0 352.5 -125t116.5 -348v-45q0 -54 -11 -73t-49 -19zM594 1124l-363 144q-16 7 -20.5 17.5t3.5 39.5t34 82q27 53 45 77.5t30 26.5t25 -6l334 -207q24 -12 23.5 -31t-29.5 -75q-26 -54 -41 -66t-41 -2zM584 766q-67 0 -98.5 -35.5t-39.5 -112.5h248v23q0 60 -23 92.5 t-87 32.5z" />
<glyph unicode="&#xe9;" horiz-adv-x="1116" d="M987 434h-543q7 -99 41.5 -137.5t106.5 -38.5q45 0 69.5 14.5t26.5 38.5q2 27 9.5 37t41 15.5t113.5 5.5q54 0 82 -1.5t51 -5t31 -13t12 -22.5t4 -36q0 -59 -24.5 -112.5t-74.5 -99t-139 -72.5t-206 -27q-262 0 -388 130t-126 402q0 274 120.5 403t383.5 129 q236 0 352.5 -125t116.5 -348v-45q0 -54 -11 -73t-49 -19zM883 1268l-363 -144q-26 -10 -41 2t-41 66q-29 56 -29.5 75t23.5 31l334 207q13 8 25 6t30 -26.5t45 -77.5q26 -53 34 -82t3.5 -39.5t-20.5 -17.5zM584 766q-67 0 -98.5 -35.5t-39.5 -112.5h248v23q0 60 -23 92.5 t-87 32.5z" />
<glyph unicode="&#xea;" horiz-adv-x="1116" d="M987 434h-543q7 -99 41.5 -137.5t106.5 -38.5q45 0 69.5 14.5t26.5 38.5q2 27 9.5 37t41 15.5t113.5 5.5q54 0 82 -1.5t51 -5t31 -13t12 -22.5t4 -36q0 -59 -24.5 -112.5t-74.5 -99t-139 -72.5t-206 -27q-262 0 -388 130t-126 402q0 274 120.5 403t383.5 129 q236 0 352.5 -125t116.5 -348v-45q0 -54 -11 -73t-49 -19zM557 1262l-88 -93q-20 -20 -30.5 -27t-36 -11.5t-74.5 -4.5q-118 0 -114 34q1 7 7 14l187 235q20 28 46 37.5t103 9.5t103.5 -9.5t46.5 -37.5l186 -235q26 -33 -42 -44q-27 -4 -65 -4q-70 0 -91.5 7.5t-49.5 35.5z M584 766q-67 0 -98.5 -35.5t-39.5 -112.5h248v23q0 60 -23 92.5t-87 32.5z" />
<glyph unicode="&#xeb;" horiz-adv-x="1116" d="M987 434h-543q7 -99 41.5 -137.5t106.5 -38.5q45 0 69.5 14.5t26.5 38.5q2 27 9.5 37t41 15.5t113.5 5.5q54 0 82 -1.5t51 -5t31 -13t12 -22.5t4 -36q0 -59 -24.5 -112.5t-74.5 -99t-139 -72.5t-206 -27q-262 0 -388 130t-126 402q0 274 120.5 403t383.5 129 q236 0 352.5 -125t116.5 -348v-45q0 -54 -11 -73t-49 -19zM788 1415q112 0 143.5 -14.5t31.5 -69.5v-114q0 -55 -31.5 -69.5t-143.5 -14.5t-143 14.5t-31 69.5v114q0 55 31 69.5t143 14.5zM326 1415q112 0 143 -14.5t31 -69.5v-114q0 -55 -31 -69.5t-143 -14.5t-143 14.5 t-31 69.5v114q0 55 31 69.5t143 14.5zM584 766q-67 0 -98.5 -35.5t-39.5 -112.5h248v23q0 60 -23 92.5t-87 32.5z" />
<glyph unicode="&#xec;" horiz-adv-x="569" d="M98 53v918q0 26 12 37.5t50 16.5t125 5t125 -5t49.5 -16t11.5 -38v-918q0 -27 -11.5 -38t-49.5 -16t-125 -5t-125 5t-50 16.5t-12 37.5zM301 1124l-362 144q-16 7 -21 17.5t3 39.5t34 82q27 53 45 77.5t30 26.5t25 -6l334 -207q24 -12 23.5 -31t-29.5 -75 q-26 -54 -41 -66t-41 -2z" />
<glyph unicode="&#xed;" horiz-adv-x="569" d="M98 53v918q0 26 12 37.5t50 16.5t125 5t125 -5t49.5 -16t11.5 -38v-918q0 -27 -11.5 -38t-49.5 -16t-125 -5t-125 5t-50 16.5t-12 37.5zM631 1268l-363 -144q-26 -10 -41 2t-41 66q-29 56 -29.5 75t23.5 31l334 207q13 8 25 6t30 -26.5t45 -77.5q26 -53 34 -82t3.5 -39.5 t-20.5 -17.5z" />
<glyph unicode="&#xee;" horiz-adv-x="569" d="M98 53v918q0 26 12 37.5t50 16.5t125 5t125 -5t49.5 -16t11.5 -38v-918q0 -27 -11.5 -38t-49.5 -16t-125 -5t-125 5t-50 16.5t-12 37.5zM285 1262l-88 -93q-27 -27 -49.5 -35t-92.5 -8q-117 0 -113 34q1 7 7 14l186 235q20 28 46.5 37.5t103.5 9.5t103 -9.5t46 -37.5 l187 -235q26 -33 -42 -44q-27 -4 -65 -4q-70 0 -91.5 7.5t-49.5 35.5z" />
<glyph unicode="&#xef;" horiz-adv-x="569" d="M98 53v918q0 26 12 37.5t50 16.5t125 5t125 -5t49.5 -16t11.5 -38v-918q0 -27 -11.5 -38t-49.5 -16t-125 -5t-125 5t-50 16.5t-12 37.5zM53 1415q112 0 143 -14.5t31 -69.5v-114q0 -55 -31 -69.5t-143 -14.5t-143 14.5t-31 69.5v114q0 55 31 69.5t143 14.5zM516 1415 q112 0 143 -14.5t31 -69.5v-114q0 -55 -31 -69.5t-143 -14.5t-143 14.5t-31 69.5v114q0 55 31 69.5t143 14.5z" />
<glyph unicode="&#xf0;" horiz-adv-x="1089" d="M967 1229l-86 -47q76 -122 103.5 -292t27.5 -386q0 -284 -112.5 -404t-358.5 -120q-241 0 -354 116.5t-113 364.5t113 364.5t354 116.5q53 0 100 -6q-9 60 -29 104l-118 -63q-20 -10 -31 -2t-33 49q-17 31 -22.5 46t-2 25.5t20.5 18.5l70 37q-63 18 -123 18 q-19 0 -26.5 8.5t-10 33.5t-2.5 87q0 91 6 110t39 19q253 0 399 -124l119 63q20 9 30.5 -0.5t33.5 -50.5q13 -24 18.5 -35.5t7 -22.5t-3.5 -16.5t-16 -11.5zM541 266q62 0 84 42.5t22 152.5q0 109 -22 151.5t-84 42.5t-84.5 -42.5t-22.5 -151.5t22.5 -152t84.5 -43z" />
<glyph unicode="&#xf1;" horiz-adv-x="1196" d="M459 971l4 -70q36 60 110.5 101.5t188.5 41.5q178 0 259 -89.5t81 -282.5v-619q0 -26 -12 -37.5t-50 -16.5t-125 -5t-125 5t-49.5 16t-11.5 38v549q0 68 -26.5 95.5t-88.5 27.5q-147 0 -147 -147v-525q0 -27 -11.5 -38t-49.5 -16t-125 -5t-125 5t-50 16.5t-12 37.5v918 q0 27 11.5 38t48.5 16t122 5q84 0 122 -5.5t49 -16.5t12 -37zM743 1360v26q2 24 19 30.5t82 6.5q66 0 84 -7t16 -30l-4 -77q-12 -187 -188 -187q-64 0 -148 43l-88 47q-26 13 -37 13q-26 0 -26 -35v-27q-2 -24 -19 -30.5t-82 -6.5q-66 0 -84 7t-16 30l4 78q12 186 188 186 q64 0 148 -43l88 -47q24 -12 37 -12q26 0 26 35z" />
<glyph unicode="&#xf2;" horiz-adv-x="1159" d="M580 1044q264 0 384.5 -129t120.5 -403t-120.5 -403t-384.5 -129t-385 129.5t-121 402.5t121 402.5t385 129.5zM580 279q74 0 100.5 51.5t26.5 181.5t-26.5 181.5t-100.5 51.5t-100.5 -51.5t-26.5 -181.5t26.5 -181.5t100.5 -51.5zM616 1124l-362 144q-16 7 -21 17.5 t3 39.5t34 82q27 53 45.5 77.5t30.5 26.5t25 -6l334 -207q24 -13 23 -31.5t-30 -74.5q-26 -54 -41 -66t-41 -2z" />
<glyph unicode="&#xf3;" horiz-adv-x="1159" d="M580 1044q264 0 384.5 -129t120.5 -403t-120.5 -403t-384.5 -129t-385 129.5t-121 402.5t121 402.5t385 129.5zM580 279q74 0 100.5 51.5t26.5 181.5t-26.5 181.5t-100.5 51.5t-100.5 -51.5t-26.5 -181.5t26.5 -181.5t100.5 -51.5zM905 1268l-362 -144q-26 -10 -41 2 t-41 66q-29 56 -29.5 75t23.5 31l333 207q13 8 25 6t30.5 -26.5t45.5 -77.5q26 -53 34 -82t3 -39.5t-21 -17.5z" />
<glyph unicode="&#xf4;" horiz-adv-x="1159" d="M580 1044q264 0 384.5 -129t120.5 -403t-120.5 -403t-384.5 -129t-385 129.5t-121 402.5t121 402.5t385 129.5zM580 279q74 0 100.5 51.5t26.5 181.5t-26.5 181.5t-100.5 51.5t-100.5 -51.5t-26.5 -181.5t26.5 -181.5t100.5 -51.5zM580 1262l-88 -93q-27 -27 -49.5 -35 t-92.5 -8q-117 0 -113 34q1 7 7 14l186 235q20 28 46.5 37.5t103.5 9.5t103 -9.5t46 -37.5l186 -235q27 -34 -44 -44q-25 -4 -62 -4q-70 0 -91.5 7.5t-49.5 35.5z" />
<glyph unicode="&#xf5;" horiz-adv-x="1159" d="M580 1044q264 0 384.5 -129t120.5 -403t-120.5 -403t-384.5 -129t-385 129.5t-121 402.5t121 402.5t385 129.5zM580 279q74 0 100.5 51.5t26.5 181.5t-26.5 181.5t-100.5 51.5t-100.5 -51.5t-26.5 -181.5t26.5 -181.5t100.5 -51.5zM725 1360v26q2 24 18.5 30.5t81.5 6.5 q66 0 84.5 -7t16.5 -30l-4 -77q-12 -187 -189 -187q-63 0 -147 43l-88 47q-26 13 -37 13q-27 0 -27 -35v-27q-2 -24 -18.5 -30.5t-81.5 -6.5q-66 0 -84.5 7t-16.5 30l5 78q12 186 188 186q63 0 147 -43l89 -47q24 -12 36 -12q27 0 27 35z" />
<glyph unicode="&#xf6;" horiz-adv-x="1159" d="M580 1044q264 0 384.5 -129t120.5 -403t-120.5 -403t-384.5 -129t-385 129.5t-121 402.5t121 402.5t385 129.5zM580 279q74 0 100.5 51.5t26.5 181.5t-26.5 181.5t-100.5 51.5t-100.5 -51.5t-26.5 -181.5t26.5 -181.5t100.5 -51.5zM348 1415q112 0 143 -14.5t31 -69.5 v-114q0 -55 -31 -69.5t-143 -14.5t-143 14.5t-31 69.5v114q0 55 31 69.5t143 14.5zM811 1415q112 0 143 -14.5t31 -69.5v-114q0 -55 -31 -69.5t-143 -14.5t-143 14.5t-31 69.5v114q0 55 31 69.5t143 14.5z" />
<glyph unicode="&#xf7;" horiz-adv-x="1187" d="M174 791h840q23 0 33 -10t14 -40t4 -100q0 -69 -4 -99.5t-14 -40t-33 -9.5h-840q-23 0 -33 9.5t-14 40t-4 99.5q0 70 4 100t14 40t33 10zM594 -8q-92 0 -132 5t-52.5 17t-12.5 41v271q0 29 12.5 41t52.5 17t132 5t132 -5t52.5 -17t12.5 -41v-271q0 -29 -12.5 -41 t-52.5 -17t-132 -5zM594 893q-92 0 -132 5t-52.5 17t-12.5 41v271q0 29 12.5 41t52.5 17t132 5t132 -5t52.5 -17t12.5 -41v-271q0 -29 -12.5 -41t-52.5 -17t-132 -5z" />
<glyph unicode="&#xf8;" horiz-adv-x="1167" d="M584 1044q90 0 172 -16l8 14q13 24 35.5 31.5t101.5 7.5q111 0 113 -26q1 -6 -4 -15l-60 -108q140 -128 140 -420q0 -273 -121 -402.5t-385 -129.5q-92 0 -158 14l-23 -41q-13 -24 -35.5 -31.5t-101.5 -7.5q-110 0 -112 26q0 7 4 15l69 125q-149 126 -149 432 q0 273 121 402.5t385 129.5zM457 512q0 -53 2 -76l168 303q-18 6 -43 6q-74 0 -100.5 -51.5t-26.5 -181.5zM584 279q74 0 100.5 51.5t26.5 181.5q0 35 -2 51l-156 -282q8 -2 31 -2z" />
<glyph unicode="&#xf9;" d="M713 53l-4 70q-86 -143 -287 -143q-175 0 -255.5 96.5t-80.5 292.5v602q0 27 11.5 38t49.5 16t125 5t125 -5t50 -16.5t12 -37.5v-547q0 -68 25.5 -96.5t88.5 -28.5q72 0 102 34t30 109v529q0 27 11.5 38t49.5 16t125 5t125 -5t49.5 -16t11.5 -38v-918q0 -27 -11.5 -38 t-48.5 -16t-122 -5q-84 0 -121.5 5.5t-48.5 16.5t-12 37zM561 1124l-362 144q-16 7 -21 17.5t3 39.5t34 82q27 53 45 77.5t30 26.5t25 -6l334 -207q24 -12 23.5 -31t-29.5 -75q-26 -54 -41 -66t-41 -2z" />
<glyph unicode="&#xfa;" d="M713 53l-4 70q-86 -143 -287 -143q-175 0 -255.5 96.5t-80.5 292.5v602q0 27 11.5 38t49.5 16t125 5t125 -5t50 -16.5t12 -37.5v-547q0 -68 25.5 -96.5t88.5 -28.5q72 0 102 34t30 109v529q0 27 11.5 38t49.5 16t125 5t125 -5t49.5 -16t11.5 -38v-918q0 -27 -11.5 -38 t-48.5 -16t-122 -5q-84 0 -121.5 5.5t-48.5 16.5t-12 37zM973 1268l-363 -144q-26 -10 -41 2t-41 66q-29 56 -29.5 75t23.5 31l334 207q13 8 25 6t30 -26.5t45 -77.5q26 -53 34 -82t3.5 -39.5t-20.5 -17.5z" />
<glyph unicode="&#xfb;" d="M713 53l-4 70q-86 -143 -287 -143q-175 0 -255.5 96.5t-80.5 292.5v602q0 27 11.5 38t49.5 16t125 5t125 -5t50 -16.5t12 -37.5v-547q0 -68 25.5 -96.5t88.5 -28.5q72 0 102 34t30 109v529q0 27 11.5 38t49.5 16t125 5t125 -5t49.5 -16t11.5 -38v-918q0 -27 -11.5 -38 t-48.5 -16t-122 -5q-84 0 -121.5 5.5t-48.5 16.5t-12 37zM586 1262l-88 -93q-27 -27 -49.5 -35t-92.5 -8q-117 0 -113 34q1 7 7 14l186 235q20 28 46.5 37.5t103.5 9.5t103 -9.5t46 -37.5l187 -235q26 -33 -42 -44q-27 -4 -65 -4q-70 0 -91.5 7.5t-49.5 35.5z" />
<glyph unicode="&#xfc;" d="M713 53l-4 70q-86 -143 -287 -143q-175 0 -255.5 96.5t-80.5 292.5v602q0 27 11.5 38t49.5 16t125 5t125 -5t50 -16.5t12 -37.5v-547q0 -68 25.5 -96.5t88.5 -28.5q72 0 102 34t30 109v529q0 27 11.5 38t49.5 16t125 5t125 -5t49.5 -16t11.5 -38v-918q0 -27 -11.5 -38 t-48.5 -16t-122 -5q-84 0 -121.5 5.5t-48.5 16.5t-12 37zM354 1415q112 0 143 -14.5t31 -69.5v-114q0 -55 -31 -69.5t-143 -14.5t-143 14.5t-31 69.5v114q0 55 31 69.5t143 14.5zM817 1415q112 0 143 -14.5t31 -69.5v-114q0 -55 -31 -69.5t-143 -14.5t-143 14.5t-31 69.5 v114q0 55 31 69.5t143 14.5z" />
<glyph unicode="&#xfd;" horiz-adv-x="1134" d="M326 -68q65 0 91 18t44 68q-51 6 -72.5 18.5t-32.5 37.5q-75 164 -177.5 445t-145.5 439q-6 20 -2 33.5t25 22t61.5 12.5t109.5 4q104 0 137 -9t39 -40q71 -291 168 -604q108 368 156 604q6 31 39 40t137 9q91 0 135.5 -7.5t57 -22t6.5 -42.5q-40 -161 -139.5 -475.5 t-202.5 -605.5q-32 -94 -77.5 -150t-125.5 -86t-203 -30q-83 0 -139 18q-37 11 -49 38t-12 114q0 74 6.5 108.5t18 43t36.5 8.5q14 0 48.5 -4.5t62.5 -4.5zM791 1268l-363 -144q-26 -10 -41 2t-41 66q-29 56 -29.5 75t23.5 31l334 207q13 8 25 6t30 -26.5t45 -77.5 q26 -53 34 -82t3.5 -39.5t-20.5 -17.5z" />
<glyph unicode="&#xfe;" horiz-adv-x="1212" d="M471 1364v-451q88 131 279 131t288 -125t97 -407t-97 -407t-288 -125q-192 0 -279 118v-413q0 -27 -11.5 -38t-50 -16.5t-124.5 -5.5q-87 0 -125.5 5.5t-50 16.5t-11.5 38v1679q0 26 12 37.5t50 16.5t125 5t125 -5t49.5 -16t11.5 -38zM471 512q0 -126 32.5 -177.5 t114.5 -51.5q75 0 105.5 51.5t30.5 177.5t-30.5 177.5t-105.5 51.5q-82 0 -114.5 -51.5t-32.5 -177.5z" />
<glyph unicode="&#xff;" horiz-adv-x="1134" d="M326 -68q65 0 91 18t44 68q-51 6 -72.5 18.5t-32.5 37.5q-75 164 -177.5 445t-145.5 439q-6 20 -2 33.5t25 22t61.5 12.5t109.5 4q104 0 137 -9t39 -40q71 -291 168 -604q108 368 156 604q6 31 39 40t137 9q91 0 135.5 -7.5t57 -22t6.5 -42.5q-40 -161 -139.5 -475.5 t-202.5 -605.5q-32 -94 -77.5 -150t-125.5 -86t-203 -30q-83 0 -139 18q-37 11 -49 38t-12 114q0 74 6.5 108.5t18 43t36.5 8.5q14 0 48.5 -4.5t62.5 -4.5zM799 1415q112 0 143 -14.5t31 -69.5v-114q0 -55 -31 -69.5t-143 -14.5t-143 14.5t-31 69.5v114q0 55 31 69.5 t143 14.5zM336 1415q112 0 143 -14.5t31 -69.5v-114q0 -55 -31 -69.5t-143 -14.5t-143 14.5t-31 69.5v114q0 55 31 69.5t143 14.5z" />
<glyph unicode="&#x152;" horiz-adv-x="1773" d="M1624 1020h-457v-162h377q25 0 35 -9.5t15 -44t5 -112.5t-5 -112.5t-15 -44t-35 -9.5h-377v-190h469q25 0 35.5 -10t15.5 -45t5 -113t-5 -113t-15.5 -45t-35.5 -10h-950q-318 0 -461 159.5t-143 518.5t143 518.5t461 159.5h938q24 0 34.5 -10t15.5 -45t5 -113t-5 -113 t-15.5 -45t-34.5 -10zM686 344h105v668h-105q-103 0 -151 -76.5t-48 -257.5t48 -257.5t151 -76.5z" />
<glyph unicode="&#x153;" horiz-adv-x="1728" d="M1599 434h-542q7 -99 41 -137.5t106 -38.5q45 0 69.5 14.5t26.5 38.5q2 27 9.5 37t41 15.5t113.5 5.5q123 0 152 -12t29 -66q0 -58 -26 -112t-77 -99.5t-136.5 -72.5t-193.5 -27q-204 0 -325 108q-114 -108 -330 -108q-237 0 -360 132t-123 400q0 273 117 402.5 t366 129.5q206 0 324 -112q122 112 340 112q208 0 323 -127.5t115 -345.5v-45q0 -54 -11 -73t-49 -19zM580 279q74 0 100.5 51.5t26.5 181.5t-26.5 181.5t-100.5 51.5t-100.5 -51.5t-26.5 -181.5t26.5 -181.5t100.5 -51.5zM1196 766q-67 0 -98 -35.5t-39 -112.5h248v23 q0 60 -23.5 92.5t-87.5 32.5z" />
<glyph unicode="&#x178;" horiz-adv-x="1282" d="M827 1296q10 29 29 42t63 18.5t138 5.5q69 0 108 -3.5t60 -12t22.5 -22t-6.5 -34.5q-57 -138 -182.5 -392.5t-218.5 -412.5v-430q0 -29 -12.5 -41t-53 -17t-133.5 -5t-133.5 5t-53 17t-12.5 41v430q-93 158 -218.5 412.5t-182.5 392.5q-8 21 -6.5 34.5t22.5 22t60 12 t108 3.5q94 0 138 -5.5t63 -18.5t29 -42q59 -177 186 -462q113 253 186 462zM406 1735q112 0 143 -14.5t31 -69.5v-115q0 -55 -31 -69.5t-143 -14.5t-143.5 14.5t-31.5 69.5v115q0 55 31.5 69.5t143.5 14.5zM877 1735q112 0 143 -14.5t31 -69.5v-115q0 -55 -31 -69.5 t-143 -14.5t-143.5 14.5t-31.5 69.5v115q0 55 31.5 69.5t143.5 14.5z" />
<glyph unicode="&#x2c6;" horiz-adv-x="819" d="M410 1262l-88 -93q-27 -27 -49.5 -35t-92.5 -8q-117 0 -113 34q1 7 7 14l186 235q20 28 46.5 37.5t103.5 9.5t103 -9.5t46 -37.5l186 -235q27 -34 -44 -44q-25 -4 -62 -4q-70 0 -91.5 7.5t-49.5 35.5z" />
<glyph unicode="&#x2dc;" horiz-adv-x="819" d="M555 1360v26q2 24 18.5 30.5t81.5 6.5q66 0 84.5 -7t16.5 -30l-4 -77q-12 -187 -189 -187q-63 0 -147 43l-88 47q-26 13 -37 13q-27 0 -27 -35v-27q-2 -24 -18.5 -30.5t-81.5 -6.5q-66 0 -84.5 7t-16.5 30l5 78q12 186 188 186q63 0 147 -43l89 -47q24 -12 36 -12 q27 0 27 35z" />
<glyph unicode="&#x2000;" horiz-adv-x="918" />
<glyph unicode="&#x2001;" horiz-adv-x="1837" />
<glyph unicode="&#x2002;" horiz-adv-x="918" />
<glyph unicode="&#x2003;" horiz-adv-x="1837" />
<glyph unicode="&#x2004;" horiz-adv-x="612" />
<glyph unicode="&#x2005;" horiz-adv-x="459" />
<glyph unicode="&#x2006;" horiz-adv-x="306" />
<glyph unicode="&#x2007;" horiz-adv-x="306" />
<glyph unicode="&#x2008;" horiz-adv-x="229" />
<glyph unicode="&#x2009;" horiz-adv-x="367" />
<glyph unicode="&#x200a;" horiz-adv-x="102" />
<glyph unicode="&#x2010;" horiz-adv-x="856" d="M135 717h586q23 0 33.5 -10t15 -42t4.5 -104t-4.5 -104t-15 -41.5t-33.5 -9.5h-586q-23 0 -33.5 9.5t-15 41.5t-4.5 104t4.5 104t15 42t33.5 10z" />
<glyph unicode="&#x2011;" horiz-adv-x="856" d="M135 717h586q23 0 33.5 -10t15 -42t4.5 -104t-4.5 -104t-15 -41.5t-33.5 -9.5h-586q-23 0 -33.5 9.5t-15 41.5t-4.5 104t4.5 104t15 42t33.5 10z" />
<glyph unicode="&#x2012;" horiz-adv-x="856" d="M135 717h586q23 0 33.5 -10t15 -42t4.5 -104t-4.5 -104t-15 -41.5t-33.5 -9.5h-586q-23 0 -33.5 9.5t-15 41.5t-4.5 104t4.5 104t15 42t33.5 10z" />
<glyph unicode="&#x2013;" horiz-adv-x="1122" d="M135 717h852q23 0 33.5 -10t15 -42t4.5 -104t-4.5 -104t-15 -41.5t-33.5 -9.5h-852q-23 0 -33.5 9.5t-15 41.5t-4.5 104t4.5 104t15 42t33.5 10z" />
<glyph unicode="&#x2014;" horiz-adv-x="1552" d="M135 717h1282q23 0 33.5 -10t15 -42t4.5 -104t-4.5 -104t-15 -41.5t-33.5 -9.5h-1282q-23 0 -33.5 9.5t-15 41.5t-4.5 104t4.5 104t15 42t33.5 10z" />
<glyph unicode="&#x2018;" horiz-adv-x="471" d="M360 1042v-71q0 -29 -25 -39t-114 -10t-114 10t-25 39v80q0 257 258 370q25 11 42.5 -1t41.5 -62q27 -60 26.5 -77t-24.5 -36q-66 -52 -66 -203z" />
<glyph unicode="&#x2019;" horiz-adv-x="471" d="M111 1300v72q0 29 25 39t114 10t114 -10t25 -39v-80q0 -257 -258 -370q-25 -11 -42.5 1t-41.5 62q-27 60 -26.5 77t24.5 36q66 52 66 202z" />
<glyph unicode="&#x201a;" horiz-adv-x="471" d="M111 115v71q0 20 9 30t39 15t91 5t91 -5t39 -15t9 -30v-80q0 -257 -258 -370q-25 -11 -42.5 1t-41.5 62q-27 60 -26.5 77t24.5 36q66 52 66 203z" />
<glyph unicode="&#x201c;" horiz-adv-x="888" d="M360 1042v-71q0 -29 -25 -39t-114 -10t-114 10t-25 39v80q0 257 258 370q25 11 42.5 -1t41.5 -62q27 -60 26.5 -77t-24.5 -36q-66 -52 -66 -203zM778 1042v-71q0 -29 -25 -39t-114 -10t-114 10t-25 39v80q0 257 258 370q25 11 42.5 -1t41.5 -62q27 -60 26.5 -77 t-24.5 -36q-66 -52 -66 -203z" />
<glyph unicode="&#x201d;" horiz-adv-x="888" d="M111 1300v72q0 29 25 39t114 10t114 -10t25 -39v-80q0 -257 -258 -370q-25 -11 -42.5 1t-41.5 62q-27 60 -26.5 77t24.5 36q66 52 66 202zM528 1300v72q0 29 25.5 39t114.5 10t114 -10t25 -39v-80q0 -257 -258 -370q-25 -11 -42.5 1t-41.5 62q-27 60 -26.5 77t24.5 36 q65 52 65 202z" />
<glyph unicode="&#x201e;" horiz-adv-x="888" d="M111 115v71q0 20 9 30t39 15t91 5t91 -5t39 -15t9 -30v-80q0 -257 -258 -370q-25 -11 -42.5 1t-41.5 62q-27 60 -26.5 77t24.5 36q66 52 66 203zM528 115v71q0 20 9.5 30t39.5 15t91 5t91 -5t39 -15t9 -30v-80q0 -257 -258 -370q-25 -11 -42.5 1t-41.5 62 q-27 60 -26.5 77t24.5 36q65 52 65 203z" />
<glyph unicode="&#x2022;" horiz-adv-x="778" d="M389 287q-91 0 -143 10.5t-85 43.5t-44 85t-11 143q0 61 4.5 102.5t17.5 74.5t32 52t52 32t74.5 17.5t102.5 4.5t102.5 -4.5t74.5 -17.5t52 -32t32 -52t17.5 -74.5t4.5 -102.5q0 -91 -11 -143t-44 -85t-85 -43.5t-143 -10.5z" />
<glyph unicode="&#x2026;" horiz-adv-x="1695" d="M283 -6q-93 0 -133.5 5t-54 17.5t-13.5 40.5v279q0 28 13.5 40.5t54 17.5t133.5 5t133.5 -5t53.5 -17.5t13 -40.5v-279q0 -28 -13 -40.5t-53.5 -17.5t-133.5 -5zM848 -6q-93 0 -133.5 5t-54 17.5t-13.5 40.5v279q0 28 13.5 40.5t54 17.5t133.5 5t133.5 -5t54 -17.5 t13.5 -40.5v-279q0 -28 -13.5 -40.5t-54 -17.5t-133.5 -5zM1413 -6q-93 0 -133.5 5t-54 17.5t-13.5 40.5v279q0 28 13.5 40.5t54 17.5t133.5 5t133.5 -5t54 -17.5t13.5 -40.5v-279q0 -28 -13.5 -40.5t-54 -17.5t-133.5 -5z" />
<glyph unicode="&#x202f;" horiz-adv-x="367" />
<glyph unicode="&#x2039;" horiz-adv-x="737" d="M74 569q0 52 24 86l158 238q23 33 62 42t151 9q169 0 169 -39q0 -9 -7 -20l-215 -316l215 -315q27 -41 -52 -53q-40 -6 -110 -6q-112 0 -151 9t-62 42l-158 237q-24 34 -24 86z" />
<glyph unicode="&#x203a;" horiz-adv-x="737" d="M664 569q0 -50 -25 -86l-158 -237q-23 -33 -62 -42t-151 -9q-169 0 -169 39q0 9 7 20l216 315l-216 316q-27 41 52 53q40 6 110 6q112 0 151 -9t62 -42l158 -238q25 -36 25 -86z" />
<glyph unicode="&#x205f;" horiz-adv-x="459" />
<glyph unicode="&#x20ac;" horiz-adv-x="1343" d="M698 430h-129q21 -63 61.5 -88t108.5 -25q134 0 144 101q3 29 16.5 42.5t51.5 20t118 6.5q121 0 156.5 -14.5t34.5 -69.5q-5 -205 -137.5 -314t-389.5 -109q-251 0 -387.5 108t-177.5 342h-102q-21 0 -27 18t-6 87t6 86.5t27 17.5h84v39v39h-84q-21 0 -27 17.5t-6 86.5 t6 87t27 18h102q41 233 177.5 341.5t387.5 108.5q256 0 389 -109.5t138 -314.5q1 -55 -34.5 -69.5t-156.5 -14.5q-80 0 -118 6.5t-51.5 20t-16.5 43.5q-10 100 -144 100q-68 0 -108.5 -25.5t-61.5 -86.5h187q21 0 26.5 -18t5.5 -87t-5.5 -86.5t-26.5 -17.5h-213v-39v-39h155 q21 0 27 -17.5t6 -86.5t-6 -87t-27 -18z" />
<glyph unicode="&#x2122;" horiz-adv-x="1814" d="M977 1358q99 0 131.5 -7t38.5 -30l110 -344l111 344q6 23 38.5 30t131.5 7q79 0 116.5 -3.5t51.5 -12t14 -25.5v-719q0 -24 -21 -31.5t-102 -7.5q-56 0 -81.5 3.5t-33 11t-7.5 24.5v432l-105 -338q-4 -17 -28.5 -23.5t-84.5 -6.5t-83.5 6.5t-28.5 23.5l-105 338v-432 q0 -17 -7.5 -24.5t-33 -11t-81.5 -3.5q-81 0 -102 7.5t-21 31.5v719q0 17 14 25.5t51.5 12t116.5 3.5zM649 1139h-162v-541q0 -24 -22 -31.5t-103 -7.5t-102.5 7.5t-21.5 31.5v541h-154q-23 0 -29 19t-6 89t6 89.5t29 19.5h565q23 0 29 -19.5t6 -89.5t-6 -89t-29 -19z" />
<glyph unicode="&#x25fc;" horiz-adv-x="1034" d="M0 1034h1034v-1034h-1034v1034z" />
</font>
</defs>
</svg>
